<svg xmlns="http://www.w3.org/2000/svg" version="1.1" xmlns:xlink="http://www.w3.org/1999/xlink" width="32" height="32"><svg width="32" height="32" viewBox="0 0 32 32" fill="none" xmlns="http://www.w3.org/2000/svg">
<rect width="32" height="32" fill="#E53009"></rect>
<g clip-path="url(#clip0_94_665)">
<path d="M11.3637 26.9016C11.3477 26.806 11.3343 26.7104 11.3151 26.6154C11.2608 26.3437 11.2039 26.0719 11.1483 25.8002C11.0921 25.5246 11.0365 25.2491 10.9803 24.9742C10.9247 24.7025 10.8691 24.4307 10.8141 24.159C10.763 23.9054 10.7125 23.6513 10.6614 23.3978C10.6052 23.1166 10.5483 22.836 10.4908 22.5549C10.4575 22.3926 10.4205 22.2309 10.3885 22.0686C10.3591 21.9189 10.3796 21.7711 10.4166 21.6239C10.5016 21.2854 10.6671 20.986 10.8844 20.7155C11.0307 20.5337 11.1841 20.3557 11.3496 20.1915C11.5004 20.0424 11.6691 19.9103 11.8353 19.7769C12.1228 19.5461 12.4366 19.3555 12.7714 19.1982C13.0021 19.0894 13.2424 19.0038 13.4974 18.9686C13.5389 18.9629 13.5811 18.968 13.6271 18.968C12.8334 20.9841 12.565 23.0587 12.8833 25.1994C12.7286 25.3259 12.5676 25.451 12.4149 25.585C12.2915 25.6932 12.174 25.809 12.0602 25.9266C11.7944 26.2015 11.5746 26.5085 11.4142 26.8545C11.4071 26.8696 11.4033 26.8866 11.3982 26.9023H11.3637V26.9016Z" fill="white"></path>
<path d="M19.5753 8.5017C19.3273 8.58096 19.0954 8.65079 18.8672 8.73005C18.625 8.81434 18.3848 8.90493 18.1458 8.9974C17.963 9.06848 17.7803 9.14208 17.602 9.22323C17.1885 9.41258 16.7744 9.60066 16.3674 9.80385C16.06 9.95671 15.7641 10.131 15.4638 10.2977C15.3405 10.3662 15.2171 10.4354 15.0976 10.5109C14.7673 10.7204 14.4343 10.9261 14.1116 11.1456C13.7653 11.3815 13.4272 11.63 13.0898 11.8785C12.8924 12.0238 12.7013 12.1773 12.5121 12.3327C12.3096 12.4994 12.107 12.6673 11.9134 12.8447C11.6226 13.1108 11.3376 13.3832 11.0533 13.6568C10.9389 13.7669 10.827 13.8801 10.7254 14.0016C10.4922 14.2796 10.2621 14.5595 10.0398 14.8451C9.91707 15.003 9.80396 15.1697 9.70108 15.3408C9.48893 15.6931 9.30553 16.0592 9.22565 16.4662C9.20712 16.5612 9.20264 16.6587 9.1905 16.7606H9.11254C9.11254 16.6373 9.10998 16.5153 9.11318 16.3932C9.11574 16.3108 9.12788 16.229 9.13299 16.1473C9.15088 15.8491 9.19434 15.5541 9.24674 15.2597C9.333 14.7734 9.47103 14.3016 9.64101 13.8386C9.7899 13.4341 9.97458 13.0454 10.1784 12.6654C10.3657 12.3163 10.5753 11.9798 10.806 11.6577C10.9804 11.4142 11.1689 11.1802 11.3555 10.945C11.4558 10.8185 11.5626 10.6965 11.6706 10.5751C11.8035 10.426 11.9357 10.2763 12.0751 10.1335C12.2725 9.93155 12.4738 9.7334 12.6789 9.53839C12.8144 9.41006 12.9556 9.28739 13.0994 9.16787C13.2828 9.01501 13.4707 8.86655 13.6586 8.71873C13.8151 8.59543 13.9717 8.47025 14.134 8.35513C14.3858 8.17648 14.6407 8.00223 14.8976 7.83175C15.1079 7.6921 15.3213 7.55749 15.5373 7.42664C15.7405 7.30335 15.9463 7.18383 16.1552 7.06997C16.4568 6.90578 16.7591 6.74223 17.0671 6.58937C17.3853 6.43147 17.7061 6.27861 18.032 6.1377C18.4007 5.97855 18.7739 5.82884 19.1497 5.68604C19.4641 5.56715 19.783 5.45769 20.1037 5.35704C20.5466 5.21802 20.9945 5.09284 21.4514 5.00477C21.654 4.96577 21.8559 4.92362 22.0598 4.89406C22.2323 4.86952 22.4081 4.86134 22.5819 4.84625C22.6573 4.83996 22.7333 4.83618 22.817 4.83052C22.817 4.86764 22.817 4.89531 22.817 4.92299C22.817 5.07019 22.8215 5.21739 22.8158 5.36459C22.8081 5.58036 22.7966 5.79549 22.7812 6.01063C22.7704 6.16916 22.7544 6.32768 22.7352 6.48557C22.7122 6.67429 22.6873 6.86301 22.6566 7.05109C22.6215 7.26812 22.5857 7.48577 22.5397 7.70091C22.486 7.95379 22.4266 8.20604 22.3595 8.45578C22.3007 8.67343 22.2355 8.88983 22.1595 9.10245C22.0668 9.36225 21.9665 9.62017 21.8591 9.8743C21.7684 10.0876 21.6623 10.2945 21.5639 10.5046C21.4182 10.8166 21.2418 11.1123 21.0508 11.3991C20.8929 11.6357 20.7306 11.8703 20.5613 12.0987C20.4328 12.2723 20.2897 12.4352 20.1517 12.6019C19.8718 12.941 19.5587 13.2498 19.2404 13.5524C19.0724 13.7122 18.896 13.8644 18.7164 14.0129C18.48 14.2085 18.241 14.4023 17.995 14.5866C17.7483 14.7721 17.4972 14.9521 17.239 15.1213C16.8498 15.3767 16.4568 15.6258 16.0587 15.8667C15.7418 16.0586 15.4159 16.2347 15.0925 16.4159C14.8133 16.5725 14.5327 16.7273 14.2522 16.8814C14.019 17.0091 13.7825 17.1317 13.5506 17.262C13.2189 17.4482 12.8879 17.635 12.5613 17.8294C12.3077 17.981 12.0559 18.137 11.8131 18.3049C11.6054 18.4477 11.4073 18.6056 11.2124 18.7654C11.0731 18.8793 10.9389 19.0013 10.8162 19.1321C10.6021 19.3599 10.4174 19.6102 10.2864 19.8958C10.1957 20.0946 10.1305 20.2997 10.1056 20.5161C10.0922 20.6331 10.0845 20.7513 10.0724 20.8841C10.0583 20.8652 10.0436 20.8539 10.0404 20.84C9.98609 20.5909 9.93305 20.3412 9.87937 20.0921C9.83655 19.892 9.7931 19.692 9.74965 19.492C9.72856 19.3938 9.69725 19.2963 9.68702 19.1969C9.67808 19.1064 9.68574 19.0126 9.69597 18.9214C9.71003 18.7899 9.72984 18.6585 9.7522 18.5282C9.80013 18.2534 9.88448 17.9898 9.99311 17.7325C10.1222 17.428 10.2845 17.1424 10.4775 16.8745C10.5817 16.7298 10.6884 16.5863 10.8072 16.4542C11.0207 16.2171 11.2386 15.9837 11.4654 15.7585C11.6124 15.6126 11.7766 15.483 11.9364 15.3503C12.0987 15.2156 12.2623 15.0816 12.431 14.9552C12.6521 14.7898 12.8764 14.6275 13.1045 14.4715C13.4496 14.2356 13.7972 14.0028 14.1474 13.7738C14.4299 13.5895 14.7187 13.4146 15.0043 13.2341C15.2229 13.0963 15.4414 12.9579 15.6587 12.8183C15.9833 12.6088 16.3111 12.4031 16.6306 12.1861C16.9169 11.9923 17.2 11.7923 17.4735 11.5822C17.7317 11.3834 17.9796 11.1708 18.2257 10.9563C18.365 10.8349 18.4979 10.704 18.6206 10.5663C18.7528 10.4178 18.8736 10.2587 18.9938 10.1001C19.1478 9.89821 19.2717 9.67804 19.3689 9.44403C19.4532 9.24147 19.5146 9.03325 19.5408 8.8156C19.5523 8.71747 19.5599 8.61933 19.5714 8.50359L19.5753 8.5017Z" fill="white"></path>
</g>
<defs>
<clipPath id="SvgjsClipPath1002">
<rect width="14.0119" height="22.5999" fill="white" transform="translate(9.04004 4.75377)"></rect>
</clipPath>
</defs>
</svg><style>@media (prefers-color-scheme: light) { :root { filter: none; } }
@media (prefers-color-scheme: dark) { :root { filter: none; } }
</style></svg>