<svg width="40" height="40" fill="none" xmlns="http://www.w3.org/2000/svg"><g clip-path="url(#clip0_185_936)" stroke="#73CBF4" stroke-width="2.5" stroke-linecap="round" stroke-linejoin="round"><path d="M3.123 29.375a4.375 4.375 0 108.75 0 4.375 4.375 0 00-8.75 0z"/><path d="M13.748 38.75a7.082 7.082 0 00-12.5 0m26.875-9.375a4.374 4.374 0 108.749 0 4.374 4.374 0 00-8.749 0z"/><path d="M38.748 38.75a7.083 7.083 0 00-12.5 0m-.835-25a7.117 7.117 0 00-10.834 0m.504 19.095a13.8 13.8 0 009.906-.03M10.58 10a13.7 13.7 0 00-4.333 10c0 .422.025.833.063 1.25m27.375 0c.037-.413.064-.833.064-1.25a13.7 13.7 0 00-4.334-10M15.623 5.625a4.374 4.374 0 108.748 0 4.374 4.374 0 00-8.748 0z"/></g><defs><clipPath id="clip0_185_936"><path fill="#fff" d="M0 0h40v40H0z"/></clipPath></defs></svg>