<svg width="40" height="40" fill="none" xmlns="http://www.w3.org/2000/svg"><path fill-rule="evenodd" clip-rule="evenodd" d="M14.982 8.847A12.085 12.085 0 0136.83 19.183c-.183.399-.218.775-.137 1.079l.212.793c.68 2.54-1.643 4.863-4.183 4.183l-.794-.211a1.5 1.5 0 00-.778.025 14.583 14.583 0 01-20.773 11.441 1.534 1.534 0 00-1.055-.135l-2.044.547c-2.54.68-4.863-1.643-4.183-4.183l.547-2.044c.082-.356.034-.73-.135-1.055A14.583 14.583 0 0114.982 8.847zm2.91-.047a14.583 14.583 0 0113.335 13.703 3.833 3.833 0 011.346.109l.794.211A.916.916 0 0034.49 21.7l-.212-.793c-.261-.979-.091-1.955.277-2.764A9.583 9.583 0 0017.892 8.8zm-1.225 2.45A12.085 12.085 0 005.762 28.543c.426.862.53 1.848.295 2.78l-.547 2.044a.917.917 0 001.122 1.123l2.045-.547a4.034 4.034 0 012.78.295 12.082 12.082 0 0016.982-13.606 12.084 12.084 0 00-11.772-9.382z" fill="#73CBF4"/><path d="M12.501 23.333a1.667 1.667 0 11-3.333 0 1.667 1.667 0 013.333 0zm5.834 0a1.667 1.667 0 11-3.334 0 1.667 1.667 0 013.334 0zm5.833 0a1.667 1.667 0 11-3.333 0 1.667 1.667 0 013.333 0z" fill="#73CBF4"/></svg>