<svg width="40" height="40" fill="none" xmlns="http://www.w3.org/2000/svg"><path d="M34.04 21.777a11.2 11.2 0 002.387-8.293 7.5 7.5 0 01-7.4-.74l-2.01 2.013 7.023 7.02zm-1.768 1.77L16.46 7.732c-.883 1.1-1.56 2.37-1.98 3.75a18.84 18.84 0 00-2.488-.398 13.75 13.75 0 0118.975-8.837 13.8 13.8 0 016.79 6.792c.417.909.733 1.864.948 2.868.193.92.29 1.869.292 2.847A13.75 13.75 0 0128.92 28.01a18.758 18.758 0 00-.4-2.487 11.249 11.249 0 003.75-1.978m3.575-12.567a11.25 11.25 0 00-1.81-3.245l-3.205 3.205a5 5 0 005.017.04m-6.78-1.81l3.203-3.2a11.25 11.25 0 00-3.24-1.813 4.97 4.97 0 00-.655 2.475c0 .925.25 1.795.692 2.538zm-2.545-5.585a11.2 11.2 0 00-8.295 2.387l7.023 7.018 2.01-2.01a7.5 7.5 0 01-.735-7.398" fill="#73CBF4"/><path fill-rule="evenodd" clip-rule="evenodd" d="M7.933 16.883a1.313 1.313 0 011.366 1.111c.588 3.814 2.54 6.965 4.817 9.306 2.298 2.36 4.832 3.8 6.432 4.255l.123.042a1.313 1.313 0 01-.842 2.483c-2.132-.607-5.051-2.334-7.594-4.95-2.563-2.633-4.838-6.263-5.529-10.736a1.315 1.315 0 011.097-1.497l.13-.014zm6.713 11.625c.044.04.089.077.132.116l-.159-.141.027.025z" fill="#73CBF4"/><path fill-rule="evenodd" clip-rule="evenodd" d="M5.327 14.397c1.445-1.62 3.667-2.766 6.068-2.277l-.1.49-.078-.015.08.015.1-.49c5.524 1.123 12.728 5.275 16.23 15.187.995 2.818-.09 5.786-2.186 7.642l-2.947 2.61c-1.035.916-2.443 1.56-3.977 1.432l-.31-.036c-5.288-.797-13.46-4.755-16.955-15.862-.63-2.001-.028-4.096 1.289-5.573l2.787-3.123zm5.547.296c-1.23-.25-2.567.309-3.587 1.452l-2.785 3.123c-.783.876-1.064 2.029-.746 3.038 3.146 9.997 10.38 13.38 14.843 14.052.7.105 1.477-.163 2.156-.763l2.946-2.61c1.442-1.277 2.03-3.164 1.45-4.804-3.16-8.946-9.555-12.528-14.277-13.489zM9.365 34.496l.12.091-.255-.201.135.11zm-4.3-7.733l.08.147-.108-.202.028.055z" fill="#73CBF4"/></svg>