<svg width="40" height="40" fill="none" xmlns="http://www.w3.org/2000/svg"><path fill-rule="evenodd" clip-rule="evenodd" d="M20 2.083c-3.046 0-5.564.269-7.503.595l-.223.039c-1.683.281-3.083.516-4.178 1.863-.7.865-.929 1.8-.98 2.842l-.82.273c-.772.257-1.45.483-1.985.733-.58.27-1.112.617-1.519 1.182-.406.565-.568 1.178-.641 1.813-.067.589-.067 1.3-.067 2.115v.242c0 .67 0 1.262.05 1.757.053.535.172 1.056.467 1.56.298.505.695.861 1.138 1.168.408.283.925.572 1.512.897l4.4 2.445c.9 1.768 2.135 3.345 3.833 4.483 1.478.993 3.253 1.617 5.355 1.782a1.333 1.333 0 00-.088.461v2.917h-2.384a2.917 2.917 0 00-2.86 2.345l-.365 1.822h-3.141a1.25 1.25 0 000 2.5h20a1.25 1.25 0 100-2.5h-3.142l-.365-1.822a2.917 2.917 0 00-2.86-2.345h-2.383v-2.917a1.33 1.33 0 00-.089-.461c2.102-.167 3.877-.789 5.355-1.78 1.7-1.14 2.934-2.717 3.834-4.485l4.4-2.445c.586-.325 1.103-.614 1.511-.897.442-.307.84-.663 1.137-1.167.297-.505.417-1.026.468-1.561.05-.495.05-1.087.05-1.757v-.242c0-.813 0-1.526-.066-2.115-.074-.635-.234-1.25-.642-1.813-.407-.565-.938-.912-1.517-1.183-.538-.25-1.215-.475-1.986-.732l-.82-.273c-.05-1.044-.279-1.977-.98-2.842-1.094-1.348-2.494-1.583-4.177-1.863l-.225-.039a45.001 45.001 0 00-7.503-.595zm4.309 33.334l-.267-1.332a.416.416 0 00-.408-.335h-7.267a.417.417 0 00-.408.335l-.267 1.332h8.617zM7.147 10.047l.024-.009c.12 2.534.405 5.334 1.118 7.95l-1.777-.985c-.648-.361-1.055-.588-1.348-.791-.27-.189-.358-.3-.407-.384-.05-.083-.103-.213-.136-.54a18.339 18.339 0 01-.037-1.563v-.122c0-.898.002-1.466.05-1.896.047-.397.12-.545.187-.635.065-.092.181-.209.543-.377.393-.183.933-.363 1.783-.648zm25.684-.01c-.119 2.533-.405 5.333-1.117 7.95l1.775-.985c.648-.362 1.055-.589 1.348-.792.27-.188.359-.3.407-.383.05-.084.103-.214.137-.54.035-.357.036-.822.036-1.564v-.121c0-.899-.001-1.467-.05-1.897-.046-.397-.12-.545-.186-.635-.065-.092-.182-.208-.544-.377-.393-.183-.933-.365-1.783-.65l-.023-.006zM12.914 5.143a42.666 42.666 0 017.087-.56c2.9 0 5.278.255 7.086.56 2.012.34 2.434.467 2.879 1.014.436.536.478 1.046.388 3.305-.15 3.763-.647 7.826-2.183 10.916-.76 1.524-1.754 2.77-3.045 3.637-1.285.862-2.944 1.402-5.125 1.402-2.182 0-3.839-.54-5.124-1.402-1.293-.867-2.286-2.113-3.045-3.638C10.294 17.288 9.8 13.227 9.65 9.46c-.09-2.257-.05-2.767.388-3.303.444-.547.865-.674 2.877-1.014z" fill="#73CBF4"/></svg>