<svg width="40" height="40" fill="none" xmlns="http://www.w3.org/2000/svg"><path d="M37.083 22.917v14.167h-7.5V22.917h7.5zm-13.334-5v19.167h-7.5V17.917h7.5zM10.416 29.584v7.5h-7.5v-7.5h7.5z" stroke="#73CBF4" stroke-width="2.5"/><path d="M7.595 16.454l.234.557.602.052 2.437.21-1.851 1.583-.461.394.136.592.548 2.37-2.053-1.25-.515-.313-.518.308-2.123 1.265.574-2.37.144-.594-.463-.4-1.839-1.585 2.423-.21.597-.052.236-.55.955-2.234.937 2.227zm26.667-5l.233.556.602.053 2.438.21-1.851 1.583-.461.395.136.591.548 2.37-2.054-1.25-.514-.313-.518.309-2.124 1.264.575-2.37.144-.594-.463-.4-1.839-1.585 2.423-.21.597-.052.235-.55.955-2.234.938 2.227zm-13.334-5l.234.556.602.053 2.438.21-1.851 1.583-.462.394.136.592.548 2.37-2.053-1.25-.515-.313-.517.309-2.124 1.264.575-2.37.143-.594-.462-.4-1.839-1.585 2.422-.21.597-.052.236-.55.955-2.234.937 2.227z" stroke="#73CBF4" stroke-width="2"/></svg>