<svg width="783" height="760" fill="none" xmlns="http://www.w3.org/2000/svg"><g clip-path="url(#clip0_69_1564)"><mask id="a" style="mask-type:luminance" maskUnits="userSpaceOnUse" x="0" y="0" width="764" height="763"><path d="M742.787.36L.359 762.881h762.969c-54.07-64.694-91.027-123.447-118.464-184.145-24.517-54.589-41.187-113.046-46.052-172.687-.296 9.049-4.083-47.844.444-82.749C606.152 203.279 686.2 72.876 763.328.338h-20.562l.021.021z" fill="#fff"/></mask><g mask="url(#a)"><path d="M535.095-48.943l98.981 811.783 127.158.042L535.095-48.943z" fill="#E3000B"/></g><mask id="b" style="mask-type:luminance" maskUnits="userSpaceOnUse" x="510" y="296" width="125" height="467"><path d="M510.684 762.882h123.392l-18.785-265.626c-8.271-29.831-13.961-60.36-16.479-91.206-.296 9.049-4.083-47.844.444-82.749.423-7.484 1.143-14.99 2.116-22.537l-.317-4.63-90.392 466.727.021.021z" fill="#fff"/></mask><g mask="url(#b)"><path d="M514.278 275.427l-82.073 473.889 198.291 34.302L712.57 309.73l-198.292-34.303z" fill="url(#paint0_linear_69_1564)"/></g><mask id="c" style="mask-type:luminance" maskUnits="userSpaceOnUse" x="563" y="108" width="75" height="264"><path d="M563.548 184.441l22.846 187.423 51.003-263.258-73.849 75.835z" fill="#fff"/></mask><g mask="url(#c)"><path d="M565.71 96.216l-46.416 268.005 115.957 20.059 46.416-268.004-115.957-20.06z" fill="url(#paint1_linear_69_1564)"/></g><mask id="d" style="mask-type:luminance" maskUnits="userSpaceOnUse" x="252" y="0" width="512" height="763"><path d="M742.788.36l-36.597 37.59-453.588 724.89h76.895c16.648.021 33.487.021 50.284.021l218.649-431.568c.254-2.77.529-5.434.868-8.013C606.195 203.258 686.242 72.855 763.371.317h-20.562l-.021.042z" fill="#fff"/></mask><g mask="url(#d)"><path d="M458.008-249.901L-121.528 456.23l679.442 556.98 579.536-706.13-679.442-556.981z" fill="url(#paint2_linear_69_1564)"/></g><mask id="e" style="mask-type:luminance" maskUnits="userSpaceOnUse" x="379" y="293" width="224" height="470"><path d="M379.76 762.882h130.924l86.647-378.545c-.507-17.759-.444-42.495 1.946-61.015.572-9.979 1.65-20.021 3.195-30.127L379.76 762.882z" fill="#fff"/></mask><g mask="url(#e)"><path d="M420.163 207.435L198.652 677.681 562.07 848.67l221.511-470.246-363.418-170.989z" fill="url(#paint3_linear_69_1564)"/></g><mask id="f" style="mask-type:luminance" maskUnits="userSpaceOnUse" x="119" y="0" width="645" height="763"><path d="M746.722.36L119.944 762.881h132.912l364.995-533.197C647.192 139.98 706.085 54.208 763.328.359h-16.627.021z" fill="#fff"/></mask><g mask="url(#f)"><path d="M447.251-321.196l-708.74 696.07 697.515 709.386 708.744-696.074-697.519-709.382z" fill="url(#paint4_linear_69_1564)"/></g><mask id="g" style="mask-type:luminance" maskUnits="userSpaceOnUse" x="0" y="0" width="764" height="763"><path d="M742.787.36L.359 762.881h125.085L668.24 120.678C696.438 73.489 730.158 31.565 763.349.359h-20.562z" fill="#fff"/></mask><g mask="url(#g)"><path d="M338.539-378.454l-717.185 803.351 803.82 716.763 717.186-803.348-803.821-716.766z" fill="url(#paint5_linear_69_1564)"/></g></g><defs><linearGradient id="paint0_linear_69_1564" x1="527.714" y1="800.295" x2="556.073" y2="636.362" gradientUnits="userSpaceOnUse"><stop stop-color="#E3000B"/><stop offset=".02" stop-color="#E3000B"/><stop offset=".51" stop-color="#CA0205"/><stop offset=".84" stop-color="#B70501"/><stop offset="1" stop-color="#B70501"/></linearGradient><linearGradient id="paint1_linear_69_1564" x1="202060" y1="-1162970" x2="202088" y2="-1163130" gradientUnits="userSpaceOnUse"><stop stop-color="#E3000B"/><stop offset=".02" stop-color="#E3000B"/><stop offset=".51" stop-color="#CA0205"/><stop offset=".84" stop-color="#B70501"/><stop offset="1" stop-color="#B70501"/></linearGradient><linearGradient id="paint2_linear_69_1564" x1="250.343" y1="680.835" x2="684.148" y2="151.65" gradientUnits="userSpaceOnUse"><stop stop-color="#5AC5F2"/><stop offset=".02" stop-color="#5AC5F2"/><stop offset=".34" stop-color="#3296D2"/><stop offset=".67" stop-color="#0E6BB4"/><stop offset=".84" stop-color="#005BA9"/><stop offset="1" stop-color="#005BA9"/></linearGradient><linearGradient id="paint3_linear_69_1564" x1="365.849" y1="800.829" x2="585.96" y2="333.009" gradientUnits="userSpaceOnUse"><stop stop-color="#005BA9"/><stop offset=".02" stop-color="#005BA9"/><stop offset=".35" stop-color="#0851A1"/><stop offset=".9" stop-color="#1F368E"/><stop offset="1" stop-color="#24318A"/></linearGradient><linearGradient id="paint4_linear_69_1564" x1="25.964" y1="801.957" x2="623.945" y2="213.98" gradientUnits="userSpaceOnUse"><stop stop-color="#BCE4FA"/><stop offset=".01" stop-color="#BCE4FA"/><stop offset=".24" stop-color="#AADEF8"/><stop offset=".68" stop-color="#7ED0F4"/><stop offset="1" stop-color="#5AC5F2"/></linearGradient><linearGradient id="paint5_linear_69_1564" x1="54.245" y1="741.971" x2="734.483" y2="-20.884" gradientUnits="userSpaceOnUse"><stop stop-color="#fff"/><stop offset=".02" stop-color="#fff"/><stop offset=".67" stop-color="#D3EDFB"/><stop offset=".99" stop-color="#BCE4FA"/><stop offset="1" stop-color="#BCE4FA"/></linearGradient><clipPath id="clip0_69_1564"><path fill="#fff" d="M0 0h783v760H0z"/></clipPath></defs></svg>