<svg width="121" height="120" fill="none" xmlns="http://www.w3.org/2000/svg"><mask id="a" style="mask-type:luminance" maskUnits="userSpaceOnUse" x="0" y="0" width="121" height="120"><path d="M4.07.007L120.833 120H.84c8.504-10.18 14.316-19.426 18.631-28.978 3.856-8.59 6.478-17.789 7.243-27.174.046 1.424.642-7.53-.07-13.022C25.559 31.939 12.97 11.418.84.003h3.234L4.07.007z" fill="#fff"/></mask><g mask="url(#a)"><path d="M36.735-7.752L21.168 119.993 1.169 120 36.735-7.752z" fill="#E3000B"/></g><mask id="b" style="mask-type:luminance" maskUnits="userSpaceOnUse" x="21" y="46" width="20" height="74"><path d="M40.574 120H21.168l2.954-41.8c1.3-4.694 2.196-9.498 2.592-14.352.046 1.424.642-7.53-.07-13.022a49.722 49.722 0 00-.333-3.547l.05-.728 14.216 73.446-.003.003z" fill="#fff"/></mask><g mask="url(#b)"><path d="M40.008 43.292l12.908 74.573-31.185 5.398L8.823 48.69l31.185-5.398z" fill="url(#paint0_linear_2005_595)"/></g><mask id="c" style="mask-type:luminance" maskUnits="userSpaceOnUse" x="20" y="17" width="13" height="42"><path d="M32.26 28.974l-3.593 29.494-8.022-41.428L32.26 28.974z" fill="#fff"/></mask><g mask="url(#c)"><path d="M31.92 15.091l7.3 42.175-18.237 3.156-7.3-42.174 18.237-3.157z" fill="url(#paint1_linear_2005_595)"/></g><mask id="d" style="mask-type:luminance" maskUnits="userSpaceOnUse" x="0" y="0" width="82" height="120"><path d="M4.07.007l5.756 5.915 71.337 114.071H69.069c-2.618.004-5.266.004-7.908.004L26.774 52.084a32.95 32.95 0 00-.137-1.261C25.553 31.936 12.963 11.415.833 0h3.234l.003.007z" fill="#fff"/></mask><g mask="url(#d)"><path d="M48.858-39.375l91.145 111.12-106.857 87.648L-58 48.273 48.858-39.375z" fill="url(#paint2_linear_2005_595)"/></g><mask id="e" style="mask-type:luminance" maskUnits="userSpaceOnUse" x="26" y="46" width="36" height="74"><path d="M61.164 120h-20.59L26.947 60.43c.08-2.794.07-6.686-.306-9.6a50.52 50.52 0 00-.503-4.742L61.164 120z" fill="#fff"/></mask><g mask="url(#e)"><path d="M54.81 32.593l34.838 73.999L32.492 133.5l-34.837-74L54.81 32.593z" fill="url(#paint3_linear_2005_595)"/></g><mask id="f" style="mask-type:luminance" maskUnits="userSpaceOnUse" x="0" y="0" width="103" height="120"><path d="M3.452.007L102.026 120H81.123L23.719 36.094C19.105 21.978 9.843 8.481.84.007h2.615-.003z" fill="#fff"/></mask><g mask="url(#f)"><path d="M50.55-50.594L162.015 58.942l-109.7 111.631L-59.149 61.037 50.55-50.594z" fill="url(#paint4_linear_2005_595)"/></g><mask id="g" style="mask-type:luminance" maskUnits="userSpaceOnUse" x="0" y="0" width="121" height="120"><path d="M4.07.007L120.834 120h-19.672L15.795 18.94C11.36 11.515 6.057 4.918.837.008H4.07z" fill="#fff"/></mask><g mask="url(#g)"><path d="M67.647-59.605L180.44 66.814 54.022 179.606-58.771 53.188 67.647-59.605z" fill="url(#paint5_linear_2005_595)"/></g><defs><linearGradient id="paint0_linear_2005_595" x1="37.895" y1="125.888" x2="33.43" y2="100.091" gradientUnits="userSpaceOnUse"><stop stop-color="#E3000B"/><stop offset=".02" stop-color="#E3000B"/><stop offset=".51" stop-color="#CA0205"/><stop offset=".84" stop-color="#B70501"/><stop offset="1" stop-color="#B70501"/></linearGradient><linearGradient id="paint1_linear_2005_595" x1="-31657.4" y1="-183009" x2="-31661.9" y2="-183035" gradientUnits="userSpaceOnUse"><stop stop-color="#E3000B"/><stop offset=".02" stop-color="#E3000B"/><stop offset=".51" stop-color="#CA0205"/><stop offset=".84" stop-color="#B70501"/><stop offset="1" stop-color="#B70501"/></linearGradient><linearGradient id="paint2_linear_2005_595" x1="81.518" y1="107.089" x2="13.245" y2="23.854" gradientUnits="userSpaceOnUse"><stop stop-color="#5AC5F2"/><stop offset=".02" stop-color="#5AC5F2"/><stop offset=".34" stop-color="#3296D2"/><stop offset=".67" stop-color="#0E6BB4"/><stop offset=".84" stop-color="#005BA9"/><stop offset="1" stop-color="#005BA9"/></linearGradient><linearGradient id="paint3_linear_2005_595" x1="63.352" y1="125.971" x2="28.702" y2="52.369" gradientUnits="userSpaceOnUse"><stop stop-color="#005BA9"/><stop offset=".02" stop-color="#005BA9"/><stop offset=".35" stop-color="#0851A1"/><stop offset=".9" stop-color="#1F368E"/><stop offset="1" stop-color="#24318A"/></linearGradient><linearGradient id="paint4_linear_2005_595" x1="116.807" y1="126.149" x2="22.707" y2="33.678" gradientUnits="userSpaceOnUse"><stop stop-color="#BCE4FA"/><stop offset=".01" stop-color="#BCE4FA"/><stop offset=".24" stop-color="#AADEF8"/><stop offset=".68" stop-color="#7ED0F4"/><stop offset="1" stop-color="#5AC5F2"/></linearGradient><linearGradient id="paint5_linear_2005_595" x1="112.359" y1="116.709" x2="5.307" y2="-3.274" gradientUnits="userSpaceOnUse"><stop stop-color="#fff"/><stop offset=".02" stop-color="#fff"/><stop offset=".67" stop-color="#D3EDFB"/><stop offset=".99" stop-color="#BCE4FA"/><stop offset="1" stop-color="#BCE4FA"/></linearGradient></defs></svg>