<svg width="306" height="306" fill="none" xmlns="http://www.w3.org/2000/svg"><mask id="a" style="mask-type:luminance" maskUnits="userSpaceOnUse" x="0" y="0" width="306" height="306"><path d="M8.239.018l297.197 305.419H.016c21.645-25.912 36.439-49.445 47.422-73.757 9.814-21.864 16.487-45.279 18.435-69.167.118 3.624 1.634-19.164-.178-33.144C62.935 81.295 30.891 29.064.016.009h8.231L8.24.02z" fill="#fff"/></mask><g mask="url(#a)"><path d="M91.379-19.73L51.757 305.42l-50.902.017L91.379-19.73z" fill="#E3000B"/></g><mask id="b" style="mask-type:luminance" maskUnits="userSpaceOnUse" x="51" y="118" width="51" height="188"><path d="M101.15 305.431H51.755l7.52-106.393c3.311-11.949 5.589-24.177 6.597-36.532.118 3.624 1.634-19.163-.178-33.144-.17-2.998-.457-6.004-.847-9.027l.127-1.855 36.184 186.942-.008.009z" fill="#fff"/></mask><g mask="url(#b)"><path d="M99.71 110.186l32.854 189.81-79.376 13.739-32.854-189.81 79.376-13.739z" fill="url(#paint0_linear_69_17)"/></g><mask id="c" style="mask-type:luminance" maskUnits="userSpaceOnUse" x="50" y="43" width="30" height="106"><path d="M79.987 73.744l-9.145 75.07L50.425 43.369l29.562 30.375z" fill="#fff"/></mask><g mask="url(#c)"><path d="M79.12 38.408l18.581 107.346-46.418 8.034-18.58-107.346 46.418-8.034z" fill="url(#paint1_linear_69_17)"/></g><mask id="d" style="mask-type:luminance" maskUnits="userSpaceOnUse" x="0" y="0" width="205" height="306"><path d="M8.24.017l14.65 15.056L204.463 305.42h-30.782c-6.664.009-13.405.009-20.128.009l-87.527-172.86a82.913 82.913 0 00-.347-3.209C62.92 81.285 30.875 29.054.001 0h8.23l.009.017z" fill="#fff"/></mask><g mask="url(#d)"><path d="M122.238-100.22l231.991 282.831L82.246 405.703l-231.991-282.832L122.238-100.22z" fill="url(#paint2_linear_69_17)"/></g><mask id="e" style="mask-type:luminance" maskUnits="userSpaceOnUse" x="64" y="117" width="90" height="189"><path d="M153.558 305.43h-52.409L66.463 153.809c.203-7.113.178-17.021-.779-24.439-.228-3.997-.66-8.02-1.279-12.067l89.153 188.127z" fill="#fff"/></mask><g mask="url(#e)"><path d="M137.384 82.953l88.672 188.352-145.478 68.487-88.671-188.351 145.477-68.488z" fill="url(#paint3_linear_69_17)"/></g><mask id="f" style="mask-type:luminance" maskUnits="userSpaceOnUse" x="0" y="0" width="258" height="306"><path d="M6.665.018l250.901 305.419h-53.205L58.253 91.871C46.507 55.941 22.933 21.586.018.018h6.656-.009z" fill="#fff"/></mask><g mask="url(#f)"><path d="M126.545-128.777l283.711 278.802-279.218 284.134-283.711-278.802 279.218-284.134z" fill="url(#paint4_linear_69_17)"/></g><mask id="g" style="mask-type:luminance" maskUnits="userSpaceOnUse" x="0" y="0" width="306" height="306"><path d="M8.24.018l297.197 305.419h-50.072L38.082 48.21C26.794 29.309 13.295 12.516.009.018H8.24z" fill="#fff"/></mask><g mask="url(#g)"><path d="M170.062-151.712l287.091 321.773-321.772 287.091-287.092-321.772 321.773-287.092z" fill="url(#paint5_linear_69_17)"/></g><defs><linearGradient id="paint0_linear_69_17" x1="94.332" y1="320.415" x2="82.967" y2="254.756" gradientUnits="userSpaceOnUse"><stop stop-color="#E3000B"/><stop offset=".02" stop-color="#E3000B"/><stop offset=".51" stop-color="#CA0205"/><stop offset=".84" stop-color="#B70501"/><stop offset="1" stop-color="#B70501"/></linearGradient><linearGradient id="paint1_linear_69_17" x1="-80579.8" y1="-465813" x2="-80591.1" y2="-465878" gradientUnits="userSpaceOnUse"><stop stop-color="#E3000B"/><stop offset=".02" stop-color="#E3000B"/><stop offset=".51" stop-color="#CA0205"/><stop offset=".84" stop-color="#B70501"/><stop offset="1" stop-color="#B70501"/></linearGradient><linearGradient id="paint2_linear_69_17" x1="205.367" y1="272.574" x2="31.592" y2="60.715" gradientUnits="userSpaceOnUse"><stop stop-color="#5AC5F2"/><stop offset=".02" stop-color="#5AC5F2"/><stop offset=".34" stop-color="#3296D2"/><stop offset=".67" stop-color="#0E6BB4"/><stop offset=".84" stop-color="#005BA9"/><stop offset="1" stop-color="#005BA9"/></linearGradient><linearGradient id="paint3_linear_69_17" x1="159.126" y1="320.63" x2="70.931" y2="133.29" gradientUnits="userSpaceOnUse"><stop stop-color="#005BA9"/><stop offset=".02" stop-color="#005BA9"/><stop offset=".35" stop-color="#0851A1"/><stop offset=".9" stop-color="#1F368E"/><stop offset="1" stop-color="#24318A"/></linearGradient><linearGradient id="paint4_linear_69_17" x1="295.187" y1="321.088" x2="55.676" y2="85.721" gradientUnits="userSpaceOnUse"><stop stop-color="#BCE4FA"/><stop offset=".01" stop-color="#BCE4FA"/><stop offset=".24" stop-color="#AADEF8"/><stop offset=".68" stop-color="#7ED0F4"/><stop offset="1" stop-color="#5AC5F2"/></linearGradient><linearGradient id="paint5_linear_69_17" x1="283.865" y1="297.061" x2="11.386" y2="-8.333" gradientUnits="userSpaceOnUse"><stop stop-color="#fff"/><stop offset=".02" stop-color="#fff"/><stop offset=".67" stop-color="#D3EDFB"/><stop offset=".99" stop-color="#BCE4FA"/><stop offset="1" stop-color="#BCE4FA"/></linearGradient></defs></svg>