<svg width="834" height="1060" fill="none" xmlns="http://www.w3.org/2000/svg"><g clip-path="url(#clip0_69_588)"><mask id="a" style="mask-type:luminance" maskUnits="userSpaceOnUse" x="-3" y="431" width="834" height="626"><path d="M830.691 1007.46v49.23c-81.282-37.3-166.271-63.536-249.538-72.148-5.163-.928-10.525-1.723-16.085-2.518L-2.382 661.242V431.685l833.139 575.775h-.066z" fill="#fff"/></mask><g mask="url(#a)"><path d="M370.074 17.156L1141.2 711.134 458.294 1471.33l-771.13-693.977 682.91-760.197z" fill="url(#paint0_linear_69_588)"/></g><mask id="b" style="mask-type:luminance" maskUnits="userSpaceOnUse" x="-3" y="651" width="645" height="343"><path d="M641.783 993.816c-20.255-4.041-40.509-7.155-60.631-9.275-37.265-6.559-87.239-8.944-123.246-9.606L-2.449 847.271V651.502L641.783 993.75v.066z" fill="#fff"/></mask><g mask="url(#b)"><path d="M137.805 385.479l645.112 340.579-281.353 533.892-645.112-340.583 281.353-533.888z" fill="url(#paint1_linear_69_588)"/></g><mask id="c" style="mask-type:luminance" maskUnits="userSpaceOnUse" x="-3" y="209" width="834" height="848"><path d="M830.69 960.89v95.8c-20.386-9.34-41.038-18.02-61.821-25.91L-2.449 449.44V209.88L830.69 960.89z" fill="#fff"/></mask><g mask="url(#c)"><path d="M459.27-204.671l791.98 883.786-882.247 792.035-791.985-883.788L459.27-204.671z" fill="url(#paint2_linear_69_588)"/></g><mask id="d" style="mask-type:luminance" maskUnits="userSpaceOnUse" x="-3" y="-1" width="834" height="1002"><path d="M830.69 888.148v111.892L-2.449 228.099V-.53L830.69 888.148z" fill="#fff"/></mask><g mask="url(#d)"><path d="M404.557-417.274l925.873 905.597-906.681 928.647-925.871-905.597 906.679-928.647z" fill="url(#paint3_linear_69_588)"/></g></g><defs><linearGradient id="paint0_linear_69_588" x1="-219.603" y1="176.388" x2="811.351" y2="1102.53" gradientUnits="userSpaceOnUse"><stop stop-color="#5AC5F2"/><stop offset=".02" stop-color="#5AC5F2"/><stop offset=".34" stop-color="#3296D2"/><stop offset=".67" stop-color="#0E6BB4"/><stop offset=".84" stop-color="#005BA9"/><stop offset="1" stop-color="#005BA9"/></linearGradient><linearGradient id="paint1_linear_69_588" x1="-258.941" y1="516.852" x2="667.317" y2="1004.98" gradientUnits="userSpaceOnUse"><stop stop-color="#005BA9"/><stop offset=".02" stop-color="#005BA9"/><stop offset=".35" stop-color="#0851A1"/><stop offset=".9" stop-color="#1F368E"/><stop offset="1" stop-color="#24318A"/></linearGradient><linearGradient id="paint2_linear_69_588" x1="-235.845" y1="-76.099" x2="898.812" y2="1187.8" gradientUnits="userSpaceOnUse"><stop stop-color="#BCE4FA"/><stop offset=".01" stop-color="#BCE4FA"/><stop offset=".24" stop-color="#AADEF8"/><stop offset=".68" stop-color="#7ED0F4"/><stop offset="1" stop-color="#5AC5F2"/></linearGradient><linearGradient id="paint3_linear_69_588" x1="-430.12" y1="-345.695" x2="1051.07" y2="1100.46" gradientUnits="userSpaceOnUse"><stop stop-color="#fff"/><stop offset=".02" stop-color="#fff"/><stop offset=".67" stop-color="#D3EDFB"/><stop offset=".99" stop-color="#BCE4FA"/><stop offset="1" stop-color="#BCE4FA"/></linearGradient><clipPath id="clip0_69_588"><path fill="#fff" transform="matrix(-1 0 0 1 834 0)" d="M0 0h834v1060H0z"/></clipPath></defs></svg>