<svg width="216" height="89" fill="none" xmlns="http://www.w3.org/2000/svg"><g clip-path="url(#clip0_69_56)" fill="#fff"><path d="M9.253 89c-.064-.385-.117-.769-.194-1.15-.216-1.093-.443-2.184-.664-3.277-.224-1.107-.445-2.214-.67-3.319-.22-1.092-.442-2.184-.66-3.276l-.61-3.058c-.223-1.13-.45-2.258-.679-3.388-.132-.652-.28-1.301-.407-1.954-.117-.601-.035-1.195.112-1.787.339-1.36.998-2.563 1.863-3.65a25.196 25.196 0 011.853-2.106c.6-.599 1.272-1.13 1.934-1.666a18.427 18.427 0 013.728-2.325c.918-.438 1.875-.781 2.89-.923.166-.023.334-.002.517-.002-3.16 8.101-4.23 16.438-2.962 25.04-.616.508-1.257 1.011-1.865 1.55-.491.435-.96.9-1.412 1.373-1.06 1.104-1.935 2.338-2.573 3.728-.028.06-.044.129-.064.192h-.137V89zm32.703-73.939c-.987.319-1.911.6-2.82.918-.964.338-1.921.702-2.873 1.074a41.56 41.56 0 00-2.165.907c-1.647.761-3.296 1.517-4.917 2.334-1.224.614-2.402 1.314-3.598 1.984-.491.276-.982.554-1.458.857-1.316.842-2.642 1.668-3.927 2.55-1.38.949-2.726 1.947-4.07 2.946-.786.583-1.546 1.2-2.3 1.825a59.254 59.254 0 00-2.384 2.057 189.22 189.22 0 00-3.425 3.264c-.456.442-.901.897-1.306 1.385a119.857 119.857 0 00-2.73 3.39 20.303 20.303 0 00-1.35 1.992C1.79 43.959 1.06 45.43.74 47.066c-.073.382-.091.773-.14 1.183H.29c0-.495-.01-.986.003-1.476.01-.331.058-.66.078-.989.072-1.198.245-2.383.453-3.566.344-1.955.894-3.85 1.57-5.71.593-1.626 1.329-3.188 2.14-4.715a36.966 36.966 0 012.5-4.05c.694-.978 1.445-1.918 2.188-2.864.4-.508.825-.998 1.255-1.486.53-.6 1.056-1.2 1.61-1.775a92.86 92.86 0 012.405-2.391 34.552 34.552 0 011.675-1.489c.73-.614 1.478-1.21 2.227-1.805.623-.495 1.247-.998 1.893-1.46a117.628 117.628 0 013.041-2.104 72.262 72.262 0 015.008-3.061c1.201-.66 2.405-1.317 3.632-1.932a80.564 80.564 0 013.842-1.815 107.78 107.78 0 014.451-1.815 69.52 69.52 0 013.8-1.322c1.763-.558 3.547-1.061 5.367-1.415.806-.157 1.61-.326 2.422-.445.687-.099 1.387-.132 2.08-.192.3-.025.602-.04.936-.063V.68c0 .592.018 1.183-.005 1.775a73.65 73.65 0 01-.138 2.596 36.814 36.814 0 01-.183 1.908 57.22 57.22 0 01-.313 2.273 52.44 52.44 0 01-.466 2.611 59.017 59.017 0 01-.717 3.034 34.403 34.403 0 01-.797 2.598 58.717 58.717 0 01-1.196 3.102c-.361.857-.784 1.688-1.176 2.533-.58 1.253-1.282 2.442-2.043 3.594a69.087 69.087 0 01-1.95 2.811c-.51.698-1.08 1.353-1.63 2.023-1.115 1.362-2.362 2.603-3.63 3.819a40.254 40.254 0 01-2.086 1.85 76.246 76.246 0 01-2.873 2.306 56.896 56.896 0 01-3.01 2.148 151.816 151.816 0 01-4.701 2.996c-1.262.77-2.56 1.479-3.848 2.207-1.112.63-2.229 1.251-3.346 1.87-.929.514-1.87 1.006-2.794 1.53-1.321.748-2.64 1.499-3.94 2.28a53.11 53.11 0 00-2.98 1.91c-.827.575-1.616 1.21-2.392 1.851-.555.458-1.089.948-1.578 1.474-.852.915-1.588 1.921-2.11 3.069-.36.799-.62 1.623-.72 2.492-.053.47-.083.946-.132 1.479-.056-.076-.114-.121-.127-.177-.216-1.001-.427-2.005-.641-3.006-.17-.803-.344-1.607-.517-2.411-.084-.395-.209-.786-.25-1.186-.035-.364-.004-.74.036-1.107.056-.528.135-1.056.224-1.58.191-1.104.527-2.164.96-3.197a17.773 17.773 0 011.929-3.449c.414-.58.84-1.157 1.313-1.688.85-.953 1.718-1.89 2.62-2.796.586-.586 1.24-1.107 1.877-1.64a51.264 51.264 0 011.97-1.588 77.731 77.731 0 012.681-1.944 242.912 242.912 0 014.153-2.803c1.125-.74 2.276-1.444 3.413-2.17.87-.553 1.74-1.109 2.606-1.67 1.293-.842 2.598-1.668 3.87-2.54a68.814 68.814 0 003.357-2.427c1.028-.799 2.016-1.653 2.995-2.515a17.635 17.635 0 001.573-1.568c.527-.596 1.008-1.236 1.486-1.873a11.795 11.795 0 001.494-2.636c.336-.814.58-1.65.685-2.526.045-.394.076-.788.122-1.253l.015-.008zm20.669 23.157V26.433h8.372c.232 0 .588.053.802.106l.784.195c.214.035.552.177.748.283l.142.089c.196.106.481.336.624.495l.48.549c.143.159.322.477.393.707l.018.036c.07.23.16.601.178.831l.018.195c.017.23 0 .584-.036.814l-.125.637c-.035.23-.16.549-.285.743l-.285.39c-.142.194-.41.46-.605.583l-.054.036c-.196.141-.552.3-.766.39l-.338.105c-.214.089-.57.142-.802.16l-6.609.141v4.3h-2.654zm8.052-9.59h-5.398v3.22h5.113c.124 0 .356-.018.534-.036.178-.035.41-.088.534-.141h.018c.464-.177.838-.513.945-.885l.017-.088c.09-.266.09-.584.018-.903l-.018-.018a1.221 1.221 0 00-.48-.743l-.125-.088c-.232-.16-.838-.319-1.158-.319zm11.187-2.177l1.264-.177c.285-.036.749-.07 1.016-.07h.32c.285 0 .73.034.998.088l1.568.247c.267.036.694.16.944.283l.873.39c.249.106.623.336.837.513l.107.088c.231.16.534.478.712.69l.392.478c.16.213.374.602.481.867l.196.513c.214.531.32 1.24.32 2v.088c0 .266-.053.708-.124.974l-.178.814c-.071.265-.232.672-.392.902l-.481.743c-.16.23-.463.566-.677.726l-.552.442a4.55 4.55 0 01-.873.495l-.997.407c-.268.089-.695.213-.98.23l-2.049.213a4.533 4.533 0 01-.98 0l-1.87-.23a4.875 4.875 0 01-.962-.266l-1.05-.46a6.807 6.807 0 01-.856-.513l-.09-.07a3.93 3.93 0 01-.712-.726l-.445-.549c-.16-.212-.392-.601-.48-.867l-.197-.566c-.196-.53-.267-1.009-.267-1.734v-.336c0-.283.053-.726.125-.991l.213-.796c.054-.266.25-.673.41-.903l.463-.69c.16-.23.463-.548.677-.725l.463-.354c.214-.177.606-.407.855-.496l.998-.407c.25-.106.695-.23.98-.265zm1.603 2l-.802.123a2.649 2.649 0 00-.641.177l-.641.266c-.16.053-.392.212-.517.318l-.445.372a2.09 2.09 0 00-.392.477l-.285.443a2.18 2.18 0 00-.214.566l-.125.602c-.035.159-.053.442-.035.601l.035.496c.018.177.072.442.143.62l.16.424c.072.159.214.407.339.548l.285.354c.107.142.32.336.463.443l.053.035a3.3 3.3 0 00.535.319l.552.247c.16.071.427.142.606.177l1.122.16c.392.053.712.053 1.14 0l1.05-.142c.18-.018.482-.089.642-.16l.677-.282c.16-.071.41-.23.535-.354l.463-.39a4.76 4.76 0 00.41-.46l.124-.194c.09-.142.214-.39.25-.567l.142-.477c.053-.16.09-.443.09-.62v-.371c0-.46-.072-.832-.215-1.186l-.16-.39a2.705 2.705 0 00-.339-.53l-.213-.265a5.561 5.561 0 00-.463-.443l-.054-.035a3.428 3.428 0 00-.552-.319l-.57-.265a2.48 2.48 0 00-.588-.177l-.855-.142a3.553 3.553 0 00-.624-.053h-.427a4.31 4.31 0 00-.66.053zm15.07-2l2.298-.23c.25-.018.641 0 .891.035l1.496.23c.232.036.624.142.855.23l.588.23c.232.089.588.283.784.425l.356.248c.214.141.499.424.659.619l.41.513c.142.195.338.549.427.796l.072.213c.142.46.16.477.124.513-.017.018-.231.035-.481.053l-1.656.106c-.25 0-.552-.177-.695-.39a2.538 2.538 0 00-.606-.69l-.196-.14c-.213-.16-.587-.337-.837-.425l-.338-.107c-.517-.177-1.283-.283-1.978-.283h-.071a4.9 4.9 0 00-.89.089l-.891.194a4.77 4.77 0 00-.82.354l-.445.319a3.533 3.533 0 00-.641.62l-.214.282c-.374.531-.588 1.221-.588 1.964v.23c0 .248.071.637.143.885l.124.39c.072.247.268.601.428.796l.071.106c.16.195.446.478.66.62l.284.212c.196.141.57.336.82.407l.32.123c.25.071.66.16.909.177l.837.071c.249.018.659 0 .891-.035l.962-.16c.231-.035.623-.176.837-.283l.285-.141c.214-.106.517-.354.677-.549l.356-.424c.16-.177.285-.39.303-.478.018-.071.232-.124.481-.106l1.71.053c.249.017.445.088.445.159 0 .07-.071.319-.142.549l-.214.53c-.089.23-.285.584-.463.797l-.196.247a3.24 3.24 0 01-1.318 1.027l-1.39.584a3.834 3.834 0 01-.89.212l-1.906.195a5.027 5.027 0 01-.891-.018l-1.71-.195a5.222 5.222 0 01-.873-.212l-.73-.283c-.232-.089-.606-.266-.802-.407l-.57-.39a4.334 4.334 0 01-.66-.619l-.516-.637a3.166 3.166 0 01-.445-.796l-.232-.584c-.089-.23-.178-.672-.213-.956l-.018-.053a9.396 9.396 0 01-.054-.973v-.07c0-.248.036-.655.09-.903l.16-.832c.053-.23.196-.619.303-.831l.178-.337c.107-.212.338-.548.498-.743l.036-.053c.16-.195.463-.495.66-.637l.516-.407a4.24 4.24 0 01.784-.442l.997-.39a3.52 3.52 0 01.855-.194zm15.641-.018l2.28-.212c.231-.018.623 0 .873.035l1.567.23c.25.053.641.16.855.266l.855.371c.232.106.57.301.766.46l.143.107c.196.159.481.442.641.636l.321.425c.16.195.356.549.427.779l.071.177c.161.442.179.53.125.566 0 .018-.214.035-.463.053l-1.603.106c-.267 0-.535-.124-.642-.3-.231-.425-.73-.868-1.229-1.08l-.801-.336a3.888 3.888 0 00-.944-.248l-.107-.018a9.611 9.611 0 00-.98-.053h-.018a5.1 5.1 0 00-.908.089l-.784.159a5.26 5.26 0 00-.837.3l-.143.09a3.05 3.05 0 00-.695.566l-.516.601a2.65 2.65 0 00-.428.796l-.107.425c-.231.814-.231 1.044 0 1.823l.161.495c.071.23.267.566.445.743l.98.92c.178.16.516.372.766.443l.392.141c.249.071.659.16.908.177l.873.071c.249.018.659 0 .909-.053l1.015-.177c.249-.053.623-.195.855-.3l.142-.09c.214-.105.517-.37.677-.566l.392-.477c.161-.195.303-.39.321-.443 0-.053.214-.088.463-.07l1.71.053c.25.017.463.035.463.07 0 .018-.071.23-.16.46l-.196.584c-.089.23-.267.602-.427.797l-.196.283a3.656 3.656 0 01-.642.637l-.338.265c-.196.16-.552.354-.802.443l-.784.318a5.412 5.412 0 01-.89.212l-2.138.23a4.964 4.964 0 01-.891-.017l-1.727-.195a3.599 3.599 0 01-.856-.23l-1.193-.495a6.02 6.02 0 01-.784-.46l-.231-.177a3.809 3.809 0 01-.659-.655l-.375-.46a4.232 4.232 0 01-.445-.779l-.267-.707a3.615 3.615 0 01-.196-.867l-.071-.938c-.018-.248 0-.655.035-.885l.196-.99a4.77 4.77 0 01.285-.85l.214-.425c.125-.23.374-.549.552-.708l1.069-1.008c.178-.16.517-.372.766-.46l1.104-.46a5.03 5.03 0 01.856-.213zm24.939 0v11.785h-2.619V28.75c0-.248 0-.442-.018-.442s-.142.16-.285.371l-6.662 9.538h-4.115V26.433h2.654v9.414c0 .265.018.46.018.46.018 0 .142-.16.285-.372l6.644-9.502h4.098zm15.195 0v11.785h-2.655v-4.46h-2.975c-.445 0-.463 0-.766.337l-3.331 3.787c-.302.336-.32.336-.766.336h-2.44c-.249 0-.463 0-.463-.018s.142-.177.32-.354l3.652-3.769c.178-.177.321-.336.321-.336 0-.018-.214-.088-.463-.141l-1.319-.372a2.334 2.334 0 01-.819-.39l-.107-.07a3.714 3.714 0 01-.623-.672 3.307 3.307 0 01-.357-.867l-.071-.337c-.125-.601-.125-.884.018-1.433l.125-.566c.071-.248.231-.602.392-.797l.16-.212a3.12 3.12 0 01.659-.62l.036-.035c.213-.123.587-.318.819-.389l.481-.16c.481-.176.98-.247 1.657-.247h8.515zm-8.426 5.273h5.771v-3.132h-5.7c-.143 0-.392.036-.552.071l-.232.07c-.16.054-.374.16-.499.266l-.142.124a1.082 1.082 0 00-.321.425l-.053.124c-.232.584-.054 1.274.445 1.645.125.089.339.195.463.248l.303.088c.125.036.374.071.517.071zm26.275 1.504h-10.083c0-.017-.018-.177-.018-.389v-1.22c0-.196.018-.372.018-.372 0-.018.178-.018.374-.018h9.709c.214 0 .374 0 .392.018v1.981h-.392zM71.76 58.34l-2.315.248a4.9 4.9 0 01-.89-.018l-1.729-.247a5.496 5.496 0 01-.89-.23l-.606-.23a4.975 4.975 0 01-.802-.425l-.427-.283c-.196-.142-.499-.407-.641-.602l-.588-.708c-.16-.177-.356-.53-.446-.76l-.249-.638c-.178-.477-.285-1.238-.285-1.91v-.248c0-.266.036-.655.09-.903l.213-.885a2.72 2.72 0 01.338-.813l.463-.726c.285-.46.624-.832 1.034-1.133l.178-.123c.178-.124.517-.319.766-.407l1.247-.496c.231-.088.641-.194.873-.212l2.013-.195c.231-.035.64-.017.89.018l1.675.248c.25.035.641.141.873.247l.926.407a3 3 0 01.712.496l1.016 1.044c.178.16.374.495.463.743l.125.319c.089.23.16.46.16.495 0 .018-.214.053-.463.07l-1.675.107a.848.848 0 01-.748-.372l-.25-.354c-.32-.442-.712-.707-1.353-.92l-.374-.124a4.967 4.967 0 00-.89-.176l-.963-.071a4.82 4.82 0 00-.873.053l-.908.177a3.97 3.97 0 00-.837.3l-.143.071a3.744 3.744 0 00-1.282 1.204l-.018.035c-.41.584-.588 1.186-.588 1.929v.3c0 .248.071.655.142.885l.125.372c.09.23.267.584.428.796l.142.195a3.7 3.7 0 00.66.62l.142.105c.214.142.57.319.82.407l.373.124c.232.07.624.16.873.177l1.033.07c.25.018.66 0 .891-.052l.962-.177c.231-.053.606-.177.837-.301l.143-.088c.231-.124.534-.372.677-.549l.356-.425c.16-.194.285-.407.303-.477.018-.071.231-.124.48-.107l1.71.089c.25 0 .446.053.446.106s-.053.283-.142.53l-.16.46a3.168 3.168 0 01-.428.797l-.196.283c-.16.195-.445.496-.641.637l-.339.248c-.196.16-.552.354-.784.442l-.801.319a4.831 4.831 0 01-.873.212zm6.984-11.75H90.93c.25 0 .463.019.48.019.019.017.019.23.019.477V57.88c0 .248 0 .46-.018.478 0 .018-.232.018-.481.018h-1.692c-.25 0-.464 0-.482-.018-.017-.018-.017-.23-.017-.478v-9.095h-7.785v9.095c0 .248-.018.46-.035.478 0 .018-.214.018-.481.018h-1.693c-.25 0-.463 0-.48-.018-.019-.018-.019-.23-.019-.478V47.086c0-.247 0-.46.018-.477.018 0 .232-.018.481-.018h-.002zm16.388 2.107l.998-.903c.196-.177.588-.407.837-.513L98 46.874c.25-.106.677-.212.944-.248l2.298-.23c.268-.035.695-.017.98.018l1.639.23c.267.035.695.142.962.248l.623.247c.25.107.659.301.873.46l.41.284c.499.353.891.743 1.282 1.309l.054.07c.16.248.374.673.463.939l.143.389c.106.265.196.708.213.973l.072.743c.017.266 0 .708-.054.974l-.178.902c-.053.265-.196.69-.338.938l-.179.371c-.142.23-.409.584-.623.779l-1.015.902a3.505 3.505 0 01-.838.531l-.997.39c-.25.106-.677.212-.944.247l-2.37.248c-.249.018-.694.018-.961-.035l-1.8-.266a4.567 4.567 0 01-.962-.265l-.57-.23a4.642 4.642 0 01-.873-.496l-.748-.601a2.705 2.705 0 01-.623-.726l-.784-1.522a2.74 2.74 0 01-.267-.92l-.071-.867c-.018-.265 0-.708.053-.973l.178-.902c.054-.266.196-.69.339-.938l.196-.372c.124-.23.391-.584.605-.778zm5.522-.107l-.89.142a2.441 2.441 0 00-.641.177l-.642.265c-.16.071-.41.213-.534.319l-.446.39a2.438 2.438 0 00-.391.46l-.25.388a1.776 1.776 0 00-.25.567l-.106.46a3.47 3.47 0 00-.071.62v.07c0 .495.07.973.213 1.31l.143.353c.053.16.214.39.338.513l.784.797c.125.123.339.283.499.354l.57.265c.16.07.427.142.588.177l.997.16c.179.017.464.052.624.052h.196c.178 0 .481-.035.677-.053l.855-.124c.196-.035.481-.106.659-.177l.606-.247c.16-.071.409-.23.552-.337l.463-.389a2.52 2.52 0 00.41-.46l.249-.407c.089-.142.196-.39.249-.548l.107-.46c.036-.177.072-.46.072-.62v-.088c0-.478-.072-.938-.214-1.292l-.125-.3c-.053-.178-.214-.426-.321-.567l-.338-.39a3.667 3.667 0 00-.463-.442l-.071-.053a2.292 2.292 0 00-.535-.3l-.552-.248a2.48 2.48 0 00-.588-.177l-.98-.16a6.944 6.944 0 00-.623-.035h-.16c-.179 0-.464.018-.66.035zm10.617 9.786V46.59h8.302c.213 0 .587.035.801.088l.73.16c.214.053.553.177.749.283l.285.159c.213.106.498.336.641.495l.463.549c.143.16.321.495.392.725l.018.089c.178.548.178.566.178 1.062v.389c0 .23-.053.584-.125.814l-.16.53a1.792 1.792 0 01-.428.673l-.694.637a2.84 2.84 0 01-.713.407l-.338.124a4.504 4.504 0 01-.873.212l-.499.053a7.676 7.676 0 01-.873.053h-5.201v4.283h-2.655zm2.655-6.37h5.361c.286 0 .428-.018.695-.124l.214-.071a2.06 2.06 0 00.392-.23l.267-.266a.976.976 0 00.214-.371l.053-.23c.054-.266.054-.336 0-.655l-.035-.124a1.357 1.357 0 00-.196-.425l-.143-.176a1.239 1.239 0 00-.338-.266l-.072-.035c-.106-.071-.285-.124-.409-.16l-.25-.053a3.186 3.186 0 00-.427-.035h-5.326v3.22zm11.258-5.415h12.095c.214 0 .41 0 .428.018v1.734c0 .23 0 .424-.018.424 0 0-.196.018-.41.018h-4.703v9.573c-.017.018-.196.018-.427.018h-1.835c-.231 0-.427 0-.427-.018 0 0-.018-.195-.018-.407v-9.166h-4.685c-.232 0-.428-.018-.428-.018s-.018-.194-.018-.424v-1.31c0-.23.018-.424.018-.424 0-.018.196-.018.428-.018zm28.148 0v11.785h-2.601v-9.467c0-.248-.018-.442-.036-.442 0 0-.142.159-.285.371l-6.662 9.538h-4.115V46.59h2.619v9.52c0 .247 0 .442.018.442.017 0 .142-.16.285-.371l6.697-9.591h4.08zm3.026 11.785V46.59h8.514c.232 0 .588.035.802.088l.766.16c.232.053.552.177.766.283l.232.141c.962.513 1.514 1.416 1.514 2.46v.018c0 .212-.071.566-.143.778l-.053.142a2.152 2.152 0 01-.481.654l-.445.354a3.235 3.235 0 01-.731.39l-.249.088a4.69 4.69 0 01-.606.16 7.934 7.934 0 00-.231.035c0 .017.195.07.427.124l.855.176c.588.142 1.194.478 1.496.868l.179.212c.445.566.587 1.239.392 2l-.107.424c-.054.212-.214.53-.357.708l-.053.07a3.843 3.843 0 01-.624.567l-.106.07a5.914 5.914 0 01-.749.39l-.338.106a4.66 4.66 0 01-.855.212l-.41.054a7.375 7.375 0 01-.855.053h-8.55zm2.707-6.954h5.487c.267 0 .356-.018.659-.124l.178-.071c.125-.053.303-.16.392-.23l.196-.177c.089-.089.196-.248.214-.354l.035-.106c.161-.496-.035-1.044-.445-1.31l-.214-.141c-.107-.053-.285-.142-.41-.16l-.48-.07a3.785 3.785 0 00-.446-.035h-5.166v2.778zm0 4.883l6.146-.106c.374 0 .712-.106.98-.3l.089-.071c.124-.089.267-.266.338-.39l.036-.088a1.197 1.197 0 00-.018-.991l-.089-.16a1.252 1.252 0 00-.356-.389l-.089-.053a1.626 1.626 0 00-.481-.194l-.446-.089a2.6 2.6 0 00-.534-.053h-5.576v2.884zm25.919-9.219V57.88c0 .248-.018.46-.018.478-.018.018-.231.018-.481.018h-1.692c-.267 0-.481 0-.481-.018-.018-.018-.036-.23-.036-.478v-4.424h-7.927v4.424c0 .248 0 .46-.018.478 0 .018-.231.018-.48.018h-1.693c-.249 0-.463 0-.481-.018-.018-.018-.018-.23-.018-.478V47.086c0-.247 0-.46.018-.477.018 0 .232-.018.481-.018h1.693c.249 0 .463.018.48.018.018.017.018.23.018.477v4.194h7.927v-4.194c0-.247.018-.46.036-.477 0 0 .214-.018.481-.018h1.692c.25 0 .463.018.481.018 0 .017.018.23.018.477zm13.057 8.653h-7.428l-1.015 2.177c-.178.407-.267.46-.713.46h-1.656c-.268 0-.499-.018-.499-.036 0-.035.089-.265.214-.513l5.361-11.236h4.133l5.398 11.307c.124.248.213.46.213.46 0 .018-.231.018-.498.018h-1.764c-.463 0-.534-.053-.712-.46l-1.034-2.177zm-3.812-7.75l-2.547 5.45c-.054.106-.107.23-.107.248 0 .035.107.053.232.053h5.094c.125 0 .232-.018.232-.036 0-.017-.054-.124-.107-.23l-2.547-5.485c-.054-.124-.107-.213-.125-.213-.018 0-.071.089-.125.213zm21.768-1.398v11.785h-2.654v-4.46h-2.975a.987.987 0 00-.766.337l-3.349 3.786c-.285.337-.302.337-.748.337h-2.476c-.249 0-.445-.018-.445-.036 0-.035.142-.194.32-.371l3.652-3.734c.178-.177.321-.336.321-.336 0-.018-.214-.07-.463-.142l-1.033-.23c-1.123-.265-1.942-1.061-2.191-2.088l-.054-.248a3.63 3.63 0 01.018-1.751l.142-.478c.072-.23.25-.584.41-.796l.107-.124c.16-.195.463-.478.659-.62l.054-.035c.213-.124.587-.318.837-.39l.481-.176c.499-.16.979-.23 1.674-.23h8.479zm-8.479 5.273h5.825v-3.132h-5.647c-.142 0-.392.035-.552.07l-.285.09c-.16.035-.374.14-.499.247l-.16.124a1.421 1.421 0 00-.321.407l-.035.088a1.742 1.742 0 00-.107.513v.089c0 .39.071.584.285.814l.231.248c.107.106.303.23.446.283l.285.088c.142.036.392.071.534.071zM64.327 66.8H75.12v9.151c0 .443.081.524.526.524h.425c.446 0 .527.1.527.543v4.386h-1.964c-.507 0-.547-.02-.547-.523V78.73H63.76v2.15c0 .504-.041.524-.547.524h-1.965v-4.386c0-.422.122-.543.547-.543h.224c.303 0 .649-.223.769-.483l.506-1.165c.122-.28.242-.743.283-1.027l.748-7h.002zm8.1 9.675v-7.422h-5.71l-.183 1.931c0 .122-.041.342-.062.483l-.809 3.782c-.02.141-.081.341-.142.462l-.323.764h7.229zm5.912 1.81V67.263c0-.24 0-.422.02-.442 0 0 .204-.02.425-.02h10.63c.242 0 .425.02.445.02v2.11c-.02 0-.203.021-.445.021H81.03v2.654h6.48c.223 0 .424.02.424.02.02.02.02.203.02.443v1.127c0 .223 0 .422-.02.422 0 0-.203.02-.425.02H81.03v2.958h8.686c.224 0 .425.02.425.02.02 0 .02.203.02.422v1.247c0 .24 0 .422-.02.442H78.357c-.02-.02-.02-.202-.02-.442h.002zm14.09-.02V67.284c0-.223 0-.423.02-.423 0-.02.204-.02.426-.02h7.553c.242 0 .608.02.829.081l.871.142c.224.04.588.162.809.26l.122.06c.547.261.993.625 1.275 1.047l.102.122c.142.202.282.543.343.783l.143.604a2.871 2.871 0 010 1.55l-.143.543c-.04.223-.224.544-.404.703l-.748.723a2.044 2.044 0 01-.69.422l-1.295.382c-.224.06-.588.121-.83.121h-5.69v3.883c0 .223-.02.422-.02.422-.02.02-.204.02-.446.02h-1.781c-.224 0-.425 0-.425-.02-.02 0-.02-.202-.02-.422v-.002zm8.101-9.212h-5.144c-.142 0-.241.02-.262.02v3.198h5.286c.142 0 .364-.04.506-.08l.324-.082c.142-.04.343-.141.445-.24l.323-.28c.303-.281.405-.703.283-1.267l-.021-.08a1.159 1.159 0 00-.203-.423l-.143-.182a1.309 1.309 0 00-.364-.3l-.02-.021a1.993 1.993 0 00-1.013-.26l.003-.003zm5.102 9.012l4.939-4.967c.303-.301.547-.544.547-.564 0-.02-.241-.26-.547-.564l-4.657-4.565c-.302-.3-.567-.543-.567-.564 0-.02.364-.02.789-.02h1.7c.567 0 .911.142 1.295.544l3.583 3.76c.303.302.891.565 1.316.565h.608c.629 0 .768-.162.768-.784v-3.32c0-.684.102-.763.789-.763h1.074c.69 0 .769.081.769.764v3.319c0 .645.142.784.789.784h.649c.425 0 1.012-.26 1.315-.564l3.563-3.761c.384-.402.748-.544 1.295-.544h1.659c.425 0 .769.02.769.06 0 .02-.242.302-.547.585l-4.637 4.524c-.303.301-.547.544-.547.564 0 0 .242.26.547.564l4.94 4.967c.303.3.547.584.547.604 0 .04-.344.06-.789.06h-1.842c-.588 0-.912-.14-1.316-.563l-3.705-3.862c-.303-.321-.891-.564-1.316-.564h-.588c-.628 0-.789.141-.789.763v3.44c0 .686-.081.784-.768.784h-1.074c-.69 0-.789-.1-.789-.783v-3.44c0-.625-.122-.764-.769-.764h-.649c-.425 0-1.033.24-1.315.564l-3.705 3.862c-.405.422-.749.564-1.316.564h-1.802c-.425 0-.768-.04-.768-.06 0-.041.241-.322.547-.625h.005zm34.581-1.992h-7.41l-1.013 2.192c-.204.401-.303.482-.769.482h-1.56c-.302 0-.547-.06-.547-.121 0-.06.122-.341.242-.604l5.306-11.204h4.13l5.385 11.285c.142.26.242.523.242.563 0 .04-.242.081-.547.081h-1.66c-.465 0-.567-.06-.768-.483l-1.033-2.191h.002zm-3.868-7.743l-2.491 5.329c-.041.121-.102.24-.102.28 0 .02.122.061.242.061h5.021c.142 0 .241-.02.241-.06 0-.02-.04-.162-.101-.261l-2.492-5.349c-.061-.121-.122-.202-.163-.202-.02 0-.101.08-.163.202h.008zm9.658 9.937v-10.98c0-.223.02-.423.02-.423.02-.02.204-.02.445-.02h7.675c.224 0 .609.04.83.06l.911.162c.242.04.588.142.789.24l.282.142c1.255.604 1.924 1.992 1.52 3.137l-.102.341c-.224.625-.789 1.107-1.601 1.388l-.364.121a5.846 5.846 0 01-.527.162c-.061 0-.101 0-.101.02 0 0 .183.061.425.122l.689.141c.242.06.588.202.769.321l.343.203c.184.1.446.361.588.563l.061.081c.122.202.262.544.324.784l.02.141c.122.544.122.604-.02 1.087l-.123.443c-.142.482-.404.824-.85 1.165l-.241.182c-.184.142-.507.3-.728.382l-.344.121c-.224.06-.588.142-.809.142l-9.436.202c-.224.02-.425.02-.425 0 0 0-.02-.182-.02-.422v-.008zm8.26-9.313h-5.568v2.736h5.347c.142 0 .364-.04.486-.081l.384-.101c.425-.102.748-.382.891-.764l.02-.02c.204-.544 0-1.127-.445-1.368l-.446-.24c-.241-.141-.364-.162-.669-.162zm.122 4.748h-5.69v2.553c0 .162.02.3.02.3 0 .02.143.02.303.02h5.306c.163 0 .445-.02.608-.06l.323-.08c.163-.041.405-.142.527-.24l.163-.122a.789.789 0 00.323-.442l.021-.102c.142-.462.081-.783-.184-1.107l-.203-.222a.891.891 0 00-.466-.301l-.486-.121a2.56 2.56 0 00-.567-.081l.002.005zm16.783 2.373h-7.41l-1.034 2.192c-.183.422-.302.483-.748.483h-1.58c-.283 0-.527-.04-.527-.081 0-.06.102-.321.224-.584l5.347-11.264h4.11l5.384 11.284c.123.26.224.523.224.564 0 .04-.241.08-.526.08h-1.68c-.466 0-.567-.06-.769-.482l-1.012-2.192h-.003zm-3.827-7.783l-2.532 5.43c-.061.121-.102.24-.102.26 0 0 .102.02.242.02h5.02c.123 0 .224-.04.224-.1a.967.967 0 00-.101-.301l-2.471-5.311c-.061-.122-.122-.223-.143-.223-.02 0-.081.101-.142.223l.005.002z"/></g><defs><clipPath id="clip0_69_56"><path fill="#fff" d="M0 0h216v89H0z"/></clipPath></defs></svg>