<svg width="570" height="234" fill="none" xmlns="http://www.w3.org/2000/svg"><g clip-path="url(#clip0_69_1553)"><path d="M24.417 234c-.168-1.01-.309-2.02-.51-3.024-.571-2.871-1.169-5.742-1.753-8.614-.59-2.911-1.175-5.822-1.766-8.726-.584-2.871-1.169-5.742-1.746-8.614-.537-2.678-1.068-5.363-1.605-8.041a2125.74 2125.74 0 00-1.793-8.906c-.35-1.715-.739-3.423-1.075-5.138-.308-1.582-.094-3.144.296-4.699.893-3.575 2.632-6.739 4.916-9.597 1.538-1.921 3.15-3.802 4.889-5.536 1.584-1.575 3.357-2.971 5.103-4.38 3.022-2.439 6.32-4.453 9.838-6.115 2.425-1.149 4.95-2.053 7.63-2.425.436-.06.879-.007 1.362-.007-8.34 21.301-11.16 43.22-7.817 65.837-1.625 1.336-3.317 2.659-4.922 4.074-1.296 1.144-2.532 2.366-3.727 3.609-2.794 2.905-5.104 6.148-6.79 9.804-.073.159-.113.338-.167.505h-.363V234zm86.3-194.402c-2.605.838-5.043 1.575-7.44 2.413a234.53 234.53 0 00-7.582 2.824c-1.92.751-3.841 1.529-5.715 2.386-4.345 2-8.696 3.988-12.974 6.135-3.23 1.615-6.34 3.456-9.496 5.217-1.296.725-2.592 1.456-3.848 2.253-3.471 2.213-6.97 4.387-10.362 6.706-3.64 2.493-7.192 5.118-10.737 7.743-2.076 1.535-4.084 3.157-6.071 4.799-2.13 1.76-4.258 3.535-6.293 5.41-3.055 2.811-6.05 5.689-9.039 8.58-1.202 1.163-2.377 2.36-3.445 3.642-2.45 2.938-4.868 5.895-7.205 8.913a53.326 53.326 0 00-3.56 5.237c-2.23 3.722-4.156 7.59-4.996 11.89-.195 1.004-.242 2.034-.37 3.11H.767c0-1.302-.027-2.592.006-3.881.027-.871.155-1.735.208-2.599.188-3.15.645-6.267 1.196-9.378.906-5.137 2.357-10.122 4.143-15.013 1.565-4.274 3.506-8.381 5.648-12.395a97.15 97.15 0 016.594-10.648c1.834-2.572 3.815-5.044 5.776-7.53 1.054-1.336 2.175-2.625 3.31-3.908 1.397-1.575 2.787-3.157 4.251-4.665a245 245 0 016.346-6.288 91.133 91.133 0 014.42-3.915c1.926-1.614 3.9-3.183 5.875-4.745 1.645-1.302 3.29-2.625 4.996-3.841a311.573 311.573 0 018.025-5.53 190.783 190.783 0 016.723-4.28 161.124 161.124 0 016.493-3.769c3.17-1.734 6.347-3.462 9.583-5.077 3.345-1.668 6.716-3.284 10.14-4.772a284.961 284.961 0 0111.746-4.772 183.974 183.974 0 0110.026-3.476c4.654-1.47 9.361-2.792 14.163-3.722 2.129-.412 4.251-.858 6.393-1.17 1.813-.26 3.66-.345 5.487-.505.792-.066 1.591-.106 2.471-.166v.977c0 1.555.047 3.11-.014 4.665-.08 2.28-.201 4.553-.362 6.826a96.043 96.043 0 01-.484 5.018 147.672 147.672 0 01-.826 5.975c-.369 2.293-.745 4.593-1.229 6.866a154.62 154.62 0 01-1.893 7.975 90.328 90.328 0 01-2.102 6.832 153.458 153.458 0 01-3.157 8.155c-.953 2.253-2.068 4.44-3.102 6.66-1.531 3.296-3.385 6.42-5.393 9.45a180.754 180.754 0 01-5.144 7.391c-1.349 1.835-2.854 3.556-4.304 5.317-2.942 3.582-6.232 6.846-9.576 10.043-1.767 1.688-3.62 3.296-5.507 4.865-2.485 2.067-4.996 4.114-7.582 6.061-2.592 1.961-5.231 3.861-7.944 5.649a398.932 398.932 0 01-12.404 7.876c-3.33 2.027-6.755 3.888-10.153 5.802-2.935 1.655-5.883 3.29-8.831 4.918-2.451 1.35-4.936 2.646-7.374 4.021-3.485 1.968-6.964 3.942-10.395 5.995-2.666 1.602-5.312 3.25-7.864 5.025-2.183 1.509-4.264 3.177-6.313 4.865-1.463 1.203-2.874 2.492-4.163 3.875-2.25 2.406-4.19 5.051-5.567 8.068-.954 2.1-1.639 4.267-1.9 6.553-.142 1.236-.222 2.486-.35 3.888-.148-.199-.302-.319-.336-.465-.57-2.632-1.128-5.27-1.692-7.902-.45-2.114-.907-4.227-1.363-6.341-.222-1.037-.55-2.067-.658-3.117-.094-.957-.014-1.947.094-2.911.147-1.389.356-2.778.59-4.154.504-2.904 1.39-5.689 2.532-8.407a46.7 46.7 0 015.09-9.066c1.095-1.528 2.217-3.044 3.466-4.439 2.243-2.506 4.533-4.972 6.917-7.351 1.544-1.542 3.27-2.911 4.95-4.313 1.705-1.423 3.424-2.838 5.197-4.174a204.464 204.464 0 017.078-5.111 637.551 637.551 0 0110.96-7.37c2.968-1.948 6.003-3.796 9.005-5.703a923.377 923.377 0 006.876-4.394c3.412-2.213 6.857-4.386 10.215-6.679 3.008-2.047 5.983-4.16 8.857-6.38 2.713-2.1 5.319-4.347 7.904-6.613a46.53 46.53 0 004.151-4.12c1.39-1.57 2.659-3.25 3.921-4.926 1.619-2.133 2.922-4.46 3.942-6.932.887-2.14 1.532-4.34 1.807-6.64.121-1.036.201-2.073.322-3.296l.04-.02z" fill="#E53009"/><path d="M165.26 100.484V69.5h22.094c.611 0 1.551.14 2.115.279l2.069.511c.564.093 1.457.466 1.974.745l.376.232c.517.28 1.269.884 1.645 1.303l1.27 1.442c.376.419.846 1.256 1.034 1.861l.047.093c.188.605.423 1.582.47 2.187l.047.512c.047.604 0 1.535-.094 2.14l-.329 1.674c-.094.605-.423 1.443-.752 1.954l-.752 1.024c-.376.512-1.082 1.21-1.599 1.535l-.141.093c-.517.373-1.457.791-2.021 1.024l-.893.279c-.564.233-1.504.372-2.116.419l-17.44.372v11.305h-7.004zm21.248-25.216h-14.244v8.468h13.492c.329 0 .94-.047 1.41-.093.47-.093 1.081-.233 1.41-.373h.047c1.222-.465 2.21-1.349 2.492-2.326l.047-.232c.235-.698.235-1.536.047-2.373l-.047-.047c-.188-.837-.658-1.535-1.27-1.954l-.329-.232c-.611-.419-2.209-.838-3.055-.838zm29.521-5.722l3.338-.465c.752-.093 1.974-.186 2.679-.186h.846c.752 0 1.928.093 2.633.232l4.136.652c.705.093 1.834.418 2.492.744l2.303 1.023c.658.28 1.645.884 2.21 1.35l.282.232c.611.419 1.41 1.257 1.88 1.815l1.034 1.256c.423.558.987 1.582 1.269 2.28l.517 1.349c.565 1.395.847 3.256.847 5.257v.233c0 .697-.141 1.86-.33 2.558l-.47 2.14c-.188.698-.611 1.768-1.034 2.373l-1.269 1.954c-.423.605-1.222 1.489-1.786 1.907l-1.458 1.164c-.564.418-1.598 1.023-2.303 1.302l-2.632 1.07c-.706.233-1.834.559-2.586.605l-5.406.558a12.01 12.01 0 01-2.585 0l-4.936-.604c-.705-.093-1.833-.42-2.538-.698l-2.774-1.21c-.658-.325-1.692-.93-2.256-1.35l-.235-.185c-.612-.465-1.458-1.303-1.881-1.908l-1.175-1.442c-.423-.558-1.034-1.582-1.269-2.28l-.517-1.488c-.517-1.396-.705-2.652-.705-4.56v-.883c0-.745.141-1.908.329-2.606l.564-2.093c.141-.698.658-1.768 1.081-2.373l1.222-1.815c.423-.604 1.222-1.442 1.786-1.907l1.223-.93c.564-.466 1.598-1.07 2.256-1.303l2.633-1.07c.658-.28 1.833-.605 2.585-.698zm4.231 5.257l-2.116.326c-.47.046-1.269.279-1.692.465l-1.692.698c-.423.14-1.034.558-1.363.837l-1.176.977a5.5 5.5 0 00-1.034 1.257l-.752 1.163c-.235.372-.47 1.07-.564 1.488l-.329 1.582c-.094.419-.141 1.163-.094 1.582l.094 1.303c.047.465.188 1.163.376 1.628l.423 1.117c.188.418.564 1.07.893 1.442l.752.93c.282.372.846.884 1.223 1.163l.141.093c.376.28.987.652 1.41.838l1.457.651c.423.186 1.128.372 1.598.465l2.962.419c1.034.14 1.88.14 3.008 0l2.774-.372c.47-.047 1.269-.233 1.692-.419l1.786-.744c.423-.186 1.082-.605 1.411-.93l1.222-1.024c.329-.326.846-.884 1.081-1.21l.329-.512c.235-.372.564-1.023.658-1.488l.376-1.257c.141-.418.235-1.163.235-1.628v-.977c0-1.21-.188-2.186-.564-3.117l-.423-1.023a7.098 7.098 0 00-.893-1.396l-.564-.698c-.282-.326-.846-.837-1.222-1.163l-.141-.093a9.069 9.069 0 00-1.458-.838l-1.504-.697c-.423-.187-1.128-.42-1.551-.466l-2.257-.372c-.423-.093-1.175-.14-1.645-.14h-1.128c-.47 0-1.222.047-1.739.14zm39.769-5.257l6.064-.605a13.3 13.3 0 012.35.093l3.949.605c.611.093 1.645.372 2.256.605l1.551.605c.611.232 1.552.744 2.069 1.116l.94.652c.564.372 1.316 1.116 1.739 1.628l1.081 1.35c.376.51.894 1.441 1.129 2.093l.188.558c.376 1.21.423 1.256.329 1.35-.047.046-.611.092-1.27.139l-4.371.279c-.658 0-1.458-.465-1.834-1.024-.329-.605-1.081-1.442-1.598-1.814l-.517-.372c-.564-.419-1.551-.884-2.209-1.117l-.894-.279c-1.363-.465-3.384-.744-5.217-.744h-.188c-.659 0-1.74.093-2.351.232l-2.35.512c-.611.186-1.599.605-2.163.93l-1.175.838c-.517.372-1.316 1.116-1.692 1.628l-.564.745c-.987 1.395-1.552 3.21-1.552 5.164v.605c0 .65.189 1.674.377 2.326l.329 1.023c.188.651.705 1.582 1.128 2.094l.188.279c.423.512 1.175 1.256 1.739 1.628l.752.558c.517.373 1.505.884 2.163 1.07l.846.326c.658.186 1.739.419 2.397.465l2.21.186c.658.047 1.739 0 2.35-.093l2.538-.418c.612-.093 1.646-.466 2.21-.745l.752-.372c.564-.279 1.363-.93 1.786-1.442l.94-1.117c.423-.465.753-1.023.8-1.256.047-.186.611-.325 1.269-.279l4.513.14c.658.046 1.175.232 1.175.418 0 .187-.188.838-.376 1.443l-.564 1.395c-.235.605-.753 1.536-1.223 2.094l-.517.651c-.971 1.24-2.131 2.14-3.478 2.699l-3.667 1.535c-.611.232-1.692.512-2.35.558l-5.03.512c-.611.046-1.693.046-2.351-.047l-4.512-.511a13.8 13.8 0 01-2.304-.559l-1.927-.744c-.611-.233-1.598-.698-2.116-1.07l-1.504-1.024a11.422 11.422 0 01-1.739-1.628l-1.363-1.675c-.423-.511-.94-1.442-1.175-2.093l-.612-1.536c-.235-.604-.47-1.767-.564-2.512l-.047-.14c-.094-.744-.141-1.907-.141-2.558v-.186c0-.652.094-1.722.235-2.373l.423-2.187c.141-.604.517-1.628.8-2.186l.47-.884c.282-.558.893-1.442 1.316-1.954l.094-.14c.423-.511 1.222-1.302 1.739-1.675l1.363-1.07c.517-.372 1.458-.93 2.069-1.163l2.632-1.023c.611-.233 1.598-.466 2.257-.512zm41.273-.047l6.017-.558c.611-.046 1.645 0 2.303.093l4.137.605c.658.14 1.692.419 2.256.698l2.257.977c.611.279 1.504.79 2.021 1.21l.376.279a14.306 14.306 0 011.692 1.675l.846 1.116c.424.512.941 1.442 1.129 2.047l.188.465c.423 1.163.47 1.396.329 1.49 0 .046-.564.092-1.222.139l-4.231.279c-.705 0-1.41-.326-1.692-.791-.612-1.117-1.928-2.28-3.244-2.838l-2.115-.884c-.612-.28-1.74-.558-2.492-.651l-.282-.047c-.752-.093-1.927-.14-2.585-.14h-.047c-.705 0-1.74.094-2.398.233l-2.068.419c-.611.14-1.598.512-2.209.79l-.377.233c-.564.326-1.41.977-1.833 1.49l-1.363 1.581c-.423.512-.94 1.442-1.128 2.094l-.282 1.116c-.611 2.14-.611 2.745 0 4.792l.423 1.303c.188.605.705 1.488 1.175 1.954l2.585 2.419c.47.419 1.364.977 2.022 1.163l1.034.372c.658.186 1.739.419 2.397.465l2.304.186c.658.047 1.739 0 2.397-.14l2.68-.464c.658-.14 1.645-.512 2.256-.791l.376-.233c.564-.279 1.363-.977 1.786-1.489l1.035-1.256c.423-.512.799-1.023.846-1.163 0-.14.564-.232 1.222-.186l4.513.14c.658.046 1.222.093 1.222.186 0 .046-.188.605-.423 1.21l-.517 1.535c-.235.605-.705 1.582-1.129 2.093l-.517.745c-.423.558-1.175 1.302-1.692 1.675l-.893.697c-.517.419-1.457.93-2.115 1.163l-2.069.838c-.658.232-1.692.465-2.35.558l-5.641.605c-.658.046-1.739.046-2.351-.047l-4.559-.511c-.658-.093-1.646-.326-2.257-.605l-3.149-1.303c-.564-.279-1.505-.79-2.069-1.21l-.611-.465a10.096 10.096 0 01-1.739-1.721l-.987-1.21c-.376-.511-.94-1.442-1.175-2.047l-.706-1.86c-.235-.605-.47-1.629-.517-2.28l-.188-2.466c-.047-.651 0-1.721.094-2.326l.517-2.605c.142-.652.471-1.629.753-2.234l.564-1.116c.329-.605.987-1.442 1.457-1.861l2.82-2.652c.471-.419 1.364-.977 2.022-1.21l2.914-1.21c.611-.232 1.646-.465 2.257-.558zm65.811 0v30.985h-6.91v-24.89c0-.651 0-1.163-.047-1.163s-.376.419-.752.977l-17.581 25.076h-10.859V69.5h7.004v24.75c0 .698.047 1.21.047 1.21.047 0 .376-.42.752-.977l17.534-24.984h10.812zm40.098 0v30.985h-7.004V88.76h-7.851c-1.175 0-1.222 0-2.021.884l-8.791 9.956c-.799.884-.846.884-2.021.884h-6.44c-.658 0-1.222 0-1.222-.046 0-.047.376-.466.846-.93l9.637-9.91c.47-.466.846-.884.846-.884 0-.047-.564-.233-1.222-.373l-3.479-.976c-.658-.14-1.645-.605-2.162-1.024l-.282-.186c-.518-.419-1.27-1.21-1.646-1.768-.376-.605-.799-1.628-.94-2.28l-.188-.884c-.329-1.581-.329-2.326.047-3.768l.329-1.489c.188-.651.611-1.581 1.034-2.093l.423-.559c.376-.511 1.176-1.256 1.74-1.628l.094-.093c.564-.326 1.551-.837 2.162-1.023l1.269-.42c1.269-.464 2.586-.65 4.372-.65h22.47zm-22.235 13.865h15.231v-8.235h-15.043c-.376 0-1.034.093-1.457.186l-.611.186c-.423.14-.987.419-1.316.698l-.377.326c-.329.232-.705.744-.846 1.116l-.141.326c-.611 1.535-.141 3.35 1.175 4.326.33.233.894.512 1.223.652l.799.232a6.42 6.42 0 001.363.186zm69.337 3.954h-26.607c0-.046-.047-.465-.047-1.023v-3.21c0-.512.047-.978.047-.978 0-.046.471-.046.988-.046h25.619c.564 0 .987 0 1.034.046v5.211h-1.034zm-264.944 66.07l-6.111.651c-.659.047-1.693.047-2.351-.046l-4.56-.651c-.658-.094-1.692-.373-2.35-.605l-1.598-.605c-.611-.233-1.552-.744-2.116-1.117l-1.128-.744c-.517-.372-1.316-1.07-1.692-1.582l-1.551-1.861c-.423-.465-.941-1.395-1.176-2l-.658-1.675c-.47-1.256-.752-3.257-.752-5.025v-.651c0-.698.094-1.721.235-2.373l.564-2.326c.141-.651.517-1.582.893-2.14l1.223-1.907c.752-1.21 1.645-2.187 2.726-2.978l.47-.326c.47-.325 1.363-.837 2.022-1.07l3.29-1.302c.611-.233 1.692-.512 2.304-.559l5.311-.511c.612-.093 1.693-.047 2.351.046l4.419.652c.658.093 1.692.372 2.303.651l2.444 1.07c.612.279 1.458.884 1.881 1.303l2.679 2.744c.47.419.987 1.303 1.222 1.954l.329.838c.236.605.424 1.209.424 1.303 0 .046-.565.139-1.223.186l-4.418.279c-.8.046-1.505-.326-1.975-.977l-.658-.931c-.846-1.163-1.88-1.861-3.572-2.419l-.988-.326c-.611-.186-1.692-.418-2.35-.465l-2.539-.186c-.611-.046-1.692.047-2.303.14l-2.397.465c-.611.139-1.599.465-2.21.791l-.376.186c-1.269.698-2.444 1.768-3.384 3.163l-.047.094c-1.082 1.535-1.552 3.117-1.552 5.071v.79c0 .652.188 1.722.376 2.327l.33.977c.235.604.705 1.535 1.128 2.093l.376.512c.423.512 1.175 1.256 1.739 1.628l.376.279a11.55 11.55 0 002.163 1.07l.987.326c.611.186 1.645.419 2.303.465l2.727.186c.658.047 1.739 0 2.35-.139l2.538-.465c.611-.14 1.599-.466 2.21-.791l.376-.233c.611-.326 1.41-.977 1.786-1.442l.94-1.117c.423-.511.752-1.07.799-1.256.047-.186.612-.325 1.27-.279l4.512.233c.659 0 1.176.139 1.176.279 0 .139-.141.744-.376 1.396l-.423 1.209c-.189.605-.706 1.535-1.129 2.094l-.517.744c-.423.512-1.175 1.303-1.692 1.675l-.893.651c-.517.419-1.457.931-2.069 1.163l-2.115.838c-.611.232-1.645.465-2.303.558zm18.427-30.892h32.16c.658 0 1.222.047 1.269.047.047.046.047.605.047 1.256v28.379c0 .652 0 1.21-.047 1.257 0 .046-.611.046-1.269.046h-4.466c-.658 0-1.222 0-1.269-.046-.047-.047-.047-.605-.047-1.257v-23.913h-20.542v23.913c0 .652-.047 1.21-.094 1.257 0 .046-.565.046-1.27.046h-4.465c-.659 0-1.223 0-1.27-.046-.047-.047-.047-.605-.047-1.257v-28.379c0-.651 0-1.21.047-1.256.047 0 .611-.047 1.27-.047h-.007zm43.247 5.537l2.633-2.373c.517-.465 1.551-1.07 2.209-1.349l2.727-1.07c.658-.279 1.786-.558 2.491-.652l6.064-.604c.705-.093 1.833-.047 2.585.046l4.325.605c.705.093 1.834.372 2.539.651l1.645.652c.658.279 1.739.791 2.303 1.209l1.082.745c1.316.93 2.35 1.954 3.384 3.442l.141.186c.423.652.987 1.768 1.222 2.466l.376 1.024c.282.698.518 1.861.565 2.559l.188 1.954c.047.697 0 1.86-.141 2.558l-.471 2.373c-.141.698-.517 1.814-.893 2.466l-.47.977c-.376.605-1.081 1.535-1.645 2.047l-2.68 2.373c-.564.511-1.551 1.116-2.209 1.395l-2.632 1.024c-.658.279-1.787.558-2.492.651l-6.252.651c-.658.047-1.833.047-2.538-.093l-4.748-.698c-.705-.093-1.88-.418-2.539-.697l-1.504-.605c-.705-.279-1.739-.884-2.303-1.303l-1.975-1.582c-.564-.418-1.316-1.302-1.645-1.907l-2.068-4.001c-.329-.605-.658-1.721-.705-2.419l-.188-2.28c-.047-.698 0-1.861.141-2.559l.47-2.372c.141-.698.517-1.815.893-2.466l.517-.977c.329-.605 1.034-1.536 1.598-2.047zm14.573-.279l-2.351.372c-.517.046-1.269.279-1.692.465l-1.692.698c-.423.186-1.081.558-1.41.837l-1.176 1.024c-.329.279-.799.837-1.034 1.209l-.658 1.024c-.282.372-.564 1.07-.658 1.489l-.282 1.209a9.091 9.091 0 00-.188 1.629v.186c0 1.302.188 2.559.564 3.442l.376.931c.141.419.564 1.023.893 1.349l2.069 2.094c.329.325.893.744 1.316.93l1.504.698c.423.186 1.128.372 1.551.465l2.633.419c.47.046 1.222.14 1.645.14h.517c.47 0 1.269-.094 1.786-.14l2.257-.326c.517-.093 1.269-.279 1.739-.465l1.598-.651c.423-.186 1.082-.605 1.458-.884l1.222-1.024c.329-.279.846-.837 1.081-1.209l.658-1.07c.235-.373.517-1.024.658-1.443l.282-1.209c.094-.465.188-1.21.188-1.629v-.232c0-1.256-.188-2.466-.564-3.396l-.329-.791c-.141-.466-.564-1.117-.846-1.489l-.893-1.024c-.329-.372-.846-.884-1.222-1.163l-.188-.139c-.376-.279-.988-.652-1.411-.791l-1.457-.651c-.423-.187-1.128-.419-1.551-.466l-2.586-.418a18.254 18.254 0 00-1.645-.093h-.423c-.47 0-1.222.046-1.739.093zm28.017 25.727v-30.985h21.905c.564 0 1.552.093 2.116.233l1.927.419c.564.139 1.457.465 1.974.744l.753.419c.564.279 1.316.884 1.692 1.303l1.222 1.442c.376.418.846 1.302 1.034 1.907l.047.233c.47 1.442.47 1.489.47 2.791v1.024c0 .605-.141 1.535-.329 2.14l-.423 1.396c-.188.558-.658 1.349-1.128 1.767l-1.833 1.675c-.47.372-1.317.884-1.881 1.07l-.893.326c-.611.233-1.598.465-2.303.558l-1.316.14c-.659.093-1.74.139-2.304.139h-13.726v11.259h-7.004zm7.004-16.748h14.149c.752 0 1.128-.047 1.834-.326l.564-.186c.329-.14.799-.419 1.034-.605l.705-.698c.235-.232.47-.651.564-.977l.141-.605c.141-.697.141-.884 0-1.721l-.094-.326c-.094-.372-.329-.884-.517-1.116l-.376-.465c-.188-.233-.611-.559-.893-.698l-.188-.093c-.282-.186-.752-.326-1.081-.419l-.659-.14a8.593 8.593 0 00-1.128-.093h-14.055v8.468zm29.709-14.237h31.918c.565 0 1.082 0 1.129.047v4.559c0 .605 0 1.117-.047 1.117 0 0-.517.046-1.082.046h-12.41v25.17c-.047.046-.517.046-1.128.046h-4.842c-.611 0-1.128 0-1.128-.046 0 0-.047-.512-.047-1.07v-24.1h-12.363c-.611 0-1.128-.046-1.128-.046s-.047-.512-.047-1.117v-3.442c0-.605.047-1.117.047-1.117 0-.047.517-.047 1.128-.047zm74.279 0v30.985h-6.863v-24.89c0-.651-.047-1.163-.094-1.163 0 0-.376.419-.752.977l-17.581 25.076h-10.859v-30.985h6.91v25.03c0 .651 0 1.163.047 1.163s.376-.419.753-.977l17.675-25.216h10.764zm7.985 30.985v-30.985h22.47c.611 0 1.551.093 2.115.233l2.022.419c.611.139 1.457.465 2.021.744l.611.372c2.539 1.35 3.996 3.722 3.996 6.467v.047c0 .558-.188 1.488-.376 2.047l-.141.372c-.235.558-.799 1.303-1.269 1.721l-1.176.931c-.517.372-1.363.837-1.927 1.023l-.658.233c-.564.186-1.269.372-1.598.419-.329.046-.612.093-.612.093 0 .046.518.186 1.129.325l2.256.465c1.551.373 3.15 1.257 3.949 2.28l.47.558c1.175 1.489 1.551 3.257 1.034 5.258l-.282 1.116c-.141.558-.564 1.396-.94 1.861l-.141.186c-.376.465-1.128 1.117-1.646 1.489l-.282.186a15.84 15.84 0 01-1.974 1.024l-.893.279c-.611.232-1.598.465-2.256.558l-1.082.14c-.658.093-1.692.139-2.256.139H412.61zm7.145-18.284h14.479c.705 0 .94-.046 1.739-.325l.47-.186c.329-.14.799-.419 1.034-.605l.517-.465c.235-.233.518-.652.565-.931l.094-.279c.423-1.303-.094-2.745-1.176-3.443l-.564-.372c-.282-.14-.752-.372-1.081-.419l-1.269-.186a10.107 10.107 0 00-1.175-.093h-13.633v7.304zm0 12.841l16.218-.279c.987 0 1.88-.279 2.586-.791l.235-.186c.329-.233.705-.698.893-1.024l.094-.232c.376-.884.329-1.861-.047-2.606l-.235-.418c-.188-.373-.611-.791-.94-1.024l-.235-.14c-.33-.232-.894-.418-1.27-.511l-1.175-.233c-.376-.093-.987-.139-1.41-.139h-14.714v7.583zm68.397-24.239v28.379c0 .652-.047 1.21-.047 1.257-.047.046-.611.046-1.269.046h-4.466c-.705 0-1.269 0-1.269-.046-.047-.047-.094-.605-.094-1.257v-11.63h-20.919v11.63c0 .652 0 1.21-.047 1.257 0 .046-.611.046-1.269.046h-4.466c-.658 0-1.222 0-1.269-.046-.047-.047-.047-.605-.047-1.257v-28.379c0-.651 0-1.21.047-1.256.047 0 .611-.047 1.269-.047h4.466c.658 0 1.222.047 1.269.047.047.046.047.605.047 1.256v11.026h20.919v-11.026c0-.651.047-1.21.094-1.256 0 0 .564-.047 1.269-.047h4.466c.658 0 1.222.047 1.269.047 0 .046.047.605.047 1.256zm34.457 22.75h-19.602l-2.68 5.722c-.47 1.071-.705 1.21-1.88 1.21h-4.372c-.705 0-1.316-.046-1.316-.093 0-.093.235-.698.564-1.349l14.149-29.543h10.906l14.244 29.729c.329.651.564 1.21.564 1.21 0 .046-.611.046-1.316.046h-4.654c-1.222 0-1.41-.139-1.88-1.21l-2.727-5.722zm-10.06-20.377l-6.722 14.329c-.141.279-.282.605-.282.651 0 .093.282.14.611.14H519.6c.33 0 .612-.047.612-.093 0-.047-.141-.326-.282-.605l-6.723-14.422c-.141-.326-.282-.558-.329-.558-.047 0-.188.232-.329.558zm57.444-3.676v30.985h-7.004v-11.724h-7.85c-.815 0-1.489.295-2.022.884l-8.837 9.956c-.752.884-.799.884-1.975.884h-6.534c-.658 0-1.175-.046-1.175-.093 0-.093.376-.512.846-.977l9.637-9.816c.47-.466.846-.884.846-.884 0-.047-.564-.186-1.222-.373l-2.727-.604c-2.961-.698-5.124-2.792-5.782-5.49l-.141-.651c-.376-1.582-.329-3.211.047-4.606l.376-1.256c.188-.605.658-1.536 1.082-2.094l.282-.326a11.444 11.444 0 011.739-1.628l.141-.093c.564-.326 1.551-.837 2.209-1.024l1.27-.465c1.316-.418 2.585-.605 4.418-.605h22.376zm-22.376 13.864h15.372v-8.234h-14.902c-.376 0-1.034.093-1.457.186l-.752.233a3.487 3.487 0 00-1.316.651l-.423.325c-.282.233-.705.745-.846 1.071l-.094.232c-.141.372-.282.977-.282 1.349v.233c0 1.023.188 1.535.752 2.14l.611.651c.282.28.799.605 1.175.745l.752.232a7.33 7.33 0 001.41.186zm-377.864 39.273h28.48v24.059c0 1.163.215 1.376 1.39 1.376h1.122c1.175 0 1.39.266 1.39 1.429v11.531h-5.185c-1.336 0-1.443-.053-1.443-1.376v-5.656h-27.252v5.656c0 1.323-.107 1.376-1.443 1.376h-5.185v-11.531c0-1.11.323-1.429 1.444-1.429h.591c.799 0 1.712-.585 2.028-1.269l1.336-3.064c.323-.738.638-1.954.746-2.699l1.974-18.403h.007zm21.375 25.435v-19.513h-15.069l-.484 5.077c0 .319-.107.898-.161 1.27l-2.136 9.943a4.53 4.53 0 01-.376 1.216l-.852 2.007h19.078zm15.6 4.759v-28.978c0-.631 0-1.11.054-1.163 0 0 .537-.053 1.121-.053h28.051c.638 0 1.121.053 1.175.053v5.55c-.054 0-.537.053-1.175.053h-22.121v6.978h17.098c.591 0 1.121.054 1.121.054.054.053.054.531.054 1.163v2.964c0 .585 0 1.11-.054 1.11 0 0-.537.053-1.121.053h-17.098v7.776h22.92c.591 0 1.121.053 1.121.053.054 0 .054.532.054 1.11v3.277c0 .631 0 1.11-.054 1.163h-31.099c-.054-.053-.054-.532-.054-1.163h.007zm37.184-.053v-28.872c0-.585 0-1.11.053-1.11 0-.053.537-.053 1.122-.053h19.931c.638 0 1.605.053 2.189.213l2.297.372c.591.106 1.551.425 2.136.685l.322.159c1.444.685 2.619 1.642 3.364 2.752l.269.319c.376.531.745 1.429.907 2.06l.376 1.589c.376 1.428.376 2.698 0 4.074l-.376 1.429c-.108.584-.591 1.429-1.068 1.847l-1.975 1.901c-.429.425-1.282.95-1.819 1.11l-3.419 1.004c-.591.159-1.551.319-2.189.319h-15.016v10.208c0 .585-.053 1.11-.053 1.11-.054.053-.538.053-1.175.053h-4.701c-.591 0-1.122 0-1.122-.053-.053 0-.053-.532-.053-1.11v-.006zm21.375-24.219h-13.572c-.376 0-.638.053-.692.053v8.407h13.948c.376 0 .96-.106 1.337-.212l.852-.213c.376-.106.907-.372 1.176-.631l.852-.738c.8-.738 1.068-1.848.746-3.33l-.054-.213c-.054-.319-.322-.844-.537-1.109l-.376-.479c-.215-.266-.638-.631-.96-.791l-.054-.053c-.907-.479-1.659-.685-2.673-.685l.007-.006zm13.464 23.693l13.035-13.059c.799-.791 1.444-1.429 1.444-1.482 0-.054-.638-.685-1.444-1.483l-12.289-12.003c-.799-.791-1.498-1.429-1.498-1.482 0-.053.96-.053 2.082-.053h4.486c1.497 0 2.404.372 3.418 1.429l9.455 9.89c.799.791 2.351 1.482 3.472 1.482h1.605c1.659 0 2.028-.426 2.028-2.061V177.7c0-1.801.269-2.007 2.082-2.007h2.834c1.82 0 2.028.212 2.028 2.007v8.726c0 1.695.376 2.061 2.082 2.061h1.712c1.122 0 2.673-.685 3.472-1.482l9.402-9.89c1.014-1.057 1.974-1.429 3.418-1.429h4.378c1.122 0 2.028.053 2.028.16 0 .053-.638.791-1.443 1.535l-12.236 11.897c-.799.791-1.444 1.429-1.444 1.482 0 0 .638.684 1.444 1.482l13.035 13.06c.799.791 1.444 1.535 1.444 1.588 0 .106-.907.16-2.082.16h-4.862c-1.551 0-2.404-.373-3.472-1.483l-9.778-10.155c-.799-.844-2.35-1.482-3.472-1.482h-1.551c-1.659 0-2.082.372-2.082 2.007v9.046c0 1.801-.215 2.06-2.028 2.06h-2.834c-1.82 0-2.081-.266-2.081-2.06v-9.046c0-1.641-.323-2.007-2.029-2.007h-1.712c-1.121 0-2.726.631-3.472 1.482l-9.778 10.155c-1.067 1.11-1.974 1.483-3.471 1.483h-4.755c-1.121 0-2.028-.107-2.028-.16 0-.106.638-.844 1.444-1.642h.013zm91.256-5.237h-19.555l-2.673 5.763c-.537 1.056-.799 1.269-2.028 1.269h-4.116c-.8 0-1.444-.16-1.444-.319 0-.16.322-.897.638-1.589l14.001-29.456h10.9l14.21 29.669c.376.685.637 1.376.637 1.482 0 .107-.637.213-1.443.213h-4.379c-1.229 0-1.497-.16-2.028-1.269l-2.726-5.763h.006zM359.8 179.654l-6.575 14.01c-.107.319-.268.632-.268.738 0 .053.322.159.638.159h13.249c.376 0 .638-.053.638-.159 0-.053-.107-.426-.268-.685l-6.575-14.063c-.161-.319-.322-.532-.429-.532-.054 0-.269.213-.43.532h.02zm25.485 26.126v-28.871c0-.585.054-1.11.054-1.11.053-.053.537-.053 1.175-.053h20.254c.591 0 1.605.106 2.189.159l2.404.426c.638.106 1.551.372 2.082.631l.745.372c3.311 1.589 5.077 5.238 4.009 8.248l-.268.898c-.591 1.641-2.082 2.911-4.224 3.648l-.961.319c-.591.213-1.175.373-1.39.426-.161 0-.268 0-.268.053 0 0 .483.159 1.121.319l1.82.372c.638.16 1.551.532 2.028.844l.907.532c.483.266 1.175.95 1.551 1.482l.161.213c.323.531.692 1.429.853 2.06l.054.372c.322 1.429.322 1.589-.054 2.858l-.322 1.163c-.376 1.27-1.068 2.167-2.243 3.064l-.638.479c-.484.372-1.337.79-1.921 1.003l-.906.319c-.591.16-1.552.372-2.136.372l-24.901.532c-.591.053-1.121.053-1.121 0 0 0-.054-.479-.054-1.11v-.02zm21.798-24.484H392.39v7.191h14.109c.376 0 .96-.107 1.283-.213l1.014-.266c1.121-.266 1.974-1.003 2.35-2.007l.054-.053c.537-1.429 0-2.964-1.175-3.596l-1.176-.631c-.637-.372-.96-.425-1.766-.425zm.323 12.481H392.39v6.713c0 .425.054.791.054.791 0 .053.376.053.799.053h14.001c.43 0 1.176-.053 1.605-.16l.853-.212c.43-.107 1.068-.373 1.39-.632l.43-.319c.376-.212.746-.737.853-1.163l.054-.266c.376-1.216.215-2.06-.484-2.911l-.537-.585c-.269-.372-.799-.684-1.229-.79l-1.283-.32a6.79 6.79 0 00-1.497-.212l.007.013zm44.288 6.241h-19.555l-2.727 5.762c-.483 1.11-.799 1.27-1.974 1.27h-4.17c-.746 0-1.391-.107-1.391-.213 0-.16.269-.844.591-1.535l14.11-29.616h10.845l14.21 29.669c.322.684.591 1.376.591 1.482 0 .106-.638.213-1.39.213h-4.432c-1.229 0-1.498-.16-2.029-1.27l-2.672-5.762h-.007zm-10.1-20.464l-6.682 14.276c-.161.319-.269.632-.269.685 0 0 .269.053.638.053h13.25c.322 0 .591-.106.591-.266 0-.106-.107-.478-.269-.791l-6.52-13.963c-.161-.319-.323-.585-.376-.585-.054 0-.215.266-.376.585l.013.006z" fill="#fff"/></g><defs><clipPath id="clip0_69_1553"><path fill="#fff" d="M0 0h570v234H0z"/></clipPath></defs></svg>