<svg width="294" height="160" fill="none" xmlns="http://www.w3.org/2000/svg"><path d="M72.188 71.4h18.648V91h-4.144V74.788h-10.36V91h-4.144V71.4zm30.324 4.592c2.408 0 4.246.532 5.516 1.596 1.288 1.045 1.932 2.623 1.932 4.732V91h-3.696v-2.828c-1.27 2.11-3.379 3.164-6.328 3.164-1.849 0-3.249-.401-4.2-1.204-.953-.803-1.428-1.857-1.428-3.164 0-1.437.587-2.52 1.763-3.248 1.195-.728 2.96-1.185 5.293-1.372l4.648-.364v-.504c0-.821-.29-1.475-.868-1.96-.579-.504-1.456-.765-2.632-.784-2.166 0-3.37.71-3.612 2.128h-3.67c.075-1.176.467-2.137 1.177-2.884a5.708 5.708 0 012.603-1.54c1.009-.299 2.175-.448 3.501-.448zm-1.4 12.6c1.474 0 2.66-.355 3.556-1.064.896-.71 1.344-1.587 1.344-2.632v-.588l-4.144.336c-2.427.205-3.64.915-3.64 2.128 0 .56.242 1.008.728 1.344.485.317 1.204.476 2.156.476zm21.817-12.6c2.147 0 3.892.69 5.236 2.072 1.344 1.363 2.016 3.23 2.016 5.6 0 2.37-.672 4.247-2.016 5.628-1.344 1.363-3.08 2.044-5.208 2.044-2.501 0-4.368-.905-5.6-2.716v7.98h-3.948V76.328h3.668v2.744c1.195-2.053 3.146-3.08 5.852-3.08zm-4.536 11.032c.822.84 1.932 1.26 3.332 1.26s2.511-.42 3.332-1.26c.822-.84 1.232-1.96 1.232-3.36s-.41-2.52-1.232-3.36c-.821-.84-1.932-1.26-3.332-1.26s-2.51.42-3.332 1.26c-.802.84-1.204 1.96-1.204 3.36s.402 2.52 1.204 3.36zm28.436-10.696v3.248h-5.712V91h-3.976V79.576h-5.74v-3.248h15.428zm14.048 0h3.948V91h-3.948v-5.852h-7.672V91h-3.948V76.328h3.948v5.544h7.672v-5.544zm13.96-5.376v3.304h-3.528v-3.304h3.528zm5.908 0v3.304h-3.528v-3.304h3.528zm3.724 13.44v.448h-12.824c.374 2.501 1.988 3.752 4.844 3.752 1.848 0 3.155-.597 3.92-1.792l3.836.196c-.466 1.381-1.362 2.455-2.688 3.22-1.325.747-3.014 1.12-5.068 1.12-2.725 0-4.881-.635-6.468-1.904-1.568-1.288-2.352-3.21-2.352-5.768 0-2.539.775-4.452 2.324-5.74 1.568-1.288 3.668-1.932 6.3-1.932 5.451 0 8.176 2.8 8.176 8.4zm-8.176-5.656c-1.25 0-2.286.299-3.108.896-.802.597-1.306 1.503-1.512 2.716h8.904c-.093-1.12-.513-1.997-1.26-2.632-.746-.653-1.754-.98-3.024-.98zm20.492-2.744c2.146 0 3.892.69 5.236 2.072 1.344 1.363 2.016 3.23 2.016 5.6 0 2.37-.672 4.247-2.016 5.628-1.344 1.363-3.08 2.044-5.208 2.044-2.502 0-4.368-.905-5.6-2.716v7.98h-3.948V76.328h3.668v2.744c1.194-2.053 3.145-3.08 5.852-3.08zm-4.536 11.032c.821.84 1.932 1.26 3.332 1.26s2.51-.42 3.332-1.26c.821-.84 1.232-1.96 1.232-3.36s-.411-2.52-1.232-3.36c-.822-.84-1.932-1.26-3.332-1.26s-2.511.42-3.332 1.26c-.803.84-1.204 1.96-1.204 3.36s.401 2.52 1.204 3.36zM218.066 71.4h3.248V91h-4.004V75.684l-5.152 2.912v-3.864l5.908-3.332z" fill="#1D1D1B"/></svg>