<svg width="216" height="43" fill="none" xmlns="http://www.w3.org/2000/svg"><g clip-path="url(#clip0_69_2021)"><path d="M-.104 12.207c0-3.325 2.738-6.033 6.105-6.033 3.368 0 6.106 2.707 6.106 6.033 0 .377-.04.745-.106 1.102a8.263 8.263 0 00-3.18-.633 8.235 8.235 0 00-7.013 3.904 5.974 5.974 0 01-1.912-4.373zm10.248 8.595a8.03 8.03 0 011.859-5.14 6.117 6.117 0 00-3.182-.893c-3.367 0-6.106 2.705-6.106 6.033 0 3.326 2.739 6.034 6.106 6.034a6.118 6.118 0 003.182-.894 8.037 8.037 0 01-1.86-5.14zm11.05-.47a8.232 8.232 0 01-7.015-3.91 5.979 5.979 0 00-1.917 4.38c0 3.325 2.738 6.033 6.104 6.033 3.367 0 6.107-2.708 6.107-6.033 0-.377-.04-.744-.107-1.1a8.25 8.25 0 01-3.172.63zm.598-14.127c.01.154.025.305.025.46 0 3.806-2.669 7.002-6.25 7.879a6.11 6.11 0 005.627 3.697c3.367 0 6.106-2.709 6.106-6.034 0-3.126-2.422-5.704-5.508-6.002zM13.593.631a6.114 6.114 0 00-5.627 3.696c3.586.873 6.258 4.07 6.258 7.88 0 .153-.008.306-.017.46 3.08-.306 5.492-2.882 5.492-6.003 0-3.325-2.738-6.033-6.106-6.033z" fill="#A30C33"/><path d="M38.04 7.01c-.228 0-.583.15-.684.225-.077.076-.204.351-.228.928-.027.501-.027 3.61-.052 6.467 0 2.281.052 3.91.052 4.537.025 1.53.1 1.981 1.57 2.356.509.1.711.301.711.528 0 .2-.43.35-.786.35-.66 0-2.106-.15-3.221-.15-.736 0-1.979.1-2.764.1-.583 0-.94-.125-.94-.402 0-.175.357-.376.608-.451 1.243-.3 1.548-.677 1.624-1.83.077-1.002.153-2.632.153-3.911 0-.801 0-6.417-.05-7.143-.076-.877-.205-1.278-1.599-1.454-.33-.05-.583-.225-.583-.376 0-.2.228-.35.533-.4.15-.025.608-.025.837-.025 1.624 0 3.703-.2 4.844-.2 2.436 0 4.085.45 5.125 1.452 1.191 1.154 1.472 2.507 1.472 3.384 0 2.056-.94 3.16-1.675 3.785-.66.552-2.056 1.128-3.045 1.128-.278 0-.99-.049-1.318-.175-.357-.15-.533-.275-.533-.5 0-.102.176-.252.38-.252h.381c1.065 0 2.64-1.253 2.64-3.86-.001-2.005-1.37-4.11-3.452-4.11zm25.936 7.069c0 3.283-1.42 5.415-3.197 6.817C59.334 22 57.178 22.7 55.224 22.7c-2.664 0-4.998-1.001-6.595-2.68-1.371-1.455-2.182-3.434-2.182-5.742 0-3.058 1.37-5.012 3.272-6.517 1.142-.877 3.273-1.805 5.403-1.805 5.606 0 8.854 4.111 8.854 8.123zm-12.33-5.966c-.862.827-1.776 2.631-1.776 5.615 0 3.86 2.386 8.046 6.089 8.046 1.396 0 2.258-.702 2.587-1.029 1.066-1.052 1.954-3.207 1.954-5.89 0-1.98-.787-4.988-2.638-6.667-.864-.752-2.232-1.354-3.349-1.354-1.143 0-2.282.703-2.867 1.279zM79.13 6.36c.608.15 1.243.3 1.826.375.178 0 .381.3.381.677.025.7.076 1.578.126 2.306.026.526-.152.952-.43.952-.127 0-.355-.3-.483-.677-.253-.776-.634-1.453-1.066-1.78-1.09-.901-2.383-1.454-3.753-1.454-4.033 0-5.936 3.16-5.936 6.969 0 1.68.305 3.133.863 4.236 1.395 2.758 3.703 3.736 5.683 3.736.33 0 1.572-.05 2.46-.578.938-.525 1.622-1.253 2.206-2.28.305-.551.483-.778.686-.778.278 0 .278.652.201.928-.126.626-.532 1.73-.76 2.181-.077.226-.532.626-.913.802-.355.124-2.105.725-4.44.725-3.755 0-6.418-1.653-7.458-2.831-.964-1.102-2.132-2.857-2.132-5.64 0-3.033 1.725-5.163 2.79-6.016 2.157-1.754 4.77-2.256 6.85-2.256 1.168 0 2.386.176 3.299.402zm5.189-.126c.608 0 1.827.125 2.612.125.761 0 2.232-.1 2.84-.1.509 0 .788.125.788.35 0 .226-.381.351-.66.427-.99.276-1.193.401-1.268 1.529-.052.927-.026 3.734-.026 4.912 0 .1.076.25.177.25 1.37-.1 2.207-.525 3.12-1.98.711-1.153 1.218-2.106 1.853-3.083 1.015-1.655 2.233-2.707 3.602-2.707.862 0 1.32.35 1.32 1.052 0 .226-.18.653-.331.803-.202.225-.431.276-.736.225-.278-.05-.608-.125-.862-.125-1.497 0-2.156 1.052-2.866 2.155-.711 1.104-1.27 1.981-1.65 2.507a.266.266 0 000 .2c.584 1.103 2.84 4.638 3.957 6.091 1.675 2.181 2.334 2.357 3.68 2.657.152.05.406.151.406.277 0 .224-.152.375-.508.476-.356.1-.94.125-1.521.125-2.233 0-3.323-.35-4.314-1.655-.939-1.152-2.004-2.782-3.17-4.612-.839-1.328-1.168-1.755-1.98-1.78-.127 0-.152.177-.177.301 0 2.031.076 4.663.101 5.59.027.501.153.877 1.27 1.154.456.125.736.3.736.501 0 .227-.432.377-.837.377-.558 0-2.31-.05-3.096-.05s-2.055.1-2.867.1c-.38 0-.684-.2-.684-.378 0-.224.203-.35.76-.474 1.219-.277 1.498-.628 1.575-2.157.05-1.254.05-2.982.05-5.665 0-2.933-.05-3.886-.076-4.787-.027-1.178-.253-1.505-1.141-1.755-.66-.175-.839-.35-.839-.527 0-.224.407-.35.762-.35zm33.167 7.845c0 3.283-1.422 5.415-3.198 6.817-1.445 1.104-3.602 1.804-5.555 1.804-2.664 0-4.997-1.001-6.596-2.68-1.369-1.455-2.18-3.434-2.18-5.742 0-3.058 1.37-5.012 3.272-6.517 1.141-.877 3.271-1.805 5.403-1.805 5.606 0 8.854 4.111 8.854 8.123zm-12.33-5.966c-.862.827-1.776 2.631-1.776 5.615 0 3.86 2.384 8.046 6.089 8.046a3.653 3.653 0 002.588-1.029c1.065-1.052 1.954-3.207 1.954-5.89 0-1.98-.788-4.988-2.639-6.667-.863-.752-2.233-1.354-3.349-1.354-1.141 0-2.284.703-2.867 1.279zm19.164 5.415c1.725 0 5.073-.101 7.736-.101.102 0 .204-.25.229-.627.051-.325.051-3.258-.05-4.235-.102-.903-.229-1.152-1.244-1.43-.354-.099-.735-.25-.735-.501 0-.175.254-.326.837-.326.33 0 2.207.076 2.867.076.812 0 2.41-.1 2.714-.1.483 0 .787.125.787.326 0 .25-.229.4-.812.55-.913.202-1.066.603-1.117 1.33-.126 1.178-.203 3.434-.203 6.994 0 2.457.077 3.76.101 4.586.026.977.28 1.053 1.296 1.379.456.15.709.326.709.527 0 .275-.356.35-.813.35-.431 0-1.8-.075-2.562-.075-.558 0-2.588.125-3.095.125-.608 0-.862-.125-.862-.352 0-.224.33-.424.685-.526 1.242-.325 1.293-.524 1.422-2.38.075-1.003.1-3.36.049-4.036 0-.226-.101-.327-.204-.327-2.029 0-7.229-.074-7.736-.024-.127.024-.331.225-.331.376-.05.928 0 3.61.027 4.412.024 1.179.177 1.554 1.216 1.855.533.15.889.352.889.627.025.25-.482.326-.813.326-.178 0-2.282-.075-3.17-.075-.585 0-1.877.1-2.74.1-.659 0-.888-.125-.888-.326 0-.275.28-.425.71-.55 1.117-.301 1.344-.578 1.471-1.63.102-1.002.228-4.738.228-8.172 0-.752.051-2.13 0-3.133-.05-.827-.278-1.103-1.115-1.354-.584-.175-.863-.35-.863-.552 0-.25.33-.35.787-.35.684 0 2.079.1 2.739.1 1.066 0 2.208-.076 2.816-.076.531 0 .837.102.837.326 0 .277-.329.427-.863.552-1.065.226-1.142.702-1.167 1.73-.05.902-.152 3.81-.075 4.286.026.199.128.325.306.325zm27.036-7.32c.178 0 .33.126.33.276-.05.727-.025 2.331 0 3.184.025.326-.152.802-.355.802-.202 0-.457-.125-.609-.702-.33-1.103-.787-2.256-1.725-2.355-.786-.1-2.689-.076-3.221-.05-.507 0-.634.15-.634.4-.103 1.303-.103 3.56-.103 5.238 0 1.755.026 5.115.026 6.894.026 1.08.431 1.329 1.599 1.604.379.125.658.3.658.501 0 .2-.304.377-.761.377-.634 0-2.18-.125-3.145-.125-.939 0-2.536.15-3.044.15-.406 0-.684-.226-.684-.35 0-.276.303-.452.76-.552 1.091-.25 1.193-.677 1.243-1.253.077-.778.28-2.281.28-7.194 0-2.331 0-3.86-.051-4.512-.051-.828-.229-1.128-1.218-1.354-.558-.15-.761-.301-.761-.552 0-.175.356-.326.735-.326 1.117 0 2.107.075 3.12.075h3.298c3.349 0 3.957-.1 4.262-.176zm8.676.802c-.228 0-.585.15-.685.225-.077.076-.203.351-.229.928-.024.501-.024 3.61-.051 6.467 0 2.281.051 3.91.051 4.537.026 1.53.102 1.981 1.573 2.356.507.1.711.301.711.528 0 .2-.432.35-.787.35-.662 0-2.106-.15-3.222-.15-.737 0-1.979.1-2.765.1-.584 0-.939-.125-.939-.402 0-.175.355-.376.609-.451 1.243-.3 1.548-.677 1.623-1.83a58.72 58.72 0 00.152-3.911c0-.801 0-6.417-.049-7.143-.078-.877-.205-1.278-1.599-1.454-.33-.05-.583-.225-.583-.376 0-.2.228-.35.533-.4.152-.025.608-.025.837-.025 1.622 0 3.703-.2 4.844-.2 2.436 0 4.085.45 5.125 1.452 1.193 1.154 1.472 2.507 1.472 3.384 0 2.056-.939 3.16-1.676 3.785-.658.552-2.053 1.128-3.043 1.128-.279 0-.99-.049-1.319-.175-.355-.15-.533-.275-.533-.5 0-.102.178-.252.38-.252h.38c1.066 0 2.639-1.253 2.639-3.86 0-2.005-1.37-4.11-3.449-4.11zm17.576-.626c.836 0 1.876-.1 2.231-.15.102-.026.279.15.306.325.024.452.024 2.182.024 2.682 0 .35-.178.702-.405.702-.229 0-.431-.376-.482-.627-.331-1.404-1.041-1.78-1.624-1.88-.482-.075-1.572-.176-3.527-.15-.101 0-.305.1-.33.702-.05.626-.125 4.111-.101 5.49 0 .074.101.249.254.249h2.03c1.801 0 1.751-.1 2.232-1.203.152-.376.329-.653.558-.653.203 0 .279.427.253.703-.05.702-.101 1.152-.101 1.729 0 .678.051 1.08.101 1.705.026.451-.126.752-.328.752-.204 0-.406-.3-.483-.551-.331-1.104-.66-1.278-1.649-1.353-.812-.076-1.75-.076-2.536-.076-.102 0-.33.25-.33.3-.101.703-.075 2.658-.051 3.484.026.602 0 1.531.101 2.056.076.226.306.552.559.603.406.074 1.193.15 2.055.15.761 0 1.7 0 2.334-.225.761-.277 1.447-.878 2.004-1.856.355-.652.584-.877.787-.877.255 0 .229.526.203.729 0 .2-.736 2.506-.963 2.907-.076.175-.483.325-.61.325-.279 0-6.544-.126-8.446-.126-1.7 0-1.98.126-2.893.126-.482 0-.863-.076-.863-.325 0-.227.33-.401.762-.503 1.293-.3 1.622-.552 1.724-1.903.076-1.054.203-2.959.203-6.067 0-2.957.025-4.111-.025-4.837-.051-.903-.254-1.404-1.344-1.606-.534-.099-.813-.2-.813-.45 0-.226.432-.377.788-.377 1.192 0 3.272.076 4.59.076h3.805zm18.195-.024c.608.15 1.243.3 1.826.375.178 0 .38.3.38.677.025.7.075 1.578.128 2.306.024.526-.154.952-.432.952-.127 0-.356-.3-.483-.677-.253-.776-.634-1.453-1.065-1.78-1.092-.901-2.385-1.454-3.754-1.454-4.034 0-5.937 3.16-5.937 6.969 0 1.68.305 3.133.863 4.236 1.395 2.758 3.704 3.736 5.682 3.736.33 0 1.573-.05 2.46-.578.939-.525 1.624-1.253 2.207-2.28.305-.551.483-.778.685-.778.28 0 .28.652.204.928-.127.626-.533 1.73-.762 2.181-.076.226-.533.626-.913.802-.356.124-2.106.725-4.44.725-3.754 0-6.417-1.653-7.457-2.831-.965-1.102-2.132-2.857-2.132-5.64 0-3.033 1.725-5.163 2.791-6.016 2.155-1.754 4.769-2.256 6.849-2.256 1.169 0 2.386.176 3.3.402zm17.286 0c.608.15 1.241.3 1.825.375.178 0 .38.3.38.677.026.7.077 1.578.127 2.306.026.526-.152.952-.431.952-.126 0-.355-.3-.481-.677-.255-.776-.635-1.453-1.066-1.78-1.092-.901-2.384-1.454-3.754-1.454-4.033 0-5.936 3.16-5.936 6.969 0 1.68.304 3.133.862 4.236 1.395 2.758 3.704 3.736 5.684 3.736.328 0 1.572-.05 2.459-.578.939-.525 1.623-1.253 2.207-2.28.304-.551.483-.778.685-.778.278 0 .278.652.202.928-.126.626-.532 1.73-.761 2.181-.075.226-.532.626-.912.802-.356.124-2.107.725-4.441.725-3.755 0-6.417-1.653-7.458-2.831-.963-1.102-2.13-2.857-2.13-5.64 0-3.033 1.725-5.163 2.79-6.016 2.156-1.754 4.769-2.256 6.849-2.256 1.168 0 2.385.176 3.3.402zM40.044 30.609c.437 0 1.353-.04 1.517-.04.26 0 .424.067.424.176 0 .121-.136.215-.438.296-.587.15-.628.271-.67.676-.054.553-.068 1.432-.068 2.876 0 1.311.027 2.945.041 3.392.014.526.164.608.697.742.179.054.383.161.383.27 0 .149-.177.216-.424.216-.232 0-1.066-.054-1.477-.054-.314 0-1.298.068-1.571.068-.329 0-.479-.081-.479-.202 0-.123.19-.217.383-.258.657-.162.711-.297.766-1.297.014-.27.027-1.647.027-3.025a67.039 67.039 0 00-.04-3.04c0-.175-.124-.242-.193-.242-.983 0-3.486-.041-3.855 0-.068 0-.178.107-.191.203-.041.35-.07 1.823-.07 3.27 0 1.377.015 2.713.015 3.05 0 .636.109.839.67 1 .287.081.478.19.478.298.014.135-.26.215-.438.215-.096 0-1.23-.04-1.708-.04-.314 0-.984.067-1.435.067-.383 0-.52-.094-.52-.202 0-.15.274-.23.425-.27.628-.135.71-.339.751-.918.028-.487.123-1.919.123-3.593 0-1.122.028-1.932 0-2.446-.028-.458-.178-.635-.602-.743-.313-.08-.464-.189-.464-.296 0-.136.178-.19.423-.19.37 0 1.121.04 1.49.04l6.03.001zm7.861 3.837c.37.418.67 1.04.67 1.769 0 .986-.437 1.783-1.176 2.35-.765.595-1.626.69-2.104.69-.247 0-.506-.014-.67-.042-.055-.013-.11.123-.11.19-.013.608.015 1.742.055 2.04.041.364.11.566.656.728.274.082.369.19.369.285 0 .122-.218.175-.382.175-.383 0-1.326-.068-1.819-.068-.341 0-.519.04-1.107.04-.232 0-.397-.08-.397-.202 0-.082.138-.19.356-.243.642-.135.724-.297.765-1.094.014-.472.041-1.553.041-2.917 0-.905.014-2.419-.014-2.931-.013-.284-.055-.338-.096-.378-.245-.19-.52-.42-.52-.486 0-.069.152-.258.288-.312.273-.081 1.025-.31 1.394-.526a.912.912 0 01.274-.122c.054 0 .163.122.163.19-.027.242-.027.417-.04.634 0 .054.068.108.109.095a6.06 6.06 0 01.806-.432c.233-.095.547-.19.943-.19.549 0 1.178.338 1.546.757zm-3.211.202a.713.713 0 00-.151.352c-.082.593-.082 1.687-.055 2.403 0 .243.055.473.137.622.288.499.834.77 1.121.77.151 0 .3-.04.465-.162.711-.513.82-1.675.82-2.04 0-.366-.068-1.053-.573-1.608-.301-.337-.807-.5-1.025-.5-.261 0-.562.068-.74.163zm10.936 1.824a2.81 2.81 0 01-1.217 2.296c-.56.392-1.257.553-1.885.553-.616 0-1.381-.283-1.887-.702-.588-.472-1.025-1.323-1.025-2.08 0-.944.423-1.66.942-2.093a3.413 3.413 0 012.188-.783c1.367-.002 2.884 1.053 2.884 2.81zm-3.813-2.066c-.315.283-.56.877-.56 1.768 0 .445.054.958.163 1.297.288.946.916 1.405 1.491 1.405.137 0 .396-.108.6-.35.288-.352.507-1.069.507-1.838 0-.568-.124-1.445-.547-2.04-.247-.311-.602-.54-.984-.54-.233 0-.451.095-.67.298zm9.473-.379c.179.122.233.31.233.486 0 .243-.451.635-.533.635-.123 0-.342-.095-.629-.338-.37-.297-.656-.582-1.08-.582-.15 0-.382.082-.587.298-.342.351-.532 1.026-.532 1.648 0 .877.368 1.337.436 1.419.26.35.753.728 1.49.728.397 0 .848-.161 1.313-.445a.12.12 0 01.178.109c0 .134-.11.31-.219.417-.464.486-1.258.905-2.105.905-.997 0-1.763-.512-2.146-1.08a3.002 3.002 0 01-.45-1.568c0-1.052.546-1.821 1.366-2.349.479-.337 1.38-.582 1.928-.582.408.001 1.091.11 1.338.299zm2.23 5.173c-.165 0-.343-.04-.343-.162 0-.108.096-.188.328-.257.369-.094.574-.19.602-.446.028-.406.069-1.27.069-2.255v-1.595c0-.054-.028-.12-.11-.135a12.106 12.106 0 00-.629-.027c-.41 0-.587.392-.724.77-.11.257-.219.378-.328.378-.123 0-.178-.243-.164-.445.013-.459.095-.838.095-1.135-.014-.08.096-.203.164-.203.069 0 .151.055.246.095.096.04.533.068.862.068h2.678c.328 0 .834-.04.943-.08.096-.041.192-.082.26-.082.069 0 .124.122.124.202-.041.392-.028.715-.014 1.177.014.27-.122.432-.246.432-.096 0-.165-.083-.232-.352-.11-.5-.343-.825-.698-.825-.273 0-.588.014-.683.028-.07.014-.096.122-.11.202-.014.378 0 1.081 0 1.703 0 .986.014 1.553.055 1.931.041.392.137.473.52.581.218.068.314.162.314.217 0 .106-.192.215-.343.215-.464 0-1.01-.04-1.312-.04-.313 0-.874.04-1.325.04zm10.198-4.754c.37.418.67 1.04.67 1.769 0 .986-.438 1.783-1.176 2.35-.766.595-1.626.69-2.104.69-.248 0-.507-.014-.67-.042-.055-.013-.11.123-.11.19-.014.608.014 1.742.055 2.04.04.364.11.566.656.728.273.082.368.19.368.285 0 .122-.218.175-.382.175-.383 0-1.326-.068-1.818-.068-.342 0-.52.04-1.107.04-.232 0-.397-.08-.397-.202 0-.082.138-.19.355-.243.642-.135.725-.297.765-1.094.014-.472.042-1.553.042-2.917 0-.905.014-2.419-.014-2.931-.014-.284-.055-.338-.097-.378-.245-.19-.519-.42-.519-.486 0-.069.151-.258.287-.312.273-.081 1.026-.31 1.395-.526a.912.912 0 01.273-.122c.055 0 .164.122.164.19-.027.242-.027.417-.041.634 0 .054.068.108.11.095a5.94 5.94 0 01.806-.432 2.45 2.45 0 01.942-.19c.548 0 1.178.338 1.547.757zm-3.212.202a.714.714 0 00-.151.352c-.082.593-.082 1.687-.055 2.403 0 .243.055.473.137.622.288.499.834.77 1.121.77.151 0 .3-.04.465-.162.711-.513.82-1.675.82-2.04 0-.366-.068-1.053-.574-1.608-.3-.337-.806-.5-1.024-.5-.262 0-.562.068-.74.163zm8.735-.257c.164.217.3.555.3 1.163 0 .527-.054 2.133-.054 2.283 0 .377.274.54.506.54.068 0 .342-.108.48-.163.04-.027.054-.013.08.014a.52.52 0 01.041.19c0 .256-.642.918-1.407.918-.396 0-.82-.123-1.025-.649-.014-.053-.096-.08-.123-.053-.342.242-.903.5-1.08.567a2.19 2.19 0 01-.602.108c-.505 0-1.052-.608-1.052-1.364 0-.245.11-.5.246-.69.137-.19.37-.27.492-.323.301-.122 1.545-.46 1.859-.554.165-.053.247-.15.247-.203.013-.122.04-.864.028-1.04-.015-.324-.302-.865-.917-.865-.19 0-.342.027-.437.095-.055.027-.083.163-.083.621a.174.174 0 01-.055.123c-.095.094-1.107.54-1.202.54-.083 0-.178-.11-.178-.19 0-.39.3-.755 1.148-1.296.506-.324 1.176-.5 1.367-.5.834 0 1.217.431 1.421.728zm-1.27 3.945c.055-.04.11-.203.11-.258.026-.189.054-.755.054-1.201 0-.053-.055-.135-.096-.135-.233 0-.862.202-1.107.35-.165.122-.248.19-.248.541 0 .593.493.864.753.864.123.001.397-.08.534-.161zm9.309.877c-.342 0-1.012-.053-1.313-.053-.314 0-.71.026-1.107.026-.164 0-.37-.053-.37-.202 0-.122.151-.177.383-.244.247-.053.383-.215.396-.324.028-.23.042-.702.042-1.607 0-.095-.042-.162-.11-.162l-1.79.014c-.096 0-.124.053-.138.256-.013.23 0 .96.028 1.297.014.312.096.474.328.527.219.068.342.162.342.244 0 .08-.11.215-.396.215-.096 0-.697-.04-.999-.04-.437 0-1.024.04-1.256.04-.233 0-.343-.122-.343-.23 0-.08.123-.175.343-.23.313-.08.382-.177.437-.312.054-.201.082-.795.082-1.822 0-1.026 0-1.567-.014-1.823-.014-.324-.055-.418-.464-.54-.206-.068-.315-.162-.315-.257 0-.135.164-.175.341-.175.329 0 .876.04 1.176.04.437 0 .629-.04 1.053-.04.219 0 .341.054.341.175 0 .08-.069.162-.273.242-.342.123-.383.217-.397.46-.014.418-.014 1.216-.014 1.351.014.041.055.108.11.108h1.804c.041 0 .123-.067.123-.12.014-.366.014-1.177 0-1.325-.013-.325-.123-.392-.342-.474-.164-.068-.327-.135-.327-.27 0-.107.163-.148.355-.148.246 0 .697.04 1.038.04.451 0 .752-.04 1.12-.04.234 0 .37.067.37.162 0 .133-.136.188-.3.242-.451.136-.437.258-.478.595-.014.12-.014.892-.014 1.62 0 .716.014 1.365.04 1.783.015.35.22.42.534.54.22.069.314.162.314.257.001.137-.19.204-.34.204zm5.701-5.186c.178.122.234.31.234.486 0 .243-.452.635-.534.635-.123 0-.342-.095-.629-.338-.37-.297-.656-.582-1.08-.582-.15 0-.382.082-.587.298-.343.351-.533 1.026-.533 1.648 0 .877.37 1.337.437 1.419.26.35.752.728 1.49.728.396 0 .847-.161 1.313-.445a.119.119 0 01.177.109c0 .134-.11.31-.219.417-.464.486-1.258.905-2.104.905-.998 0-1.763-.512-2.146-1.08a3 3 0 01-.452-1.568c0-1.052.547-1.821 1.368-2.349.478-.337 1.38-.582 1.926-.582.41.001 1.093.11 1.34.299zM95.21 39.2c-.164 0-.341-.04-.341-.162 0-.108.096-.188.328-.257.368-.094.574-.19.602-.446.028-.406.068-1.27.068-2.255v-1.595c0-.054-.028-.12-.11-.135a12.106 12.106 0 00-.628-.027c-.41 0-.588.392-.725.77-.11.257-.218.378-.328.378-.123 0-.177-.243-.164-.445.014-.459.096-.838.096-1.135-.014-.08.096-.203.164-.203.069 0 .15.055.246.095.095.04.533.068.862.068h2.678c.328 0 .834-.04.943-.08.097-.041.192-.082.26-.082.069 0 .124.122.124.202-.042.392-.028.715-.014 1.177.014.27-.123.432-.247.432-.096 0-.164-.083-.232-.352-.11-.5-.341-.825-.697-.825-.273 0-.588.014-.683.028-.069.014-.096.122-.11.202-.013.378 0 1.081 0 1.703 0 .986.014 1.553.055 1.931.041.392.137.473.52.581.218.068.314.162.314.217 0 .106-.192.215-.343.215-.464 0-1.011-.04-1.312-.04-.314 0-.875.04-1.326.04zm9.051-3.012c-.069.014-.028.068.027.094.245.069.547.217.655.298.206.162.493.404.493.959 0 .73-.547 1.202-1.135 1.417-.52.19-1.189.217-1.749.217-.302 0-.602-.014-.957-.014-.438 0-.984.028-1.463.041-.192.013-.355-.108-.355-.217 0-.12.164-.162.342-.202.478-.121.492-.31.519-.635.041-.284.055-.73.055-1.782 0-.527.013-1-.014-1.526-.013-.34-.055-.448-.519-.582-.164-.04-.301-.149-.301-.31 0-.069.054-.137.288-.137.245 0 .806.042 1.079.042.26 0 1.408-.069 1.846-.069.86 0 2.008.216 2.008 1.284 0 .636-.41.932-.819 1.122zm-1.723-1.958c-.191 0-.314.04-.37.081-.041.04-.067.12-.081.297-.014.188-.028 1.148 0 1.35.014.109.068.135.15.135.232 0 .656-.013.875-.095.356-.133.547-.43.547-.823 0-.365-.328-.945-1.121-.945zm.916 2.512c-.206-.135-.629-.23-.875-.23-.164 0-.246 0-.369.027-.055.013-.083.068-.096.162-.027.135-.027.648-.013 1.093 0 .259.027.474.15.663.109.149.397.311.533.311.656 0 1.149-.54 1.149-1.162-.001-.405-.233-.69-.479-.864zm8.872-.27c0 1.148-.709 1.972-1.216 2.296-.56.392-1.257.553-1.886.553-.616 0-1.381-.283-1.887-.702-.587-.472-1.025-1.323-1.025-2.08 0-.944.424-1.66.943-2.093a3.411 3.411 0 012.187-.783c1.367-.002 2.884 1.053 2.884 2.81zm-3.813-2.066c-.315.283-.561.877-.561 1.768 0 .445.054.958.164 1.297.287.946.916 1.405 1.489 1.405.137 0 .397-.108.602-.35.288-.352.506-1.069.506-1.838 0-.568-.124-1.445-.547-2.04-.246-.311-.6-.54-.983-.54-.233 0-.452.095-.67.298zm8.681 4.754a.569.569 0 00-.355.133c-.315.285-.382.946-.436 1.461-.042.31-.152.418-.261.418-.136 0-.219-.203-.233-.365-.054-.54-.081-1.62-.109-1.944-.014-.096.055-.177.109-.177.165 0 .329-.014.493-.04.054-.014.137-.041.177-.122a91.797 91.797 0 001.463-3.688c.027-.081.081-.23.123-.364.041-.15.219-.325.588-.663.096-.108.191-.161.273-.161.082 0 .165.107.343.566.396 1.12 1.298 3.701 1.53 4.202.042.108.124.216.246.216.179.04.424.04.616.04.055 0 .095.068.082.162-.041.352-.315 1.067-.397 1.85-.041.311-.191.486-.328.486s-.205-.135-.205-.446v-.432c0-.797-.273-1.135-.642-1.135h-3.077v.003zm1.163-3.62c-.028-.095-.096-.054-.124 0-.287.81-.943 2.554-1.066 2.998-.014.055.014.121.068.121.219 0 1.887.028 2.079-.013.054-.013.082-.053.067-.094-.109-.406-.86-2.607-1.024-3.012zm9.856.932a2.811 2.811 0 01-1.217 2.296c-.56.392-1.257.553-1.886.553-.615 0-1.38-.283-1.887-.702-.587-.472-1.024-1.323-1.024-2.08 0-.944.423-1.66.943-2.093a3.414 3.414 0 012.187-.783c1.367-.002 2.884 1.053 2.884 2.81zm-3.813-2.066c-.315.283-.561.877-.561 1.768 0 .445.054.958.163 1.297.289.946.917 1.405 1.49 1.405.137 0 .398-.108.602-.35.288-.352.506-1.069.506-1.838 0-.568-.123-1.445-.547-2.04-.246-.311-.6-.54-.983-.54-.233 0-.452.095-.67.298zm8.914 1.782c-.07.014-.028.068.027.094.245.069.546.217.655.298.205.162.493.404.493.959 0 .73-.547 1.202-1.136 1.417-.518.19-1.188.217-1.748.217-.302 0-.602-.014-.957-.014-.438 0-.985.028-1.463.041-.191.013-.355-.108-.355-.217 0-.12.164-.162.342-.202.478-.121.491-.31.519-.635.041-.284.055-.73.055-1.782 0-.527.014-1-.014-1.526-.014-.34-.055-.448-.52-.582-.163-.04-.3-.149-.3-.31 0-.069.055-.137.288-.137.245 0 .806.042 1.078.042.261 0 1.409-.069 1.846-.069.861 0 2.009.216 2.009 1.284 0 .636-.41.932-.819 1.122zm-1.724-1.958c-.191 0-.313.04-.369.081-.041.04-.068.12-.082.297-.013.188-.027 1.148 0 1.35.014.109.069.135.151.135.233 0 .656-.013.875-.095.355-.133.546-.43.546-.823 0-.365-.327-.945-1.121-.945zm.917 2.512c-.206-.135-.628-.23-.875-.23-.163 0-.246 0-.369.027-.055.013-.082.068-.096.162-.028.135-.028.648-.014 1.093 0 .259.027.474.15.663.11.149.397.311.534.311.655 0 1.148-.54 1.148-1.162 0-.405-.232-.69-.478-.864zm7.178-2.513c.314.297.518.717.518 1.19 0 .094-.136.324-.299.324h-2.981c-.068 0-.136.04-.15.095-.041.108-.055.31-.055.486 0 .296.165.918.424 1.255.342.433.916.677 1.517.677.574 0 .971-.135 1.23-.474.055-.081.125-.161.179-.161.055 0 .123.094.123.175 0 .08-.041.23-.109.338-.424.647-1.067 1.175-2.187 1.175-1.572 0-2.529-1.175-2.529-2.715 0-1.08.601-2.16 1.736-2.674a2.716 2.716 0 011.121-.257c.546 0 1.105.215 1.462.566zm-2.83.96c-.014.067.041.135.095.135.356.013.78 0 1.463 0 .234 0 .479-.136.479-.46 0-.378-.383-.824-.766-.824-.573 0-1.107.526-1.271 1.148zm9.637-.743c.37.418.671 1.04.671 1.769 0 .986-.437 1.783-1.176 2.35-.765.595-1.627.69-2.105.69-.247 0-.505-.014-.67-.042-.055-.013-.109.123-.109.19-.014.608.014 1.742.054 2.04.041.364.109.566.657.728.272.082.368.19.368.285 0 .122-.219.175-.383.175-.383 0-1.325-.068-1.817-.068-.342 0-.519.04-1.107.04-.233 0-.397-.08-.397-.202 0-.082.136-.19.355-.243.643-.135.725-.297.766-1.094.014-.472.041-1.553.041-2.917 0-.905.014-2.419-.014-2.931-.013-.284-.054-.338-.096-.378-.246-.19-.519-.42-.519-.486 0-.069.15-.258.287-.312.273-.081 1.025-.31 1.395-.526a.896.896 0 01.273-.122c.054 0 .163.122.163.19-.026.242-.026.417-.04.634 0 .054.068.108.109.095a6.05 6.05 0 01.806-.432c.233-.095.547-.19.943-.19.548 0 1.177.338 1.545.757zm-3.211.202a.724.724 0 00-.152.352c-.081.593-.081 1.687-.054 2.403 0 .243.054.473.137.622.287.499.834.77 1.121.77.151 0 .301-.04.465-.162.711-.513.82-1.675.82-2.04 0-.366-.069-1.053-.575-1.608-.299-.337-.806-.5-1.024-.5-.26 0-.561.068-.738.163zm5.003-.837c.261 0 .739.04 1.149.04.328 0 .766-.04 1.176-.04.137 0 .315.055.315.148 0 .108-.096.217-.315.27-.465.123-.409.312-.437.486a36.861 36.861 0 00-.028 2.46c.014.08.056.094.11.04l1.859-2.067c.15-.162.205-.31.205-.377v-.163c0-.189-.055-.296-.396-.404-.082-.028-.233-.122-.233-.217 0-.108.123-.175.342-.175.287 0 .656.04 1.066.04.396-.013.71-.054 1.066-.054.245 0 .341.081.341.177 0 .107-.096.189-.327.255-.383.123-.438.299-.452.474 0 .108-.014.608-.014 1.188 0 .799.028 1.81.042 2.284.014.432.287.513.533.567.218.055.328.175.328.257 0 .08-.164.203-.315.203-.342 0-.765-.04-1.188-.04-.357 0-.834.04-1.327.04-.164 0-.342-.068-.342-.203 0-.108.096-.175.328-.23.314-.095.465-.283.479-.459.028-.365.068-.878.068-2.606 0-.069-.054-.083-.095-.028-.629.69-1.45 1.58-1.941 2.161-.055.068-.137.175-.137.283v.204c0 .176.096.311.355.404.164.041.315.136.315.216 0 .136-.178.243-.355.243-.138 0-.902-.026-1.217-.026-.451 0-.779.04-1.026.04-.122 0-.382-.027-.382-.189 0-.108.136-.202.355-.257.342-.094.451-.215.493-.377.027-.19.04-.446.04-1.108 0-1.217 0-2.215-.013-2.485-.014-.31-.097-.393-.453-.528-.244-.094-.313-.19-.313-.27 0-.122.123-.177.341-.177zm12.988.135c0 .123-.11.257-.328.297-.464.121-.464.283-.479.46 0 .107-.027.674-.027 1.444 0 .81.014 1.553.027 2.026.014.432.246.473.492.554.219.067.342.176.342.283 0 .096-.178.19-.355.19-.095 0-1.189-.04-1.477-.04-.451 0-.656.04-.902.04-.205 0-.396-.068-.396-.203 0-.122.124-.176.328-.23.314-.08.478-.257.505-.404.028-.162.028-1.204.028-1.607 0-.082-.042-.11-.069-.11-.205 0-.437.19-.738.595-.356.46-.6.837-.916 1.257-.382.5-.778.77-1.668.77-.095 0-.41.012-.56-.042-.096-.026-.26-.081-.26-.189 0-.109.123-.135.246-.175.328-.095.616-.244 1.422-1.297.355-.447.724-.81.916-.919.027-.014.027-.04 0-.04-.943-.203-1.422-.73-1.422-1.337 0-.73.451-1.46 2.378-1.46.629 0 1.38.04 1.846.027.274 0 .519-.014.71-.014.152.015.357.03.357.124zm-2.256.58c0-.12-.041-.27-.097-.27-.095-.026-.109-.04-.313-.04-.589 0-1.108.324-1.108.96 0 .742.656 1.106 1.462 1.12.055 0 .069-.04.069-.094a32.71 32.71 0 00-.013-1.676z" fill="#fff"/></g><defs><clipPath id="clip0_69_2021"><path fill="#fff" transform="translate(.007 .63)" d="M0 0h216v42H0z"/></clipPath></defs></svg>