<svg width="216" height="42" fill="none" xmlns="http://www.w3.org/2000/svg"><g clip-path="url(#clip0_69_3658)"><path d="M-.111 11.576c0-3.325 2.739-6.033 6.105-6.033 3.368 0 6.106 2.707 6.106 6.033 0 .377-.04.745-.106 1.102a8.263 8.263 0 00-3.18-.633 8.235 8.235 0 00-7.013 3.904A5.974 5.974 0 01-.11 11.576zm10.248 8.596a8.04 8.04 0 011.859-5.141 6.117 6.117 0 00-3.182-.893c-3.367 0-6.105 2.705-6.105 6.034 0 3.325 2.738 6.033 6.105 6.033a6.118 6.118 0 003.182-.894 8.037 8.037 0 01-1.859-5.14zm11.05-.471a8.233 8.233 0 01-7.015-3.91 5.98 5.98 0 00-1.917 4.38c0 3.326 2.738 6.033 6.105 6.033 3.367 0 6.106-2.707 6.106-6.033 0-.377-.04-.744-.107-1.1a8.25 8.25 0 01-3.171.63zm.598-14.127c.01.155.025.305.025.46 0 3.806-2.669 7.002-6.25 7.88a6.11 6.11 0 005.628 3.696c3.367 0 6.105-2.709 6.105-6.034 0-3.125-2.421-5.704-5.508-6.002zM13.586 0A6.114 6.114 0 007.96 3.696c3.586.873 6.258 4.07 6.258 7.88 0 .153-.008.306-.017.46 3.08-.306 5.492-2.881 5.492-6.003C19.692 2.708 16.954 0 13.586 0z" fill="#A30C33"/><path d="M38.034 6.38c-.229 0-.584.149-.685.224-.076.076-.203.351-.227.928-.027.501-.027 3.61-.053 6.467 0 2.281.053 3.91.053 4.537.025 1.53.1 1.982 1.57 2.356.508.1.71.301.71.528 0 .2-.43.35-.785.35-.66 0-2.106-.15-3.222-.15-.735 0-1.978.1-2.764.1-.583 0-.94-.125-.94-.402 0-.175.357-.376.61-.451 1.241-.3 1.546-.677 1.623-1.83.077-1.002.153-2.632.153-3.911 0-.801 0-6.417-.05-7.143-.077-.877-.205-1.278-1.6-1.454-.33-.05-.583-.225-.583-.376 0-.2.229-.35.533-.4.151-.025.61-.025.838-.025 1.623 0 3.703-.2 4.844-.2 2.436 0 4.085.45 5.124 1.452 1.192 1.154 1.472 2.507 1.472 3.384 0 2.056-.939 3.16-1.674 3.785-.661.552-2.056 1.128-3.045 1.128-.279 0-.99-.049-1.319-.175-.356-.15-.533-.275-.533-.5 0-.102.177-.252.381-.252h.381c1.065 0 2.64-1.253 2.64-3.86-.002-2.005-1.371-4.11-3.452-4.11zm25.935 7.068c0 3.283-1.42 5.415-3.196 6.817-1.446 1.104-3.603 1.804-5.556 1.804-2.663 0-4.998-1.001-6.595-2.68-1.37-1.455-2.182-3.434-2.182-5.742 0-3.058 1.37-5.012 3.272-6.517 1.142-.877 3.274-1.805 5.403-1.805 5.607 0 8.854 4.111 8.854 8.123zm-12.33-5.966c-.861.827-1.776 2.631-1.776 5.615 0 3.86 2.386 8.046 6.09 8.046 1.395 0 2.257-.702 2.587-1.029 1.065-1.052 1.953-3.207 1.953-5.89 0-1.98-.786-4.987-2.638-6.667-.863-.752-2.232-1.354-3.348-1.354-1.143 0-2.282.703-2.867 1.279zm27.484-1.754c.608.15 1.244.3 1.827.376.177 0 .38.3.38.677.025.7.077 1.578.127 2.306.026.526-.152.952-.43.952-.127 0-.355-.3-.483-.677-.254-.776-.635-1.453-1.066-1.78-1.09-.901-2.384-1.454-3.753-1.454-4.034 0-5.936 3.16-5.936 6.969 0 1.68.304 3.133.862 4.236 1.395 2.758 3.704 3.736 5.683 3.736.33 0 1.572-.05 2.46-.578.938-.525 1.623-1.253 2.207-2.28.304-.551.482-.778.686-.778.278 0 .278.652.2.929-.125.625-.531 1.729-.76 2.18-.076.226-.532.626-.913.802-.355.124-2.105.725-4.439.725-3.756 0-6.418-1.653-7.458-2.831-.965-1.102-2.132-2.857-2.132-5.64 0-3.033 1.725-5.163 2.79-6.016 2.156-1.754 4.769-2.255 6.85-2.255 1.167 0 2.385.175 3.298.401zm5.189-.125c.608 0 1.827.125 2.613.125.76 0 2.232-.1 2.84-.1.508 0 .787.125.787.35 0 .226-.38.351-.659.427-.99.276-1.193.401-1.269 1.529-.05.928-.025 3.734-.025 4.913 0 .1.076.25.177.25 1.37-.1 2.207-.526 3.12-1.981.71-1.152 1.218-2.106 1.853-3.083 1.014-1.654 2.233-2.707 3.602-2.707.862 0 1.319.35 1.319 1.053 0 .225-.179.652-.33.802-.202.225-.432.276-.736.225-.278-.05-.608-.125-.863-.125-1.496 0-2.155 1.053-2.865 2.155-.712 1.104-1.27 1.982-1.65 2.508a.266.266 0 000 .2c.584 1.102 2.84 4.637 3.957 6.09 1.675 2.181 2.333 2.357 3.68 2.657.152.05.405.151.405.277 0 .224-.152.375-.507.476-.357.1-.94.125-1.522.125-2.232 0-3.323-.35-4.314-1.655-.938-1.152-2.004-2.782-3.17-4.612-.838-1.328-1.167-1.755-1.98-1.78-.126 0-.151.177-.176.301 0 2.032.076 4.664.101 5.59.027.501.152.877 1.269 1.154.456.125.736.3.736.501 0 .227-.432.377-.837.377-.558 0-2.309-.05-3.095-.05s-2.055.1-2.867.1c-.38 0-.684-.2-.684-.378 0-.224.202-.35.76-.474 1.218-.277 1.497-.628 1.575-2.156.05-1.255.05-2.983.05-5.666 0-2.933-.05-3.886-.076-4.787-.028-1.178-.254-1.505-1.142-1.755-.66-.175-.838-.35-.838-.527 0-.224.407-.35.761-.35zm33.167 7.845c0 3.283-1.421 5.415-3.197 6.817-1.446 1.104-3.602 1.804-5.555 1.804-2.664 0-4.997-1.001-6.596-2.68-1.369-1.455-2.18-3.434-2.18-5.742 0-3.058 1.37-5.012 3.272-6.517 1.141-.877 3.271-1.805 5.403-1.805 5.605 0 8.853 4.111 8.853 8.123zM105.15 7.482c-.863.827-1.776 2.631-1.776 5.615 0 3.86 2.384 8.046 6.089 8.046a3.653 3.653 0 002.588-1.029c1.065-1.052 1.954-3.207 1.954-5.89 0-1.98-.788-4.987-2.639-6.667-.863-.752-2.233-1.354-3.349-1.354-1.142 0-2.284.703-2.867 1.279zm19.163 5.415c1.725 0 5.073-.101 7.736-.101.103 0 .205-.25.23-.627.05-.325.05-3.257-.051-4.235-.101-.903-.229-1.152-1.244-1.43-.353-.098-.735-.25-.735-.501 0-.175.255-.326.837-.326.33 0 2.208.076 2.867.076.812 0 2.41-.1 2.714-.1.483 0 .787.125.787.326 0 .25-.229.4-.812.55-.913.202-1.065.603-1.117 1.33-.125 1.178-.202 3.434-.202 6.994 0 2.457.076 3.76.101 4.586.025.977.28 1.053 1.295 1.379.456.15.709.326.709.527 0 .275-.356.35-.813.35-.431 0-1.8-.075-2.562-.075-.558 0-2.588.126-3.095.126-.607 0-.861-.126-.861-.352 0-.225.329-.425.684-.526 1.243-.326 1.294-.525 1.422-2.382.075-1.002.1-3.359.05-4.035 0-.225-.101-.327-.204-.327-2.03 0-7.229-.074-7.736-.024-.127.024-.331.225-.331.376-.05.928 0 3.61.026 4.412.025 1.18.178 1.554 1.217 1.855.533.15.888.352.888.627.025.25-.482.326-.813.326-.177 0-2.281-.075-3.17-.075-.584 0-1.877.1-2.739.1-.66 0-.889-.124-.889-.326 0-.275.28-.425.71-.55 1.118-.301 1.344-.578 1.472-1.63.101-1.002.228-4.738.228-8.172 0-.752.05-2.13 0-3.133-.051-.827-.279-1.103-1.116-1.353-.584-.176-.863-.352-.863-.553 0-.25.33-.35.788-.35.684 0 2.078.1 2.738.1 1.066 0 2.208-.075 2.816-.075.532 0 .837.1.837.325 0 .277-.329.427-.862.553-1.066.225-1.143.7-1.168 1.729-.05.902-.151 3.81-.074 4.286.026.199.127.325.305.325zm27.037-7.32c.178 0 .33.126.33.276-.05.727-.025 2.331 0 3.185.025.325-.152.8-.355.8-.202 0-.457-.124-.609-.7-.33-1.104-.787-2.257-1.725-2.356-.786-.1-2.689-.076-3.221-.05-.508 0-.635.15-.635.4-.102 1.303-.102 3.56-.102 5.238 0 1.755.026 5.115.026 6.894.026 1.08.431 1.329 1.599 1.604.379.125.657.301.657.501s-.303.377-.76.377c-.634 0-2.181-.125-3.146-.125-.938 0-2.535.15-3.043.15-.406 0-.684-.226-.684-.35 0-.276.303-.452.76-.552 1.091-.25 1.193-.677 1.243-1.253.077-.778.28-2.28.28-7.194 0-2.331 0-3.86-.052-4.512-.05-.827-.228-1.128-1.217-1.354-.558-.15-.761-.3-.761-.552 0-.175.355-.326.735-.326 1.117 0 2.107.075 3.12.075h3.298c3.348 0 3.957-.1 4.262-.176zm8.676.803c-.228 0-.585.149-.686.224-.076.076-.202.351-.228.928-.024.501-.024 3.61-.051 6.467 0 2.281.051 3.91.051 4.537.026 1.53.102 1.982 1.573 2.356.507.1.71.301.71.528 0 .2-.432.35-.786.35-.662 0-2.106-.15-3.222-.15-.737 0-1.979.1-2.765.1-.584 0-.939-.125-.939-.402 0-.175.355-.376.609-.451 1.243-.3 1.548-.677 1.623-1.83a58.75 58.75 0 00.152-3.911c0-.801 0-6.417-.05-7.143-.077-.877-.204-1.278-1.598-1.454-.33-.05-.584-.225-.584-.376 0-.2.229-.35.533-.4.153-.025.609-.025.838-.025 1.622 0 3.702-.2 4.844-.2 2.435 0 4.085.45 5.125 1.452 1.192 1.154 1.472 2.507 1.472 3.384 0 2.056-.939 3.16-1.676 3.785-.659.552-2.054 1.128-3.043 1.128-.279 0-.99-.049-1.319-.175-.355-.15-.533-.275-.533-.5 0-.102.178-.252.38-.252h.38c1.066 0 2.638-1.253 2.638-3.86 0-2.005-1.369-4.11-3.448-4.11zm17.575-.627c.836 0 1.876-.1 2.231-.15.102-.026.279.15.306.325.025.452.025 2.182.025 2.682 0 .35-.179.702-.406.702-.229 0-.431-.376-.482-.626-.331-1.404-1.04-1.78-1.624-1.88-.482-.076-1.572-.177-3.526-.151-.101 0-.305.1-.331.702-.05.627-.125 4.111-.101 5.49 0 .074.101.249.254.249h2.03c1.801 0 1.751-.1 2.232-1.203.153-.376.329-.653.559-.653.202 0 .278.427.252.703-.05.703-.101 1.152-.101 1.729 0 .678.051 1.08.101 1.705.026.452-.125.752-.328.752-.204 0-.406-.3-.483-.551-.331-1.103-.66-1.278-1.649-1.353-.812-.076-1.75-.076-2.536-.076-.101 0-.33.25-.33.3-.101.703-.075 2.658-.051 3.484.026.603 0 1.531.101 2.056.076.226.306.552.559.603.406.074 1.193.15 2.055.15.761 0 1.7 0 2.335-.225.761-.277 1.446-.877 2.003-1.856.355-.652.584-.877.787-.877.255 0 .229.526.204.729 0 .2-.737 2.506-.964 2.907-.076.174-.483.325-.61.325-.279 0-6.544-.126-8.446-.126-1.7 0-1.98.126-2.893.126-.482 0-.863-.076-.863-.325 0-.227.33-.401.762-.503 1.293-.3 1.622-.552 1.724-1.903.076-1.054.203-2.959.203-6.067 0-2.957.025-4.111-.024-4.837-.052-.903-.255-1.404-1.345-1.606-.534-.099-.813-.199-.813-.45 0-.226.432-.377.788-.377 1.192 0 3.272.076 4.59.076h3.805zm18.195-.025c.608.15 1.243.3 1.826.376.178 0 .38.3.38.677.026.7.075 1.578.128 2.306.025.526-.154.952-.432.952-.127 0-.356-.3-.483-.677-.253-.776-.634-1.453-1.065-1.78-1.092-.901-2.385-1.454-3.754-1.454-4.034 0-5.937 3.16-5.937 6.969 0 1.68.305 3.133.863 4.236 1.395 2.758 3.704 3.736 5.682 3.736.33 0 1.574-.05 2.46-.578.939-.525 1.625-1.253 2.207-2.28.305-.551.484-.778.686-.778.279 0 .279.652.203.929-.127.625-.533 1.729-.762 2.18-.076.226-.533.626-.913.802-.355.124-2.105.725-4.44.725-3.754 0-6.416-1.653-7.457-2.831-.964-1.102-2.132-2.857-2.132-5.64 0-3.033 1.725-5.163 2.791-6.016 2.156-1.754 4.769-2.255 6.849-2.255 1.169 0 2.386.175 3.3.401zm17.286 0c.608.15 1.242.3 1.825.376.178 0 .381.3.381.677.025.7.077 1.578.126 2.306.027.526-.152.952-.43.952-.127 0-.355-.3-.481-.677-.255-.776-.636-1.453-1.066-1.78-1.092-.901-2.384-1.454-3.754-1.454-4.034 0-5.937 3.16-5.937 6.969 0 1.68.305 3.133.863 4.236 1.395 2.758 3.703 3.736 5.683 3.736.329 0 1.573-.05 2.459-.578.939-.525 1.624-1.253 2.208-2.28.303-.551.483-.778.685-.778.278 0 .278.652.202.929-.126.625-.533 1.729-.761 2.18-.075.226-.533.626-.913.802-.355.124-2.106.725-4.44.725-3.755 0-6.418-1.653-7.458-2.831-.963-1.102-2.13-2.857-2.13-5.64 0-3.033 1.725-5.163 2.79-6.016 2.156-1.754 4.769-2.255 6.849-2.255 1.168 0 2.385.175 3.299.401zM40.038 29.978c.437 0 1.353-.04 1.517-.04.26 0 .423.067.423.176 0 .122-.136.215-.437.296-.587.15-.629.271-.67.676-.054.553-.068 1.432-.068 2.876 0 1.311.027 2.945.04 3.392.014.526.165.608.698.742.178.054.383.161.383.27 0 .149-.178.216-.424.216-.233 0-1.067-.053-1.477-.053-.314 0-1.298.067-1.572.067-.328 0-.478-.081-.478-.202 0-.123.19-.217.383-.258.656-.162.71-.296.765-1.297.014-.27.027-1.647.027-3.025a67.138 67.138 0 00-.04-3.04c0-.175-.124-.242-.192-.242-.984 0-3.486-.041-3.855 0-.068 0-.178.107-.191.203-.041.351-.07 1.823-.07 3.27 0 1.377.015 2.714.015 3.05 0 .636.108.84.67 1 .287.081.477.19.477.298.014.135-.259.216-.437.216-.096 0-1.23-.041-1.709-.041-.313 0-.983.068-1.435.068-.383 0-.519-.095-.519-.203 0-.15.274-.23.424-.27.63-.135.71-.338.752-.918.027-.487.123-1.919.123-3.593 0-1.122.027-1.932 0-2.446-.028-.458-.178-.635-.602-.743-.314-.08-.465-.189-.465-.296 0-.136.178-.19.424-.19.37 0 1.12.04 1.49.04l6.03.001zm7.861 3.837c.37.418.67 1.04.67 1.769 0 .986-.438 1.783-1.176 2.35-.766.595-1.627.69-2.104.69-.248 0-.507-.014-.671-.042-.055-.013-.109.123-.109.19-.014.608.014 1.742.054 2.04.042.364.11.566.656.728.274.082.37.19.37.285 0 .122-.219.175-.383.175-.383 0-1.326-.068-1.818-.068-.342 0-.52.041-1.107.041-.232 0-.397-.08-.397-.203 0-.082.137-.19.355-.243.642-.135.725-.297.765-1.094.014-.472.041-1.553.041-2.917 0-.905.014-2.419-.013-2.931-.014-.284-.056-.338-.097-.378-.245-.19-.519-.42-.519-.486 0-.068.151-.258.287-.312.273-.08 1.025-.31 1.395-.526a.912.912 0 01.273-.122c.055 0 .164.122.164.19-.027.242-.027.417-.041.634 0 .054.068.108.11.095a5.94 5.94 0 01.806-.432 2.45 2.45 0 01.942-.19c.549 0 1.178.338 1.547.757zm-3.212.202a.713.713 0 00-.15.352c-.082.593-.082 1.687-.055 2.404 0 .242.054.472.137.62.288.5.834.771 1.12.771.152 0 .301-.04.466-.162.71-.513.82-1.675.82-2.04 0-.366-.069-1.053-.574-1.608-.301-.337-.807-.5-1.025-.5a1.74 1.74 0 00-.739.163zm10.936 1.824a2.81 2.81 0 01-1.216 2.296c-.56.392-1.257.553-1.886.553-.615 0-1.381-.283-1.887-.702-.587-.472-1.025-1.323-1.025-2.08 0-.943.423-1.66.943-2.093a3.413 3.413 0 012.187-.783c1.368-.001 2.885 1.053 2.885 2.81zm-3.812-2.066c-.315.283-.56.877-.56 1.768 0 .445.054.958.163 1.297.287.946.916 1.405 1.49 1.405.137 0 .397-.108.601-.35.287-.352.506-1.069.506-1.838 0-.568-.123-1.445-.547-2.04-.246-.311-.601-.54-.983-.54-.234 0-.452.095-.67.298zm9.473-.379c.178.122.232.311.232.486 0 .243-.45.635-.533.635-.123 0-.342-.095-.628-.338-.37-.297-.657-.582-1.08-.582-.15 0-.383.082-.588.298-.342.351-.532 1.026-.532 1.648 0 .878.369 1.337.436 1.419.26.35.753.728 1.49.728.397 0 .848-.16 1.313-.445a.12.12 0 01.178.109c0 .134-.11.31-.219.417-.464.486-1.258.905-2.104.905-.998 0-1.764-.512-2.146-1.08a3.001 3.001 0 01-.452-1.567c0-1.053.547-1.822 1.367-2.35.479-.337 1.38-.581 1.928-.581.409 0 1.091.11 1.338.298zm2.229 5.174c-.165 0-.342-.041-.342-.163 0-.108.096-.188.328-.257.368-.094.574-.19.602-.446a35.94 35.94 0 00.068-2.255v-1.595c0-.054-.028-.12-.11-.135a12.106 12.106 0 00-.628-.027c-.41 0-.588.392-.725.77-.11.257-.218.378-.328.378-.123 0-.177-.243-.164-.445.014-.459.096-.838.096-1.135-.014-.08.096-.203.164-.203s.15.055.246.095c.095.04.533.068.861.068h2.678c.329 0 .835-.04.944-.08.096-.041.191-.082.26-.082s.124.122.124.202c-.042.393-.028.716-.014 1.177.014.27-.123.432-.247.432-.096 0-.164-.082-.232-.352-.11-.5-.342-.825-.698-.825-.273 0-.587.014-.683.028-.07.014-.096.122-.11.202-.014.378 0 1.081 0 1.703 0 .986.014 1.553.056 1.932.04.391.136.472.519.58.218.068.315.162.315.217 0 .106-.192.215-.343.215-.465 0-1.011-.04-1.312-.04-.314 0-.874.04-1.325.04zm10.198-4.755c.37.418.67 1.04.67 1.769 0 .986-.437 1.783-1.176 2.35-.765.595-1.626.69-2.104.69-.247 0-.506-.014-.67-.042-.055-.013-.11.123-.11.19-.013.608.014 1.742.055 2.04.041.364.11.566.656.728.274.082.369.19.369.285 0 .122-.219.175-.383.175-.382 0-1.326-.068-1.818-.068-.341 0-.519.041-1.107.041-.232 0-.397-.08-.397-.203 0-.082.138-.19.356-.243.642-.135.724-.297.765-1.094.014-.472.041-1.553.041-2.917 0-.905.014-2.419-.014-2.931-.013-.284-.055-.338-.096-.378-.246-.19-.52-.42-.52-.486 0-.068.151-.258.288-.312.273-.08 1.025-.31 1.394-.526a.912.912 0 01.274-.122c.054 0 .163.122.163.19-.027.242-.027.417-.04.634 0 .054.068.108.109.095a6 6 0 01.806-.432c.233-.095.547-.19.943-.19.548 0 1.178.338 1.546.757zm-3.212.202a.714.714 0 00-.15.352c-.083.593-.083 1.687-.055 2.404 0 .242.054.472.136.62.288.5.835.771 1.122.771.15 0 .3-.04.464-.162.711-.513.821-1.675.821-2.04 0-.366-.069-1.053-.574-1.608-.301-.337-.807-.5-1.025-.5-.261 0-.562.068-.739.163zm8.735-.257c.165.217.3.555.3 1.163 0 .527-.054 2.133-.054 2.283 0 .377.274.54.506.54.069 0 .342-.108.48-.163.04-.027.054-.013.08.014a.52.52 0 01.041.19c0 .256-.642.918-1.407.918-.396 0-.82-.123-1.025-.649-.014-.053-.096-.08-.123-.053-.341.242-.903.5-1.08.567-.15.053-.423.108-.601.108-.506 0-1.052-.608-1.052-1.364 0-.245.108-.5.245-.69.137-.189.37-.27.492-.323.301-.122 1.545-.46 1.86-.554.164-.053.246-.15.246-.203.014-.122.04-.864.028-1.04-.014-.324-.301-.865-.917-.865-.19 0-.341.027-.437.095-.055.027-.083.163-.083.621a.174.174 0 01-.055.123c-.095.094-1.107.54-1.202.54-.082 0-.178-.11-.178-.19 0-.39.3-.755 1.148-1.296.506-.324 1.176-.5 1.367-.5.834 0 1.217.431 1.421.728zm-1.27 3.945c.055-.04.11-.203.11-.257.026-.19.054-.756.054-1.202 0-.053-.055-.135-.096-.135-.233 0-.862.203-1.107.35-.165.122-.247.19-.247.541 0 .593.492.865.753.865.122 0 .396-.081.533-.162zm9.309.877c-.341 0-1.011-.053-1.312-.053-.314 0-.71.026-1.108.026-.164 0-.37-.053-.37-.202 0-.122.152-.176.384-.243.246-.054.382-.216.396-.325.028-.229.041-.702.041-1.607 0-.095-.041-.162-.109-.162l-1.791.014c-.096 0-.123.053-.137.256-.014.23 0 .96.027 1.297.014.312.097.474.329.527.218.068.342.162.342.244 0 .08-.11.215-.397.215-.096 0-.697-.04-.998-.04-.438 0-1.025.04-1.257.04-.233 0-.342-.122-.342-.23 0-.08.123-.175.342-.23.314-.08.383-.177.437-.311.055-.202.083-.796.083-1.823 0-1.026 0-1.567-.014-1.823-.014-.324-.055-.418-.465-.54-.205-.068-.315-.162-.315-.257 0-.135.164-.175.342-.175.328 0 .875.04 1.175.04.438 0 .63-.04 1.053-.04.219 0 .342.054.342.175 0 .08-.07.162-.273.242-.343.123-.384.217-.397.46-.014.418-.014 1.216-.014 1.352.014.04.054.107.11.107h1.803c.042 0 .123-.067.123-.12.014-.366.014-1.177 0-1.325-.013-.325-.123-.392-.341-.474-.164-.068-.328-.135-.328-.27 0-.107.164-.148.355-.148.246 0 .697.04 1.038.04.451 0 .752-.04 1.121-.04.234 0 .37.068.37.162 0 .133-.136.188-.3.243-.452.135-.438.257-.48.594-.013.12-.013.892-.013 1.62 0 .716.014 1.365.041 1.784.014.35.219.42.534.54.219.068.314.162.314.256 0 .137-.19.204-.34.204zm5.702-5.186c.178.122.233.311.233.486 0 .243-.452.635-.534.635-.123 0-.341-.095-.628-.338-.37-.297-.657-.582-1.08-.582-.15 0-.383.082-.588.298-.342.351-.533 1.026-.533 1.648 0 .878.37 1.337.438 1.419.26.35.751.728 1.489.728.397 0 .848-.16 1.313-.445a.12.12 0 01.178.109c0 .134-.11.31-.22.417-.464.486-1.258.905-2.104.905-.998 0-1.763-.512-2.146-1.08a3 3 0 01-.451-1.567c0-1.053.547-1.822 1.367-2.35.478-.337 1.38-.581 1.927-.581.409 0 1.092.11 1.339.298zm2.229 5.174c-.164 0-.342-.041-.342-.163 0-.108.096-.188.328-.257.369-.094.574-.19.602-.446.028-.406.069-1.269.069-2.255v-1.595c0-.054-.028-.12-.11-.135a12.106 12.106 0 00-.629-.027c-.41 0-.587.392-.724.77-.11.257-.219.378-.329.378-.123 0-.177-.243-.164-.445.014-.459.096-.838.096-1.135-.014-.08.096-.203.164-.203.07 0 .151.055.246.095.096.04.534.068.862.068h2.678c.329 0 .835-.04.944-.08.096-.041.191-.082.26-.082.068 0 .123.122.123.202-.041.393-.028.716-.014 1.177.014.27-.123.432-.246.432-.096 0-.165-.082-.233-.352-.11-.5-.341-.825-.697-.825-.273 0-.587.014-.683.028-.068.014-.096.122-.11.202-.013.378 0 1.081 0 1.703 0 .986.014 1.553.056 1.932.04.391.136.472.519.58.218.068.315.162.315.217 0 .106-.192.215-.343.215-.465 0-1.012-.04-1.312-.04-.314 0-.876.04-1.326.04zm9.05-3.013c-.068.014-.027.068.027.094.245.069.547.217.656.298.206.162.492.405.492.959 0 .73-.547 1.202-1.134 1.417-.52.19-1.189.217-1.75.217-.301 0-.602-.013-.957-.013-.438 0-.984.027-1.463.04-.192.013-.355-.107-.355-.216 0-.121.164-.163.342-.203.478-.121.492-.31.519-.635.041-.283.055-.73.055-1.782 0-.527.014-1-.014-1.526-.013-.34-.054-.447-.519-.582-.164-.04-.3-.148-.3-.31 0-.068.054-.137.287-.137.245 0 .806.042 1.079.042.26 0 1.408-.069 1.846-.069.861 0 2.008.216 2.008 1.284 0 .637-.41.932-.819 1.122zm-1.723-1.958c-.191 0-.314.041-.369.081-.041.04-.068.12-.082.297-.014.188-.027 1.148 0 1.35.014.11.069.135.15.135.233 0 .657-.013.876-.095.355-.133.547-.43.547-.823 0-.365-.329-.945-1.122-.945zm.916 2.512c-.205-.135-.629-.23-.874-.23-.165 0-.247 0-.37.027-.054.013-.082.068-.096.163-.027.134-.027.647-.013 1.092 0 .259.027.474.15.664.11.148.397.31.534.31.656 0 1.148-.54 1.148-1.162 0-.405-.232-.69-.479-.864zm8.873-.27c0 1.148-.71 1.972-1.216 2.296-.561.392-1.258.553-1.887.553-.616 0-1.381-.283-1.887-.702-.587-.472-1.024-1.323-1.024-2.08 0-.943.423-1.66.942-2.093a3.416 3.416 0 012.187-.783c1.367-.001 2.885 1.053 2.885 2.81zm-3.814-2.066c-.315.283-.561.877-.561 1.768 0 .445.055.958.164 1.297.288.946.916 1.405 1.49 1.405.137 0 .397-.108.601-.35.288-.352.507-1.069.507-1.838 0-.568-.125-1.445-.547-2.04-.247-.311-.601-.54-.984-.54-.232 0-.451.095-.67.298zm8.682 4.754a.569.569 0 00-.355.133c-.315.285-.382.946-.437 1.461-.041.31-.151.418-.26.418-.136 0-.219-.202-.233-.365-.054-.54-.081-1.62-.109-1.944-.014-.096.055-.177.109-.177.164 0 .329-.014.493-.04.054-.014.137-.041.177-.121a93.331 93.331 0 001.463-3.69c.027-.08.081-.228.123-.363.041-.15.219-.325.588-.663.096-.108.191-.161.273-.161.082 0 .165.107.343.566.396 1.12 1.298 3.701 1.53 4.202.041.108.124.216.246.216.179.04.424.04.616.04.055 0 .095.068.082.162-.041.352-.315 1.067-.397 1.85-.041.311-.191.486-.328.486s-.205-.135-.205-.446v-.432c0-.797-.274-1.134-.642-1.134h-3.077v.002zm1.163-3.62c-.028-.095-.096-.054-.124 0-.287.81-.943 2.554-1.066 2.998-.014.055.014.121.068.121.219 0 1.887.028 2.078-.013.055-.013.083-.053.068-.094-.109-.406-.86-2.607-1.024-3.012zm9.856.932a2.814 2.814 0 01-1.216 2.296c-.561.392-1.258.553-1.887.553-.615 0-1.38-.283-1.886-.702-.588-.472-1.025-1.323-1.025-2.08 0-.943.423-1.66.943-2.093a3.414 3.414 0 012.187-.783c1.367-.001 2.884 1.053 2.884 2.81zm-3.813-2.066c-.315.283-.561.877-.561 1.768 0 .445.054.958.163 1.297.289.946.917 1.405 1.491 1.405.136 0 .397-.108.601-.35.288-.352.506-1.069.506-1.838 0-.568-.123-1.445-.547-2.04-.245-.311-.6-.54-.983-.54-.233 0-.451.095-.67.298zm8.914 1.782c-.069.014-.028.068.027.094.245.069.546.217.655.298.206.162.493.405.493.959 0 .73-.547 1.202-1.135 1.417-.519.19-1.189.217-1.749.217-.302 0-.602-.013-.957-.013-.438 0-.985.027-1.463.04-.191.013-.355-.107-.355-.216 0-.121.164-.163.342-.203.478-.121.491-.31.519-.635.041-.283.055-.73.055-1.782 0-.527.014-1-.014-1.526-.014-.34-.054-.447-.52-.582-.163-.04-.299-.148-.299-.31 0-.068.054-.137.287-.137.245 0 .807.042 1.078.042.261 0 1.409-.069 1.846-.069.861 0 2.009.216 2.009 1.284 0 .637-.41.932-.819 1.122zm-1.724-1.958c-.19 0-.313.041-.369.081-.041.04-.068.12-.082.297-.013.188-.026 1.148 0 1.35.014.11.069.135.152.135.232 0 .656-.013.874-.095.355-.133.547-.43.547-.823 0-.365-.328-.945-1.122-.945zm.917 2.512c-.205-.135-.628-.23-.875-.23-.163 0-.246 0-.369.027-.055.013-.082.068-.096.163-.028.134-.028.647-.014 1.092 0 .259.027.474.15.664.11.148.397.31.534.31.655 0 1.148-.54 1.148-1.162 0-.405-.232-.69-.478-.864zm7.178-2.513c.313.297.517.717.517 1.19 0 .095-.135.324-.299.324h-2.98c-.069 0-.137.04-.151.095-.041.108-.054.31-.054.486 0 .296.164.918.423 1.256.343.432.917.676 1.518.676.574 0 .971-.135 1.23-.474.054-.081.124-.161.179-.161.055 0 .122.094.122.175 0 .081-.041.23-.109.338-.424.647-1.066 1.175-2.187 1.175-1.572 0-2.529-1.175-2.529-2.715 0-1.08.601-2.16 1.736-2.674a2.715 2.715 0 011.122-.257c.545 0 1.105.215 1.462.566zm-2.831.96c-.013.067.041.135.096.135.355.014.779 0 1.463 0 .233 0 .478-.136.478-.46 0-.378-.383-.824-.765-.824-.574 0-1.108.526-1.272 1.148zm9.638-.743c.37.418.671 1.04.671 1.769 0 .986-.437 1.783-1.176 2.35-.765.595-1.627.69-2.104.69-.248 0-.506-.014-.671-.042-.055-.013-.109.123-.109.19-.014.608.014 1.742.054 2.04.042.364.109.566.657.728.273.082.368.19.368.285 0 .122-.218.175-.383.175-.382 0-1.325-.068-1.817-.068-.342 0-.519.041-1.107.041-.233 0-.397-.08-.397-.203 0-.082.137-.19.355-.243.643-.135.725-.297.766-1.094.014-.472.041-1.553.041-2.917 0-.905.014-2.419-.014-2.931-.013-.284-.054-.338-.096-.378-.245-.19-.519-.42-.519-.486 0-.068.151-.258.287-.312.274-.08 1.025-.31 1.395-.526a.896.896 0 01.273-.122c.055 0 .163.122.163.19-.026.242-.026.417-.04.634 0 .054.068.108.109.095a6.05 6.05 0 01.806-.432c.233-.095.547-.19.943-.19.548 0 1.177.338 1.545.757zm-3.211.202a.724.724 0 00-.152.352c-.081.593-.081 1.687-.054 2.404 0 .242.054.472.137.62.287.5.834.771 1.121.771.151 0 .301-.04.465-.162.711-.513.82-1.675.82-2.04 0-.366-.069-1.053-.574-1.608-.3-.337-.807-.5-1.025-.5-.26 0-.561.068-.738.163zm5.003-.837c.261 0 .738.041 1.149.041.328 0 .766-.04 1.176-.04.137 0 .315.054.315.147 0 .108-.096.217-.315.27-.465.123-.41.312-.437.487a36.861 36.861 0 00-.028 2.458c.014.08.055.095.11.04.534-.594 1.325-1.471 1.859-2.066.15-.162.205-.31.205-.377v-.162c0-.19-.055-.297-.396-.405-.082-.028-.233-.122-.233-.217 0-.107.123-.175.342-.175.287 0 .656.04 1.066.04.396-.013.71-.054 1.066-.054.245 0 .341.082.341.177 0 .108-.096.189-.327.255-.383.123-.438.3-.452.474 0 .108-.014.608-.014 1.188 0 .799.028 1.811.042 2.284.013.432.287.513.533.567.218.055.328.176.328.257 0 .08-.164.203-.315.203-.342 0-.765-.04-1.188-.04-.357 0-.835.04-1.327.04-.164 0-.342-.068-.342-.203 0-.108.096-.175.328-.23.314-.095.465-.283.479-.459.027-.365.068-.878.068-2.606 0-.069-.055-.082-.095-.028-.629.69-1.45 1.58-1.941 2.161-.056.068-.137.176-.137.283v.204c0 .176.096.311.355.404.164.041.315.136.315.217 0 .135-.179.242-.355.242-.138 0-.902-.026-1.217-.026-.451 0-.779.04-1.026.04-.122 0-.382-.027-.382-.189 0-.108.136-.202.355-.257.342-.094.451-.215.493-.377.027-.19.04-.445.04-1.108 0-1.216 0-2.215-.013-2.485-.014-.31-.097-.393-.453-.528-.244-.093-.314-.19-.314-.27 0-.122.124-.177.342-.177zm12.987.135c0 .123-.109.257-.328.297-.464.121-.464.283-.479.46 0 .107-.027.675-.027 1.444 0 .81.014 1.553.027 2.026.014.432.246.473.492.554.219.067.343.176.343.284 0 .095-.179.19-.356.19-.095 0-1.188-.041-1.477-.041-.451 0-.656.04-.902.04-.205 0-.396-.067-.396-.203 0-.122.124-.176.328-.23.314-.08.478-.257.506-.404.027-.162.027-1.204.027-1.607 0-.082-.041-.109-.069-.109-.205 0-.437.19-.737.594-.357.46-.601.837-.917 1.257-.382.5-.778.77-1.667.77-.096 0-.41.012-.561-.041-.095-.027-.26-.082-.26-.19 0-.109.123-.135.246-.175.328-.095.616-.244 1.422-1.297.356-.447.724-.81.917-.919.026-.014.026-.04 0-.04-.944-.203-1.423-.73-1.423-1.337 0-.73.452-1.46 2.378-1.46.629 0 1.381.041 1.846.027.274 0 .519-.014.71-.014.153.015.357.03.357.124zm-2.256.58c0-.12-.041-.27-.096-.27-.096-.026-.109-.04-.314-.04-.588 0-1.107.324-1.107.96 0 .742.656 1.106 1.461 1.121.055 0 .069-.04.069-.095a32.71 32.71 0 00-.013-1.675z" fill="#1D1D1B"/></g><defs><clipPath id="clip0_69_3658"><path fill="#fff" d="M0 0h216v42H0z"/></clipPath></defs></svg>