<svg width="216" height="60" fill="none" xmlns="http://www.w3.org/2000/svg"><g clip-path="url(#clip0_69_3247)"><path fill-rule="evenodd" clip-rule="evenodd" d="M16.93 26.335c-1.27-.144-1.657-1.732-.86-2.652.334.619 1.06.9 1.8.594.466-.194.82-.45 1.017-.672-1.025.35-2.136.594-2.018-.474.83.726 1.895-.842 2.059-1.027.539-.615.682-1.316.47-2.376-.189-.924-1.12-2.393-1.76-2.887-.07.107-.217.288-.515.235-.196-.037-.503-.215-.707-.277a2.017 2.017 0 00-1.625.202c-.719.446-.654.92-.645 1.3-1.099-.64-.699-1.654.714-2.054-.98.012-1.772.89-1.968 1.027-.535.375-1.31.293-1.764.078-.862-.408-1.062-1.423-.825-1.662.09.367.38.693.862.75.751.091 1.47-.23 2.037-.474.466-.202 1.246-.346 1.785-.313-.968-.557-2.503-.495-3.038.35-.319-.268-.531-.511-.63-1.068-.253-1.456.854-2.215 2.08-2.215-.013-.35.232-.528.547-.437 0-.136.04-.252.122-.31a.5.5 0 01-.082-.008c-1.22-.099-2.4-.495-3.018-1.146-1.102-1.172.642-2.681.021-3.86-.584.292-1.033.61-1.879.742-.073.165-.142.528-.18.7-.269 1.337 1.03 1.543.707 2.97-.143.636-.629.834-.784 1.584-.012 0-.073.561.392 1.007-1.062.012-1.613-.87-1.274-1.724.13-.335.502-.673.49-1.065-.535.747-1.009.69-1.842.434-.375-.116-.412.416-.192.829-.559-.318-.714-.887-.71-1.147.008-.59.45-.854.886-.755.253.058.76.38.8-.115.066-.838-1.22-.792-.951-2.15.139-.709.886-1.051 2.034-1.216.138-.107.412-.388.563-.627.678-1.093 1.332-1.365 1.724-1.147.465.26.694.467 1.098.673.294.152.633.23.82.474.5.64.042 1.625-.24 2.227-.168.36-.588 1.184-.412 1.766.216.721 1.396 1.171 2.115 1.336l.126.025v-.28c-.216-.384-.4-.83-.547-1.23-.474-1.287.237-1.835 1.32-2.07.122-.087.273-.112.457-.054l.024.008.025.19.143-.02-.017-.26h.033a.55.55 0 01-.168-.396.58.58 0 01.127-.36h-.167l.06-.07c.042-.049.111-.123.172-.202a.892.892 0 00.082-.12c-.037.022-.073.05-.118.083a4.068 4.068 0 00-.2.174l-.07.061V6.026l.07.062c.044.041.122.111.2.173a.89.89 0 00.118.083.892.892 0 00-.082-.12c-.06-.078-.13-.153-.171-.202l-.061-.07h1.196l-.061.07c-.04.05-.11.124-.172.202a.892.892 0 00-.081.12.883.883 0 00.118-.083 3.97 3.97 0 00.2-.173l.07-.062v1.208l-.07-.061c-.049-.042-.122-.112-.2-.174a.882.882 0 00-.118-.082c.02.037.049.078.081.12.062.078.131.152.172.202l.061.07h-.167a.58.58 0 01.126.359.55.55 0 01-.167.4h.024l-.016.255.143.021.029-.19.024-.008c.184-.058.335-.033.457.054 1.079.235 1.79.783 1.32 2.07-.148.4-.331.85-.552 1.23v.18c1.066-.346 3.022-1.538 3.533-2.268.057-.074.102-.128.138-.169l-.008-.8c-.4-.623-.739-1.423-.992-2.124-.686-1.864.327-2.652 1.928-2.999.171-.123.371-.16.637-.078l.04.305.331-.045-.02-.371c.07.008.139.016.2.02a.773.773 0 01-.4-.68c0-.231.102-.446.273-.594h-.257c.127-.145.412-.454.453-.64-.212.046-.474.314-.633.458V.181c.143.128.45.417.633.458-.045-.214-.31-.478-.453-.639h1.503c-.127.144-.413.454-.453.64.212-.046.473-.314.632-.459V1.7c-.143-.128-.449-.416-.633-.458.05.215.31.479.454.64h-.257a.78.78 0 01-.127 1.274c.061-.004.122-.012.188-.02l-.02.37.33.046.04-.305c.266-.082.466-.041.638.078 1.597.343 2.614 1.13 1.927 2.999-.257.697-.596 1.501-.992 2.124l-.008.788c.037.037.086.095.151.181.51.726 2.467 1.922 3.537 2.269v-.182a8.86 8.86 0 01-.552-1.229c-.473-1.287.237-1.835 1.32-2.07a.498.498 0 01.457-.054l.024.008.025.19.143-.02-.013-.26h.025a.557.557 0 01-.04-.755h-.168l.06-.07c.042-.05.111-.124.172-.202a.892.892 0 00.082-.12.888.888 0 00-.118.083c-.078.061-.151.131-.2.173l-.07.062V6.03l.07.062c.049.041.122.111.2.173.04.033.081.062.118.083a.892.892 0 00-.082-.12c-.06-.078-.13-.153-.171-.202l-.061-.07h1.196l-.061.07a4.99 4.99 0 00-.172.202.892.892 0 00-.081.12.88.88 0 00.118-.083c.078-.062.155-.132.2-.173l.07-.062v1.21l-.07-.062c-.049-.042-.122-.112-.2-.173a.88.88 0 00-.118-.083c.02.037.049.078.081.12.062.078.131.152.172.202l.061.07h-.167a.58.58 0 01.126.359.544.544 0 01-.167.4h.033l-.013.255.143.021.025-.19.024-.008c.184-.058.335-.033.458.054 1.082.235 1.792.783 1.319 2.07-.147.4-.331.846-.548 1.23v.28c.05-.008.09-.017.127-.025.719-.16 1.899-.614 2.12-1.336.175-.582-.245-1.407-.413-1.766-.282-.602-.74-1.588-.24-2.227.191-.247.53-.322.824-.474.4-.206.629-.413 1.099-.672.392-.219 1.049.053 1.723 1.146.147.24.42.524.563.627 1.148.165 1.895.507 2.034 1.217.27 1.361-1.017 1.316-.951 2.149.036.495.547.173.796.115.437-.099.878.165.886.755 0 .26-.147.83-.71 1.147.22-.413.187-.945-.192-.83-.83.252-1.307.31-1.842-.432-.012.391.355.73.49 1.064.339.853-.212 1.736-1.274 1.724.465-.45.408-1.007.392-1.007-.155-.75-.641-.948-.784-1.583-.323-1.423.972-1.634.706-2.97-.032-.173-.102-.536-.18-.701-.845-.132-1.294-.45-1.878-.743-.62 1.176 1.123 2.685.02 3.86-.616.657-1.796 1.049-3.018 1.148a.615.615 0 00-.081.008c.081.062.127.173.122.31.315-.092.564.086.548.436 1.225 0 2.331.76 2.078 2.215-.094.557-.31.8-.625 1.068-.535-.845-2.07-.907-3.038-.35.54-.037 1.323.111 1.785.313.567.244 1.286.565 2.038.475a.976.976 0 00.861-.751c.237.235.041 1.25-.82 1.662-.45.215-1.226.297-1.765-.078-.196-.136-.988-1.015-1.968-1.027 1.413.4 1.809 1.419.714 2.054.009-.38.074-.854-.645-1.3a2.02 2.02 0 00-1.625-.201c-.2.061-.51.239-.707.276-.298.058-.445-.128-.514-.235-.637.495-1.572 1.959-1.756 2.887-.212 1.06-.07 1.757.47 2.376.163.185 1.245 1.88 2.074 1.154.119 1.073-1.009.702-2.034.351.196.223.556.479 1.021.672.74.306 1.466.025 1.801-.593.797.92.576 2.503-.694 2.652.008.016-.151.028-.147.04-.139.698.094 1.205.702 1.531l-7.49.858-8.318-.623c.83-.693.83-1.32.748-1.806m6.174-16.457c-.751.758-2.417 1.711-4.059 2.05.951 0 2.622-.079 2.818-.318-.033.606-1.32 1.303-2.16 1.48.69.07 1.335 0 1.87-.26-.294.426-.63.772-1.189.954.588.726 1.777 1.187 2.97 1.072-.287.371-.813.586-1.303.524.967 1.534 1.845 3.225 2.046 5.556.2-2.327 1.078-4.022 2.046-5.556-.49.062-1.017-.153-1.303-.524 1.192.12 2.377-.347 2.969-1.072-.56-.182-.895-.528-1.189-.953.535.255 1.18.33 1.87.26-.84-.178-2.127-.875-2.16-1.481.2.24 1.87.318 2.818.318-1.642-.343-3.312-1.296-4.063-2.055-.31.017-.65.03-1.005.03-.355 0-.678-.009-.984-.03" fill="#fff"/><path d="M27.283 4.607c-.237-.433-.784-.734-1.683-.928l-.081-.016-.07-.05s-.028-.016-.04-.025l-.054.38s-1.114-.173-1.22-.178l-.115.021-1.107.157-.053-.38-.04.025-.07.05-.082.016c-.894.194-1.445.495-1.678.928-.2.367-.184.883.053 1.522.314.862.637 1.547.956 2.042l.065.099.008 1.052c.286-.095.956-.264 2.075-.264.84 0 1.568.094 2.058.177l.008-.965.065-.1c.315-.494.637-1.179.952-2.04.237-.644.253-1.156.053-1.523z" fill="#FCCD00"/><path fill-rule="evenodd" clip-rule="evenodd" d="M23.98 60c-.662-.334-1.332-.982-1.59-1.608-.35.214-.82.408-1.302.42-1.041.025-2.075-.718-2.356-1.596-1.532-.243-1.846-1.996-1.679-3.102l-.057.009c-.143.791-.36 1.105-1.262.948.34-1.08-.547-1.089-.755-1.93-.266-1.06.265-1.81.968-2.182-.51-.318-.756-.936-.462-1.761.217-.61.98-1.035 1.556-.924-.555.536-.233 1.241.38 1.217.755-.03.53-.796 1.519-1.361 1.098-.623 1.168 1.286 2.258.486-.747-.066-1.102-.746-1.294-1.146.028-.136.567.35 1.225-.1 1.31-.886-.135-2.64-1.152-2.899.609-1.98.503-2.198-.253-3.782h8.523c-.756 1.584-.866 1.802-.258 3.782" fill="#fff"/><path fill-rule="evenodd" clip-rule="evenodd" d="M27.982 44.471c-1.017.26-2.463 2.013-1.152 2.9.657.45 1.107.111 1.188.144-.196.4-.506 1.031-1.258 1.097 1.09.804 1.16-1.11 2.259-.487.992.566.768 1.328 1.519 1.361.608.025.935-.684.38-1.216.576-.107 1.34.313 1.556.924.294.825.049 1.443-.462 1.76.703.376 1.233 1.123.968 2.183-.208.841-1.098.85-.76 1.93-.902.157-1.118-.153-1.261-.949l-.058-.008c.168 1.106-.147 2.858-1.678 3.102-.282.878-1.315 1.62-2.356 1.596-.486-.012-.952-.206-1.303-.42-.257.622-.923 1.27-1.584 1.608M22.028 45.63c.968 1.171.567 2.627-.294 2.677-.666-.004-.756-.256-1.017-.495 1.527.355 1.662-1.279 1.307-2.182" fill="#fff"/><path d="M15.775 53.76s-.792-1.378-.016-2.281c.776-.904 2.421-.85 2.421-.85l-1.02.338c-2.087 1.126-1.39 2.788-1.39 2.788l.005.005z" fill="#fff"/><path fill-rule="evenodd" clip-rule="evenodd" d="M16.135 48.752s-.45.685-.335 1.283c.106.557.71 1.052 2.377.606-1.993.1-2.136-1.163-2.038-1.889h-.004z" fill="#fff"/><path d="M19.986 49.02s-.343-.726-.935-.383c-.592.342-.866 1.307-1.442 1.435 0 0 .72-.107 1.115-.565.396-.458.65-.565 1.258-.49l.004.003z" fill="#fff"/><path fill-rule="evenodd" clip-rule="evenodd" d="M26.058 45.63c-.968 1.171-.567 2.627.294 2.677.666-.004.756-.256 1.017-.495-1.527.355-1.662-1.279-1.307-2.182" fill="#fff"/><path d="M30.738 50.971l-1.021-.338s1.646-.058 2.421.85c.776.907-.016 2.28-.016 2.28s.698-1.661-1.388-2.788l.004-.004z" fill="#fff"/><path fill-rule="evenodd" clip-rule="evenodd" d="M31.771 48.752s.45.685.335 1.283c-.106.557-.71 1.052-2.377.606 1.993.1 2.136-1.163 2.038-1.889h.004z" fill="#fff"/><path d="M27.92 49.02s.343-.726.935-.383c.592.342.866 1.307 1.442 1.435 0 0-.72-.107-1.115-.565-.396-.458-.65-.565-1.258-.49l-.004.003z" fill="#fff"/><path fill-rule="evenodd" clip-rule="evenodd" d="M29.178 56.482s-1.74 2.883-4.978.7c3.561 1.073 3.851-1.344 3.851-1.344l1.127.644z" fill="#fff"/><path fill-rule="evenodd" clip-rule="evenodd" d="M30.138 53.805s.613 3.213-1.548 2.8c-1.997-.383-2.483.145-2.483.145s.956-1.237 1.924-1.217c.968.02 1.87.017 2.107-1.728zM24.2 57.187s1.572-1.753 1.572-3.902c.241 2.446-.935 4.096-.935 4.096l-.637-.194zm3.205-7.309s1.548 2.471-.539 3.271c1.189 1.308 2.124.293 2.124.293s-.83.074-1.225-.219c1.008-.363 1.114-2.144-.36-3.345zm-4.458 8.472s.253.747 1.024.747c.772 0 1.152-.673 1.152-.673s-.441.384-1.225.384c-.555 0-.956-.454-.956-.454l.005-.004z" fill="#fff"/><path fill-rule="evenodd" clip-rule="evenodd" d="M28.961 53.442l.686 1.963-.432.219-.646-2.075.392-.107zm-4.757-18.845l6.354-2.776h.025c.588 1.312 2.483 1.353 3.34-.215.544-.99-.09-1.728-.408-2.111-.808-.97-.788-1.93-.224-2.978.747-1.382 3.05-3.646 3.932-5.317.168.268.233.565.274.668.825-.77 1.764-2.42 2.083-3.67.167.053.285.251.404.395 1.315-2.02 3.655-6.92 4.312-8.834 1.4.85 1.36 3.328.948 4.76-.38 1.32-1.017 2.701-2.357 4.644.42-.372 3.05-3.745 3.618-4.158.985 1.745.319 4.776-1.543 6.076.6-.31 1.964-.953 2.711-.73.147 1.93-1.106 3.25-1.903 3.98.752-.219 1.613-.367 2.467-.062-.074 1.32-1.164 2.813-2.732 3.473.984-.083 1.989.037 2.618.528-.143 1.36-1.352 2.557-2.875 2.833 1.012.136 1.919.701 2.364 1.452-.535.883-1.352 1.588-2.585 1.555.592.248 1.299.99 1.58 1.91-.71.705-1.592 1.155-3.626.251 2.328 1.221 1.879 1.811 2.234 3.06-.425.207-.805.752-1.895.413-.633-.198-1.674-1.43-2.569-2.165.294.383 1.605 1.575 2.181 2.268.645.772.188 1.56.188 2.256-.47.013-1.294.475-1.846-.14-.196-.218-2.597-3.972-2.928-4.314.11.318 1.638 2.73 2.328 4.112.519 1.04-.208 1.708-.31 2.335-.54-.219-1.279.156-1.687-.664-.392-.788-1.548-3.63-1.977-4.41.168.594 1.389 3.853 1.47 4.146.295 1.068-.44 1.262-.747 1.988-.457-.367-1.258-.066-1.564-1.11-.212-.726-.694-3.176-.96-3.807.033.701.205 1.67.327 2.78.119 1.052-.694 1.048-1.147 1.634-.392-.434-1.127-.318-1.254-1.304-.11-.841-.13-2.928-.13-2.928-.123.107-.188.14-.299.28-.294-.383-.866-.383-1.074-.899-.07.045-.118.115-.196.165-1.8 1.774-4.276 3.023-6.926 3.213v-8.583h.004zm-.258 13.677l.029-.054v-.915a.497.497 0 01-.029.07c-.126-.264-.07-.536-.102-.751-.081-.56-.62-.99-.853-1.39-.42-.718-.776-1.444-.956-2.355.025 2.165.94 3.584 1.907 5.399" fill="#fff"/><path fill-rule="evenodd" clip-rule="evenodd" d="M26.76 44.962a1.7 1.7 0 01.973-.631l-.466-2.747c-.078 1.122-.196 2.244-.506 3.378z" fill="#fff"/><path d="M26.736 45.007l.013-.05c.314-1.167.428-2.313.502-3.377v-.087l.49 2.842h-.008a1.68 1.68 0 00-.964.627l-.029.041-.004.004zm.531-3.337c-.073 1.027-.188 2.129-.486 3.25a1.71 1.71 0 01.935-.593l-.449-2.657z" fill="#fff"/><path fill-rule="evenodd" clip-rule="evenodd" d="M21.223 44.962a1.696 1.696 0 00-.972-.631l.465-2.747c.078 1.122.197 2.244.503 3.378" fill="#fff"/><path d="M21.248 45.007l-.033-.041a1.685 1.685 0 00-.964-.627h-.008v-.012l.482-2.834v.087c.082 1.064.192 2.21.51 3.378l.013.05zm-.98-.684c.371.09.678.284.935.593-.298-1.121-.413-2.223-.486-3.25l-.45 2.657z" fill="#fff"/><path fill-rule="evenodd" clip-rule="evenodd" d="M23.976 46.162c-.299-.627-.964-.887-1.328-2.05.156-.915 1.172-.412 1.328-1.328.155.916 1.172.413 1.327 1.328-.364 1.163-1.03 1.423-1.327 2.05z" fill="#fff"/><path d="M23.975 46.183l-.008-.02c-.114-.24-.286-.43-.466-.632-.298-.33-.637-.701-.861-1.423.077-.47.38-.573.67-.676.298-.103.58-.202.657-.656l.008-.062.008.062c.078.454.36.553.658.656.29.103.592.21.67.672-.225.722-.564 1.093-.862 1.423-.18.202-.356.392-.466.631l-.008.02v.005zm-1.315-2.075c.22.714.56 1.085.854 1.41.18.194.347.38.461.615.114-.235.282-.42.461-.614.299-.326.634-.697.854-1.41-.078-.45-.36-.55-.657-.657-.278-.099-.568-.202-.662-.622-.09.42-.38.523-.662.622-.298.103-.58.202-.657.656" fill="#fff"/><path fill-rule="evenodd" clip-rule="evenodd" d="M23.976 44.685c-.299-.354-.964-.499-1.328-1.154.156-.516 1.172-.231 1.328-.751.155.515 1.172.23 1.327.75-.364.656-1.03.805-1.327 1.155z" fill="#fff"/><path d="M23.975 44.702l-.008-.008c-.114-.136-.286-.244-.466-.355-.298-.185-.637-.396-.861-.804v-.008c.077-.264.38-.322.67-.384.285-.058.58-.115.653-.367l.008-.033.008.033c.078.252.372.31.658.367.29.058.592.12.67.383v.009c-.225.408-.564.619-.862.804-.184.111-.356.219-.466.355l-.008.008h.004zm-1.315-1.175c.22.4.555.61.854.791.18.112.347.215.465.351.114-.132.286-.24.466-.35.294-.186.628-.392.853-.793-.077-.247-.371-.305-.653-.362-.282-.058-.568-.116-.662-.355-.094.24-.38.297-.661.355-.286.057-.576.115-.654.362" fill="#fff"/><path fill-rule="evenodd" clip-rule="evenodd" d="M18.205 26.286l.519-.256.543.676-1.062-.42zm10.054-3.143c.118.33.302.672.723.957-.315-.355-.396-.578-.723-.957z" fill="#fff"/><path fill-rule="evenodd" clip-rule="evenodd" d="M14.252 16.853c.609-.413 1.217-.52 2.21-.293-.736-.05-2.104-.177-2.471 1.192-.184-.305-.074-.668.261-.895" fill="#FCCD00"/><path fill-rule="evenodd" clip-rule="evenodd" d="M14.342 15.925c.27-.029.796-.128 1.204.062-2.152.07-2.197 1.04-3.087 1.283-.629.173-1.507-.066-1.821-.776.49.285 1 .31 1.588.153.703-.19 1.29-.635 2.116-.726" fill="#E11E1B"/><path fill-rule="evenodd" clip-rule="evenodd" d="M11.72 13.986c.188-.474.944-1.043 1.81-.998 1.135 1.638 2.262 2.698 3.952 3.729-.106.202-.657-.231-1.02-.474-.727-.491-1.744-1.122-2.745-1.188-.715-.046-1.34.214-1.731.602-.356-.334-.466-1.176-.266-1.67z" fill="#FCCD00"/><path fill-rule="evenodd" clip-rule="evenodd" d="M12.892 14.424c.229-.062.049.198.078.239.188-.062.163.033.155.12a1.912 1.912 0 00-.625.119c.065-.16.13-.404.392-.474m-4.219-1.819c-.139.227-.163.33-.139.577-.245-.202-.057-.503.14-.577z" fill="#fff"/><path fill-rule="evenodd" clip-rule="evenodd" d="M26.446 8.785v.12c-.02-.008-.045-.017-.069-.029a.224.224 0 00.07-.09z" fill="#FCCD00"/><path d="M26.47 8.942l-.037-.016c-.02-.009-.044-.017-.065-.025l-.049-.017.041-.029a.165.165 0 00.061-.078l.05-.136v.301z" fill="#fff"/><path fill-rule="evenodd" clip-rule="evenodd" d="M25.278 3.448c.11-.02.253.008.31.07l-.523 2.652c0-.029-.008-.062-.012-.09l-.057.028s-.037.021-.09.062l.376-2.726-.004.004z" fill="#fff"/><path fill-rule="evenodd" clip-rule="evenodd" d="M24.428 8.418a.25.25 0 00-.06-.128h.134a.263.263 0 00-.07.128m.062.232h-.139a.301.301 0 00.07-.129.22.22 0 00.07.128zm.404-.228a.24.24 0 00-.053-.107l.126.008a.225.225 0 00-.073.1zm.041.244h-.123a.416.416 0 00.07-.103.227.227 0 00.053.103zm.388-.236a.243.243 0 00-.04-.07l.089.013s-.037.037-.05.058zm.025.265l-.094-.009s.037-.037.053-.062c.008.025.024.05.04.07zm.38-.198a.277.277 0 00-.029-.075l.086.017a.358.358 0 00-.057.053m-.01.243l-.08-.012c.02-.017.04-.033.052-.057.004.024.016.044.028.065m.385-.145a.263.263 0 00-.024-.073l.08.025a.213.213 0 00-.056.048zm-.029.211l-.049-.008s.024-.02.032-.033c0 .017.008.029.012.045" fill="#FCCD00"/><path fill-rule="evenodd" clip-rule="evenodd" d="M22.416 4.417c-.107.14-.123.301-.037.512l-.196-.26.233-.252zm-.38.454l-.241.268.2.268c-.09-.218-.09-.387.037-.536m-.421.553l-.225.28.225.252c-.106-.21-.11-.4 0-.532zm-.298.466l-.208.276.236.231c-.118-.198-.13-.367-.028-.503m.657-.025l-.212.277.241.23c-.118-.197-.13-.37-.029-.507zm.78-.128l-.204.268.233.227c-.114-.194-.127-.359-.029-.495zm-.363-.408l-.237.272.229.256c-.106-.215-.106-.388.008-.524m.38-.458l-.237.268.229.252c-.107-.214-.107-.388.008-.524m-.699-.973l-.257.247.204.272c-.09-.222-.073-.395.053-.52zm-.412.474l-.261.276.232.28c-.106-.23-.098-.416.025-.556m-.396.565l-.2.297.18.276c-.086-.218-.082-.424.02-.577m.412 1.349l-.188.3.258.248c-.127-.214-.16-.35-.07-.544m.119.825l-.184.317.278.21c-.151-.193-.18-.366-.094-.523m1.323-.99l-.188.248.212.206c-.106-.182-.114-.334-.024-.454zm-1.054.549l-.184.292.25.24c-.123-.207-.156-.339-.066-.532zm3.834-2.261l.233.252-.196.26c.086-.21.07-.367-.037-.512zm.38.454c.127.144.127.314.037.536l.2-.268-.241-.268m.42.553c.11.132.107.322 0 .532l.225-.252-.224-.28zm.299.466c.102.136.09.305-.029.503l.237-.23-.208-.277m-.658-.025c.102.14.09.31-.028.507l.24-.23-.212-.277zm-.78-.128c.098.136.086.301-.028.495l.233-.227-.205-.268zm.364-.408c.114.136.114.31.008.524l.229-.256-.237-.272m-.38-.458c.114.136.114.31.008.524l.229-.252-.237-.268m.698-.973c.123.123.14.297.053.52l.205-.273-.258-.247zm.413.474c.126.14.134.326.024.557l.233-.28-.261-.277m.396.565c.102.153.106.359.02.577l.18-.276-.2-.297m-.413 1.349c.094.198.062.334-.07.544l.258-.247-.188-.301m-.118.825c.086.156.057.33-.094.523l.278-.21-.184-.317m-1.323-.99c.09.123.082.276-.025.453l.213-.206-.188-.247zm1.053.548c.09.19.058.322-.065.532l.25-.239-.185-.293z" fill="#fff"/><path d="M25.56 7.152a1.635 1.635 0 01-.237.297c.115-.02.229-.033.343-.033h.061c.205-.09.384-.215.52-.363a1.552 1.552 0 00-.687.099zm-1.062-.334v.09c0 .19-.02.372-.065.54.081-.098.175-.193.285-.28.156-.288.237-.598.233-.882a1.748 1.748 0 00-.449.532m.228 1.032c.23.007.446.024.65.049.208-.07.396-.178.543-.31-.376-.074-.841.033-1.192.264m.768-.895c-.441.079-.898.425-1.123.846a1.707 1.707 0 001.123-.846z" fill="#fff"/><path fill-rule="evenodd" clip-rule="evenodd" d="M21.91 8.785a.17.17 0 00.069.091.35.35 0 00-.07.029v-.12z" fill="#FCCD00"/><path d="M21.88 8.942v-.301l.05.136a.165.165 0 00.06.078l.042.03-.05.016a1.086 1.086 0 00-.064.025l-.037.016z" fill="#fff"/><path fill-rule="evenodd" clip-rule="evenodd" d="M23.077 3.448l.375 2.726c-.057-.04-.09-.057-.09-.061l-.056-.03-.013.091-.523-2.652c.058-.062.2-.095.31-.07" fill="#fff"/><path fill-rule="evenodd" clip-rule="evenodd" d="M23.922 8.418a.263.263 0 00-.07-.124h.135a.223.223 0 00-.061.124m-.069.232a.22.22 0 00.07-.129.27.27 0 00.069.128h-.139zm-.4-.228a.251.251 0 00-.073-.099l.126-.008a.24.24 0 00-.053.107zm-.045.244a.248.248 0 00.053-.103.23.23 0 00.07.099h-.123v.004zm-.389-.236a.216.216 0 00-.048-.057l.09-.012s-.033.045-.042.07zM23 8.695s.032-.042.04-.07a.36.36 0 00.049.061l-.094.009H23zm-.377-.198a.234.234 0 00-.057-.054l.086-.016a.202.202 0 00-.029.074m.005.235s.025-.041.029-.066c.012.02.032.041.053.058l-.086.012.004-.004zm-.381-.15s-.036-.036-.057-.048l.081-.025a.195.195 0 00-.024.073zm.029.211s.012-.028.012-.045a.13.13 0 00.033.033l-.049.008.005.004z" fill="#FCCD00"/><path d="M22.685 7.412c.115 0 .229.012.343.033a1.61 1.61 0 01-.236-.297 1.568 1.568 0 00-.687-.1c.135.15.315.273.523.364h.061m.96-.244c.106.087.2.178.286.28a2.106 2.106 0 01-.066-.54v-.09a1.747 1.747 0 00-.449-.532c-.004.284.078.594.233.882m-1.225.417c.147.132.33.24.543.314.2-.021.42-.038.65-.05-.348-.23-.818-.338-1.193-.264zm.424-.627a1.71 1.71 0 001.124.846c-.225-.421-.682-.767-1.123-.846z" fill="#fff"/><path fill-rule="evenodd" clip-rule="evenodd" d="M24.168 8.187c-1.009 0-1.875.161-2.263.36v-.153c.388-.198 1.254-.355 2.27-.355 1.01 0 1.871.157 2.263.355v.152c-.388-.198-1.253-.359-2.27-.359zm0 .693c-1.009 0-1.875.091-2.263.256v-.128c.388-.165 1.254-.26 2.27-.26 1.01 0 1.871.095 2.263.26v.128c-.388-.16-1.253-.252-2.27-.256z" fill="#fff"/><path d="M24.176 6.108a1.807 1.807 0 00-.176.796c0 .285.061.578.176.817.114-.24.175-.528.175-.817a1.8 1.8 0 00-.175-.796z" fill="#fff"/><path fill-rule="evenodd" clip-rule="evenodd" d="M24.298.478c-.036.07-.081.165-.07.248.05.317.544-.05.634-.124v.755c-.11-.087-.355-.272-.51-.252-.315.05.052.549.122.64h-.747c.085-.108.273-.36.249-.516-.05-.317-.543.05-.633.124V.598c.11.087.355.272.51.252.315-.05-.053-.545-.122-.64h.747a2.053 2.053 0 00-.18.268zm-.192 1.461a.57.57 0 01.567.573.57.57 0 01-.567.573.57.57 0 01-.568-.573.57.57 0 01.568-.573z" fill="#FCCD00"/><path fill-rule="evenodd" clip-rule="evenodd" d="M8.36 7.87l.2-.03c-.148.318-.193.644-.083 1.069a2.355 2.355 0 01.266-1.089c.016 0 .204-.016.204-.016-.392.915-.2 1.666.119 2.041.596.706.547 1.349.159 2.096-.176.342-.886 1.2-.368 1.781-1.119-.523-.604-1.555-.298-1.963.233-.305.262-.866-.04-1.105-.013.552-.474.953-.928.965-.404.012-1.168-.573-1.36.107.009-.693.446-.524.887-.425 1.274.285 1.22-1.299.718-1.724-.465-.396-1.155-1.03-.35-1.476-.099.264-.078.606.044.841-.057-.388.082-.846.143-.916l.16-.045c-.09.276-.14.623 0 .945-.03-.29.02-.739.159-.999l.167-.028c-.114.288-.102.602.024 1.03-.024-.519.066-.87.176-1.063m3.238-1.056a.749.749 0 01.16-.025c.138.247.163.614.122.957.13-.33.16-.631.07-.945.714.054-.082 1.609-.389 2.33-.147.347-.432 1.226.143 1.993-.257-.128-.82-.718-.812-1.126.012-.71.192-1.068.294-1.349.212-.586.335-1.213.053-1.707.07-.017.118-.054.204-.079.09.157.241.52.176.961.2-.408.09-.862-.017-1.01" fill="#008FD0"/><path fill-rule="evenodd" clip-rule="evenodd" d="M11.561 6.352c.306-.058.604-.008.76.074 1.261.68-.633 2.545-.486 3.96.085.837 1.11 1.15 1.666 1.377-1.282-.107-2.12-.796-1.9-2.008.164-.912 1.532-2.805.466-3.135-.747-.231-1.633.68-2.654.845-.972.157-2.74.182-2.467 1.444.078.359.621.635.817.92.413.594.127 1.476-.551 1.274-.817-.243-1.017-.169-1.168.297.078-1.36 1.327.03 1.613-.684.233-.586-.167-.895-.523-1.197-.212-.181-.473-.52-.428-.911C6.853 7.3 8.53 7.437 9.564 7.185c.609-.149 1.393-.722 1.997-.83" fill="#008FD0"/><path fill-rule="evenodd" clip-rule="evenodd" d="M10.638 5.444a.74.74 0 01.323.149c-.36.008-.584.243-.817.466.2-.128.715-.38 1-.322.086.05.152.091.152.091-.102.02-.54.017-.866.367.449-.223.898-.23 1.115-.206.13.058.171.107.371.165-.563-.02-.865.107-1.637.532-.507.28-1.417.4-1.425.4.257-.223.502-.577.62-.73.274-.355.719-.953 1.168-.907" fill="#008FD0"/><path fill-rule="evenodd" clip-rule="evenodd" d="M34.103 16.853c-.609-.413-1.217-.52-2.21-.293.74-.05 2.104-.177 2.471 1.192.184-.305.074-.668-.261-.895" fill="#FCCD00"/><path fill-rule="evenodd" clip-rule="evenodd" d="M34.013 15.925c-.27-.029-.796-.128-1.204.062 2.152.07 2.197 1.04 3.087 1.283.629.173 1.507-.066 1.821-.776-.49.285-1 .31-1.588.153-.703-.19-1.29-.635-2.116-.726" fill="#E11E1B"/><path fill-rule="evenodd" clip-rule="evenodd" d="M36.635 13.986c-.188-.474-.943-1.043-1.81-.998-1.134 1.638-2.262 2.698-3.948 3.729.106.202.657-.231 1.017-.474.73-.491 1.744-1.122 2.744-1.188.715-.046 1.34.214 1.732.602.359-.334.465-1.176.265-1.67z" fill="#FCCD00"/><path fill-rule="evenodd" clip-rule="evenodd" d="M35.463 14.424c-.229-.062-.049.198-.078.239-.187-.062-.163.033-.155.12.237.004.417.049.63.119-.066-.16-.132-.404-.393-.474m4.215-1.819c.139.227.163.33.139.577.245-.202.057-.503-.14-.577z" fill="#fff"/><path fill-rule="evenodd" clip-rule="evenodd" d="M39.996 7.87l-.2-.03c.147.318.192.644.082 1.069a2.356 2.356 0 00-.266-1.089c-.016 0-.204-.016-.204-.016.392.915.204 1.666-.118 2.041-.596.706-.547 1.349-.16 2.096.176.342.887 1.2.368 1.781 1.119-.523.604-1.555.298-1.963-.233-.305-.261-.866.04-1.105a.988.988 0 00.928.965c.404.012 1.168-.573 1.36.107-.008-.693-.445-.524-.886-.425-1.274.285-1.221-1.299-.72-1.724.466-.396 1.157-1.03.352-1.476.098.264.078.606-.045.841.057-.388-.082-.846-.143-.916l-.159-.045c.09.276.139.623 0 .945.033-.29-.02-.739-.16-.999L40.2 7.9c.115.288.102.602-.024 1.03.024-.519-.066-.87-.176-1.063M36.758 6.81a.789.789 0 00-.16-.025c-.138.247-.163.614-.122.957-.13-.33-.16-.631-.07-.945-.714.054.082 1.609.389 2.33.146.347.432 1.226-.143 1.993.257-.128.82-.718.812-1.126-.012-.71-.192-1.068-.294-1.349-.212-.586-.335-1.213-.053-1.707-.07-.017-.118-.054-.204-.079-.09.157-.241.52-.172.961-.2-.408-.09-.862.017-1.01z" fill="#008FD0"/><path fill-rule="evenodd" clip-rule="evenodd" d="M36.794 6.352c-.306-.058-.604-.008-.76.074-1.261.68.634 2.545.487 3.96-.086.837-1.111 1.15-1.666 1.377 1.282-.107 2.119-.796 1.898-2.008-.163-.912-1.535-2.805-.465-3.135.747-.231 1.633.68 2.654.845.968.157 2.74.182 2.467 1.444-.078.359-.62.635-.821.92-.408.594-.127 1.476.551 1.274.817-.243 1.017-.169 1.168.297-.077-1.36-1.327.03-1.613-.684-.237-.586.168-.895.523-1.197.212-.181.474-.52.429-.911-.147-1.308-1.826-1.171-2.859-1.423-.608-.149-1.392-.722-1.997-.83" fill="#008FD0"/><path fill-rule="evenodd" clip-rule="evenodd" d="M37.718 5.444a.74.74 0 00-.323.149c.36.008.584.243.817.466-.2-.128-.715-.38-1-.322-.087.05-.152.091-.152.091.102.02.54.017.866.367a2.102 2.102 0 00-1.115-.206c-.13.058-.172.107-.368.165.564-.02.866.107 1.638.532.506.28 1.417.4 1.425.4-.257-.223-.502-.577-.62-.73-.274-.355-.715-.953-1.169-.907" fill="#008FD0"/><path fill-rule="evenodd" clip-rule="evenodd" d="M34.507 9.569c0-.054 0-.107-.008-.157l-.041.066.049.091zm-.645 30.212c.024.495.147 1.91.09 2.772-.147-.507-.486-2.615-.515-2.85-.065.297-.33.318-.486.478.012.454.02 2.5.045 2.789.094 1.097.747.92 1.058 1.212.351-.33 1.017-.544.947-1.2-.118-1.089-.265-1.963-.351-2.924-.306-.17-.555-.112-.792-.28m-1.699-3.845a.47.47 0 01-.155-.28c-.05.3-.233.453-.36.548-.004.59-.122 2.826-.126 3.11-.012.578.51.635.882.949.396-.367.972-.437.947-1.101-.028-.78-.24-2.054-.273-2.735-.053.045-.123.14-.18.219-.13-.244-.274-.293-.363-.4-.02.268-.033 1.563-.143 2.359-.115-.825-.151-1.873-.23-2.665m1.622-.239l-.11.181.351 1.114-.24-1.295z" fill="#fff"/><path fill-rule="evenodd" clip-rule="evenodd" d="M33.89 35.574c.119.648.335 1.906.388 2.41-.277-.578-.567-1.577-.706-2.001l-.327.276c.07.718.315 2.438.396 2.784.147.635.69.553 1.131.788.245-.503.756-.813.454-1.753-.168-.528-.703-1.89-.837-2.26-.164-.02-.307.057-.499-.24m1.72-.754c-.074.16-.209.354-.27.552.212.549.572 1.456.682 2.038-.245-.28-.809-1.48-.968-1.761-.147 0-.339.05-.482.12.188.535.519 1.505.92 2.482.203.495.8.376 1.228.479.168-.512.42-.875.245-1.366-.261-.738-1.041-1.918-1.356-2.54m3.856-1.498c-.262-.078-2.201-.577-2.201-.577.02.198.02.305.057.479.543.255 1.184.664 1.65.932-.625-.087-1.524-.43-1.642-.487-.143.058-.38.26-.38.26.368.23 1 .8 1.662 1.142.621.326 1.323-.099 1.577-.28-.05-.582-.196-1.32-.72-1.473m.561-2.165c-.613-.025-1.895-.132-2.336-.103-.09.16-.257.346-.355.429.412.17 1.327.289 1.886.503-.567.074-1.764-.074-2.307-.074.176.14.282.38.335.606.457.149 2.356.532 2.356.532.903.136 1.197-.293 1.495-.71-.184-.639-.58-1.162-1.066-1.183m1.543-1.609c-.327-.87-1.115-1.076-1.977-.85-.812.215-1.458.351-2.287.578.196.112.262.227.462.438.543.008 1.343-.108 2.066.008-.518.256-1.262.429-1.788.486-.058.178-.23.57-.23.57.507.008 1.655.066 2.361-.03.678-.09 1.18-.634 1.385-1.204m.184-3.238c-.523-.507-1.246-.68-1.99-.272-.13.07-1.318.796-1.825 1.147-.012.165-.065.429-.11.52.441-.14 1.221-.421 1.932-.574-.752.586-1.736.875-2.103 1.044a2.254 2.254 0 01-.662.85c1.16-.285 2.679-.458 3.68-1.007.294-.16 1-.837 1.074-1.707m6.118-1.767c0-.02.007-.044.007-.065l-.008.066zm-6.89-1.537c-2.156.202-3.263 2.182-4.656 3.46.143-.012.335-.057.568-.045.237-.09 1.445-1.192 2.283-1.613-.405.68-1.21 1.151-1.785 1.712.184.074.319.17.519.388.335-.19 1.617-1.081 2.111-1.324.576-.763 1.005-1.794.96-2.578z" fill="#fff"/><path fill-rule="evenodd" clip-rule="evenodd" d="M36.835 31.524c.629-.099.825-.932.997-1.345-.18-.239-.621-.973-1.242-.82-.4.099-.8.19-1.172.38a.21.21 0 01-.07-.187c1.381-.358 2.333-1.088 2.34-2.515-1.028-.891-2.078-.1-2.8 1.014l-.074-.111c.526-1.077 1.298-1.56 1.94-2.421.575-.772.784-2.421.445-3.692-1.205 1.939-3.284 3.745-3.823 5.354-.543 1.617.809 1.955 1.062 3.08.294 1.308-.539 2.331-1.625 2.78-1.07.442-2.067-.04-2.475-1.154l-3.14 1.37c-.033.04-.07.086-.094.123-.086.227.776.289.747.516l-.33 1.1 2.225-.032c.143-.008.229-.062.355-.305-.07.268-.163.392-.355.478v.19c.102-.017.282-.12.339-.24.167-.325.294-1.183.408-1.546.045-.14.192-.111.16.029-.066.28-.327 1.241-.372 1.48-.123.652.31.768.576 1.176.445-.24.939-.07 1.05-.804.069-.446.077-.883.146-1.374.012-.082.16-.09.143.017a15.118 15.118 0 00-.078 1.311c-.008.545.495.574.78.924.319-.37.846-.412.789-1.027-.025-.264-.245-1.076-.31-1.32-.025-.09.09-.181.114-.094.118.412.31 1.08.453 1.43.249.595.69.141 1.18.178.135-.429.629-.82.351-1.357-.098-.194-.665-.96-.686-1.031-.032-.099.057-.206.127-.115.167.193.412.581.853 1.03.384.397 1.213-.37 1.434-.42-.078-.483.016-1.246-.507-1.572-.36-.226-.927-.268-1.074-.338-.045-.099.045-.181.045-.181.36.07.813.099 1.176.041" fill="#fff"/><path fill-rule="evenodd" clip-rule="evenodd" d="M39.73 18.697c-.412 1.427-1.568 2.903-2.156 3.506.045.416.078.684.049.981.143-.169.694-.977 1.213-1.588-.294.949-.964 1.939-1.262 2.31-.045.33-.147.713-.265 1.093.457-.528 1.478-1.543 1.854-2.037.82-1.081 1.213-2.793.567-4.265z" fill="#fff"/><path fill-rule="evenodd" clip-rule="evenodd" d="M39.722 19.286a7.215 7.215 0 01-.788 1.568c.294-.227.666-.706.731-.85.164.92-.567 2.722-1.151 3.403 1.241-1.283 1.613-3.011 1.204-4.12m.968 4.05c-.531 0-1.65.635-1.826.953.458-.334.952-.59 1.589-.697-.078.494-.531 1.456-.94 1.992.703-.565 1.21-1.667 1.177-2.248zM39.67 26.38c.497-.18.914-.226 1.526.124-.102.681-.694 1.246-1.078 1.485.572-.169 1.185-.771 1.328-1.571-.625-.532-1.34-.326-1.781-.033m-3.715.746c.465-.136.955-.09 1.24.153.021.466-.22 1.052-.522 1.386.437-.256.8-1.064.747-1.526-.318-.252-.886-.384-1.466-.017m1.131-4.71c-.266.408-.886 1.175-1.16 1.53.371-.305.71-.598.988-.957.139 1.015-.49 2.553-.71 2.797.743-.8 1.114-2.091.882-3.366m2.585 6.496c.706-.037 1.193.215 1.433.635-.171.512-.678.908-1.07 1.015.552-.037 1.115-.45 1.311-1.06-.294-.553-1.119-.837-1.674-.59zm-3.335.656c.477.008.804.318 1.036.643-.13.355-.285.862-.64 1.098.473-.116.73-.594.86-1.114-.232-.371-.624-.813-1.257-.627zm-.05 11.483l-.527-2.244a.87.87 0 01-.262-.214l.008.185.78 2.269v.004zm-2.439.297l-.102-1.687c-.07-.05-.143-.157-.224-.31l.326 1.997zm5.669-10.015c.69.14.927.351 1.131.891-.236.396-.812.565-1.208.607.62.086 1.163-.112 1.433-.578-.282-.652-.698-.977-1.356-.92zm-.45 2.079c.564.223.589.635.695 1.114-.31.285-.752.454-1.058.342.531.326.927-.012 1.278-.227-.15-.734-.285-1.159-.918-1.229m-3.427 3.081l-.367-1.023-.07.182.437.841zm.976.549c.265.57-.016.792-.135 1.22-.429-.016-.706.013-.955-.428.27.792.637.532 1.082.66.106-.537.47-.739.008-1.452zm-1.588 1.076c.135.61-.172.763-.351 1.16-.417-.186-.805-.153-.936-.681.066.792.576.705.993.949.167-.479.645-.722.294-1.428z" fill="#fff"/><path d="M34.736 39.587l-.024-.016c-.107-.062-.22-.099-.327-.14-.323-.112-.625-.223-.678-.825l-.024-.289.069.28c.098.388.33.463.625.553.09.03.184.058.277.1a1.95 1.95 0 01.16-.269c.147-.227.278-.425.18-.854l-.041-.19.085.178c.254.516.082.788-.098 1.076a1.881 1.881 0 00-.196.372l-.008.029v-.005zm-.947-.763c.094.38.339.467.612.566.102.037.209.074.31.127.05-.132.123-.243.189-.354.15-.244.298-.47.171-.85.025.322-.094.503-.216.693a2.084 2.084 0 00-.164.285l-.008.02-.02-.008c-.102-.045-.2-.074-.294-.107-.237-.075-.445-.14-.576-.376" fill="#fff"/><path fill-rule="evenodd" clip-rule="evenodd" d="M33.143 38.775c.013.66-.506.648-.772.949-.371-.272-.661-.285-.694-.895-.09.948.376.792.715 1.171.302-.4.882-.322.751-1.23" fill="#fff"/><path d="M32.392 40.041l-.02-.02c-.099-.112-.21-.174-.315-.236-.254-.148-.474-.272-.409-.952l.029-.314.016.314c.025.462.196.565.454.721.065.042.138.087.216.14.086-.09.196-.152.298-.214.237-.14.462-.268.453-.7l-.008-.389.053.384c.09.635-.159.8-.428.97a1.164 1.164 0 00-.331.276l-.017.02h.009zm-.707-.952c.008.428.184.532.396.655.102.062.208.12.306.223.094-.115.213-.194.327-.264.212-.136.413-.268.425-.66-.074.26-.262.371-.45.479-.105.061-.22.127-.301.222l-.017.017-.016-.013c-.082-.061-.16-.107-.233-.152-.208-.128-.367-.223-.437-.503" fill="#fff"/><path fill-rule="evenodd" clip-rule="evenodd" d="M32.424 36.152l-.15-.132.122 1.526.028-1.394zm3.937-4.062c.498.234.351.655.47 1.245-.393.222-.727.623-1.136.325.458.524.874-.082 1.32-.214-.18-.878.09-1.072-.654-1.357zm-1.744 2.346c-.216-.83-.396-1.22-.396-1.22l-.175-.026-.066.174s.18.511.633 1.076m-.306-.705c-.07-.091-.233-.384-.233-.384l.086-.045s.11.3.147.429zm-1.45 1.287c.053-.536.025-1.11.025-1.11l-.155-.107-.11.132s.073.619.24 1.08m-.049-.59a6.545 6.545 0 01-.102-.465h.094s.012.325.008.466zm.703.623c.012.578-.396.463-.617.751-.29-.342-.64-.148-.67-.643 0 .796.417.503.683.895.208-.388.702-.215.604-1.002zm-2.393-.028c.273-.805.343-1.246.343-1.246l-.119-.165-.138.079s-.131.536-.086 1.332zm.086-.607c-.005-.123.077-.66.077-.66l.09.038s-.127.495-.167.622zm.596.829c-.135.553-.544.339-.858.508-.208-.413-.6-.4-.506-.879-.213.75.26.623.449 1.118.408-.28.812.045.914-.747z" fill="#fff"/><path fill-rule="evenodd" clip-rule="evenodd" d="M29.737 33.66c.037-.127.09-.445.09-.445l-.09-.037v.483z" fill="#F6D300"/><path d="M10.846 45.226l-.024-.058c-.098-.235-.245-.412-.384-.586-.29-.358-.568-.697-.364-1.435.037-.128.278-.792.56-1.567.24-.669.506-1.39.69-1.918-.253.548-.576 1.295-.874 1.98-.322.75-.629 1.464-.796 1.798-.286.573-.723.59-1.144.606-.204.008-.396.013-.567.083l-.053.02-.008-.057c-.029-.182-.115-.372-.209-.574-.22-.49-.473-1.043-.102-1.79.388-.78 1.037-1.872 1.556-2.75.176-.298.343-.574.474-.805-.388.557-.98 1.46-1.49 2.235-.548.83-.98 1.485-1.063 1.576-.2.227-.457.334-.784.334-.232 0-.465-.054-.673-.103a2.397 2.397 0 00-.43-.074h-.044v-.05c0-.194-.037-.4-.074-.61-.094-.52-.196-1.106.274-1.675.196-.24.482-.532.78-.833-.425.392-.813.714-1.115.808-.24.075-.453.112-.657.112-.466 0-.752-.194-1.005-.363-.09-.062-.18-.12-.265-.165l-.037-.017.012-.04c.074-.257.11-.48.147-.698.123-.722.217-1.266 1.499-2.05-.494.17-.927.252-1.315.252-.83 0-1.331-.388-1.715-.767l-.02-.021.007-.025c.258-.854.878-1.538 1.426-1.848-.997-.037-1.81-.569-2.426-1.575l-.012-.025.012-.025c.425-.71 1.233-1.241 2.152-1.43-1.43-.356-2.536-1.51-2.67-2.826v-.025l.016-.017c.522-.404 1.36-.602 2.389-.552C1.123 26.99.078 25.593 0 24.269v-.033l.033-.012a3.133 3.133 0 011.05-.178c.37 0 .783.058 1.257.186-.87-.821-1.915-2.087-1.776-3.886v-.032l.032-.009c.106-.033.229-.045.368-.045.604 0 1.396.31 1.984.585-1.56-1.394-2.168-4.153-1.204-5.86l.024-.046.041.029c.339.248 1.368 1.493 2.279 2.59.343.417.661.805.91 1.09-1.008-1.535-1.617-2.793-1.996-4.117-.4-1.39-.49-3.927.971-4.814l.05-.028.02.053c.657 1.914 2.96 6.732 4.271 8.773.013-.016.025-.033.037-.045.098-.128.208-.268.351-.314l.05-.016.012.045c.31 1.217 1.208 2.813 2.017 3.6 0-.011.008-.024.012-.04a2.47 2.47 0 01.241-.57l.041-.07.037.07c.465.879 1.315 1.914 2.144 2.917.739.895 1.433 1.74 1.788 2.4.617 1.143.543 2.104-.228 3.027l-.013.013c-.318.384-.914 1.097-.396 2.046.4.73 1.07 1.167 1.789 1.167.653 0 1.205-.355 1.466-.949l.016-.033.07.017 6.383 2.788v8.666h-.05c-2.523-.186-5.06-1.361-6.954-3.234a.672.672 0 01-.102-.087.411.411 0 00-.045-.04c-.13.271-.363.395-.592.515-.176.095-.343.181-.466.338l-.036.045-.037-.045c-.078-.1-.13-.14-.2-.198a.057.057 0 00-.016-.012c-.005.428-.037 2.107-.131 2.833-.086.677-.45.854-.8 1.023-.176.087-.34.165-.466.305l-.037.041-.033-.045c-.147-.19-.33-.313-.51-.437-.376-.256-.727-.495-.645-1.23.049-.436.106-.849.159-1.245.057-.433.11-.825.143-1.167-.147.503-.33 1.307-.498 2.042a30.69 30.69 0 01-.34 1.418c-.212.718-.653.825-1.049.92-.2.05-.384.095-.53.21l-.05.038v.004z" fill="#fff"/><path fill-rule="evenodd" clip-rule="evenodd" d="M14.424 39.83c-.025.496-.151 1.91-.09 2.773.147-.508.482-2.615.51-2.85.07.297.335.317.487.478-.013.454-.021 2.5-.045 2.788-.094 1.097-.748.92-1.058 1.213-.351-.33-1.017-.545-.948-1.2.119-1.09.262-1.964.352-2.925.306-.169.555-.111.792-.28M12.782 41.3c-.27 1.22-.482 2.305-.596 2.66-.188.581-.902.44-1.192.73-.176-.392-.874-.776-.658-1.411.094-.276-.053.177.302-.796 0 0-.073.355-.175.738-.09.339.192.582.416.846.062.074.127.148.18.218.11-.053.237-.086.355-.12.306-.082.502-.148.576-.383.123-.38.788-2.483.788-2.483h.004zm3.345-5.317a.47.47 0 00.155-.28c.049.3.233.453.36.548.003.59.122 2.825.126 3.11.012.577-.51.635-.882.948-.396-.367-.972-.437-.948-1.1.025-.78.241-2.055.274-2.736.053.046.122.14.18.22.13-.24.27-.294.363-.401.02.268.033 1.563.143 2.36.114-.826.147-1.873.229-2.665m-1.621-.239l.11.185-.351 1.11.24-1.295z" fill="#fff"/><path fill-rule="evenodd" clip-rule="evenodd" d="M14.395 35.624c-.118.647-.33 1.905-.384 2.408.278-.577.568-1.575.707-2l.326.277c-.07.717-.314 2.437-.396 2.784-.147.635-.69.552-1.131.787-.245-.503-.755-.816-.453-1.753.167-.528.702-1.889.837-2.26.163-.02.306.058.498-.24M9.352 20.903c-.294-.227-.666-.705-.731-.85-.163.92.461 2.83 1.151 3.403-1.543-1.29-1.735-3.324-1.327-4.438 0 0 .568 1.37.907 1.885zm-1.81 2.417c.53 0 1.43.57 1.609.883-.457-.334-.674-.458-1.315-.565.078.495.98 2.26 1.52 2.66-1.712-1.328-1.814-2.982-1.814-2.982v.004zm.805 3.024c-.543-.083-.96.012-1.238.198.103.68 1.76 1.983 2.197 2.09-.955-.234-2.286-1.426-2.535-2.222.8-.454 1.576-.07 1.576-.07v.004zm3.99.836c-.466-.135-.955-.09-1.241.154-.02.466.224 1.051.522 1.385-.437-.255-.878-1.051-.825-1.51.319-.25.964-.4 1.544-.028z" fill="#fff"/><path d="M11.23 22.574c-.16 1.018.065 2.47.829 3.394-.694-1.336-.678-2.866-.678-2.866s.457.387.707.602c-.009-.008-.017-.02-.03-.033-.277-.355-.62-.788-.828-1.093" fill="#fff"/><path fill-rule="evenodd" clip-rule="evenodd" d="M11.116 39.447c-.253.9-1.478 3.597-1.666 3.816-.216.255-.461.354-.65.354-.048 0-.097 0-.146-.004-.045 0-.09-.004-.131-.004a.63.63 0 00-.216.033l-.176.07-.065-.173c-.037-.1-.09-.19-.147-.289-.151-.26-.323-.553-.245-1.043.049-.314.228-.57.796-1.514-.596.986-.494 1.023-.54 1.32-.093.61.18 1.023.323 1.402.364-.148.727.062 1.136-.487.15-.206 1.503-2.895 1.731-3.485l-.004.004zm-1.973-1.089c-.988 1.16-1.92 2.52-2.242 2.892-.192.214-.384.322-.53.322-.131 0-.536-.091-.593-.1-.367-.746-.327-1.427.633-2.26-1.65 1.353-.996 1.951-.955 2.582.47.009 1.106.425 1.6-.264.303-.42 2.095-3.167 2.095-3.167l-.008-.005zM6.77 29.54c.384.722 1.806 1.167 2.357 1.204-.392-.11-1.764-.684-2.005-1.18.318-.313.686-.362 1.07-.4 0 0-.842-.21-1.421.376z" fill="#fff"/><path d="M11.793 31.458l-.237-.058c-.534-.132-.78-.693-.894-1.142v-.017l.004-.016c.29-.462.617-.689 1.005-.689.098 0 .2.016.302.045l.27.079h-.278c-.376.012-.698.21-.992.61l.024.07c.123.347.278.776.592.982l.204.136z" fill="#fff"/><path fill-rule="evenodd" clip-rule="evenodd" d="M14.444 41.402l.102-1.687c.07-.05.143-.156.225-.309l-.327 1.996zm-.902 1.036c0 1.047.437.87.722 1.245.413-.42.87-.12.87-1.171.11 1.332-.473.949-.882 1.427-.543-.623-.91-.202-.71-1.501zm-4.766-11.05c-.69.14-.927.355-1.131.89.236.397.812.566 1.208.607-.62.087-1.164-.111-1.433-.577.282-.652.702-.978 1.356-.92zm.449 2.079c-.563.222-.588.635-.694 1.113.31.285.752.454 1.058.343-.531.325-.927-.013-1.282-.227.15-.734.285-1.16.918-1.23zm1.041 1.909c-.404.537-.261.879-.16 1.469.434-.017.813.099 1.107-.355-.371.75-.812.466-1.257.59-.143-.887-.29-1.172.306-1.708m2.393 1.176l.368-1.027.07.181-.438.846zm-.975.544c-.266.57.016.792.134 1.221.429-.017.707.012.956-.429-.27.792-.637.532-1.082.66-.107-.536-.47-.738-.009-1.452zm1.588 1.081c-.135.61.168.763.351 1.159.417-.186.805-.153.94-.68-.07.791-.576.704-.993.948-.167-.479-.645-.722-.294-1.427" fill="#fff"/><path d="M13.55 39.637l-.008-.029a1.883 1.883 0 00-.196-.371c-.18-.289-.351-.561-.098-1.077l.086-.173-.041.19c-.098.429.033.627.18.854.053.082.11.169.159.272.094-.041.188-.07.277-.099.294-.095.527-.17.625-.557l.07-.28-.025.288c-.053.603-.355.714-.678.825-.11.042-.22.079-.326.14l-.025.013v.004zm-.335-1.27c-.126.38.02.61.172.85.07.107.139.222.188.354.102-.058.208-.09.31-.128.274-.099.514-.185.613-.565-.127.231-.34.297-.576.376-.094.032-.192.061-.294.107l-.02.008-.009-.02a2.062 2.062 0 00-.163-.285c-.127-.19-.245-.371-.217-.693" fill="#fff"/><path fill-rule="evenodd" clip-rule="evenodd" d="M15.147 38.825c-.012.66.506.647.772.948.371-.272.661-.284.694-.895.09.949-.376.792-.715 1.172-.302-.4-.882-.322-.751-1.23" fill="#fff"/><path d="M15.898 40.09l-.016-.024a1.111 1.111 0 00-.331-.276c-.266-.17-.519-.334-.429-.97l.053-.383-.008.388c-.008.433.216.564.453.7.106.063.213.124.298.215a6.2 6.2 0 01.217-.14c.257-.157.424-.26.449-.722l.016-.313.029.313c.065.68-.155.809-.409.953-.106.062-.216.124-.314.235l-.02.02.012.005zm-.743-1.002c.008.396.212.524.424.66.115.075.23.149.323.264.098-.103.204-.165.306-.222.213-.124.388-.227.396-.656-.069.28-.232.375-.437.503-.073.045-.15.09-.228.153l-.017.012-.012-.017c-.082-.094-.196-.16-.302-.222-.184-.108-.376-.219-.45-.479" fill="#fff"/><path fill-rule="evenodd" clip-rule="evenodd" d="M15.861 36.201l.155-.136-.126 1.53-.029-1.394zm-3.937-4.066c-.498.235-.351.655-.47 1.245.393.223.727.623 1.136.326-.458.524-.972-.033-1.413-.165.184-.879.008-1.122.747-1.402M38.91 20.903c.294-.227.666-.705.73-.85.164.92-.46 2.83-1.15 3.403 1.543-1.29 1.735-3.324 1.326-4.438 0 0-.567 1.37-.906 1.885zm1.808 2.417c-.53 0-1.429.57-1.609.883.458-.334.674-.458 1.315-.565-.077.495-.98 2.26-1.519 2.66 1.711-1.328 1.813-2.982 1.813-2.982v.004zm-.804 3.024c.543-.083.96.012 1.237.198-.102.68-1.76 1.983-2.197 2.09.956-.234 2.287-1.426 2.536-2.222-.8-.454-1.576-.07-1.576-.07v.004zm-3.99.836c.465-.135.955-.09 1.241.154.02.466-.224 1.051-.522 1.385.437-.255.878-1.051.825-1.51-.32-.25-.964-.4-1.544-.028z" fill="#fff"/><path d="M37.031 22.574a21.782 21.782 0 01-.857 1.126l.706-.602s.017 1.534-.678 2.866c.764-.928.989-2.376.83-3.394" fill="#fff"/><path fill-rule="evenodd" clip-rule="evenodd" d="M41.49 29.54c-.384.722-1.805 1.167-2.356 1.204.392-.11 1.764-.684 2.005-1.18-.319-.313-.686-.362-1.07-.4 0 0 .841-.21 1.421.376z" fill="#fff"/><path d="M36.676 31.322c.314-.206.47-.64.592-.982l.024-.07c-.294-.4-.616-.598-.992-.606h-.277l.269-.083c.102-.029.204-.045.302-.045.384 0 .71.227 1.005.689l.008.016v.017c-.118.45-.364 1.01-.898 1.142l-.237.058.204-.136z" fill="#fff"/><path fill-rule="evenodd" clip-rule="evenodd" d="M39.486 31.388c.69.14.927.355 1.131.89-.237.397-.813.566-1.209.607.62.087 1.164-.111 1.434-.577-.282-.652-.703-.978-1.356-.92zm-.45 2.079c.564.222.588.635.694 1.113-.31.285-.75.454-1.057.343.53.325.927-.013 1.282-.227-.151-.734-.286-1.16-.919-1.23zm-1.042 1.909c.405.537.262.879.16 1.469-.433-.017-.813.099-1.107-.355.372.75.813.466 1.258.59.143-.887.29-1.172-.307-1.708m-1.416 1.72c.265.57-.017.792-.135 1.221-.429-.017-.707.012-.956-.429.27.792.637.532 1.082.66.107-.536.47-.738.009-1.452zm-.245-4.957c.498.235.35.655.47 1.245-.393.223-.728.623-1.136.326.457.524.972-.033 1.413-.165-.184-.879-.008-1.122-.748-1.402m-20.908 2.932c-.053-.536-.025-1.11-.025-1.11l.155-.102.11.127s-.073.62-.24 1.085zm.049-.59c.037-.115.102-.466.102-.466h-.094s-.012.33-.008.466zm-.703.619c-.012.578.4.462.617.75.29-.346.641-.152.674-.643 0 .796-.417.504-.686.895-.204-.387-.698-.214-.605-1.002zm2.394-.029c-.273-.804-.343-1.245-.343-1.245l.119-.166.139.079s.13.532.085 1.328m-.085-.606c.004-.124-.078-.66-.078-.66l-.09.037s.127.495.168.623zm-.597.833c.135.553.547.338.858.507.208-.412.604-.4.506-.878.213.75-.261.622-.449 1.117-.412-.28-.813.046-.915-.746z" fill="#fff"/><path fill-rule="evenodd" clip-rule="evenodd" d="M18.548 33.71a6.109 6.109 0 01-.09-.446l.09-.037v.483z" fill="#F6D300"/><path fill-rule="evenodd" clip-rule="evenodd" d="M14.007 34.597c-.85.977-1.54 2.462-1.54 3.807 0 2.194 1.327 4.265 3.48 5.688 2.115 1.398 5.035 2.264 8.261 2.268 3.226 0 6.154-.866 8.278-2.268 2.16-1.423 3.495-3.535 3.495-5.734 0-1.348-.588-2.627-1.482-3.736l2.013-3.015-.64-.788c-3.027-3.593-7.352-5.564-12.113-5.358-3.047.132-5.954 1.031-8.535 2.949-1.127.841-2.32 2.042-3.218 3.242l1.997 2.949.004-.004z" fill="#936B2E"/><path d="M24.208 46.797h-.032c-3.194-.004-6.2-.833-8.47-2.338-2.324-1.539-3.659-3.733-3.675-6.022v-.033c0-1.233.555-2.706 1.433-3.832l-1.813-2.677a.437.437 0 01.012-.511c.919-1.23 2.156-2.475 3.308-3.329 2.52-1.868 5.468-2.891 8.772-3.035.233-.009.465-.017.694-.017 4.582 0 8.764 1.963 11.765 5.527l.645.792a.443.443 0 01.025.524l-1.838 2.75c.895 1.201 1.372 2.48 1.38 3.721v.07c-.012 2.285-1.392 4.55-3.691 6.063-2.279 1.502-5.288 2.33-8.482 2.339h-.033m-11.307-8.422v.029c0 2 1.196 3.938 3.283 5.32 2.136 1.415 4.986 2.194 8.024 2.194 3.039 0 5.897-.779 8.041-2.194 2.066-1.36 3.3-3.37 3.3-5.366 0-1.138-.478-2.334-1.385-3.46a.437.437 0 01-.02-.52l1.83-2.747-.437-.536c-2.83-3.362-6.775-5.214-11.1-5.214-.216 0-.437.005-.658.017-3.128.136-5.92 1.097-8.293 2.862-1.01.751-2.091 1.82-2.94 2.904l1.82 2.685a.444.444 0 01-.032.536c-.862.994-1.425 2.36-1.434 3.49z" fill="#fff"/><path d="M24.208 46.331c-3.12 0-6.056-.804-8.266-2.268-2.242-1.485-3.48-3.473-3.48-5.602 0-.548.14-1.047.311-1.596.543-1.76 1.977-3.357 4.035-4.495 2.099-1.16 4.66-1.774 7.4-1.774 3.124 0 6.064.804 8.277 2.264 2.255 1.49 3.496 3.477 3.496 5.602 0 2.124-1.241 4.116-3.496 5.6-2.217 1.465-5.157 2.27-8.277 2.27zm0-15.154c-5.26 0-9.834 2.467-10.883 5.861-.156.504-.282.957-.282 1.424 0 4.017 5.01 7.288 11.165 7.288 6.154 0 11.197-3.271 11.197-7.288 0-4.018-5.023-7.285-11.197-7.285z" fill="#FCCD00"/><path fill-rule="evenodd" clip-rule="evenodd" d="M24.208 30.885c-5.55 0-10.095 2.615-11.157 6.067-.151.49-.298.986-.298 1.51 0 4.182 5.113 7.576 11.455 7.576s11.487-3.394 11.487-7.576c0-4.183-5.145-7.577-11.487-7.577z" fill="#FCCD00"/><path d="M24.196 45.812c-6.195 0-11.234-3.275-11.234-7.301s5.04-7.3 11.234-7.3c6.195 0 11.235 3.275 11.235 7.3 0 4.026-5.04 7.3-11.235 7.3zm0-13.793c-2.81 0-5.452.697-7.44 1.963-1.932 1.23-2.994 2.838-2.994 4.529 0 1.691 1.062 3.304 2.994 4.529 1.988 1.266 4.63 1.963 7.44 1.963 2.81 0 5.452-.697 7.44-1.963 1.932-1.23 2.994-2.838 2.994-4.529 0-1.691-1.062-3.304-2.993-4.529-1.989-1.266-4.631-1.963-7.44-1.963z" fill="#FCCD00"/><path fill-rule="evenodd" clip-rule="evenodd" d="M24.195 45.403c5.967 0 10.834-3.097 10.834-6.896s-4.867-6.896-10.834-6.896c-5.966 0-10.834 3.097-10.834 6.896s4.868 6.896 10.834 6.896z" fill="#936B2E"/><path d="M24.225 45.87c-6.211 0-11.267-3.3-11.267-7.359s5.056-7.358 11.267-7.358c6.211 0 11.267 3.3 11.267 7.358 0 4.059-5.056 7.358-11.267 7.358zm0-14.26c-5.966 0-10.818 3.098-10.818 6.905 0 3.807 4.852 6.9 10.818 6.9 5.966 0 10.818-3.097 10.818-6.9 0-3.803-4.852-6.904-10.818-6.904z" fill="#FCCD00"/><path d="M24.196 45.812c-6.195 0-11.234-3.275-11.234-7.301s5.04-7.3 11.234-7.3c6.195 0 11.235 3.275 11.235 7.3 0 4.026-5.04 7.3-11.235 7.3zm0-13.793c-2.81 0-5.452.697-7.44 1.963-1.932 1.23-2.994 2.838-2.994 4.529 0 1.691 1.062 3.304 2.994 4.529 1.988 1.266 4.63 1.963 7.44 1.963 2.81 0 5.452-.697 7.44-1.963 1.932-1.23 2.994-2.838 2.994-4.529 0-1.691-1.062-3.304-2.993-4.529-1.989-1.266-4.631-1.963-7.44-1.963z" fill="#FCCD00"/><path fill-rule="evenodd" clip-rule="evenodd" d="M24.195 45.403c5.967 0 10.834-3.097 10.834-6.896s-4.867-6.896-10.834-6.896c-5.966 0-10.834 3.097-10.834 6.896s4.868 6.896 10.834 6.896z" fill="#936B2E"/><path fill-rule="evenodd" clip-rule="evenodd" d="M24.208 30.95H24.2v.347h.008c6.097 0 11.043 3.21 11.043 7.165s-4.946 7.164-11.043 7.164H24.2v.35h.008c6.29 0 11.386-3.365 11.386-7.514 0-4.15-5.1-7.511-11.386-7.511zm-.008 0c-6.285 0-11.393 3.35-11.393 7.495s5.108 7.527 11.393 7.527v-.35c-6.093 0-11.05-3.226-11.05-7.181 0-3.956 4.957-7.144 11.05-7.148v-.346.004z" fill="#E11E1B"/><path d="M24.2 44.694c-5.664 0-10.274-2.937-10.274-6.55s4.61-6.55 10.274-6.55c5.665 0 10.275 2.937 10.275 6.55s-4.61 6.55-10.275 6.55zm0-12.832c-5.517 0-10.009 2.817-10.009 6.282s4.488 6.282 10.01 6.282c5.52 0 10.009-2.817 10.009-6.282s-4.488-6.282-10.01-6.282z" fill="#FCCD00"/><path d="M24.2 43.605c-5.26 0-9.54-2.714-9.54-6.055 0-3.34 4.28-6.055 9.54-6.055 5.26 0 9.54 2.718 9.54 6.055 0 3.337-4.28 6.055-9.54 6.055zm0-11.854c-5.125 0-9.29 2.602-9.29 5.803 0 3.2 4.169 5.803 9.29 5.803 5.12 0 9.29-2.602 9.29-5.803 0-3.2-4.17-5.803-9.29-5.803z" fill="#FCCD00"/><path d="M24.2 42.52c-4.962 0-9-2.47-9-5.506s4.038-5.507 9-5.507c4.961 0 9 2.471 9 5.507 0 3.035-4.039 5.506-9 5.506zm0-10.777c-4.835 0-8.768 2.367-8.768 5.27 0 2.904 3.933 5.272 8.768 5.272 4.835 0 8.768-2.363 8.768-5.271s-3.933-5.271-8.768-5.271z" fill="#FCCD00"/><path fill-rule="evenodd" clip-rule="evenodd" d="M29.55 41.246l6.75-9.631c-5.48-7.82-17.882-8.22-24.122.012l1.931 2.978 2.357 4.017c1.004-1.117 5.357-2.788 8.388-2.107 2.356.528 4.573 2.545 4.692 4.735" fill="#fff"/><path d="M29.44 41.63l-.02-.376c-.111-2-2.17-4.071-4.595-4.611a6.929 6.929 0 00-1.515-.157c-2.752 0-5.942 1.328-6.75 2.223l-.119.132-2.446-4.17-1.976-3.048.057-.074c2.928-3.865 7.404-6.08 12.284-6.08 4.88 0 9.384 2.269 12.047 6.072l.053.074-7.02 10.014zm-6.13-5.408c.568 0 1.095.053 1.572.16 2.144.48 4.427 2.27 4.762 4.5l6.497-9.271c-2.622-3.684-7.02-5.886-11.781-5.886-4.762 0-9.144 2.149-12.019 5.902l1.879 2.9 2.274 3.877c.985-.916 4.023-2.186 6.82-2.186" fill="#FCCD00"/><path fill-rule="evenodd" clip-rule="evenodd" d="M29.317 41.295l4.798-6.735c-2.544-3.057-6.097-4.74-9.834-4.64-3.977.107-8.126 2.173-10.115 4.788.682 1.349.735 2.281.453 3.84 1.332-1.258 7.22-1.497 10.467-.883 2.221.421 4.512 1.16 4.23 3.634" fill="#008FD0"/><path d="M29.134 41.782l.057-.5c.27-2.33-1.826-3.051-4.125-3.489-1.098-.206-2.532-.321-4.03-.321-3.088 0-5.575.457-6.326 1.171l-.286.268.07-.388c.293-1.625.191-2.5-.442-3.757l-.036-.074.049-.066c2.086-2.747 6.284-4.735 10.213-4.838.106 0 .208-.005.315-.005 3.63 0 7.138 1.712 9.62 4.69l.066.078-5.146 7.23zm-8.099-4.574c1.516 0 2.961.115 4.076.325 2.165.413 4.337 1.135 4.357 3.32l4.48-6.29c-2.532-2.998-5.974-4.61-9.666-4.516-3.765.1-7.939 2.063-9.964 4.674.641 1.299.686 2.252.486 3.518 1.18-.755 3.924-1.031 6.231-1.031z" fill="#FCCD00"/><path fill-rule="evenodd" clip-rule="evenodd" d="M29.084 41.6l2.401-3.625c-1.282-2.339-3.438-3.23-5.64-3.84-3.438-.957-8.322 1.08-11.062 3.069 0 .886-.278 1.736-.862 2.412 3.63.508 8.58-2.107 11.308-1.427 1.617.4 3.111 1.403 3.85 3.416" fill="#E11E1B"/><path d="M29.084 41.728h-.016a.123.123 0 01-.106-.086c-.641-1.753-1.907-2.875-3.761-3.333a4.102 4.102 0 00-1.005-.107c-1.196 0-2.65.363-4.19.746-1.707.425-3.467.862-5.08.862-.36 0-.702-.024-1.02-.066a.119.119 0 01-.103-.082.13.13 0 01.025-.132c.547-.631.833-1.436.829-2.326 0-.042.02-.083.053-.108 2.287-1.658 6.023-3.336 9.212-3.336a7.28 7.28 0 011.957.247c2.193.61 4.402 1.506 5.717 3.902a.135.135 0 01-.004.136L29.19 41.67a.128.128 0 01-.107.058zm-4.884-3.79c.4 0 .748.037 1.066.12 1.83.453 3.157 1.58 3.851 3.262l2.217-3.35c-1.274-2.264-3.405-3.117-5.52-3.707a7.126 7.126 0 00-1.892-.24c-3.107 0-6.75 1.626-9.008 3.247-.012.845-.266 1.612-.74 2.24.242.024.495.036.756.036 1.576 0 3.324-.433 5.015-.858 1.556-.387 3.026-.75 4.251-.75" fill="#FCCD00"/><path fill-rule="evenodd" clip-rule="evenodd" d="M26.711 46.042l-.698-.173L36.07 31.1c.167.182.298.326.445.524l-9.81 14.42h.005z" fill="#FCCD00"/><path fill-rule="evenodd" clip-rule="evenodd" d="M15.159 41.027c.073-.157.244-.17.355-.276.045-.033.2-.132.18-.252-.033-.19-.02-.202-.246-.09-.338.164-.702.449-.649.709.033.012.392.812.437.82.016 0 .098-.173.057-.321a1.87 1.87 0 00-.118-.293c-.057-.12-.082-.16-.02-.293" fill="#936B2E"/><path fill-rule="evenodd" clip-rule="evenodd" d="M.968 20.685c.674-.058 1.405.173 2.09.528 0 0-1.09-.202-1.657-.186.196 1.444 2.295 3.733 4.92 5.143.69.372-2.609-1.188-3.27-1.786-.956-.857-2.173-1.946-2.08-3.7m7.564 1.898c-2.12-2.009-4.53-5.684-5.142-8.117-.592-2.355-.102-3.527.515-4.055.151.392.527 1.613.992 2.636l-.976-1.58s-.47 2.372.74 4.991c1.204 2.62 3.87 6.13 3.87 6.13v-.005zm-4.643-2.054c-2.197-2.281-1.744-4.153-1.744-4.153l1.56 1.58c-.89-1.06-1.552-2.158-1.846-2.372-.592 1.687.008 3.51.976 4.66 1.335 1.584 3.271 2.793 4.353 3.688v-.009c-.38-.33-1.433-1.451-3.3-3.39v-.004zM.854 24.714c.526-.268 1.74-.028 1.74-.028h.052c-.776-.232-1.67-.33-2.221-.153.188 1.547 1.89 2.887 3.491 3.46.495.178 2.565.838 2.932.83-4.402-1.622-5.684-2.842-5.994-4.1v-.009zm2.254 3.395c-.87-.149-1.87-.07-2.593.396.33 1.443 1.948 2.248 3.001 2.425.735.124 2.871.173 3.149.111-4.725-.074-5.428-1.5-5.787-2.371.617-.673 2.205-.557 2.205-.557h.025v-.004zm2.347 5.514c-3.046.075-3.336-.35-3.993-1.15.175-.475 1.09-.961 1.355-1.093-.727.202-1.347.602-1.752 1.084.588 1.02 1.475 1.498 2.79 1.361a35.97 35.97 0 001.654-.206h-.054v.004zM2.397 35.74c.42-1.255 1.405-1.593 1.405-1.593l.037-.012c-.682.157-1.462.808-1.797 1.683.42.688 1.85.808 2.642.433.213-.1.878-.334 1.576-.602-2.817.833-3.246.453-3.855.09h-.008zm5.733 1.006s-2.543 2.058-3.033 2.264c-.49.206-.817.268-1.32-.132-.06-.981.58-1.765.674-1.856-.923.677-.96 1.56-1.061 2.137.453.16.784.787 1.984.004.51-.334 1.777-1.497 2.802-2.454l-.05.037h.005zm28.142 7.04c.077.24.27.301.575.384a2 2 0 01.356.12c.053-.075.114-.145.18-.22.224-.263.502-.506.416-.845-.102-.383-.176-.738-.176-.738.356.974.209.516.303.796.216.631-.482 1.019-.658 1.41-.29-.292-1.004-.148-1.192-.73-.115-.354-.327-1.439-.596-2.66 0 0 .665 2.104.788 2.483h.004zm2.605-.858c.404.549.768.343 1.135.487.147-.38.42-.792.323-1.402-.045-.297.057-.334-.54-1.32.568.944.748 1.2.797 1.514.078.495-.094.783-.245 1.043-.057.1-.11.19-.147.289l-.065.173-.176-.07a.545.545 0 00-.216-.033c-.041 0-.086 0-.131.004-.05 0-.098.004-.147.004-.188 0-.433-.099-.65-.354-.187-.22-1.416-2.917-1.666-3.816.23.59 1.577 3.275 1.732 3.485l-.004-.004zm.241-4.57c.989 1.16 1.92 2.52 2.242 2.892.192.214.384.321.531.321.131 0 .535-.09.593-.099.367-.746.326-1.427-.634-2.26 1.65 1.353.997 1.951.956 2.582-.47.008-1.107.425-1.6-.264-.303-.42-2.096-3.168-2.096-3.168l.008-.004zm8.176-17.673c-.674-.058-1.405.173-2.091.528 0 0 1.09-.203 1.658-.186-.196 1.444-2.295 3.733-4.92 5.143-.691.371 2.609-1.188 3.27-1.786.956-.858 2.173-1.946 2.079-3.7m-7.563 1.898c2.119-2.009 4.528-5.684 5.141-8.117.592-2.355.102-3.527-.515-4.055-.15.392-.526 1.613-.992 2.636l.976-1.58s.47 2.372-.74 4.99c-1.204 2.62-3.87 6.13-3.87 6.13v-.004zm4.643-2.054c2.197-2.281 1.744-4.154 1.744-4.154l-1.56 1.58c.89-1.06 1.551-2.157 1.846-2.372.592 1.688-.009 3.51-.976 4.661-1.336 1.584-3.271 2.793-4.354 3.688v-.009c.38-.33 1.434-1.451 3.3-3.39v-.004zm3.034 4.186c-.527-.268-1.74-.029-1.74-.029h-.053c.776-.23 1.67-.33 2.222-.152-.188 1.546-1.89 2.887-3.492 3.46-.494.178-2.564.838-2.932.83 4.402-1.622 5.685-2.843 5.995-4.1v-.009zm-2.25 3.395c.87-.149 1.87-.07 2.593.396-.331 1.443-1.948 2.248-3.002 2.425-.735.124-2.87.173-3.148.111 4.724-.074 5.427-1.501 5.786-2.371-.616-.673-2.205-.557-2.205-.557h-.024v-.004zm-2.348 5.514c3.047.075 3.336-.35 3.994-1.15-.176-.475-1.09-.961-1.356-1.093.727.202 1.348.602 1.752 1.084-.588 1.02-1.474 1.498-2.79 1.361a35.842 35.842 0 01-1.653-.206h.053v.004zm3.058 2.117c-.42-1.255-1.405-1.593-1.405-1.593l-.036-.012c.682.157 1.462.808 1.796 1.683-.42.688-1.85.808-2.642.433-.212-.1-.878-.334-1.576-.602 2.818.833 3.247.453 3.855.09h.008zm-5.734 1.006s2.545 2.058 3.035 2.264c.49.206.817.268 1.32-.132.06-.981-.58-1.765-.675-1.856.923.677.96 1.56 1.062 2.137-.453.16-.784.787-1.985.004-.51-.334-1.776-1.497-2.801-2.454l.049.037h-.004zm-20.197-22.17c.261.376.56.854.878 1.41-.972-.589-1.356-1.195-1.822-1.653l1.127.845-.183-.598v-.004zm-.303-.635c.335.672 1.662 1.505 2.85 1.22 0 0-.543.021-1.58-.444-1.037-.467-1.27-.776-1.27-.776zm1.34-.668c-.776.223-1.703.041-1.703.041.249.157.572.219.812.243-.898.157-1.984.116-1.984.116 1.351.433 2.707-.083 2.838-.375-.008.004-.025.008-.033.012l.074-.037h-.004z" fill="#fff"/><path fill-rule="evenodd" clip-rule="evenodd" d="M19.908 16.379s.008.008.008.012c0-.008-.004-.012-.008-.02-.004-.079.037-1.147-1.009-2.158.196.33.241.743.352.957-.396-.515-.899-.763-2.014-1.175 0 0 1.9 1.023 2.65 2.35l.025.042v-.008h-.004z" fill="#fff"/><path d="M16.425 14.436s1.384 1.39 2.683 2.112c-.16-.656-1.217-1.836-1.217-1.836s.417.702.453.957c-.76-.284-1.923-1.233-1.923-1.233h.004z" fill="#fff"/><path fill-rule="evenodd" clip-rule="evenodd" d="M31.069 35.364c-.13-.219-.923-.342-2.222-1.027-.616-.314-1.151-.528.417-2.108-.02-.482.135-1.728.715-2.033.118-.198.163-.507.477-.635.4-.161.993-.009.866-.326.008-.05-.012-.264-.11-.297-.02-.008.106-.132-.017-.289-.212-.19.352-.008-.253-.726-.024-.247-.33-.585-.4-.73 0-.206-.36-.478-.625-.487l-.355.128c-.082-.012-.38-.095-.735-.095a.609.609 0 00-.4.046 4.58 4.58 0 00-.658.198c-.698.173-.612.181-2.246.157-.22.14-.596.226-1.936.086.45.879 1.27 1.704 1.85 2.075-1.445.082-2.964.186-6.019.025-.441.19-1.535-.108-2.144.111h-.004c-.004.012.008.02.008.029 0 .008 0 .012.004.02.012.034.037.062.086.087.004 0 .008.004.012.008l.078.038c.04.016.077.032.126.04.637.129.172.009 1.27.343.482.38-1.147.14-.996.396.012 0 .723.375 2.042-.066 1.192-.054 1.74.429 4.361.483.041.02.155.082.405.321-.188 2.12-1.801 1.63-3.451 4.706-.613.145-1.442 1.477-1.532 1.865-.812.008-1.837 1.043-2.674 1.831-.425.4-1.552.693-1.777 1.415-.016.132.02.276.127.433.363.474.396.635.572 1.204.187.392.465.858.726.932.237.005.605.009.793.005.032-.058.032-.075.024-.104.008-.024.004-.04-.008-.09-.086-.297-.56-.079-.596-1.502.073-.334-.02-1.584 1.56-1.757 1.204-.132 1.936-.371 2.352-.585 1.054-.091 1.462.185 1.989-.091.04-.09.07-.157.098-.231.122-.252.282-.43.457-.532.02 0 .029-.008.05-.008.069-.034.154-.054.228-.083.028 0 .057-.012.086-.012.249-.116.514-.202.784-.29 1.098-.3 2.41-.444 3.63-.44.694-.244 2.283-.425 3.23-1.522.062-.293.009 0-.257-.912l-.008-.004z" fill="#FCCD00"/><path d="M29.68 29.61c0 .05 0 .095-.008.14-.036.207-.338.462-.371.454 0 0 .188-.313.171-.433a.263.263 0 00-.012-.062c-.127.05-.253.095-.33.124-.107.066-.32.215-.49.338-.054.091-.111.186-.148.297-.077.219-.081.487-.081.755.02.28.04.573.053.82a2.577 2.577 0 01-.307.508c.098.231-.204 1.332-.171 1.357 0 0 .18-.594.465-1.023.209-.313.52-.441.621-.672.082-.433-.032-1.213.16-1.666l.71-.454.057-.297s.041-.116.09-.235l-.404.045-.004.004z" fill="#936B2E"/><path fill-rule="evenodd" clip-rule="evenodd" d="M19.961 29.89c1.033-.07 1.924-.16 2.912-.197-.935-.132-3.953-.153-4.762-.087.102.09 1.18.24 1.287.276 0 .009.126.137.004.355 0 0 .408-.173.563-.342l-.004-.004zm10.553 6.514c.13-.339.016-.611-.016-.772.049-.062.22-.086.265-.144 0 0-1.433-.508-2.757-.619 0-.19.103-.38.152-.474-.188-.004-.372.14-.72.33-.44.033-1.35.045-2.727.371 1.437.078 5.517.458 5.652 1.567a.71.71 0 00.15-.26z" fill="#936B2E"/><path fill-rule="evenodd" clip-rule="evenodd" d="M21.778 39.076c.025-1.019.466-.907 1.09-1.633 0 0 .438-.809.54-1.089.294.062.375.38.49.458.939-.058 2.197-.532 2.458-1.085.67-.078 1.736-.025 2.132.16-.008.021-3.381 1.094-4.366 1.4-.139.032-.388.267-.604.449.008 0-.18-.103-.188-.103.057-.124.123-.244.155-.343-.335.289-.861.883-1.703 1.79l-.004-.004z" fill="#936B2E"/><path fill-rule="evenodd" clip-rule="evenodd" d="M26.642 28.121c.028.029.036.029.036.078-.016-.008-.093-.041-.037-.041v-.04.003z" fill="#F6D300"/><path fill-rule="evenodd" clip-rule="evenodd" d="M28.239 27.977c-.253-.008-2.307.528-2.307.528s.592-.38 1.31-.565c.72-.186.997.037.997.037zm-1.662 4.174l1.397.256.278-.483s.171-.99-.748-1.51l-.216-.552s-1.376-.264-2.61-.054l-1.16.483s1.189-.301 2.034-.301c.846 0 .935.165.935.165s.241.338-.098.998c.172.689.172.833.172.833l.016.165z" fill="#936B2E"/><path fill-rule="evenodd" clip-rule="evenodd" d="M27.422 30.596s.584-.416.665-1.225c.172.734-.514 1.761-.514 1.761l-.151-.536zm2.451-1.25c0-.074-.086-.074-.094-.111 0-.017.02-.12-.025-.132-.024-.004-.028-.012-.082 0-.04.016-.118.062-.15.066l.077-.095.082-.099.07-.025v-.016c0-.058-.079-.107-.095-.178v-.012l-.057.02c.024-.086.053-.09.102-.098h.053s.012-.017.02-.02c.021-.021.054-.083.041-.108-.073-.107-.183-.17-.27-.264l-.122-.173c-.081.02-.098.02-.106.07.029.103-.082.136-.208.206.008-.05.077-.09.07-.111a.113.113 0 00-.05-.05c.033-.02.09-.045.115-.066a.168.168 0 00.036-.041c-.016-.017-.24.004-.26.012.056-.111.33-.185.432-.206-.04-.16-.278-.59-.278-.59l-.367-.07-.094-.012.273.202h-.31l-.568.235.625.268.123.182s-.258.499-.282.63l.425.095.339.561s-.49.149-.903.252c.241.058 1.307-.124 1.446-.28v-.046l-.008.004zm-5.42-1.814s.694.061 1.168-.198c1.213 0 1.817-.046 1.817-.046l-1.654.28s-.657.384-1.33-.037zm2.977.004l-1.616.292 2.148-.123-.531-.17z" fill="#936B2E"/><path d="M31.032 29s-.02-.017-.033-.025c-.024-.111.07-.087.09-.19a.194.194 0 00-.04-.02.451.451 0 01-.148.074c0-.004.009-.012.009-.016h-.005c.053-.137.086-.157.209-.198-.033-.046-.078-.079-.098-.137v-.008a.338.338 0 01-.119.025c0-.12.07-.103.16-.12.036-.029.04-.045.04-.099.004.004-.175-.165-.253-.268-.057 0-.082.037-.11.095 0 .14-.008.107-.098.16.037-.036.053-.07.057-.14-.04.013-.106.038-.155.046.049-.041.118-.09.118-.153-.065-.037-.057-.016-.134-.028.106-.12.126-.12.273-.165a.872.872 0 00-.339-.438c-.012.013-.028.021-.045.033-.004 0-.012.009-.016.013-.004 0-.008.004-.012.008-.008.008-.02.012-.033.02-.086.054-.155.236-.155.236s.07.227.057.33c-.02.103-.192.313-.192.313l-.192.05.061.057a.25.25 0 01.045.07l.462.149.237.52-.519.099.535.037s.498-.083.514-.074c0-.021-.134-.219-.175-.256h.004z" fill="#936B2E"/><path fill-rule="evenodd" clip-rule="evenodd" d="M20.402 37.484l2.112-.388.433-.775s-1.846.363-2.545 1.163z" fill="#936B2E"/><path d="M35.933 42.376c-.032-.36-.057-1.08-.919-1.106h-.012s-.645-.672-1.16-.709c.254.404.42.78.47.953.02.07.037.31.029.334-.14.346 0 .606.106.816.045.091.09.174.106.252-.204.124-.319.289-.34.487a.215.215 0 00.054.16c-.09.091-.417.442-.482.48a.477.477 0 00-.388-.199.95.95 0 00-.416.12l-.588.359a.197.197 0 00-.094.127.225.225 0 00.028.161c.27.425.927 1.106 1.548 1.106.25 0 .592-.108.817-.623.098-.173.13-.376.159-.57.033-.19.061-.366.139-.47.09-.115.2-.218.314-.325.323-.301.69-.648.63-1.353z" fill="#fff"/><path fill-rule="evenodd" clip-rule="evenodd" d="M35.728 42.392c-.044-.49-.155-.845-.755-.862h-.049c-.167-.293-.535-.627-.727-.664.123.161.314.561.42.817a.836.836 0 01.221-.017c-.135.046-.265.203-.306.256-.167.425.323.796.298 1.518a7.507 7.507 0 01-.155-.363c-.119.066-.237.17-.253.334l.339.42-.29-.152s-.282.235-.286.24c.073.251.294.54.294.54-.082-.033-.331-.174-.388-.454a2.27 2.27 0 00-.253.293c.057.169.253.557.253.557-.47-.421-.33-1.048-1.009-.722l-.588.355c.364.577 1.515 1.645 2.01.499.175-.301.11-.8.322-1.073.363-.47.976-.697.898-1.534l.004.012z" fill="#FCCD00"/><path d="M34.827 42.995c-.033-.392-.062-1.18-1.005-1.205h-.012s-.707-.734-1.262-.771c.277.437.457.85.514 1.04.02.078.041.337.029.366-.151.376 0 .664.118.891.05.1.098.186.115.272-.225.136-.347.314-.368.528a.234.234 0 00.057.178c-.098.099-.457.482-.526.52a.527.527 0 00-.425-.215c-.127 0-.27.041-.437.12-.008 0-.012.004-.02.012l-.642.392a.21.21 0 00-.102.14.254.254 0 00.029.173c.294.466 1.008 1.205 1.69 1.205.27 0 .646-.12.89-.681.107-.19.14-.408.176-.619.033-.206.066-.4.151-.511a2.79 2.79 0 01.343-.355c.352-.33.752-.705.687-1.476v-.005z" fill="#fff"/><path fill-rule="evenodd" clip-rule="evenodd" d="M34.602 43.01c-.049-.531-.167-.919-.825-.935-.02 0-.037 0-.053.004-.184-.322-.584-.685-.792-.722.135.177.343.615.457.89a.826.826 0 01.241-.016c-.147.05-.29.223-.335.28-.183.463.352.867.327 1.655a4.609 4.609 0 01-.167-.396c-.127.074-.258.185-.278.367l.371.458-.314-.17-.31.26c.081.277.322.59.322.59-.09-.037-.363-.19-.424-.495-.029.017-.282.306-.274.322.065.182.278.606.278.606-.515-.457-.36-1.142-1.099-.787l-.53.544c.395.631 1.543 1.642 2.078.392.192-.33.122-.87.351-1.172.396-.51 1.062-.758.98-1.67l-.004-.004z" fill="#FCCD00"/><path d="M33.348 43.708c-.033-.392-.061-1.18-1.005-1.204h-.012s-.706-.734-1.262-.772c.278.438.458.85.515 1.04.02.078.04.338.028.367-.15.375 0 .664.119.89.049.1.098.186.114.273-.224.136-.347.313-.367.528a.233.233 0 00.057.177c-.098.1-.458.483-.527.52a.527.527 0 00-.425-.215c-.126 0-.27.042-.437.12-.008 0-.012.004-.02.012l-.641.392a.21.21 0 00-.102.14.255.255 0 00.028.174c.294.466 1.009 1.204 1.69 1.204.27 0 .646-.12.891-.68.106-.19.139-.409.176-.62.032-.205.065-.4.15-.51.099-.128.217-.24.344-.355.351-.33.751-.706.686-1.477v-.004z" fill="#fff"/><path fill-rule="evenodd" clip-rule="evenodd" d="M33.123 43.729c-.048-.532-.167-.92-.824-.937-.02 0-.037 0-.053.005-.184-.322-.585-.685-.793-.722.135.177.343.614.458.89a.826.826 0 01.24-.016c-.146.05-.29.223-.334.28-.184.462.35.867.326 1.654a4.577 4.577 0 01-.167-.395c-.127.074-.257.185-.278.367l.372.458-.314-.17s-.307.256-.31.26c.08.277.322.59.322.59-.09-.037-.364-.19-.425-.495-.029.017-.282.305-.274.322.066.181.278.606.278.606-.515-.458-.36-1.142-1.098-.788l-.642.388c.396.631 1.654 1.798 2.19.544.191-.33.122-.87.35-1.17.397-.512 1.062-.76.98-1.671h-.004z" fill="#FCCD00"/><path d="M12.292 42.376c.033-.36.057-1.08.919-1.106h.012s.645-.672 1.16-.709c-.253.404-.42.78-.47.953-.02.07-.037.31-.028.334.138.346 0 .606-.107.816-.045.091-.09.174-.106.252.204.124.319.289.34.487a.214.214 0 01-.054.16c.09.091.417.442.482.48a.477.477 0 01.388-.199.95.95 0 01.416.12l.588.359a.197.197 0 01.094.127.225.225 0 01-.028.161c-.27.425-.927 1.106-1.548 1.106-.249 0-.592-.108-.817-.623-.098-.173-.13-.376-.159-.57-.033-.19-.061-.366-.139-.47-.09-.115-.2-.218-.314-.325-.323-.301-.69-.648-.63-1.353z" fill="#fff"/><path fill-rule="evenodd" clip-rule="evenodd" d="M12.496 42.392c.045-.49.155-.845.755-.862h.05c.167-.293.534-.627.726-.664-.122.161-.314.561-.42.817a.837.837 0 00-.221-.017c.135.046.266.203.306.256.168.425-.322.796-.298 1.518.074-.16.123-.28.155-.363.119.066.237.17.254.334l-.34.42.29-.152s.282.235.286.24c-.073.251-.294.54-.294.54.082-.033.331-.174.388-.454.029.017.258.28.254.293a6.863 6.863 0 01-.254.557c.47-.421.331-1.048 1.009-.722l.588.355c-.363.577-1.515 1.645-2.01.499-.175-.301-.11-.8-.322-1.073-.363-.47-.976-.697-.898-1.534l-.004.012z" fill="#FCCD00"/><path d="M13.403 42.995c.032-.392.06-1.18 1.004-1.205h.012s.707-.734 1.262-.771c-.277.437-.457.85-.514 1.04a1.59 1.59 0 00-.029.366c.151.376 0 .664-.118.891-.05.1-.098.186-.115.272.225.136.348.314.368.528a.233.233 0 01-.057.178c.098.099.457.482.527.52a.527.527 0 01.424-.215c.127 0 .27.041.437.12.008 0 .012.004.02.012l.642.392a.21.21 0 01.102.14.255.255 0 01-.029.173c-.294.466-1.008 1.205-1.69 1.205-.27 0-.646-.12-.89-.681-.107-.19-.14-.408-.176-.619-.033-.206-.066-.4-.151-.511a2.787 2.787 0 00-.343-.355c-.352-.33-.752-.705-.686-1.476v-.005z" fill="#fff"/><path fill-rule="evenodd" clip-rule="evenodd" d="M13.627 43.01c.05-.531.168-.919.825-.935.02 0 .037 0 .053.004.184-.322.584-.685.792-.722-.134.177-.343.615-.457.89a.824.824 0 00-.24-.016c.146.05.289.223.334.28.184.463-.351.867-.327 1.655.082-.173.135-.305.168-.396.126.074.257.185.277.367l-.371.458.314-.17s.307.256.31.26c-.081.277-.322.59-.322.59.09-.037.363-.19.425-.495.028.017.281.306.273.322a8.769 8.769 0 01-.277.606c.514-.457.359-1.142 1.098-.787l.531.544c-.396.631-1.544 1.642-2.079.392-.192-.33-.122-.87-.35-1.172-.397-.51-1.063-.758-.98-1.67l.003-.004z" fill="#FCCD00"/><path d="M14.877 43.708c.033-.392.061-1.18 1.005-1.204h.012s.707-.734 1.262-.772c-.278.438-.457.85-.515 1.04a1.56 1.56 0 00-.028.367c.15.375 0 .664-.119.89-.049.1-.098.186-.114.273.225.136.347.313.367.528a.234.234 0 01-.057.177c.098.1.458.483.527.52a.527.527 0 01.425-.215 1.057 1.057 0 01.457.133l.641.391a.21.21 0 01.103.14.255.255 0 01-.03.174c-.293.466-1.008 1.204-1.69 1.204-.27 0-.645-.12-.89-.68-.106-.19-.139-.409-.176-.62-.032-.205-.065-.4-.15-.51a2.788 2.788 0 00-.344-.355c-.351-.33-.751-.706-.686-1.477v-.004z" fill="#fff"/><path fill-rule="evenodd" clip-rule="evenodd" d="M15.102 43.729c.049-.532.167-.92.825-.937.02 0 .036 0 .053.005.183-.322.584-.685.792-.722-.135.177-.343.614-.457.89a.824.824 0 00-.241-.016c.147.05.29.223.335.28.183.462-.352.867-.327 1.654.081-.173.135-.305.167-.395.127.074.258.185.278.367l-.372.458.315-.17.31.26c-.082.277-.322.59-.322.59.09-.037.363-.19.424-.495.029.017.282.305.274.322a8.769 8.769 0 01-.278.606c.515-.458.36-1.142 1.099-.788l.64.388c-.395.631-1.653 1.798-2.188.544-.192-.33-.122-.87-.351-1.17-.396-.512-1.062-.76-.98-1.671h.004z" fill="#FCCD00"/><path fill-rule="evenodd" clip-rule="evenodd" d="M23.992 58.42l-.106-8.942c-.8 3.222-.993 5.284-.915 6.604-.466-.796-.98-1.951-.833-2.797-.38 2.248.772 3.849.915 4.067-1.826.371-2.614-.297-2.949-.858 1.34-.124 1.699.26 1.699.26s-.956-1.237-1.923-1.217c-.409.008-.8.013-1.14-.115l.54-1.724c.375.185 1.024.284 1.772-.54-2.087-.8-.54-3.271-.54-3.271-1.474 1.2-1.367 2.982-.359 3.345-.396.293-1.225.218-1.225.218l-.6 1.72c-.266-.251-.462-.664-.552-1.353 0 0-.506 2.677 1.058 2.822.384.52 1.887 2.214 4.386.857.306.883.78.94.78.94l-.008-.016zm1.356-11.676s-.282.94-1.307 1.922c0 0-.004 0-.008.004 0 0-.004 0-.008-.004-1.025-.978-1.307-1.922-1.307-1.922s-.241 1.464 1.298 2.487h.033c1.536-1.023 1.299-2.487 1.299-2.487zm1.975-31.384s-1.608.656-2.209 3.102c.988-2.038 1.793-2.158 1.793-2.158l.413-.944h.003z" fill="#fff"/><path fill-rule="evenodd" clip-rule="evenodd" d="M27.303 15.385s-.914 2.507-.914 3.943c-.38-1.11.188-3.255.188-3.255l.722-.688h.004zm-6.337-.025s1.609.656 2.21 3.102c-.99-2.038-1.794-2.158-1.794-2.158l-.412-.944h-.004z" fill="#fff"/><path fill-rule="evenodd" clip-rule="evenodd" d="M20.99 15.385s.915 2.507.915 3.943c.38-1.11-.188-3.255-.188-3.255l-.723-.688h-.004z" fill="#fff"/><path fill-rule="evenodd" clip-rule="evenodd" d="M25.111 8.377a.128.128 0 010 .256.128.128 0 010-.256zm.788.132c.061 0 .106.05.106.107a.109.109 0 01-.106.107.109.109 0 01-.106-.107c0-.058.049-.107.106-.107zm-3.464 0c.061 0 .106.05.106.107a.109.109 0 01-.106.107.109.109 0 01-.106-.107c0-.058.049-.107.106-.107zm.805-.132a.128.128 0 010 .256.128.128 0 010-.256zm1.086.087a.147.147 0 11-.294 0 .147.147 0 11.294 0z" fill="#1D1800"/><path d="M14.726 11.54l.04.07v.541h2.725v-.54l.049-.07c.208-.339.42-.809.624-1.399.155-.441.168-.792.033-1.043-.155-.297-.515-.503-1.107-.635l-.053-.013-.045-.033s-.016-.012-.028-.016l-.033.26-.674-.1a56.258 56.258 0 00-.204-.012l-.727.112-.037-.26s-.016.012-.028.016l-.045.033-.053.013c-.588.132-.952.338-1.103.635-.13.251-.122.602.033 1.043.208.59.42 1.06.625 1.399h.008z" fill="#FCCD00"/><path fill-rule="evenodd" clip-rule="evenodd" d="M16.882 8.299c.073-.017.163.004.204.05l-.343 1.818s-.004-.041-.008-.062l-.037.02s-.024.013-.061.042l.249-1.868h-.004z" fill="#fff"/><path fill-rule="evenodd" clip-rule="evenodd" d="M16.327 11.71a.17.17 0 00-.04-.087h.085a.15.15 0 00-.045.087zm.043.156h-.089a.148.148 0 00.045-.09.16.16 0 00.045.09zm.262-.156a.128.128 0 00-.036-.075l.085.009a.198.198 0 00-.049.066zm.028.168h-.08a.185.185 0 00.044-.07.106.106 0 00.037.07zm.254-.165s-.016-.032-.028-.049l.06.008s-.024.025-.032.041zm.02.182h-.06l.032-.045a.189.189 0 00.028.045zm.246-.137s-.012-.032-.02-.048l.056.012s-.028.024-.036.037zm-.005.166l-.052-.009.036-.036c0 .016.008.032.02.045m.251-.104s-.009-.032-.017-.049l.052.017s-.028.02-.036.032zm-.022.145l-.032-.008.024-.025c0 .012.004.02.008.029" fill="#FCCD00"/><path fill-rule="evenodd" clip-rule="evenodd" d="M15.004 8.967c-.07.095-.082.206-.025.35l-.126-.177.155-.173m-.25.313l-.158.182.13.181c-.057-.148-.057-.264.025-.367m-.274.38l-.147.193.147.174c-.07-.145-.073-.277 0-.363m-.196.321l-.139.19.155.157c-.077-.136-.085-.252-.02-.347m.433-.016l-.139.19.16.156c-.078-.136-.086-.255-.021-.35m.51-.087l-.134.186.15.152c-.077-.132-.08-.247-.02-.338m-.24-.28l-.156.185.151.174c-.07-.149-.07-.269.004-.36zm.248-.314l-.155.186.151.173c-.069-.148-.069-.264.005-.359zm-.461-.668l-.167.17.134.185c-.057-.153-.049-.272.033-.355zm-.27.326l-.171.19.155.19c-.07-.162-.065-.29.017-.384m-.262.387l-.13.207.118.19c-.057-.149-.053-.29.012-.397zm.27.924l-.123.207.168.169c-.086-.145-.107-.24-.045-.376zm.077.566l-.122.214.184.144c-.098-.132-.119-.251-.062-.359zm.87-.677l-.122.17.138.143c-.069-.123-.077-.226-.016-.313zm-.69.375l-.118.198.163.165c-.082-.144-.102-.23-.045-.363zm2.524-1.542l.155.173-.127.177c.057-.144.045-.251-.024-.35m.249.313c.081.1.081.215.024.367l.13-.181-.158-.182m.273.38c.074.09.07.223 0 .363l.147-.173-.147-.194m.196.321c.066.095.062.21-.02.347l.155-.157-.139-.19m-.433-.016c.066.095.057.21-.02.35l.16-.156-.14-.19m-.51-.087c.065.091.057.207-.02.339l.15-.153-.134-.186m.24-.28c.074.095.078.21.005.359l.15-.173-.154-.186zm-.248-.314c.073.091.073.21.004.36l.15-.174-.154-.186zm.461-.668c.082.087.094.202.033.355l.134-.186-.167-.169zm.27.326c.081.095.085.223.016.384l.155-.19-.171-.19m.261.388c.065.103.07.247.012.396l.119-.19-.131-.206zm-.27.924c.062.136.041.227-.044.375l.167-.169-.123-.206zm-.077.565c.057.107.037.227-.061.359l.183-.145-.122-.214zm-.87-.677c.057.087.053.19-.016.314l.139-.144-.123-.17zm.69.376c.061.132.037.223-.045.363l.164-.165-.119-.198z" fill="#fff"/><path d="M17.07 10.84a1.06 1.06 0 01-.155.201 1.07 1.07 0 01.225-.024h.04c.135-.062.254-.149.343-.248a.988.988 0 00-.453.066m-.699-.222v.061c0 .128-.016.252-.045.372.053-.07.119-.132.188-.19.102-.198.155-.409.151-.607a1.143 1.143 0 00-.294.364zm.155.705c.152.008.295.016.425.033a.991.991 0 00.355-.215 1.07 1.07 0 00-.784.182m.508-.611c-.29.054-.593.29-.74.582.302-.062.6-.301.74-.582z" fill="#fff"/><path fill-rule="evenodd" clip-rule="evenodd" d="M15.436 8.299l.25 1.868c-.037-.029-.062-.041-.062-.041l-.037-.02c0 .02-.008.04-.008.061l-.343-1.819c.037-.045.131-.062.204-.05" fill="#fff"/><path fill-rule="evenodd" clip-rule="evenodd" d="M15.996 11.71a.218.218 0 00-.045-.087h.086a.144.144 0 00-.041.087zm-.045.156a.148.148 0 00.045-.09.195.195 0 00.045.086h-.09v.004zm-.265-.156a.133.133 0 00-.05-.066l.086-.009s-.028.046-.036.075zm-.029.168s.028-.045.037-.07a.144.144 0 00.044.066h-.08v.004zm-.254-.165s-.02-.028-.032-.04l.06-.009s-.02.033-.028.05zm-.015.182s.02-.029.028-.045c.008.016.02.028.032.04h-.06v.005zm-.25-.137s-.024-.028-.036-.036l.056-.012s-.016.032-.02.048zm.005.166s.016-.029.02-.045a.08.08 0 00.036.036l-.056.009zm-.25-.104s-.025-.024-.037-.032l.053-.017s-.012.033-.016.05zm.017.145s.007-.02.007-.028l.024.024-.032.008v-.004z" fill="#FCCD00"/><path d="M15.183 11.02c.073 0 .15.009.224.026a1.026 1.026 0 01-.155-.203.98.98 0 00-.453-.066c.09.1.208.186.343.248h.04m.63-.173c.07.057.13.123.188.19a1.565 1.565 0 01-.045-.372v-.062a1.25 1.25 0 00-.294-.363c0 .194.05.409.151.607zm-.8.284c.098.091.216.165.355.215.13-.017.278-.025.425-.033a1.076 1.076 0 00-.784-.182m.282-.429c.134.28.436.516.738.582-.147-.289-.449-.528-.739-.582zm.87-.581c-.074.157-.115.35-.115.548 0 .198.04.396.114.557.074-.165.115-.359.115-.557 0-.198-.041-.391-.115-.548z" fill="#fff"/><path fill-rule="evenodd" clip-rule="evenodd" d="M16.241 6.265c-.024.05-.053.112-.045.17.033.218.355-.038.417-.087v.515c-.07-.057-.233-.19-.335-.169-.208.033.032.376.081.437h-.49c.058-.074.18-.243.164-.35-.033-.219-.356.037-.417.086v-.515c.07.058.233.19.335.169.208-.033-.033-.375-.082-.437h.49a1.51 1.51 0 00-.118.181zm-.127 1.002c.204 0 .371.178.371.392a.384.384 0 01-.371.392.384.384 0 01-.372-.392c0-.214.168-.392.372-.392z" fill="#FCCD00"/><path fill-rule="evenodd" clip-rule="evenodd" d="M16.776 11.706a.09.09 0 01.086.09c0 .05-.037.087-.086.087a.087.087 0 01-.086-.087c0-.045.037-.09.086-.09zm.518.012c.04 0 .07.033.07.074 0 .041-.033.074-.07.074-.037 0-.07-.033-.07-.074 0-.041.033-.074.07-.074zm-2.278 0c.04 0 .069.033.069.074 0 .041-.033.074-.07.074-.036 0-.069-.033-.069-.074 0-.041.033-.074.07-.074zm.531-.012c.044 0 .085.04.085.09 0 .05-.037.087-.085.087a.087.087 0 01-.086-.087c0-.045.037-.09.086-.09zm.71.09a.1.1 0 01-.098.103.1.1 0 01-.098-.103.1.1 0 01.098-.103.1.1 0 01.098.103z" fill="#1D1800"/><path d="M30.64 11.524l.04.07v.54h2.724v-.54l.05-.07c.208-.338.42-.808.624-1.398.155-.442.168-.792.033-1.044-.155-.297-.514-.503-1.107-.635l-.053-.012-.045-.033s-.016-.013-.028-.017l-.033.26s-.702-.12-.772-.124l-.833.124-.037-.26s-.016.013-.028.017l-.045.033-.053.012c-.588.132-.952.338-1.103.635-.13.252-.122.602.033 1.044.208.59.42 1.06.625 1.398h.008z" fill="#FCCD00"/><path fill-rule="evenodd" clip-rule="evenodd" d="M32.829 8.299c.074-.017.163.004.204.05l-.343 1.818s-.004-.041-.008-.062l-.037.02s-.024.013-.061.042l.25-1.868h-.005z" fill="#fff"/><path fill-rule="evenodd" clip-rule="evenodd" d="M32.27 11.71a.17.17 0 00-.042-.087h.086a.15.15 0 00-.045.087zm.044.156h-.09a.148.148 0 00.046-.09.15.15 0 00.044.09zm.266-.156a.128.128 0 00-.037-.075l.086.009a.198.198 0 00-.05.066zm.023.168h-.08a.185.185 0 00.044-.07.106.106 0 00.036.07zm.258-.165s-.016-.032-.028-.049l.06.008s-.024.025-.032.041zm.016.182h-.06l.032-.045a.189.189 0 00.028.045zm.246-.137s-.012-.032-.02-.048l.056.012s-.028.024-.036.037zm-.002.166l-.052-.009.036-.036c0 .016.009.032.02.045m.246-.104s-.008-.032-.016-.049l.053.017s-.028.02-.037.032zm-.021.145l-.032-.008.024-.025c0 .012.004.02.008.029" fill="#FCCD00"/><path fill-rule="evenodd" clip-rule="evenodd" d="M30.946 8.967c-.07.095-.081.206-.024.35l-.127-.177.155-.173m-.249.313l-.159.182.13.181c-.056-.148-.056-.264.025-.367m-.273.38l-.148.193.148.174c-.07-.145-.074-.277 0-.363m-.197.321l-.138.19.155.157c-.078-.136-.086-.252-.02-.347m.432-.016l-.139.19.16.156c-.078-.136-.086-.255-.02-.35m.51-.087l-.135.186.151.152c-.078-.132-.082-.247-.02-.338m-.241-.28l-.155.185.15.174c-.069-.149-.069-.269.005-.36zm.249-.314l-.155.186.15.173c-.069-.148-.069-.264.005-.359zm-.462-.668l-.167.17.135.185c-.057-.153-.05-.272.032-.355zm-.27.326l-.17.19.155.19c-.07-.162-.066-.29.016-.384m-.262.387l-.13.207.118.19c-.057-.149-.053-.29.012-.397zm.27.924l-.122.207.167.169c-.086-.145-.106-.24-.045-.376zm.078.566l-.123.214.184.144c-.098-.132-.119-.251-.061-.359zm.87-.677l-.123.17.139.143c-.07-.123-.078-.226-.017-.313zm-.69.375l-.12.198.164.165c-.081-.144-.102-.23-.045-.363zm2.523-1.542l.155.173-.127.177c.058-.144.046-.251-.024-.35m.25.313c.08.1.08.215.024.367l.13-.181-.159-.182m.274.38c.073.09.07.223 0 .363l.147-.173-.147-.194m.196.321c.065.095.06.21-.02.347l.154-.157-.138-.19m-.433-.016c.065.095.057.21-.02.35l.159-.156-.14-.19M33 9.882c.066.091.057.207-.02.339l.15-.153-.134-.186m.241-.28c.074.095.078.21.004.359l.151-.173-.155-.186zm-.249-.314c.074.091.074.21.004.36l.151-.174-.155-.186zm.462-.668c.081.087.093.202.032.355l.135-.186-.167-.169zm.269.326c.082.095.086.223.016.384l.156-.19-.172-.19m.261.388c.066.103.07.247.013.396l.118-.19-.13-.206zm-.27.924c.062.136.042.227-.044.375l.167-.169-.122-.206zm-.077.565c.057.107.037.227-.061.359l.184-.145-.123-.214zm-.87-.677c.058.087.053.19-.016.314l.139-.144-.123-.17zm.69.376c.062.132.037.223-.044.363l.163-.165-.118-.198z" fill="#fff"/><path d="M33.013 10.84a1.06 1.06 0 01-.156.201 1.07 1.07 0 01.225-.024h.04c.136-.062.254-.149.344-.248a.988.988 0 00-.453.066m-.695-.222v.061c0 .128-.016.252-.045.372.053-.07.119-.132.188-.19.102-.198.156-.409.151-.607a1.13 1.13 0 00-.294.364zm.151.705c.151.008.294.016.425.033a.99.99 0 00.355-.215 1.07 1.07 0 00-.784.182m.507-.611c-.29.054-.593.29-.74.582.303-.062.6-.301.74-.582z" fill="#fff"/><path fill-rule="evenodd" clip-rule="evenodd" d="M31.379 8.299l.249 1.868c-.037-.029-.061-.041-.061-.041l-.037-.02c0 .02-.008.04-.008.061l-.343-1.819c.037-.045.13-.062.204-.05" fill="#fff"/><path fill-rule="evenodd" clip-rule="evenodd" d="M31.938 11.71a.22.22 0 00-.044-.087h.085a.144.144 0 00-.04.087zm-.044.156a.148.148 0 00.044-.09.195.195 0 00.045.086h-.09v.004zm-.266-.156a.133.133 0 00-.049-.066l.086-.009s-.029.046-.037.075zm-.024.168s.028-.045.036-.07a.145.145 0 00.044.066h-.08v.004zm-.258-.165s-.02-.028-.032-.04l.06-.009s-.02.033-.028.05zm-.016.182s.02-.029.028-.045c.008.016.02.028.032.04h-.06v.005zm-.246-.137s-.024-.028-.036-.036l.056-.012s-.016.032-.02.048zm.001.166s.016-.029.02-.045a.08.08 0 00.036.036l-.056.009zm-.25-.104s-.024-.024-.036-.032l.052-.017s-.012.033-.016.05zm.021.145s.008-.02.008-.028l.024.024-.032.008v-.004z" fill="#FCCD00"/><path d="M31.126 11.02c.074 0 .151.009.225.026a1.022 1.022 0 01-.155-.203.98.98 0 00-.454-.066c.09.1.209.186.343.248h.041m.629-.173c.069.057.13.123.188.19a1.565 1.565 0 01-.046-.372v-.062a1.248 1.248 0 00-.293-.363c0 .194.049.409.15.607zm-.801.284c.098.091.217.165.356.215.13-.017.277-.025.424-.033a1.074 1.074 0 00-.784-.182m.286-.429c.135.28.437.516.74.582-.148-.289-.45-.528-.74-.582zm.866-.581c-.074.157-.115.35-.115.548 0 .198.041.396.115.557.073-.165.114-.359.114-.557 0-.198-.04-.391-.114-.548z" fill="#fff"/><path fill-rule="evenodd" clip-rule="evenodd" d="M32.183 6.265c-.024.05-.053.112-.044.17.032.218.355-.038.416-.087v.515c-.07-.057-.233-.19-.335-.169-.208.033.033.376.082.437h-.49c.057-.074.18-.243.163-.35-.033-.219-.355.037-.416.086v-.515c.069.058.232.19.334.169.209-.033-.032-.375-.081-.437h.49a1.51 1.51 0 00-.119.181zm-.126 1.002c.204 0 .372.178.372.392a.384.384 0 01-.372.392.384.384 0 01-.372-.392c0-.214.168-.392.372-.392z" fill="#FCCD00"/><path fill-rule="evenodd" clip-rule="evenodd" d="M32.718 11.706a.09.09 0 01.086.09c0 .05-.037.087-.086.087a.087.087 0 01-.085-.087c0-.045.036-.09.085-.09zm.519.012c.041 0 .07.033.07.074 0 .041-.033.074-.07.074-.036 0-.069-.033-.069-.074 0-.041.033-.074.07-.074zm-2.279 0c.04 0 .07.033.07.074 0 .041-.033.074-.07.074-.037 0-.07-.033-.07-.074 0-.041.033-.074.07-.074zm.531-.012a.09.09 0 01.086.09c0 .05-.037.087-.086.087a.087.087 0 01-.086-.087c0-.045.037-.09.086-.09zm.711.09a.1.1 0 01-.098.103.1.1 0 01-.098-.103.1.1 0 01.098-.103.1.1 0 01.098.103z" fill="#1D1800"/><path d="M30.31 11.904c-.887-.297-2.97-1.366-3.704-2.335-.18-.016-.413-.033-.674-.054.796.838 2.785 2.059 4.377 2.389zM22.424 9.52c-.254.02-.486.037-.674.057-.744.97-2.818 2.034-3.7 2.33 1.592-.33 3.577-1.55 4.373-2.383V9.52z" fill="#008FD0"/><path d="M22.657 9.503c-.683.788-2.206 1.803-4.007 2.405 1.887-.334 3.872-1.427 4.693-2.442-.233.012-.466.025-.686.041v-.004zm3.038-.004c-.22-.012-.453-.029-.686-.037.82 1.019 2.805 2.107 4.692 2.442-1.8-.598-3.324-1.617-4.006-2.405z" fill="#008FD0"/><path fill-rule="evenodd" clip-rule="evenodd" d="M16.56 13.104c-.18.074-.49.21-.658.326.082-.145.09-.318-.037-.442.217.03.482.12.694.12m-1.389-.148c-.049.358.086.548.462.63-.073.046-.18.165-.237.227-.184-.152-.44-.59-.412-.841.04-.029.138-.017.188-.017zm4.714 8.042c-.012.805-.458 1.7-1.037 1.964.649-.178.939-.912.939-.912-.033.215-.147.714-.282.978-.678.573-1.683.783-2.026.569.932.033 2.144-1.695 2.406-2.603" fill="#fff"/><path fill-rule="evenodd" clip-rule="evenodd" d="M20.247 16.086c2.058 2.396 1.074 5.238.83 6.372.142-1.216.097-2.85-.58-3.551.09.425.118 2.603-.536 3.984.368-1.159.482-4.19-.526-6.397.535.268 1.033 1.44 1.319 2.058 0-1.163-.503-2.47-.503-2.47l-.004.004zm7.02-2.813c.776.223 1.703.041 1.703.041-.25.157-.572.219-.813.243.898.157 1.985.116 1.985.116-1.352.433-2.708-.083-2.838-.375l.032.012-.073-.037h.004zm4.415-.169c.18.074.49.21.657.326-.082-.145-.09-.318.037-.442-.217.03-.482.12-.694.12m1.388-.148c.049.358-.086.548-.462.63.074.046.18.165.237.227.184-.152.441-.59.413-.841-.041-.029-.14-.017-.188-.017zM16.306 24.665c1.079.433 1.716-.046 1.907-.235-.539.268-1.384.478-2.086-.157-.572 2.479 1.862 1.873 2.074 1.675-.012.004-2.099.507-1.895-1.283zm12.117-3.663c.012.805.457 1.7 1.037 1.964-.65-.178-.94-.912-.94-.912.034.215.148.714.283.978.677.573 1.682.783 2.025.569-.93.033-2.144-1.695-2.405-2.603M32 24.665c-1.078.433-1.715-.046-1.907-.235.539.268 1.384.478 2.087-.157.571 2.479-1.863 1.873-2.075 1.675.012.004 2.1.507 1.895-1.283zm-4.043-8.579c-2.058 2.396-1.074 5.238-.83 6.372-.142-1.216-.097-2.85.58-3.551-.089.425-.118 2.603.536 3.984-.368-1.159-.482-4.19.527-6.397-.535.268-1.034 1.44-1.32 2.058 0-1.163.503-2.47.503-2.47l.004.004zm.298-1.51c-.261.376-.56.854-.878 1.41.972-.589 1.356-1.195 1.821-1.653l-1.127.845.184-.598v-.004zm.306-.635c-.334.672-1.662 1.505-2.85 1.22 0 0 .543.021 1.58-.444 1.038-.467 1.27-.776 1.27-.776z" fill="#fff"/><path fill-rule="evenodd" clip-rule="evenodd" d="M28.28 16.379s-.009.008-.009.012c0-.008.005-.012.009-.02.004-.079-.037-1.147 1.008-2.158-.196.33-.24.743-.35.957.395-.515.898-.763 2.012-1.175 0 0-1.898 1.023-2.65 2.35l-.024.042v-.008h.004z" fill="#fff"/><path d="M31.767 14.436s-1.384 1.39-2.683 2.112c.16-.656 1.217-1.836 1.217-1.836s-.417.702-.453.957c.76-.284 1.923-1.233 1.923-1.233h-.004zm.326-5.296a.107.107 0 00.106-.107.107.107 0 00-.106-.107.107.107 0 00-.106.107c0 .059.048.107.106.107zm0 .528a.086.086 0 00.086-.087.086.086 0 00-.086-.086.086.086 0 00-.085.086c0 .048.038.087.085.087zm-15.938-.516a.107.107 0 00.106-.107.107.107 0 00-.106-.107.107.107 0 00-.106.107c0 .06.047.107.106.107zm0 .528a.086.086 0 00.086-.086.086.086 0 00-.086-.087.086.086 0 00-.086.087c0 .048.039.086.086.086zm7.971-4.978a.16.16 0 00.16-.16.16.16 0 00-.16-.162.16.16 0 00-.16.161.16.16 0 00.16.161zm.001.788c.072 0 .13-.06.13-.132a.131.131 0 00-.13-.132.13.13 0 00-.13.132.13.13 0 00.13.132z" fill="#fff"/><path d="M73.208 20.598v8.084h-1.83V23.98l-2.07 3.432h-.204l-2.07-3.432v4.702h-1.83v-8.084h1.83l2.172 3.593 2.173-3.593h1.83zm6.06 8.084v-4.388l-3.087 4.388h-1.372v-8.084h1.83v4.389l3.086-4.389h1.373v8.084h-1.83zm7.776-8.084h1.83v8.084h-1.83v-3.209H84.53v3.21H82.7v-8.085h1.83v3.093h2.515v-3.093zm7.89 8.084v-4.388l-3.087 4.388h-1.372v-8.084h1.83v4.389l3.086-4.389h1.372v8.084h-1.829zm7.248.161c-1.197 0-2.19-.404-2.977-1.208-.788-.805-1.184-1.803-1.184-2.999 0-1.196.396-2.194 1.184-2.998.788-.805 1.78-1.209 2.977-1.209.714 0 1.38.17 1.989.503a3.79 3.79 0 011.441 1.37l-1.576.923a1.813 1.813 0 00-.756-.734 2.31 2.31 0 00-1.098-.26c-.711 0-1.274.219-1.699.66-.425.442-.633 1.02-.633 1.745 0 .726.212 1.303.633 1.745.425.437.988.66 1.699.66.404 0 .772-.087 1.102-.264.331-.178.58-.421.748-.726l1.576.924a3.703 3.703 0 01-1.429 1.369 4.1 4.1 0 01-2.001.503l.004-.004zm9.891-8.245v1.778h-2.058v6.306h-1.83v-6.306h-2.058v-1.778h5.946zm2.859 6.306h3.202v1.778h-5.031v-8.084h4.974v1.778h-3.145v1.34h2.859v1.757h-2.859v1.431zm7.489-6.306c.784 0 1.449.268 1.989.808a2.66 2.66 0 01.812 1.964 2.66 2.66 0 01-.812 1.963c-.544.54-1.205.808-1.989.808h-1.201v2.541h-1.829v-8.084h3.03zm0 3.811a.9.9 0 00.698-.301 1.05 1.05 0 00.274-.738c0-.293-.09-.54-.274-.739a.9.9 0 00-.698-.3h-1.201v2.078h1.201zm7.706 4.434c-1.196 0-2.189-.404-2.977-1.208-.788-.805-1.184-1.803-1.184-2.999 0-1.196.396-2.194 1.184-2.998.788-.805 1.781-1.209 2.977-1.209.715 0 1.38.17 1.989.503a3.79 3.79 0 011.441 1.37l-1.576.923a1.81 1.81 0 00-.755-.734 2.316 2.316 0 00-1.099-.26c-.71 0-1.274.219-1.699.66-.424.442-.633 1.02-.633 1.745 0 .726.213 1.303.633 1.745.425.437.989.66 1.699.66.404 0 .772-.087 1.103-.264.331-.178.58-.421.747-.726l1.576.924a3.697 3.697 0 01-1.429 1.369 4.096 4.096 0 01-2.001.503l.004-.004zm9.891-8.245v1.778h-2.058v6.306h-1.83v-6.306h-2.058v-1.778h5.946zm5.991 3.89c.657.424.984 1.03.984 1.823 0 .7-.249 1.27-.743 1.707-.495.437-1.111.66-1.842.66h-3.361v-8.084h3.132c.715 0 1.315.214 1.801.64.486.424.727.98.727 1.67 0 .647-.233 1.175-.698 1.584zm-1.83-2.162h-1.303v1.431h1.303a.657.657 0 00.502-.202.709.709 0 00.196-.515.71.71 0 00-.196-.516.663.663 0 00-.502-.202v.004zm.229 4.62c.228 0 .412-.07.547-.215a.787.787 0 00.204-.56.787.787 0 00-.204-.562.72.72 0 00-.547-.214h-1.532v1.547h1.532v.004zm10.499.684c-.809.809-1.793 1.213-2.949 1.213s-2.144-.404-2.948-1.213c-.805-.808-1.213-1.806-1.213-2.99 0-1.184.404-2.182 1.213-2.99.808-.809 1.792-1.213 2.948-1.213s2.144.404 2.949 1.213c.808.808 1.212 1.806 1.212 2.99 0 1.184-.404 2.182-1.212 2.99zm-4.615-1.258c.445.446 1.001.669 1.662.669.662 0 1.217-.223 1.662-.669.445-.445.67-1.023.67-1.732 0-.71-.225-1.287-.67-1.732-.445-.446-1-.668-1.662-.668-.661 0-1.217.222-1.662.668-.445.445-.67 1.023-.67 1.732 0 .71.225 1.287.67 1.732zm13.991 2.471c-1.196 0-2.188-.404-2.977-1.208-.788-.805-1.184-1.803-1.184-2.999 0-1.196.396-2.194 1.184-2.998.789-.805 1.781-1.209 2.977-1.209.715 0 1.381.17 1.989.503.609.334 1.09.792 1.442 1.37l-1.577.923a1.805 1.805 0 00-.755-.734 2.313 2.313 0 00-1.099-.26c-.71 0-1.274.219-1.698.66-.425.442-.633 1.02-.633 1.745 0 .726.212 1.303.633 1.745.424.437.988.66 1.698.66.405 0 .772-.087 1.103-.264.331-.178.58-.421.747-.726l1.577.924a3.7 3.7 0 01-1.43 1.369 4.096 4.096 0 01-2.001.503l.004-.004zm10.577-8.245v8.084h-1.829v-6.306h-2.402v6.306H168.8v-8.084h6.06zm8.368 7.032c-.809.809-1.793 1.213-2.949 1.213-1.155 0-2.143-.404-2.948-1.213-.804-.808-1.213-1.806-1.213-2.99 0-1.184.404-2.182 1.213-2.99.809-.809 1.793-1.213 2.948-1.213 1.156 0 2.144.404 2.949 1.213.808.808 1.213 1.806 1.213 2.99 0 1.184-.405 2.182-1.213 2.99zm-4.615-1.258c.445.446 1.001.669 1.662.669.662 0 1.217-.223 1.662-.669.446-.445.67-1.023.67-1.732 0-.71-.224-1.287-.67-1.732-.445-.446-1-.668-1.662-.668-.661 0-1.217.222-1.662.668-.445.445-.669 1.023-.669 1.732 0 .71.224 1.287.669 1.732zm10.115-5.774c.784 0 1.45.268 1.989.808.543.54.813 1.192.813 1.964a2.66 2.66 0 01-.813 1.963c-.543.54-1.205.808-1.989.808h-1.2v2.541h-1.83v-8.084h3.03zm0 3.811a.903.903 0 00.699-.301c.183-.202.273-.445.273-.738s-.09-.54-.273-.739a.903.903 0 00-.699-.3h-1.2v2.078h1.2zm9.205-3.811v1.778h-2.058v6.306h-1.829v-6.306h-2.059v-1.778h5.946zm5.545 8.084l-.4-1.27h-2.973l-.4 1.27h-2.001l2.72-8.084h2.332l2.719 8.084h-2.001.004zm-2.825-3.002h1.874l-.939-2.97-.94 2.97h.005zM68.234 34.456c.784 0 1.45.269 1.989.809a2.66 2.66 0 01.813 1.963 2.66 2.66 0 01-.813 1.963c-.543.54-1.205.809-1.989.809h-1.2v2.54h-1.83v-8.084h3.03zm0 3.812a.9.9 0 00.699-.301c.183-.203.273-.446.273-.739s-.09-.54-.273-.738a.9.9 0 00-.699-.301h-1.2v2.079h1.2zm10.659 3.221c-.809.808-1.793 1.213-2.948 1.213-1.156 0-2.144-.405-2.949-1.213-.804-.808-1.213-1.806-1.213-2.99 0-1.184.404-2.182 1.213-2.99.809-.809 1.793-1.213 2.949-1.213 1.155 0 2.144.404 2.948 1.212.808.809 1.213 1.807 1.213 2.99 0 1.184-.404 2.183-1.213 2.991zm-4.615-1.258c.445.445 1 .668 1.662.668.662 0 1.217-.223 1.663-.668.445-.445.67-1.023.67-1.732 0-.71-.225-1.287-.67-1.733-.446-.445-1.001-.668-1.663-.668-.661 0-1.216.223-1.662.668-.445.446-.67 1.023-.67 1.733 0 .71.225 1.287.67 1.732zm10.904 2.471c-1.197 0-2.19-.4-2.977-1.209-.788-.804-1.184-1.802-1.184-2.998 0-1.197.396-2.195 1.184-2.999.788-.804 1.78-1.209 2.977-1.209.715 0 1.38.17 1.989.504.608.334 1.09.792 1.441 1.369l-1.576.924a1.81 1.81 0 00-.756-.734 2.311 2.311 0 00-1.098-.26c-.71 0-1.274.218-1.699.66-.425.437-.633 1.019-.633 1.745 0 .726.212 1.303.633 1.744.425.437.988.66 1.699.66.404 0 .772-.087 1.102-.264.331-.177.58-.42.748-.726l1.576.924a3.703 3.703 0 01-1.43 1.37 4.098 4.098 0 01-2 .503l.004-.004zm8.221 0c-1.197 0-2.19-.4-2.978-1.209-.788-.804-1.184-1.802-1.184-2.998 0-1.197.396-2.195 1.184-2.999.789-.804 1.781-1.209 2.978-1.209.714 0 1.38.17 1.988.504.609.334 1.09.792 1.442 1.369l-1.576.924a1.81 1.81 0 00-.756-.734 2.311 2.311 0 00-1.099-.26c-.71 0-1.274.218-1.698.66-.425.437-.633 1.019-.633 1.745 0 .726.212 1.303.633 1.744.424.437.988.66 1.699.66.404 0 .771-.087 1.102-.264.33-.177.58-.42.747-.726l1.577.924a3.703 3.703 0 01-1.43 1.37 4.098 4.098 0 01-2 .503l.004-.004zm8.974-.162v-4.388l-3.087 4.389h-1.372v-8.084h1.83v4.388l3.087-4.389h1.372v8.085h-1.83zm7.891 0v-4.388l-3.087 4.389h-1.372v-8.084h1.829v4.388l3.087-4.388h1.373v8.084h-1.83zm-3.03-8.764v-1.501h3.43v1.501h-3.43zm10.279 8.926c-1.197 0-2.189-.4-2.977-1.209-.788-.804-1.185-1.802-1.185-2.998 0-1.197.397-2.195 1.185-2.999.788-.804 1.78-1.209 2.977-1.209.714 0 1.38.17 1.989.504.608.334 1.09.792 1.441 1.369l-1.576.924a1.812 1.812 0 00-.756-.734 2.308 2.308 0 00-1.098-.26c-.711 0-1.274.218-1.699.66-.425.437-.633 1.019-.633 1.745 0 .726.212 1.303.633 1.744.425.437.988.66 1.699.66.404 0 .772-.087 1.102-.264.331-.177.58-.42.748-.726l1.576.924a3.704 3.704 0 01-1.429 1.37 4.1 4.1 0 01-2.001.503l.004-.004zm10.989-.162h-2.083l-2.56-3.74v3.74h-1.83v-8.084h1.83v3.51l2.446-3.51h2.083l-2.7 3.94 2.814 4.145z" fill="#1D1D1B"/><path d="M135.501 41.489c-.808.808-1.792 1.213-2.948 1.213s-2.144-.405-2.949-1.213c-.804-.808-1.212-1.806-1.212-2.99 0-1.184.404-2.182 1.212-2.99.809-.809 1.793-1.213 2.949-1.213s2.144.404 2.948 1.212c.809.809 1.213 1.807 1.213 2.99 0 1.184-.404 2.183-1.213 2.991zm-4.614-1.258c.445.445 1 .668 1.662.668.661 0 1.217-.223 1.662-.668.445-.445.67-1.023.67-1.732 0-.71-.225-1.287-.67-1.733-.445-.445-1.001-.668-1.662-.668-.662 0-1.217.223-1.662.668-.445.446-.67 1.023-.67 1.733 0 .71.225 1.287.67 1.732zm11.544 2.309v-4.388l-3.087 4.389h-1.372v-8.084h1.829v4.388l3.087-4.388h1.373v8.084h-1.83zm-3.03-8.764v-1.501h3.43v1.501h-3.43zm17.082 2.474c.649.59.972 1.337.972 2.249 0 .911-.323 1.658-.972 2.248-.649.59-1.519.948-2.618 1.08v.949h-1.784v-.949c-1.099-.132-1.973-.49-2.618-1.08-.649-.59-.972-1.337-.972-2.248 0-.912.323-1.658.972-2.248.649-.59 1.519-.949 2.618-1.08v-.95h1.784v.95c1.099.131 1.973.49 2.618 1.08zm-6.162 2.249c0 .924.588 1.468 1.76 1.629V36.87c-1.172.16-1.76.705-1.76 1.629zm3.544 1.629c1.176-.161 1.76-.705 1.76-1.63 0-.923-.588-1.468-1.76-1.628v3.258zm6.563.635h3.202v1.778h-5.031v-8.084h4.974v1.777h-3.145v1.34h2.859v1.758h-2.859v1.431zm10.749 0h.857v3.324h-1.829v-1.546h-4.002v1.546h-1.83v-3.324h.813c.42-.606.629-1.501.629-2.681v-3.626h5.362v6.307zm-4.047 0h2.217v-4.574h-1.703v1.918c0 1.146-.171 2.033-.514 2.656zm7.934 0h3.202v1.778h-5.032v-8.084h4.974v1.777h-3.144v1.34h2.858v1.758h-2.858v1.431zm7.49-6.307c.784 0 1.449.269 1.988.809a2.66 2.66 0 01.813 1.963 2.66 2.66 0 01-.813 1.963c-.543.54-1.204.809-1.988.809h-1.201v2.54h-1.83v-8.084h3.031zm0 3.812a.902.902 0 00.698-.301 1.05 1.05 0 00.273-.739c0-.293-.089-.54-.273-.738a.902.902 0 00-.698-.301h-1.201v2.079h1.201zm8.232 4.272l-.4-1.27h-2.973l-.4 1.27h-2.001l2.719-8.084h2.332l2.72 8.085h-2.001.004zm-2.826-3.002h1.875l-.94-2.97-.939 2.97h.004zm11.802 1.225h.858v3.324h-1.83v-1.546h-5.088v-8.084h1.83v6.306h2.401v-6.306h1.829v6.306zm6.518 1.777v-4.388l-3.088 4.389h-1.372v-8.084h1.83v4.388l3.087-4.389h1.372v8.085h-1.829zm7.89 0v-4.388l-3.087 4.389h-1.372v-8.084h1.829v4.388l3.088-4.389H216v8.085h-1.83z" fill="#1D1D1B"/></g><defs><clipPath id="clip0_69_3247"><path fill="#fff" d="M0 0h216v60H0z"/></clipPath></defs></svg>