<svg width="216" height="61" fill="none" xmlns="http://www.w3.org/2000/svg"><g clip-path="url(#clip0_69_1610)"><path fill-rule="evenodd" clip-rule="evenodd" d="M16.931 26.966c-1.27-.144-1.658-1.732-.862-2.652.335.619 1.062.9 1.801.594.466-.194.821-.45 1.017-.672-1.025.35-2.136.594-2.017-.475.829.726 1.895-.841 2.058-1.027.539-.614.682-1.315.47-2.375-.188-.924-1.12-2.393-1.76-2.888-.07.108-.217.29-.515.236-.196-.038-.502-.215-.707-.277a2.017 2.017 0 00-1.625.202c-.719.446-.653.92-.645 1.3-1.099-.64-.698-1.654.715-2.054-.98.012-1.773.89-1.969 1.027-.535.375-1.31.292-1.764.078-.862-.408-1.062-1.423-.825-1.662.09.367.38.693.862.75.751.091 1.47-.23 2.038-.474.465-.202 1.245-.346 1.784-.313-.968-.557-2.503-.495-3.038.35-.319-.268-.531-.511-.629-1.068-.253-1.456.854-2.215 2.079-2.215-.013-.35.232-.528.547-.437 0-.136.04-.252.122-.31a.5.5 0 01-.081-.008c-1.221-.099-2.402-.495-3.018-1.146-1.103-1.172.64-2.681.02-3.861-.584.293-1.033.61-1.878.742-.074.165-.143.528-.18.702-.27 1.336 1.03 1.542.706 2.97-.142.634-.628.832-.784 1.583-.012 0-.073.561.392 1.006-1.061.013-1.613-.87-1.274-1.724.131-.334.503-.672.49-1.064-.535.747-1.008.69-1.841.433-.376-.115-.413.417-.192.83-.56-.318-.715-.887-.71-1.147.007-.59.448-.854.885-.755.253.058.76.38.8-.115.066-.838-1.22-.792-.95-2.15.138-.709.885-1.051 2.033-1.216.139-.107.412-.388.563-.627.678-1.093 1.332-1.365 1.724-1.147.465.26.694.466 1.098.673.294.152.633.23.821.474.498.64.04 1.625-.24 2.227-.168.36-.589 1.184-.413 1.765.216.722 1.396 1.172 2.115 1.337l.127.025v-.28c-.217-.384-.4-.83-.548-1.23-.473-1.287.237-1.835 1.32-2.07.122-.087.273-.112.457-.054l.024.008.025.19.143-.02-.017-.26h.033a.55.55 0 01-.167-.397.58.58 0 01.126-.358h-.167l.061-.07c.041-.05.11-.124.172-.203a.892.892 0 00.081-.12c-.036.021-.073.05-.118.083a3.976 3.976 0 00-.2.174l-.07.061V6.657l.07.062c.045.041.122.111.2.173a.82.82 0 00.118.082.892.892 0 00-.081-.12c-.062-.077-.131-.152-.172-.201l-.061-.07h1.196l-.06.07c-.042.05-.111.124-.172.202a.9.9 0 00-.082.12.895.895 0 00.118-.083 3.62 3.62 0 00.2-.173l.07-.062v1.208l-.07-.061c-.049-.042-.122-.112-.2-.174a.896.896 0 00-.118-.082.9.9 0 00.082.12c.06.078.13.152.171.202l.061.07h-.167a.58.58 0 01.127.358.55.55 0 01-.168.4h.025l-.017.256.143.02.029-.189.024-.008c.184-.058.335-.033.458.054 1.078.235 1.788.783 1.319 2.07-.147.4-.331.85-.552 1.23v.18c1.066-.346 3.022-1.538 3.533-2.268.057-.074.102-.128.139-.169l-.009-.8c-.4-.623-.739-1.423-.992-2.124-.686-1.865.327-2.652 1.928-2.999.171-.124.371-.16.637-.078l.04.305.331-.045-.02-.372c.07.009.139.017.2.021a.772.772 0 01-.4-.68c0-.231.102-.446.273-.594h-.257c.127-.145.413-.454.454-.64-.213.046-.474.314-.633.458V.812c.142.128.449.417.633.458-.045-.214-.31-.478-.454-.64h1.503c-.127.145-.412.455-.453.64.212-.045.473-.313.633-.458V2.33c-.143-.128-.45-.416-.633-.458.049.215.31.479.453.64h-.257a.779.779 0 01-.127 1.274c.061-.004.123-.012.188-.02l-.02.37.33.046.041-.305c.266-.083.466-.041.637.078 1.597.343 2.614 1.13 1.928 2.999-.258.697-.597 1.501-.993 2.124l-.008.788c.037.037.086.095.151.181.51.726 2.467 1.922 3.537 2.269v-.182a8.86 8.86 0 01-.551-1.229c-.474-1.287.236-1.835 1.319-2.07a.498.498 0 01.457-.054l.024.008.025.19.143-.02-.012-.26h.024a.557.557 0 01-.04-.755h-.168l.061-.07c.041-.05.11-.124.172-.202a.892.892 0 00.081-.12.887.887 0 00-.118.082c-.078.062-.151.132-.2.174l-.07.062V6.66l.07.062c.049.041.122.111.2.173.04.033.082.062.118.083a.892.892 0 00-.081-.12c-.062-.078-.131-.153-.172-.202l-.061-.07h1.196l-.06.07a3.35 3.35 0 00-.172.202.912.912 0 00-.082.12.888.888 0 00.118-.083 3.97 3.97 0 00.2-.173l.07-.062v1.21l-.07-.062c-.049-.042-.122-.112-.2-.174a.888.888 0 00-.118-.082c.02.037.049.078.082.12.06.078.13.152.171.202l.061.07h-.167a.58.58 0 01.127.359.544.544 0 01-.168.4h.033l-.013.255.143.021.025-.19.024-.008c.184-.058.335-.033.458.054 1.082.235 1.793.783 1.319 2.07-.147.4-.33.846-.547 1.23v.28c.049-.008.09-.017.126-.025.719-.16 1.9-.615 2.12-1.336.175-.582-.245-1.407-.413-1.766-.281-.602-.739-1.588-.24-2.227.191-.247.53-.322.824-.474.4-.206.63-.413 1.099-.673.392-.218 1.05.054 1.723 1.147.147.24.42.524.564.627 1.147.165 1.895.507 2.033 1.217.27 1.36-1.016 1.316-.951 2.149.037.495.547.173.796.115.437-.099.878.165.886.755 0 .26-.147.829-.71 1.147.22-.413.188-.945-.192-.83-.83.252-1.307.31-1.842-.432-.012.391.355.73.49 1.064.34.853-.212 1.736-1.274 1.724.465-.45.408-1.007.392-1.007-.155-.75-.641-.948-.784-1.584-.323-1.422.972-1.633.706-2.97-.032-.172-.102-.535-.18-.7-.845-.132-1.294-.45-1.878-.743-.62 1.176 1.123 2.685.02 3.86-.616.657-1.796 1.048-3.017 1.147-.025 0-.053.005-.082.009.082.062.127.173.123.309.314-.09.563.087.547.437 1.225 0 2.332.76 2.078 2.215-.093.557-.31.8-.624 1.068-.535-.845-2.07-.907-3.039-.35.54-.037 1.324.111 1.785.313.568.244 1.286.565 2.038.475a.976.976 0 00.861-.751c.237.235.041 1.25-.82 1.662-.45.215-1.226.297-1.765-.078-.196-.136-.988-1.015-1.968-1.027 1.413.4 1.81 1.418.715 2.054.008-.38.073-.854-.645-1.3a2.02 2.02 0 00-1.626-.202c-.2.062-.51.24-.706.277-.298.058-.445-.128-.515-.235-.637.495-1.572 1.959-1.756 2.887-.212 1.06-.07 1.757.47 2.376.163.185 1.245 1.88 2.074 1.154.119 1.073-1.008.702-2.033.351.196.223.555.479 1.02.672.74.305 1.467.025 1.801-.594.797.92.576 2.504-.694 2.652.008.017-.15.03-.147.042-.139.697.094 1.204.703 1.53l-7.49.858-8.319-.623c.83-.693.83-1.32.748-1.806m6.174-16.458c-.751.76-2.417 1.712-4.059 2.05.952 0 2.622-.078 2.818-.317-.033.606-1.32 1.303-2.16 1.48.69.07 1.335 0 1.87-.26-.294.425-.629.772-1.188.953.588.726 1.776 1.188 2.968 1.073-.285.371-.812.585-1.302.524.968 1.534 1.846 3.225 2.046 5.555.2-2.326 1.078-4.021 2.046-5.555-.49.061-1.017-.153-1.303-.524 1.192.12 2.377-.347 2.969-1.073-.56-.181-.895-.527-1.189-.952.535.255 1.18.33 1.87.26-.84-.178-2.127-.875-2.16-1.481.2.239 1.87.317 2.818.317-1.641-.342-3.312-1.295-4.063-2.054-.31.017-.65.03-1.005.03-.355 0-.678-.009-.984-.03" fill="#fff"/><path d="M27.283 5.238c-.237-.433-.784-.734-1.682-.928l-.082-.016-.07-.05s-.028-.016-.04-.025l-.053.38s-1.115-.173-1.221-.178l-.115.021-1.106.157-.054-.38-.04.025-.07.05-.081.016c-.895.194-1.446.495-1.679.928-.2.367-.184.883.053 1.522.315.862.637 1.547.956 2.042l.065.099.008 1.051c.286-.094.956-.264 2.075-.264.841 0 1.568.095 2.058.178l.008-.965.066-.1c.314-.494.637-1.179.951-2.041.237-.643.253-1.155.053-1.522z" fill="#FCCD00"/><path fill-rule="evenodd" clip-rule="evenodd" d="M23.98 60.63c-.662-.333-1.332-.98-1.59-1.608-.35.215-.82.409-1.302.421-1.041.025-2.074-.718-2.356-1.596-1.531-.244-1.846-1.996-1.678-3.102l-.058.008c-.143.792-.359 1.106-1.261.95.338-1.082-.548-1.09-.756-1.931-.265-1.06.265-1.81.968-2.182-.51-.318-.756-.936-.462-1.761.217-.61.98-1.036 1.556-.924-.555.536-.233 1.241.38 1.216.756-.028.53-.796 1.52-1.36 1.098-.623 1.167 1.286 2.258.486-.748-.066-1.103-.746-1.295-1.147.029-.136.568.351 1.225-.099 1.311-.886-.135-2.64-1.152-2.9.609-1.979.503-2.197-.253-3.781h8.523c-.756 1.584-.866 1.802-.257 3.782" fill="#fff"/><path fill-rule="evenodd" clip-rule="evenodd" d="M27.982 45.102c-1.017.26-2.463 2.013-1.152 2.9.657.45 1.107.11 1.188.144-.196.4-.506 1.031-1.258 1.097 1.09.804 1.16-1.11 2.259-.487.992.565.768 1.328 1.519 1.361.608.025.935-.684.38-1.216.576-.108 1.34.313 1.556.924.294.825.049 1.443-.462 1.76.703.376 1.233 1.123.968 2.183-.208.841-1.098.85-.76 1.93-.902.157-1.118-.153-1.261-.949l-.058-.008c.168 1.105-.147 2.858-1.678 3.102-.282.878-1.315 1.62-2.356 1.596-.486-.012-.952-.206-1.303-.42-.257.622-.923 1.27-1.584 1.608M22.027 46.26c.968 1.172.568 2.628-.294 2.678-.665-.004-.755-.256-1.016-.495 1.527.355 1.662-1.279 1.306-2.182" fill="#fff"/><path d="M15.775 54.39s-.792-1.377-.016-2.28c.776-.904 2.421-.85 2.421-.85l-1.02.338c-2.087 1.126-1.389 2.788-1.389 2.788l.004.005z" fill="#fff"/><path fill-rule="evenodd" clip-rule="evenodd" d="M16.135 49.383s-.45.685-.335 1.283c.106.557.71 1.052 2.377.606-1.993.1-2.136-1.163-2.038-1.889h-.004z" fill="#fff"/><path d="M19.986 49.651s-.343-.726-.936-.383c-.592.342-.865 1.307-1.441 1.435 0 0 .719-.107 1.115-.565.396-.458.65-.565 1.258-.49l.004.003z" fill="#fff"/><path fill-rule="evenodd" clip-rule="evenodd" d="M26.058 46.26c-.968 1.172-.567 2.628.294 2.678.666-.004.756-.256 1.017-.495-1.527.355-1.662-1.279-1.307-2.182" fill="#fff"/><path d="M30.738 51.602l-1.021-.338s1.646-.058 2.422.85c.776.907-.017 2.28-.017 2.28s.699-1.662-1.388-2.788l.004-.004z" fill="#fff"/><path fill-rule="evenodd" clip-rule="evenodd" d="M31.771 49.383s.45.685.335 1.283c-.106.557-.71 1.052-2.377.606 1.993.1 2.136-1.163 2.038-1.889h.004z" fill="#fff"/><path d="M27.92 49.651s.343-.726.935-.383c.593.342.866 1.307 1.442 1.435 0 0-.719-.107-1.115-.565-.396-.458-.65-.565-1.258-.49l-.004.003z" fill="#fff"/><path fill-rule="evenodd" clip-rule="evenodd" d="M29.178 57.113s-1.74 2.883-4.978.7c3.561 1.073 3.85-1.344 3.85-1.344l1.128.644z" fill="#fff"/><path fill-rule="evenodd" clip-rule="evenodd" d="M30.138 54.436s.612 3.213-1.548 2.8c-1.997-.383-2.483.145-2.483.145s.956-1.238 1.923-1.217c.968.02 1.87.017 2.108-1.728zM24.2 57.818s1.572-1.753 1.572-3.902c.241 2.446-.935 4.096-.935 4.096l-.637-.194zm3.206-7.308s1.547 2.47-.54 3.27c1.19 1.307 2.124.293 2.124.293s-.829.074-1.225-.219c1.009-.363 1.115-2.145-.36-3.345zm-4.46 8.471s.253.747 1.025.747c.772 0 1.152-.673 1.152-.673s-.441.384-1.225.384c-.556 0-.956-.454-.956-.454l.004-.004z" fill="#fff"/><path fill-rule="evenodd" clip-rule="evenodd" d="M28.962 54.073l.686 1.963-.433.219-.645-2.075.392-.107zm-4.758-18.845l6.354-2.776h.025c.588 1.312 2.483 1.353 3.34-.215.543-.99-.09-1.728-.408-2.111-.809-.97-.788-1.93-.225-2.978.748-1.382 3.05-3.646 3.933-5.317.167.268.233.565.273.668.825-.771 1.765-2.42 2.083-3.67.168.053.286.251.404.395 1.316-2.02 3.655-6.92 4.313-8.834 1.4.85 1.36 3.328.947 4.76-.38 1.32-1.017 2.701-2.356 4.644.42-.372 3.05-3.745 3.618-4.158.984 1.745.319 4.776-1.543 6.076.6-.31 1.964-.953 2.711-.73.147 1.93-1.107 3.25-1.903 3.98.752-.219 1.613-.367 2.467-.062-.074 1.32-1.164 2.813-2.732 3.473.984-.083 1.988.037 2.617.528-.143 1.36-1.351 2.557-2.875 2.833 1.013.136 1.92.701 2.365 1.452-.535.883-1.352 1.588-2.585 1.555.592.248 1.298.99 1.58 1.91-.71.705-1.592 1.155-3.626.251 2.328 1.221 1.878 1.811 2.234 3.06-.425.207-.805.751-1.895.413-.633-.198-1.674-1.431-2.569-2.165.294.383 1.605 1.575 2.181 2.268.645.772.188 1.56.188 2.256-.47.013-1.295.475-1.846-.14-.196-.218-2.597-3.972-2.928-4.314.11.317 1.638 2.73 2.328 4.112.518 1.04-.209 1.708-.31 2.335-.54-.219-1.279.156-1.687-.664-.392-.788-1.548-3.63-1.977-4.41.168.594 1.389 3.853 1.47 4.146.294 1.068-.44 1.262-.747 1.988-.457-.367-1.258-.066-1.564-1.11-.212-.726-.694-3.176-.96-3.807.033.701.204 1.67.327 2.78.118 1.052-.694 1.048-1.148 1.633-.392-.433-1.127-.317-1.253-1.303-.11-.841-.13-2.928-.13-2.928-.123.107-.189.14-.299.28-.294-.383-.866-.383-1.074-.9-.07.046-.119.116-.196.166-1.801 1.773-4.276 3.023-6.926 3.213v-8.583h.004zm-.257 13.677l.028-.054v-.916a.504.504 0 01-.028.07c-.127-.263-.07-.536-.102-.75-.082-.561-.621-.99-.854-1.39-.42-.718-.776-1.444-.955-2.355.024 2.165.939 3.584 1.907 5.399" fill="#fff"/><path fill-rule="evenodd" clip-rule="evenodd" d="M26.76 45.593c.278-.35.609-.549.972-.631l-.465-2.747c-.078 1.122-.196 2.243-.506 3.378z" fill="#fff"/><path d="M26.736 45.638l.012-.05c.314-1.167.429-2.313.502-3.377v-.087l.49 2.842h-.008c-.388.09-.702.297-.963.627l-.03.041-.003.004zm.53-3.337c-.073 1.027-.187 2.129-.485 3.25a1.71 1.71 0 01.935-.593l-.45-2.657z" fill="#fff"/><path fill-rule="evenodd" clip-rule="evenodd" d="M21.223 45.593a1.696 1.696 0 00-.972-.631l.465-2.747c.078 1.122.197 2.243.503 3.378" fill="#fff"/><path d="M21.247 45.638l-.032-.041a1.685 1.685 0 00-.964-.627h-.008v-.012l.482-2.834v.087c.081 1.064.192 2.21.51 3.378l.012.05zm-.98-.685c.372.091.678.285.936.594-.299-1.121-.413-2.223-.486-3.25l-.45 2.656z" fill="#fff"/><path fill-rule="evenodd" clip-rule="evenodd" d="M23.975 46.793c-.298-.627-.963-.887-1.327-2.05.155-.916 1.172-.412 1.327-1.328.156.916 1.172.413 1.328 1.328-.364 1.163-1.03 1.423-1.328 2.05z" fill="#fff"/><path d="M23.975 46.814l-.008-.021c-.114-.24-.286-.429-.465-.631-.299-.33-.637-.701-.862-1.423.078-.47.38-.573.67-.676.298-.104.58-.203.657-.656l.008-.062.008.062c.078.453.36.552.658.656.29.103.592.21.67.672-.225.722-.564 1.093-.862 1.423-.18.202-.355.392-.466.63l-.008.022v.004zm-1.315-2.075c.22.714.56 1.085.854 1.41.18.194.347.38.461.615.115-.235.282-.42.462-.614.298-.326.633-.697.853-1.411-.077-.45-.36-.549-.657-.656-.278-.099-.568-.202-.662-.623-.09.421-.38.524-.661.623-.298.103-.58.202-.658.656" fill="#fff"/><path fill-rule="evenodd" clip-rule="evenodd" d="M23.975 45.316c-.298-.354-.963-.499-1.327-1.155.155-.515 1.172-.23 1.327-.75.156.515 1.172.23 1.328.75-.364.656-1.03.805-1.328 1.155z" fill="#fff"/><path d="M23.975 45.333l-.008-.008c-.114-.136-.286-.244-.465-.355-.299-.186-.637-.396-.862-.804v-.009c.078-.263.38-.321.67-.383.286-.058.58-.116.653-.367l.008-.033.008.033c.078.251.372.31.658.367.29.058.592.12.67.383v.009c-.225.408-.564.618-.862.804-.184.111-.355.219-.466.355l-.008.008h.004zm-1.315-1.176c.22.4.556.61.854.792.18.112.347.215.465.35.115-.131.286-.238.466-.35.294-.185.629-.392.853-.792-.077-.247-.371-.305-.653-.362-.282-.058-.568-.116-.662-.355-.093.239-.38.297-.661.355-.286.057-.576.115-.653.362" fill="#fff"/><path fill-rule="evenodd" clip-rule="evenodd" d="M18.205 26.917l.519-.256.543.676-1.062-.42zm10.055-3.143c.118.33.301.672.722.957-.314-.355-.396-.578-.723-.957z" fill="#fff"/><path fill-rule="evenodd" clip-rule="evenodd" d="M14.252 17.484c.609-.413 1.217-.52 2.21-.293-.736-.05-2.104-.177-2.471 1.192-.184-.305-.074-.668.261-.895" fill="#FCCD00"/><path fill-rule="evenodd" clip-rule="evenodd" d="M14.342 16.556c.27-.029.796-.128 1.205.062-2.153.07-2.197 1.04-3.088 1.282-.629.174-1.507-.066-1.821-.775.49.285 1 .31 1.588.153.703-.19 1.291-.636 2.116-.726" fill="#E11E1B"/><path fill-rule="evenodd" clip-rule="evenodd" d="M11.72 14.617c.188-.474.944-1.043 1.81-.998 1.135 1.638 2.262 2.698 3.952 3.729-.106.202-.657-.231-1.02-.475-.727-.49-1.744-1.122-2.745-1.188-.715-.045-1.34.215-1.731.603-.356-.334-.466-1.176-.266-1.67z" fill="#FCCD00"/><path fill-rule="evenodd" clip-rule="evenodd" d="M12.892 15.055c.229-.062.05.197.078.239.188-.062.163.033.155.12-.24.004-.416.049-.625.119.066-.16.13-.404.392-.474M8.674 13.24c-.14.227-.164.33-.14.577-.244-.202-.056-.503.14-.577z" fill="#fff"/><path fill-rule="evenodd" clip-rule="evenodd" d="M26.446 9.416v.12c-.02-.008-.045-.017-.07-.029a.224.224 0 00.07-.09z" fill="#FCCD00"/><path d="M26.47 9.573l-.037-.017-.065-.024-.049-.017.041-.029a.166.166 0 00.061-.078l.05-.136v.301z" fill="#fff"/><path fill-rule="evenodd" clip-rule="evenodd" d="M25.278 4.079c.11-.02.253.008.31.07l-.522 2.652c0-.029-.008-.062-.012-.09l-.058.028s-.036.021-.09.062l.376-2.726-.004.004z" fill="#fff"/><path fill-rule="evenodd" clip-rule="evenodd" d="M24.429 9.05a.25.25 0 00-.062-.129h.135a.262.262 0 00-.07.128m.062.231h-.139a.3.3 0 00.07-.128.22.22 0 00.069.128zm.404-.227a.24.24 0 00-.053-.107l.127.008a.225.225 0 00-.074.1zm.041.244h-.122a.416.416 0 00.069-.104.225.225 0 00.053.104zm.388-.235a.243.243 0 00-.04-.07l.089.012s-.037.037-.05.058zm.024.263l-.093-.008s.036-.037.053-.062a.24.24 0 00.04.07zm.38-.197a.28.28 0 00-.028-.075l.085.017a.407.407 0 00-.057.053m-.009.243l-.08-.012c.02-.017.04-.033.052-.057.004.024.016.044.028.065m.385-.145a.26.26 0 00-.024-.073l.08.024a.213.213 0 00-.056.05zm-.029.211l-.049-.008s.025-.02.033-.033c0 .017.008.029.012.045" fill="#FCCD00"/><path fill-rule="evenodd" clip-rule="evenodd" d="M22.416 5.048c-.107.14-.123.301-.037.512l-.196-.26.233-.252zm-.38.454l-.241.268.2.268c-.09-.218-.09-.388.037-.536m-.421.553l-.225.28.225.252c-.106-.21-.11-.4 0-.532zm-.298.466l-.208.276.236.231c-.118-.198-.13-.367-.028-.503m.657-.025l-.212.276.241.231c-.118-.198-.13-.37-.029-.507zm.78-.128l-.204.268.233.227c-.114-.194-.127-.359-.029-.495zm-.363-.408l-.237.272.229.256c-.106-.215-.106-.388.008-.524m.38-.458l-.237.268.229.252c-.107-.215-.107-.388.008-.524m-.699-.973l-.257.247.204.272c-.09-.222-.073-.396.053-.52zm-.412.474l-.261.276.232.28c-.106-.23-.098-.416.025-.556m-.396.565l-.2.297.18.276c-.086-.218-.082-.424.02-.577m.412 1.349l-.188.3.258.248c-.127-.214-.16-.35-.07-.544m.119.825l-.184.317.278.21c-.151-.193-.18-.366-.094-.523m1.323-.99l-.188.247.212.207c-.106-.182-.114-.334-.024-.454zm-1.054.549l-.184.292.25.24c-.123-.207-.156-.339-.066-.532zm3.834-2.261l.233.252-.196.26c.086-.21.07-.367-.036-.512zm.38.454c.127.144.127.314.037.536l.2-.268-.24-.268m.42.553c.11.132.106.321 0 .532l.224-.252-.224-.28zm.298.466c.102.136.09.305-.029.503l.237-.231-.208-.276m-.657-.025c.102.14.09.31-.029.507l.24-.23-.212-.277zm-.78-.128c.098.136.085.301-.029.495l.233-.227-.204-.268zm.363-.408c.114.136.114.31.008.524l.229-.256-.237-.272m-.38-.458c.115.136.115.31.008.524l.23-.252-.238-.268m.699-.973c.122.123.138.296.053.52l.204-.273-.257-.247zm.412.474c.127.14.135.326.024.557l.233-.28-.261-.277m.396.565c.102.153.106.359.02.577l.18-.276-.2-.297m-.412 1.349c.093.198.06.334-.07.544l.257-.247-.187-.301m-.119.825c.086.156.057.33-.094.523l.278-.21-.184-.318m-1.323-.99c.09.124.082.277-.024.454l.212-.206-.188-.247zm1.054.55c.09.189.057.32-.066.531l.25-.239-.184-.293z" fill="#fff"/><path d="M25.56 7.783a1.644 1.644 0 01-.237.297c.114-.02.229-.033.343-.033h.061a1.55 1.55 0 00.519-.363 1.552 1.552 0 00-.686.099zm-1.062-.334v.09c0 .19-.02.372-.065.54.082-.098.175-.193.286-.28a1.83 1.83 0 00.232-.882 1.747 1.747 0 00-.449.532m.229 1.031c.229.008.445.025.65.05.207-.07.395-.178.542-.31-.375-.074-.84.033-1.192.264m.768-.894c-.441.077-.899.424-1.123.845a1.71 1.71 0 001.123-.846z" fill="#fff"/><path fill-rule="evenodd" clip-rule="evenodd" d="M21.909 9.416c.012.037.037.07.07.091-.025.008-.05.016-.07.029v-.12z" fill="#FCCD00"/><path d="M21.88 9.573v-.301l.05.136a.165.165 0 00.06.078l.041.03-.049.016a1.08 1.08 0 00-.065.024l-.037.017z" fill="#fff"/><path fill-rule="evenodd" clip-rule="evenodd" d="M23.077 4.079l.376 2.726c-.057-.04-.09-.057-.09-.062l-.057-.028-.012.09-.523-2.652c.057-.062.2-.095.31-.07" fill="#fff"/><path fill-rule="evenodd" clip-rule="evenodd" d="M23.922 9.05a.264.264 0 00-.07-.125h.135a.222.222 0 00-.06.124m-.07.231a.22.22 0 00.07-.128.27.27 0 00.069.128h-.14zm-.4-.227a.251.251 0 00-.074-.099l.127-.008a.24.24 0 00-.053.107zm-.045.244a.25.25 0 00.053-.104.23.23 0 00.07.1h-.123v.004zm-.388-.235a.22.22 0 00-.05-.058l.09-.013s-.032.046-.04.07zM23 9.325s.032-.04.04-.07a.36.36 0 00.049.062l-.094.008H23zm-.376-.197a.235.235 0 00-.057-.054l.085-.017a.2.2 0 00-.028.075m.004.235s.024-.042.028-.066c.013.02.033.041.053.057l-.085.013.004-.004zm-.381-.15s-.036-.036-.056-.049l.08-.024a.197.197 0 00-.024.073zm.029.211s.012-.029.012-.045a.13.13 0 00.033.033l-.049.008.005.004z" fill="#FCCD00"/><path d="M22.685 8.043c.114 0 .229.012.343.033a1.609 1.609 0 01-.237-.297 1.569 1.569 0 00-.686-.1c.135.15.314.273.523.364h.061m.959-.243c.107.086.2.177.286.28a2.106 2.106 0 01-.065-.54v-.091a1.747 1.747 0 00-.45-.532c-.003.284.078.594.234.882m-1.225.417c.147.132.33.24.543.313.2-.02.42-.037.65-.049-.348-.231-.818-.338-1.193-.264zm.424-.626c.209.407.666.754 1.123.845-.224-.421-.682-.768-1.123-.846z" fill="#fff"/><path fill-rule="evenodd" clip-rule="evenodd" d="M24.167 8.818c-1.009 0-1.874.161-2.262.359v-.153c.388-.198 1.253-.354 2.27-.354 1.009 0 1.87.156 2.263.354v.153c-.388-.198-1.254-.359-2.27-.359zm0 .693c-1.009 0-1.874.09-2.262.256v-.128c.388-.165 1.253-.26 2.27-.26 1.009 0 1.87.095 2.263.26v.128c-.388-.161-1.254-.252-2.27-.256z" fill="#fff"/><path d="M24.175 6.74a1.806 1.806 0 00-.175.795c0 .285.061.578.175.817.115-.24.176-.528.176-.817 0-.288-.061-.569-.176-.796z" fill="#fff"/><path fill-rule="evenodd" clip-rule="evenodd" d="M24.298 1.11c-.037.07-.082.164-.07.247.05.317.544-.05.634-.124v.755c-.11-.087-.356-.272-.51-.252-.315.05.052.549.122.64h-.748c.086-.108.274-.36.25-.516-.05-.318-.544.05-.633.124v-.755c.11.087.355.272.51.252.314-.05-.053-.545-.123-.64h.748a2.054 2.054 0 00-.18.268zm-.192 1.46a.57.57 0 01.568.573.57.57 0 01-.568.573.57.57 0 01-.568-.573.57.57 0 01.568-.574z" fill="#FCCD00"/><path fill-rule="evenodd" clip-rule="evenodd" d="M8.36 8.5l.2-.028c-.148.317-.193.643-.082 1.068a2.355 2.355 0 01.265-1.089c.017 0 .204-.016.204-.016-.392.915-.2 1.666.119 2.041.596.705.547 1.349.159 2.095-.176.343-.886 1.2-.367 1.782-1.12-.524-.605-1.555-.299-1.963.233-.305.262-.866-.04-1.105-.013.552-.474.952-.927.965-.405.012-1.168-.574-1.36.107.008-.693.445-.524.886-.425 1.274.285 1.22-1.3.719-1.724-.466-.396-1.156-1.031-.352-1.476-.098.263-.077.606.045.84-.057-.387.082-.845.143-.915l.16-.045c-.09.276-.14.623 0 .944-.03-.288.02-.738.159-.998l.167-.029c-.114.29-.102.603.025 1.032-.025-.52.065-.87.175-1.065m3.239-1.056a.75.75 0 01.159-.024c.139.247.163.614.123.957.13-.33.159-.631.069-.945.715.054-.082 1.609-.388 2.33-.147.347-.433 1.226.143 1.993-.257-.128-.821-.718-.813-1.126.012-.71.192-1.069.294-1.349.213-.586.335-1.213.053-1.708.07-.016.119-.053.205-.078.09.157.24.52.175.961.2-.408.09-.862-.016-1.01" fill="#008FD0"/><path fill-rule="evenodd" clip-rule="evenodd" d="M11.56 6.983c.307-.058.605-.009.76.074 1.262.68-.633 2.545-.486 3.96.086.837 1.111 1.15 1.667 1.377-1.283-.107-2.12-.796-1.9-2.008.164-.912 1.532-2.805.466-3.135-.747-.231-1.633.68-2.654.845-.972.157-2.74.182-2.467 1.444.078.359.62.635.817.92.412.594.127 1.476-.551 1.274-.817-.243-1.017-.169-1.168.297.077-1.36 1.327.029 1.613-.684.233-.586-.168-.896-.523-1.197-.212-.181-.474-.52-.429-.911.147-1.308 1.826-1.172 2.859-1.423.608-.149 1.392-.722 1.997-.83" fill="#008FD0"/><path fill-rule="evenodd" clip-rule="evenodd" d="M10.638 6.075a.74.74 0 01.323.149c-.36.008-.584.243-.817.466.2-.128.715-.38 1-.322l.152.09c-.102.022-.54.017-.866.368a2.095 2.095 0 011.115-.206c.13.058.171.107.371.165-.563-.02-.865.107-1.637.532-.507.28-1.417.4-1.425.4.257-.223.502-.578.62-.73.274-.355.719-.953 1.168-.908" fill="#008FD0"/><path fill-rule="evenodd" clip-rule="evenodd" d="M34.103 17.484c-.608-.413-1.217-.52-2.21-.293.74-.05 2.104-.177 2.471 1.192.184-.305.074-.668-.26-.895" fill="#FCCD00"/><path fill-rule="evenodd" clip-rule="evenodd" d="M34.013 16.556c-.27-.029-.796-.128-1.205.062 2.153.07 2.197 1.04 3.088 1.282.629.174 1.507-.066 1.821-.775-.49.285-1 .31-1.589.153-.702-.19-1.29-.636-2.115-.726" fill="#E11E1B"/><path fill-rule="evenodd" clip-rule="evenodd" d="M36.635 14.617c-.188-.474-.944-1.043-1.81-.998-1.135 1.638-2.262 2.698-3.948 3.729.106.202.657-.231 1.017-.475.73-.49 1.743-1.122 2.744-1.188.715-.045 1.34.215 1.731.603.36-.334.466-1.176.266-1.67z" fill="#FCCD00"/><path fill-rule="evenodd" clip-rule="evenodd" d="M35.463 15.055c-.229-.062-.05.197-.078.239-.188-.062-.163.033-.155.12.237.004.417.049.629.119-.065-.16-.13-.404-.392-.474m4.214-1.819c.14.227.164.33.14.577.244-.202.056-.503-.14-.577z" fill="#fff"/><path fill-rule="evenodd" clip-rule="evenodd" d="M39.996 8.5l-.2-.028c.147.317.191.643.081 1.068a2.353 2.353 0 00-.265-1.089c-.017 0-.204-.016-.204-.016.392.915.204 1.666-.119 2.041-.596.705-.547 1.349-.159 2.095.176.343.886 1.2.367 1.782 1.12-.524.605-1.555.299-1.963-.233-.305-.262-.866.04-1.105a.988.988 0 00.927.965c.405.012 1.168-.574 1.36.107-.008-.693-.445-.524-.886-.425-1.274.285-1.22-1.3-.719-1.724.466-.396 1.156-1.031.352-1.476.098.263.077.606-.045.84.057-.387-.082-.845-.143-.915l-.16-.045c.09.276.14.623 0 .944.033-.288-.02-.738-.159-.998L40.2 8.53c.114.29.102.603-.025 1.032.025-.52-.065-.87-.175-1.065M36.757 7.44a.79.79 0 00-.159-.024c-.139.247-.163.614-.123.957-.13-.33-.159-.631-.069-.945-.715.054.082 1.609.388 2.33.147.347.433 1.226-.143 1.993.257-.128.82-.718.813-1.126-.012-.71-.192-1.069-.294-1.349-.213-.586-.335-1.213-.053-1.708-.07-.016-.119-.053-.205-.078-.09.157-.24.52-.171.961-.2-.408-.09-.862.016-1.01z" fill="#008FD0"/><path fill-rule="evenodd" clip-rule="evenodd" d="M36.794 6.983c-.306-.058-.604-.009-.76.074-1.261.68.634 2.545.487 3.96-.086.837-1.111 1.15-1.666 1.377 1.282-.107 2.119-.796 1.898-2.008-.163-.912-1.535-2.805-.465-3.135.747-.231 1.633.68 2.654.845.968.157 2.74.182 2.467 1.444-.078.359-.62.635-.821.92-.408.594-.127 1.476.551 1.274.817-.243 1.017-.169 1.168.297-.077-1.36-1.327.029-1.613-.684-.237-.586.168-.896.523-1.197.212-.181.474-.52.429-.911-.147-1.308-1.826-1.172-2.859-1.423-.608-.149-1.392-.722-1.997-.83" fill="#008FD0"/><path fill-rule="evenodd" clip-rule="evenodd" d="M37.717 6.075a.74.74 0 00-.323.149c.36.008.584.243.817.466-.2-.128-.715-.38-1-.322-.086.05-.151.09-.151.09.102.022.539.017.865.368a2.102 2.102 0 00-1.115-.206c-.13.058-.171.107-.367.165.563-.02.866.107 1.637.532.507.28 1.418.4 1.426.4-.258-.223-.503-.578-.621-.73-.274-.355-.715-.953-1.168-.908" fill="#008FD0"/><path fill-rule="evenodd" clip-rule="evenodd" d="M34.507 10.2c0-.054 0-.107-.008-.157l-.04.066.048.09zm-.645 30.212c.025.495.147 1.91.09 2.772-.147-.507-.486-2.615-.515-2.85-.065.297-.33.317-.486.478.013.454.02 2.5.045 2.789.094 1.097.748.92 1.058 1.212.351-.33 1.017-.544.947-1.2-.118-1.089-.265-1.963-.35-2.924-.307-.17-.556-.112-.793-.28m-1.698-3.845a.47.47 0 01-.156-.28c-.049.3-.233.453-.36.548-.003.59-.122 2.825-.126 3.11-.012.578.51.635.882.949.396-.367.972-.438.947-1.102-.028-.78-.24-2.053-.273-2.734-.053.045-.123.14-.18.218-.13-.243-.273-.292-.363-.4-.02.269-.033 1.564-.143 2.36-.114-.825-.151-1.873-.229-2.665m1.621-.239l-.11.181.351 1.114-.24-1.295z" fill="#fff"/><path fill-rule="evenodd" clip-rule="evenodd" d="M33.89 36.205c.119.648.335 1.906.389 2.409-.278-.577-.568-1.576-.707-2l-.327.276c.07.718.315 2.438.397 2.784.146.635.69.553 1.13.788.246-.503.756-.813.454-1.753-.167-.528-.702-1.89-.837-2.26-.164-.021-.306.057-.498-.24m1.719-.754c-.074.16-.208.354-.27.552.213.549.572 1.456.682 2.038-.245-.28-.808-1.481-.967-1.761-.147 0-.34.05-.482.12.188.535.518 1.505.919 2.482.204.495.8.375 1.229.479.167-.512.42-.875.245-1.366-.261-.738-1.041-1.918-1.356-2.54m3.855-1.497c-.262-.079-2.201-.578-2.201-.578.02.198.02.305.057.478.543.256 1.184.664 1.65.933-.625-.087-1.524-.43-1.642-.487-.143.058-.38.26-.38.26.368.23 1 .8 1.662 1.142.621.326 1.323-.099 1.577-.28-.05-.582-.196-1.32-.72-1.473m.561-2.165c-.613-.025-1.895-.132-2.336-.103-.09.16-.258.346-.356.429.413.169 1.328.289 1.887.503-.568.074-1.764-.074-2.307-.074.175.14.282.38.335.606.457.149 2.356.532 2.356.532.902.136 1.196-.293 1.495-.71-.184-.639-.58-1.162-1.066-1.183m1.543-1.609c-.326-.87-1.115-1.076-1.976-.85-.813.215-1.458.351-2.287.578.196.111.261.227.461.437.544.009 1.344-.107 2.067.009-.519.255-1.262.429-1.789.486-.057.178-.229.57-.229.57.507.008 1.654.066 2.36-.03.679-.09 1.18-.634 1.385-1.204m.184-3.237c-.523-.508-1.245-.681-1.989-.273-.13.07-1.319.796-1.825 1.147a2.011 2.011 0 01-.11.52c.44-.14 1.22-.421 1.931-.574-.751.586-1.735.875-2.103 1.044a2.255 2.255 0 01-.661.85c1.16-.285 2.678-.458 3.679-1.007.294-.16 1-.837 1.074-1.707m6.118-1.767c0-.02.007-.044.007-.065l-.008.065zm-6.89-1.537c-2.156.202-3.263 2.182-4.655 3.46.142-.012.334-.057.567-.045.237-.09 1.446-1.192 2.283-1.613-.404.68-1.209 1.15-1.785 1.712.184.074.319.169.519.387.335-.19 1.617-1.08 2.111-1.323.576-.764 1.005-1.795.96-2.578z" fill="#fff"/><path fill-rule="evenodd" clip-rule="evenodd" d="M36.835 32.155c.629-.099.825-.932.996-1.345-.18-.239-.62-.973-1.241-.82-.4.099-.8.19-1.172.379a.21.21 0 01-.07-.186c1.38-.358 2.332-1.088 2.34-2.516-1.029-.89-2.078-.099-2.801 1.015l-.074-.111c.527-1.077 1.3-1.56 1.94-2.421.576-.772.784-2.421.445-3.692-1.204 1.939-3.283 3.745-3.822 5.354-.543 1.617.809 1.955 1.062 3.08.294 1.308-.54 2.331-1.626 2.78-1.07.442-2.066-.04-2.474-1.154l-3.14 1.37c-.033.04-.07.086-.095.123-.085.227.776.289.748.516l-.331 1.1 2.226-.032c.143-.008.228-.062.355-.305-.07.268-.163.392-.355.478v.19c.102-.017.281-.12.338-.24.168-.325.295-1.183.409-1.546.045-.14.192-.111.16.029-.066.28-.327 1.241-.372 1.48-.123.652.31.768.575 1.176.445-.24.94-.07 1.05-.804.07-.446.078-.883.147-1.374.012-.082.16-.09.143.017a15.118 15.118 0 00-.078 1.311c-.008.545.494.574.78.924.319-.371.845-.412.788-1.027-.024-.264-.245-1.076-.31-1.32-.024-.09.09-.181.114-.095.119.413.31 1.081.454 1.432.249.594.69.14 1.18.177.135-.429.629-.82.351-1.357-.098-.194-.666-.961-.686-1.031-.033-.1.057-.206.127-.116.167.194.412.582.853 1.032.384.396 1.213-.372 1.433-.421-.077-.483.017-1.246-.506-1.572-.36-.226-.927-.268-1.074-.338-.045-.099.045-.181.045-.181.36.07.813.099 1.176.041" fill="#fff"/><path fill-rule="evenodd" clip-rule="evenodd" d="M39.73 19.328c-.412 1.427-1.568 2.903-2.156 3.505.045.417.078.685.049.982.143-.169.694-.977 1.213-1.588-.294.949-.964 1.939-1.262 2.31-.045.33-.147.713-.265 1.093.457-.528 1.478-1.543 1.854-2.038.82-1.08 1.213-2.792.567-4.264z" fill="#fff"/><path fill-rule="evenodd" clip-rule="evenodd" d="M39.722 19.917a7.212 7.212 0 01-.788 1.568c.294-.227.666-.706.731-.85.163.92-.568 2.722-1.152 3.403 1.242-1.283 1.614-3.011 1.205-4.12m.968 4.05c-.53 0-1.65.635-1.825.953.457-.335.951-.59 1.588-.698-.077.495-.53 1.456-.94 1.993.703-.566 1.21-1.667 1.177-2.248zm-1.016 3.044c.497-.182.914-.227 1.526.123-.102.68-.694 1.246-1.078 1.485.572-.169 1.185-.771 1.328-1.571-.625-.532-1.34-.326-1.781-.033m-3.716.746c.465-.136.955-.09 1.241.153.02.466-.22 1.052-.523 1.386.437-.256.8-1.064.748-1.526-.319-.252-.886-.384-1.466-.017m1.131-4.71c-.265.408-.886 1.175-1.16 1.53.372-.305.71-.598.988-.957.14 1.015-.49 2.553-.71 2.797.743-.8 1.115-2.091.882-3.366m2.585 6.496c.706-.037 1.193.215 1.433.635-.171.512-.678.908-1.07 1.015.552-.037 1.115-.45 1.311-1.06-.294-.553-1.119-.837-1.674-.59zm-3.336.656c.477.008.804.318 1.037.643-.13.355-.286.862-.641 1.098.473-.116.73-.594.861-1.114-.232-.371-.624-.813-1.257-.627zm-.049 11.483l-.527-2.244a.87.87 0 01-.261-.214l.008.185.78 2.269v.004zm-2.438.297l-.102-1.687c-.07-.05-.143-.157-.225-.31l.327 1.997zM39.51 31.97c.69.14.927.35 1.13.89-.236.396-.812.565-1.208.607.62.086 1.164-.112 1.433-.578-.281-.652-.698-.977-1.355-.92zm-.45 2.078c.564.223.588.635.695 1.114-.31.284-.752.453-1.058.342.53.326.927-.012 1.278-.227-.15-.734-.286-1.159-.919-1.229M35.63 37.13l-.367-1.024-.07.182.437.841zm.976.548c.266.569-.016.792-.134 1.22-.43-.016-.707.013-.956-.428.27.792.637.532 1.082.66.107-.537.47-.739.008-1.452zm-1.588 1.076c.135.61-.172.763-.351 1.16-.417-.186-.805-.153-.936-.681.066.792.576.705.993.948.167-.478.645-.721.294-1.427z" fill="#fff"/><path d="M34.736 40.218l-.024-.016c-.107-.062-.221-.1-.327-.14-.323-.112-.625-.223-.678-.825l-.025-.289.07.28c.098.388.33.462.625.553.09.03.183.058.277.1.05-.104.102-.186.16-.269.147-.227.277-.425.18-.854l-.042-.19.086.178c.253.515.082.788-.098 1.076a1.878 1.878 0 00-.196.372l-.008.029v-.005zm-.947-.763c.093.38.338.467.612.565.102.038.208.075.31.128.05-.132.123-.243.188-.354.151-.244.298-.47.172-.85.024.322-.094.503-.217.693a2.072 2.072 0 00-.163.285l-.008.02-.02-.008c-.103-.045-.2-.074-.295-.107-.236-.075-.445-.14-.575-.376" fill="#fff"/><path fill-rule="evenodd" clip-rule="evenodd" d="M33.143 39.406c.013.66-.506.648-.772.949-.371-.273-.661-.285-.694-.895-.09.948.376.791.715 1.17.302-.4.882-.32.751-1.228" fill="#fff"/><path d="M32.392 40.672l-.02-.02c-.099-.112-.209-.174-.315-.236-.253-.148-.474-.272-.408-.952l.028-.314.017.314c.024.462.196.565.453.721.065.042.139.087.216.14.086-.09.196-.152.298-.214.237-.14.462-.268.454-.701l-.009-.388.053.384c.09.635-.159.8-.428.97a1.161 1.161 0 00-.331.276l-.016.02h.008zm-.707-.953c.009.43.184.532.396.656.102.062.209.12.307.223.094-.116.212-.194.326-.264.213-.136.413-.268.425-.66-.073.26-.261.371-.45.478-.105.062-.22.128-.301.223l-.017.017-.016-.013c-.082-.062-.16-.107-.233-.152-.208-.128-.367-.223-.437-.503" fill="#fff"/><path fill-rule="evenodd" clip-rule="evenodd" d="M32.424 36.783l-.15-.132.122 1.526.028-1.394zm3.937-4.063c.499.235.352.656.47 1.246-.392.222-.727.622-1.135.325.457.524.874-.082 1.319-.214-.18-.879.09-1.072-.654-1.357zm-1.744 2.347c-.216-.83-.396-1.221-.396-1.221l-.175-.025-.066.174s.18.51.633 1.076m-.306-.705c-.07-.091-.233-.384-.233-.384l.086-.045s.11.3.147.429zm-1.45 1.287c.053-.537.025-1.11.025-1.11l-.155-.107-.11.132s.073.619.24 1.08m-.049-.59a6.924 6.924 0 01-.102-.465h.094s.013.325.008.466zm.703.623c.012.578-.396.462-.617.751-.29-.342-.64-.148-.67-.643 0 .796.417.503.683.895.208-.388.702-.215.604-1.003zm-2.393-.028c.273-.805.343-1.246.343-1.246l-.119-.165-.138.078s-.131.536-.086 1.333zm.086-.607c-.005-.123.077-.66.077-.66l.09.037s-.127.495-.167.623zm.596.829c-.135.553-.543.339-.858.508-.208-.413-.6-.4-.506-.879-.213.75.261.623.449 1.118.408-.28.813.045.915-.747z" fill="#fff"/><path fill-rule="evenodd" clip-rule="evenodd" d="M29.738 34.291c.036-.127.09-.445.09-.445l-.09-.037v.483z" fill="#F6D300"/><path d="M10.846 45.857l-.024-.058c-.098-.235-.245-.413-.384-.586-.29-.359-.568-.697-.364-1.435.037-.128.278-.792.56-1.567.24-.669.506-1.39.69-1.918-.253.548-.576 1.295-.874 1.98-.322.75-.629 1.464-.796 1.798-.286.573-.723.59-1.144.606-.204.008-.396.013-.567.083l-.053.02-.008-.058c-.029-.181-.115-.37-.209-.573-.22-.49-.473-1.043-.102-1.79.388-.78 1.037-1.873 1.556-2.751.176-.297.343-.573.474-.804-.388.556-.98 1.46-1.49 2.235-.548.83-.98 1.485-1.063 1.576-.2.227-.457.334-.784.334-.232 0-.465-.054-.673-.103a2.407 2.407 0 00-.43-.074h-.044v-.05c0-.194-.037-.4-.074-.61-.094-.52-.196-1.106.274-1.675.196-.24.482-.532.78-.833-.425.392-.813.713-1.115.808-.24.075-.453.112-.657.112-.466 0-.752-.194-1.005-.363-.09-.062-.18-.12-.265-.165l-.037-.017.012-.041c.074-.256.11-.479.147-.697.123-.722.217-1.266 1.499-2.05-.494.17-.927.252-1.315.252-.83 0-1.331-.388-1.715-.768l-.02-.02.007-.025c.258-.854.878-1.538 1.426-1.848-.997-.037-1.81-.569-2.426-1.575l-.012-.025.012-.025c.425-.71 1.233-1.241 2.152-1.431-1.43-.355-2.536-1.51-2.67-2.825v-.025l.016-.017c.522-.404 1.36-.602 2.389-.552C1.123 27.622.078 26.224 0 24.9v-.033l.033-.013a3.136 3.136 0 011.05-.177c.37 0 .783.058 1.257.186-.87-.821-1.915-2.087-1.776-3.886v-.033l.032-.008c.106-.033.229-.045.368-.045.604 0 1.396.31 1.984.585-1.56-1.394-2.168-4.153-1.204-5.86l.024-.046.041.029c.339.247 1.368 1.493 2.279 2.59.343.417.661.804.91 1.089-1.008-1.534-1.617-2.792-1.996-4.116-.4-1.39-.49-3.927.971-4.814l.05-.029.02.054c.657 1.914 2.96 6.731 4.271 8.773.013-.016.025-.033.037-.045.098-.128.208-.268.351-.314l.05-.016.012.045c.31 1.217 1.208 2.813 2.017 3.6 0-.012.008-.024.012-.04a2.47 2.47 0 01.241-.57l.041-.07.037.07c.465.879 1.315 1.914 2.144 2.916.739.895 1.433 1.741 1.788 2.401.617 1.142.543 2.104-.228 3.027l-.013.013c-.318.383-.914 1.097-.396 2.046.4.73 1.07 1.167 1.789 1.167.653 0 1.205-.355 1.466-.949l.016-.033.07.017 6.383 2.788v8.666h-.05c-2.523-.186-5.06-1.362-6.954-3.234a.677.677 0 01-.102-.087.411.411 0 00-.045-.041c-.13.272-.363.396-.592.516-.176.095-.343.181-.466.338l-.036.045-.037-.045c-.078-.1-.13-.14-.2-.198a.057.057 0 00-.016-.012c-.005.428-.037 2.107-.131 2.833-.086.677-.45.854-.8 1.023-.176.087-.34.165-.466.305l-.037.041-.033-.045c-.147-.19-.33-.313-.51-.437-.376-.256-.727-.495-.645-1.23.049-.437.106-.849.159-1.245.057-.433.11-.825.143-1.167-.147.503-.33 1.307-.498 2.041a30.906 30.906 0 01-.34 1.42c-.212.717-.653.824-1.049.92-.2.049-.384.094-.53.21l-.05.037v.004z" fill="#fff"/><path fill-rule="evenodd" clip-rule="evenodd" d="M14.424 40.462c-.025.495-.151 1.91-.09 2.771.147-.507.482-2.614.51-2.85.07.297.335.318.486.479-.012.454-.02 2.5-.045 2.788-.094 1.097-.747.92-1.057 1.213-.352-.33-1.017-.545-.948-1.2.119-1.09.261-1.964.351-2.925.307-.169.556-.111.793-.28m-1.642 1.472c-.27 1.221-.482 2.306-.596 2.66-.188.582-.903.442-1.193.73-.175-.391-.874-.775-.657-1.41.094-.276-.053.177.302-.796 0 0-.073.355-.175.738-.09.338.191.582.416.846.061.074.127.148.18.218.11-.053.237-.086.355-.12.306-.082.502-.148.576-.383.122-.38.788-2.483.788-2.483h.004zm3.344-5.316a.47.47 0 00.156-.28c.049.3.232.453.359.548.004.59.122 2.825.127 3.11.012.577-.51.635-.883.948-.396-.367-.971-.437-.947-1.101.024-.78.241-2.054.274-2.735.053.046.122.14.18.219.13-.24.269-.293.363-.4.02.268.032 1.563.143 2.36.114-.826.147-1.873.228-2.665m-1.621-.239l.11.185-.35 1.11.24-1.295z" fill="#fff"/><path fill-rule="evenodd" clip-rule="evenodd" d="M14.395 36.255c-.118.647-.33 1.905-.384 2.408.278-.577.568-1.575.707-2l.326.276c-.07.718-.314 2.438-.396 2.785-.147.635-.69.552-1.131.787-.245-.503-.755-.816-.453-1.753.167-.528.702-1.889.837-2.26.163-.02.306.058.498-.24M9.352 21.534c-.294-.227-.666-.705-.731-.85-.164.92.461 2.83 1.151 3.403-1.543-1.29-1.735-3.324-1.327-4.438 0 0 .568 1.37.907 1.885zm-1.81 2.417c.531 0 1.43.57 1.61.883-.458-.334-.674-.458-1.315-.565.077.495.98 2.26 1.519 2.66-1.711-1.328-1.814-2.982-1.814-2.982v.004zm.805 3.023c-.543-.082-.96.013-1.237.198.102.681 1.76 1.984 2.197 2.092-.956-.235-2.287-1.427-2.536-2.223.8-.454 1.576-.07 1.576-.07v.003zm3.99.838c-.466-.136-.956-.09-1.242.152-.02.466.225 1.052.523 1.386-.437-.256-.878-1.052-.825-1.51.319-.25.964-.4 1.544-.028z" fill="#fff"/><path d="M11.23 23.205c-.16 1.018.066 2.47.83 3.394-.695-1.336-.679-2.866-.679-2.866s.458.387.707.602l-.029-.033c-.278-.355-.62-.788-.829-1.093" fill="#fff"/><path fill-rule="evenodd" clip-rule="evenodd" d="M11.116 40.078c-.253.9-1.478 3.597-1.666 3.815-.217.256-.462.355-.65.355-.049 0-.098 0-.147-.004-.044 0-.09-.004-.13-.004-.09 0-.16.012-.217.033l-.175.07-.066-.173c-.036-.1-.09-.19-.147-.289-.15-.26-.322-.553-.245-1.044.05-.313.229-.569.797-1.513-.597.986-.494 1.023-.54 1.32-.093.61.18 1.023.323 1.402.364-.148.727.062 1.136-.487.15-.206 1.502-2.895 1.731-3.485l-.004.004zM9.143 38.99c-.988 1.158-1.919 2.52-2.242 2.89-.192.215-.383.322-.53.322-.131 0-.535-.09-.593-.099-.367-.746-.326-1.427.633-2.26-1.65 1.353-.996 1.951-.955 2.582.47.008 1.106.425 1.6-.264.303-.42 2.096-3.168 2.096-3.168l-.009-.004zM6.77 30.171c.385.722 1.806 1.167 2.357 1.204-.392-.111-1.764-.684-2.005-1.18.318-.313.686-.362 1.07-.4 0 0-.841-.21-1.421.376z" fill="#fff"/><path d="M11.794 32.089l-.237-.058c-.535-.132-.78-.693-.894-1.142v-.017l.004-.016c.29-.462.616-.69 1.004-.69.098 0 .2.017.303.046l.269.079h-.278c-.375.012-.698.21-.992.61l.024.07c.123.347.278.776.593.982l.204.136z" fill="#fff"/><path fill-rule="evenodd" clip-rule="evenodd" d="M14.444 42.033l.102-1.687c.07-.05.143-.156.225-.309l-.327 1.996zm-.903 1.036c0 1.047.437.87.723 1.245.413-.42.87-.12.87-1.171.11 1.332-.474.948-.882 1.427-.543-.623-.91-.202-.71-1.502zm-4.765-11.05c-.69.14-.927.355-1.131.89.236.397.812.566 1.208.607-.62.087-1.164-.111-1.433-.577.282-.652.702-.978 1.356-.92zm.449 2.079c-.564.222-.588.635-.694 1.113.31.285.751.454 1.057.343-.53.325-.927-.013-1.282-.227.151-.734.286-1.16.919-1.23zm1.041 1.909c-.404.537-.261.879-.159 1.469.433-.017.813.099 1.107-.355-.372.75-.813.466-1.258.59-.143-.887-.29-1.172.306-1.708m2.393 1.176l.368-1.027.07.181-.438.846zm-.975.544c-.266.57.016.792.134 1.22.429-.016.707.013.956-.428-.27.792-.637.532-1.082.66-.107-.536-.47-.738-.009-1.452zm1.588 1.081c-.135.61.167.763.351 1.159.417-.186.805-.153.94-.68-.07.791-.577.704-.993.948-.168-.479-.645-.722-.294-1.427" fill="#fff"/><path d="M13.55 40.268l-.009-.029a1.883 1.883 0 00-.196-.371c-.18-.289-.35-.561-.098-1.077l.086-.173-.04.19c-.099.429.032.627.179.854.053.082.11.169.16.272.093-.041.187-.07.277-.1.294-.094.527-.168.625-.556l.07-.28-.025.288c-.053.602-.356.714-.678.825-.11.042-.22.079-.327.14l-.024.013v.004zm-.335-1.27c-.127.379.02.61.171.85.07.107.14.222.188.354.102-.058.208-.09.31-.128.274-.099.515-.185.613-.565-.127.231-.339.297-.576.375-.094.033-.192.062-.294.108l-.02.008-.008-.02a2.068 2.068 0 00-.164-.285c-.126-.19-.245-.372-.216-.693" fill="#fff"/><path fill-rule="evenodd" clip-rule="evenodd" d="M15.146 39.455c-.012.66.507.648.772.949.372-.272.662-.285.694-.895.09.949-.375.792-.714 1.171-.303-.4-.882-.321-.752-1.229" fill="#fff"/><path d="M15.898 40.722l-.017-.025a1.11 1.11 0 00-.33-.277c-.266-.169-.52-.334-.43-.969l.054-.383-.008.387c-.008.434.216.566.453.702.106.061.212.123.298.214.078-.054.151-.099.216-.14.258-.157.425-.26.45-.722l.016-.313.029.313c.065.68-.155.808-.409.953-.106.062-.216.123-.314.235l-.02.02.012.005zm-.744-1.003c.009.396.213.524.425.66.114.075.229.149.323.264a1.23 1.23 0 01.306-.223c.212-.123.388-.226.396-.655-.07.28-.233.375-.437.503-.073.045-.15.09-.229.152l-.016.013-.012-.017c-.082-.094-.196-.16-.302-.222-.184-.108-.376-.219-.45-.479" fill="#fff"/><path fill-rule="evenodd" clip-rule="evenodd" d="M15.861 36.832l.155-.136-.126 1.53-.029-1.394zm-3.937-4.067c-.498.236-.35.656-.47 1.246.393.223.728.623 1.136.326-.457.524-.972-.033-1.413-.165.184-.879.008-1.122.747-1.402M38.91 21.534c.293-.227.665-.705.73-.85.164.92-.461 2.83-1.151 3.403 1.543-1.29 1.735-3.324 1.327-4.438 0 0-.568 1.37-.907 1.885zm1.808 2.417c-.53 0-1.429.57-1.609.883.458-.334.674-.458 1.315-.565-.077.495-.98 2.26-1.519 2.66 1.711-1.328 1.813-2.982 1.813-2.982v.004zm-.804 3.023c.543-.082.96.013 1.238.198-.102.681-1.76 1.984-2.197 2.092.955-.235 2.287-1.427 2.536-2.223-.8-.454-1.577-.07-1.577-.07v.003zm-3.99.838c.466-.136.956-.09 1.242.152.02.466-.225 1.052-.523 1.386.437-.256.878-1.052.825-1.51-.319-.25-.964-.4-1.544-.028z" fill="#fff"/><path d="M37.03 23.205a21.795 21.795 0 01-.857 1.126l.707-.603s.016 1.535-.678 2.867c.764-.928.988-2.376.829-3.394" fill="#fff"/><path fill-rule="evenodd" clip-rule="evenodd" d="M41.49 30.171c-.383.722-1.804 1.167-2.356 1.204.392-.111 1.764-.684 2.005-1.18-.318-.313-.686-.362-1.07-.4 0 0 .842-.21 1.422.376z" fill="#fff"/><path d="M36.676 31.953c.314-.206.47-.64.592-.982l.024-.07c-.294-.4-.616-.598-.992-.606h-.277l.269-.083c.102-.029.204-.045.302-.045.384 0 .71.227 1.005.689l.008.016v.017c-.118.45-.364 1.01-.898 1.142l-.237.058.204-.136z" fill="#fff"/><path fill-rule="evenodd" clip-rule="evenodd" d="M39.485 32.019c.69.14.927.355 1.132.89-.237.397-.813.566-1.21.607.621.087 1.165-.111 1.434-.577-.282-.652-.702-.978-1.356-.92zm-.449 2.079c.564.222.588.635.694 1.113-.31.285-.751.454-1.057.343.53.325.927-.013 1.282-.227-.151-.734-.286-1.16-.919-1.23zm-1.041 1.909c.404.537.261.879.159 1.469-.433-.017-.813.099-1.107-.355.372.75.813.466 1.258.59.143-.887.29-1.172-.306-1.708m-1.417 1.72c.265.57-.017.792-.135 1.22-.429-.016-.706.013-.956-.428.27.792.638.532 1.083.66.106-.536.47-.738.008-1.452zm-.245-4.958c.498.236.351.656.47 1.246-.393.223-.727.623-1.136.326.458.524.972-.033 1.413-.165-.184-.879-.008-1.122-.747-1.402m-20.909 2.932c-.053-.536-.024-1.11-.024-1.11l.155-.103.11.128s-.073.619-.24 1.085zm.05-.59c.036-.115.101-.466.101-.466h-.094s-.012.33-.008.466zm-.703.618c-.013.578.4.463.616.752.29-.347.641-.153.674-.644 0 .796-.416.503-.686.895-.204-.387-.698-.214-.604-1.002zm2.393-.028c-.274-.804-.343-1.246-.343-1.246l.118-.165.14.079s.13.532.085 1.328m-.086-.606c.004-.124-.077-.66-.077-.66l-.09.037s.126.495.167.623zm-.596.833c.135.553.547.338.857.507.209-.412.605-.4.507-.878.212.75-.262.622-.45 1.117-.412-.28-.812.046-.914-.746z" fill="#fff"/><path fill-rule="evenodd" clip-rule="evenodd" d="M18.548 34.34c-.037-.127-.09-.445-.09-.445l.09-.037v.483z" fill="#F6D300"/><path fill-rule="evenodd" clip-rule="evenodd" d="M14.007 35.228c-.85.977-1.54 2.462-1.54 3.807 0 2.194 1.327 4.265 3.48 5.688 2.115 1.398 5.035 2.264 8.261 2.268 3.226 0 6.154-.866 8.278-2.269 2.16-1.422 3.495-3.534 3.495-5.733 0-1.348-.588-2.627-1.482-3.736l2.013-3.016-.64-.787c-3.027-3.593-7.352-5.564-12.113-5.358-3.047.132-5.954 1.031-8.535 2.949-1.127.841-2.32 2.042-3.218 3.242l1.997 2.949.004-.004z" fill="#936B2E"/><path d="M24.208 47.428h-.033c-3.193-.004-6.199-.833-8.47-2.338-2.323-1.539-3.658-3.733-3.675-6.022v-.033c0-1.233.556-2.706 1.434-3.832l-1.813-2.677a.437.437 0 01.012-.511c.919-1.23 2.156-2.475 3.308-3.329 2.52-1.868 5.468-2.891 8.771-3.035.233-.009.466-.017.695-.017 4.582 0 8.763 1.963 11.765 5.527l.645.792c.123.148.13.363.025.524l-1.838 2.75c.894 1.201 1.372 2.48 1.38 3.721v.07c-.012 2.285-1.392 4.55-3.691 6.063-2.28 1.502-5.289 2.33-8.482 2.339h-.033M12.9 38.998v.029c0 2 1.197 3.938 3.284 5.32 2.135 1.415 4.986 2.194 8.024 2.194 3.038 0 5.897-.78 8.04-2.194 2.067-1.36 3.3-3.37 3.3-5.366 0-1.138-.477-2.334-1.384-3.46a.437.437 0 01-.02-.52l1.83-2.747-.438-.536c-2.83-3.362-6.775-5.214-11.1-5.214-.216 0-.436.004-.657.017-3.128.136-5.921 1.097-8.294 2.862-1.008.75-2.09 1.82-2.94 2.904l1.821 2.685a.444.444 0 01-.032.536c-.862.994-1.426 2.36-1.434 3.49z" fill="#fff"/><path d="M24.208 46.962c-3.12 0-6.056-.804-8.265-2.268-2.242-1.485-3.48-3.473-3.48-5.602 0-.548.14-1.047.31-1.596.544-1.761 1.977-3.357 4.035-4.496 2.1-1.159 4.66-1.773 7.4-1.773 3.124 0 6.065.804 8.278 2.264 2.254 1.49 3.495 3.477 3.495 5.601 0 2.125-1.24 4.117-3.495 5.602-2.218 1.464-5.158 2.268-8.278 2.268zm0-15.154c-5.26 0-9.833 2.467-10.883 5.861-.155.504-.282.957-.282 1.423 0 4.018 5.011 7.288 11.165 7.288 6.154 0 11.198-3.27 11.198-7.288 0-4.017-5.023-7.284-11.198-7.284z" fill="#FCCD00"/><path fill-rule="evenodd" clip-rule="evenodd" d="M24.208 31.516c-5.55 0-10.095 2.615-11.156 6.067-.152.49-.299.986-.299 1.51 0 4.182 5.113 7.576 11.455 7.576s11.488-3.394 11.488-7.577c0-4.182-5.146-7.576-11.488-7.576z" fill="#FCCD00"/><path d="M24.196 46.442c-6.195 0-11.234-3.275-11.234-7.3 0-4.026 5.039-7.3 11.234-7.3s11.234 3.274 11.234 7.3c0 4.025-5.039 7.3-11.234 7.3zm0-13.792c-2.81 0-5.452.697-7.44 1.963-1.932 1.23-2.994 2.838-2.994 4.529 0 1.691 1.062 3.304 2.993 4.529 1.99 1.266 4.631 1.963 7.441 1.963 2.81 0 5.452-.697 7.44-1.963 1.932-1.23 2.994-2.838 2.994-4.53 0-1.69-1.062-3.303-2.994-4.528-1.988-1.266-4.63-1.963-7.44-1.963z" fill="#FCCD00"/><path fill-rule="evenodd" clip-rule="evenodd" d="M24.196 46.034c5.966 0 10.834-3.097 10.834-6.896s-4.868-6.896-10.834-6.896c-5.966 0-10.834 3.097-10.834 6.896s4.868 6.896 10.834 6.896z" fill="#936B2E"/><path d="M24.224 46.5c-6.21 0-11.267-3.3-11.267-7.358 0-4.059 5.056-7.358 11.267-7.358 6.212 0 11.268 3.3 11.268 7.358S30.436 46.5 24.225 46.5zm0-14.258c-5.966 0-10.817 3.097-10.817 6.904s4.851 6.9 10.817 6.9c5.967 0 10.818-3.097 10.818-6.9 0-3.803-4.851-6.904-10.818-6.904z" fill="#FCCD00"/><path d="M24.196 46.442c-6.195 0-11.234-3.275-11.234-7.3 0-4.026 5.039-7.3 11.234-7.3s11.234 3.274 11.234 7.3c0 4.025-5.039 7.3-11.234 7.3zm0-13.792c-2.81 0-5.452.697-7.44 1.963-1.932 1.23-2.994 2.838-2.994 4.529 0 1.691 1.062 3.304 2.993 4.529 1.99 1.266 4.631 1.963 7.441 1.963 2.81 0 5.452-.697 7.44-1.963 1.932-1.23 2.994-2.838 2.994-4.53 0-1.69-1.062-3.303-2.994-4.528-1.988-1.266-4.63-1.963-7.44-1.963z" fill="#FCCD00"/><path fill-rule="evenodd" clip-rule="evenodd" d="M24.196 46.034c5.966 0 10.834-3.097 10.834-6.896s-4.868-6.896-10.834-6.896c-5.966 0-10.834 3.097-10.834 6.896s4.868 6.896 10.834 6.896z" fill="#936B2E"/><path fill-rule="evenodd" clip-rule="evenodd" d="M24.208 31.582H24.2v.346h.008c6.097 0 11.043 3.209 11.043 7.164 0 3.956-4.946 7.165-11.043 7.165H24.2v.35h.008c6.29 0 11.386-3.365 11.386-7.515 0-4.149-5.101-7.51-11.386-7.51zm-.008 0c-6.285 0-11.394 3.349-11.394 7.494s5.11 7.527 11.394 7.527v-.35c-6.093 0-11.05-3.226-11.05-7.181 0-3.956 4.957-7.144 11.05-7.148v-.346.004z" fill="#E11E1B"/><path d="M24.2 45.325c-5.664 0-10.275-2.937-10.275-6.55s4.61-6.55 10.275-6.55c5.664 0 10.275 2.937 10.275 6.55s-4.611 6.55-10.275 6.55zm0-12.832c-5.517 0-10.01 2.817-10.01 6.282s4.489 6.282 10.01 6.282 10.01-2.818 10.01-6.282c0-3.465-4.489-6.282-10.01-6.282z" fill="#FCCD00"/><path d="M24.2 44.236c-5.26 0-9.54-2.714-9.54-6.055 0-3.341 4.28-6.055 9.54-6.055 5.26 0 9.54 2.718 9.54 6.055 0 3.337-4.28 6.055-9.54 6.055zm0-11.854c-5.125 0-9.29 2.602-9.29 5.803 0 3.2 4.169 5.803 9.29 5.803 5.12 0 9.29-2.602 9.29-5.803 0-3.2-4.17-5.803-9.29-5.803z" fill="#FCCD00"/><path d="M24.2 43.151c-4.962 0-9-2.47-9-5.506s4.038-5.507 9-5.507 9 2.471 9 5.507c0 3.035-4.038 5.506-9 5.506zm0-10.778c-4.835 0-8.768 2.368-8.768 5.272 0 2.903 3.933 5.27 8.768 5.27 4.835 0 8.768-2.362 8.768-5.27 0-2.908-3.933-5.272-8.768-5.272z" fill="#FCCD00"/><path fill-rule="evenodd" clip-rule="evenodd" d="M29.55 41.877l6.75-9.631c-5.48-7.82-17.883-8.22-24.122.012l1.931 2.978 2.356 4.017c1.005-1.117 5.358-2.788 8.388-2.107 2.357.528 4.574 2.544 4.692 4.735" fill="#fff"/><path d="M29.44 42.26l-.021-.375c-.11-2-2.168-4.071-4.594-4.611a6.927 6.927 0 00-1.515-.157c-2.753 0-5.942 1.328-6.75 2.223l-.119.132-2.446-4.17-1.977-3.048.057-.074c2.929-3.865 7.404-6.08 12.284-6.08 4.88 0 9.385 2.269 12.047 6.071l.053.075-7.02 10.014zm-6.13-5.407a7.22 7.22 0 011.572.16c2.144.48 4.427 2.27 4.762 4.5l6.497-9.271c-2.622-3.684-7.02-5.886-11.782-5.886-4.761 0-9.143 2.149-12.018 5.902l1.878 2.9 2.275 3.877c.984-.916 4.023-2.186 6.82-2.186" fill="#FCCD00"/><path fill-rule="evenodd" clip-rule="evenodd" d="M29.317 41.926l4.798-6.735c-2.544-3.057-6.097-4.74-9.833-4.64-3.978.107-8.127 2.173-10.116 4.788.682 1.349.735 2.281.454 3.84 1.33-1.258 7.22-1.497 10.466-.883 2.222.421 4.513 1.16 4.23 3.634" fill="#008FD0"/><path d="M29.133 42.413l.057-.5c.27-2.33-1.825-3.051-4.124-3.489-1.099-.206-2.532-.322-4.031-.322-3.087 0-5.574.458-6.326 1.172l-.285.268.069-.388c.294-1.625.192-2.5-.441-3.757l-.037-.074.05-.066c2.086-2.747 6.284-4.735 10.213-4.838.106 0 .208-.005.314-.005 3.63 0 7.138 1.712 9.621 4.69l.066.078-5.146 7.23zm-8.098-4.574c1.515 0 2.96.115 4.076.325 2.164.413 4.337 1.135 4.357 3.32l4.48-6.29c-2.532-2.998-5.975-4.61-9.666-4.516-3.766.1-7.94 2.063-9.965 4.674.642 1.299.686 2.252.486 3.518 1.18-.755 3.925-1.031 6.232-1.031z" fill="#FCCD00"/><path fill-rule="evenodd" clip-rule="evenodd" d="M29.084 42.231l2.401-3.625c-1.282-2.339-3.438-3.23-5.64-3.84-3.438-.957-8.322 1.08-11.062 3.069 0 .886-.278 1.736-.862 2.412 3.63.508 8.58-2.107 11.308-1.427 1.617.4 3.112 1.403 3.851 3.415" fill="#E11E1B"/><path d="M29.084 42.36h-.016a.123.123 0 01-.106-.087c-.642-1.753-1.907-2.875-3.761-3.333a4.107 4.107 0 00-1.005-.107c-1.197 0-2.65.363-4.19.746-1.707.425-3.467.862-5.08.862a8 8 0 01-1.021-.066.119.119 0 01-.102-.082.13.13 0 01.024-.132c.548-.631.833-1.436.83-2.327 0-.04.02-.082.052-.107 2.287-1.658 6.024-3.336 9.213-3.336.707 0 1.368.082 1.956.247 2.193.61 4.403 1.505 5.718 3.902a.135.135 0 01-.005.136l-2.4 3.625a.128.128 0 01-.107.058zM24.2 38.568c.4 0 .747.037 1.066.12 1.83.453 3.157 1.579 3.85 3.262l2.218-3.35c-1.274-2.264-3.406-3.117-5.52-3.707a7.126 7.126 0 00-1.892-.24c-3.107 0-6.75 1.625-9.008 3.246-.013.846-.266 1.613-.74 2.24.241.025.495.037.756.037 1.576 0 3.324-.433 5.015-.858 1.556-.387 3.026-.75 4.25-.75" fill="#FCCD00"/><path fill-rule="evenodd" clip-rule="evenodd" d="M26.712 46.673l-.699-.173 10.058-14.77c.168.182.299.326.446.524l-9.81 14.42h.005z" fill="#FCCD00"/><path fill-rule="evenodd" clip-rule="evenodd" d="M15.159 41.658c.073-.157.245-.17.355-.276.045-.033.2-.132.18-.252-.033-.19-.02-.202-.245-.09-.34.164-.703.449-.65.709.033.012.392.812.437.82.017 0 .098-.173.057-.321a1.875 1.875 0 00-.118-.293c-.057-.12-.082-.161-.02-.293" fill="#936B2E"/><path fill-rule="evenodd" clip-rule="evenodd" d="M.968 21.316c.673-.058 1.404.173 2.09.528 0 0-1.09-.203-1.658-.186.196 1.444 2.296 3.733 4.921 5.143.69.372-2.61-1.188-3.27-1.786-.956-.858-2.173-1.947-2.08-3.7m7.564 1.898c-2.12-2.009-4.53-5.684-5.142-8.117-.592-2.355-.102-3.527.515-4.055.151.392.527 1.613.992 2.636l-.976-1.58s-.47 2.372.74 4.99c1.204 2.62 3.87 6.13 3.87 6.13v-.004zm-4.643-2.054c-2.197-2.281-1.744-4.154-1.744-4.154l1.56 1.58c-.89-1.06-1.552-2.157-1.846-2.372-.592 1.687.008 3.51.976 4.661 1.335 1.584 3.271 2.793 4.353 3.688v-.009c-.38-.33-1.433-1.451-3.3-3.39v-.004zM.853 25.345c.527-.268 1.74-.029 1.74-.029h.053c-.776-.23-1.67-.33-2.221-.152.187 1.546 1.89 2.887 3.491 3.46.494.178 2.565.838 2.932.83-4.402-1.622-5.684-2.843-5.995-4.1v-.009zm2.255 3.395c-.87-.149-1.87-.07-2.594.396.331 1.443 1.948 2.248 3.002 2.425.735.124 2.87.173 3.148.111-4.724-.074-5.427-1.501-5.786-2.371.616-.673 2.205-.557 2.205-.557h.025v-.004zm2.348 5.514c-3.047.075-3.337-.35-3.994-1.15.175-.475 1.09-.962 1.356-1.093-.727.202-1.348.602-1.752 1.084.588 1.02 1.474 1.498 2.789 1.361a35.97 35.97 0 001.654-.206h-.053v.004zM2.397 36.37c.42-1.254 1.405-1.592 1.405-1.592l.037-.012c-.682.157-1.462.808-1.797 1.683.42.688 1.85.808 2.642.433.212-.1.878-.334 1.576-.602-2.818.833-3.246.453-3.855.09h-.008zm5.733 1.007s-2.544 2.058-3.034 2.264c-.49.206-.816.268-1.319-.132-.06-.982.58-1.765.674-1.856-.923.676-.96 1.559-1.062 2.136.454.161.784.788 1.985.005.51-.334 1.777-1.498 2.802-2.454l-.05.037h.005zm28.142 7.04c.077.24.269.301.575.384.123.033.245.066.356.12.053-.075.114-.145.18-.22.224-.263.502-.507.416-.845-.102-.383-.176-.738-.176-.738.355.973.209.516.302.796.217.631-.481 1.019-.657 1.41-.29-.292-1.005-.148-1.193-.73-.114-.354-.326-1.439-.596-2.66 0 0 .666 2.104.788 2.483h.005zm2.605-.857c.404.548.768.342 1.135.486.147-.38.42-.792.323-1.402-.045-.297.057-.334-.54-1.32.568.944.748 1.2.797 1.514.078.495-.094.783-.245 1.043-.057.1-.11.19-.147.289l-.065.173-.176-.07a.543.543 0 00-.216-.033c-.041 0-.086 0-.131.004-.05 0-.098.004-.147.004-.188 0-.433-.099-.65-.355-.187-.218-1.416-2.916-1.666-3.815.23.59 1.577 3.275 1.732 3.485l-.004-.004zm.241-4.57c.988 1.158 1.92 2.52 2.242 2.89.192.215.384.322.53.322.131 0 .536-.09.593-.099.367-.746.327-1.427-.633-2.26 1.65 1.353.996 1.951.955 2.582-.47.008-1.106.425-1.6-.264-.303-.42-2.095-3.168-2.095-3.168l.008-.004zm8.175-17.674c-.673-.058-1.404.173-2.09.527 0 0 1.09-.202 1.657-.185-.196 1.444-2.295 3.733-4.92 5.143-.69.371 2.61-1.188 3.27-1.786.956-.858 2.173-1.947 2.08-3.7m-7.564 1.898c2.12-2.009 4.53-5.684 5.142-8.117.592-2.355.102-3.527-.515-4.055-.15.392-.527 1.613-.992 2.636l.976-1.58s.47 2.372-.74 4.99c-1.204 2.62-3.87 6.13-3.87 6.13v-.004zm4.644-2.054c2.197-2.281 1.743-4.154 1.743-4.154l-1.56 1.58c.89-1.06 1.552-2.157 1.846-2.372.592 1.687-.008 3.51-.976 4.661-1.335 1.584-3.271 2.793-4.353 3.688v-.009c.38-.33 1.433-1.451 3.3-3.39v-.004zm3.034 4.186c-.527-.268-1.74-.029-1.74-.029h-.053c.776-.23 1.67-.33 2.222-.152-.188 1.546-1.891 2.887-3.492 3.46-.494.178-2.565.838-2.932.83 4.402-1.622 5.684-2.843 5.995-4.1v-.009zm-2.25 3.395c.87-.149 1.87-.07 2.593.396-.331 1.443-1.948 2.248-3.002 2.425-.735.124-2.87.173-3.148.111 4.724-.074 5.427-1.501 5.786-2.371-.616-.673-2.205-.557-2.205-.557h-.024v-.004zm-2.349 5.514c3.047.075 3.337-.35 3.994-1.15-.175-.475-1.09-.962-1.356-1.093.727.202 1.348.602 1.752 1.084-.588 1.019-1.474 1.498-2.789 1.361a35.98 35.98 0 01-1.654-.206h.053v.004zm3.059 2.116c-.42-1.254-1.405-1.592-1.405-1.592l-.036-.012c.682.157 1.462.808 1.796 1.683-.42.688-1.85.808-2.642.433-.212-.1-.878-.334-1.576-.602 2.818.833 3.247.453 3.855.09h.008zm-5.734 1.007s2.545 2.058 3.035 2.264c.49.206.817.268 1.319-.132.061-.982-.58-1.765-.674-1.856.923.676.96 1.56 1.062 2.136-.453.161-.784.788-1.985.005-.51-.334-1.776-1.498-2.801-2.454l.049.037h-.004zm-20.197-22.17c.261.375.56.854.878 1.41-.972-.59-1.356-1.195-1.822-1.653l1.127.845-.183-.598v-.004zm-.303-.635c.335.672 1.662 1.505 2.85 1.22 0 0-.542.021-1.58-.445-1.037-.466-1.27-.775-1.27-.775zm1.34-.668c-.776.223-1.703.041-1.703.041.25.157.572.219.813.243-.899.157-1.985.116-1.985.116 1.352.433 2.707-.083 2.838-.376-.008.005-.024.009-.032.013l.073-.037h-.004z" fill="#fff"/><path fill-rule="evenodd" clip-rule="evenodd" d="M19.908 17.01s.008.008.008.012c0-.008-.004-.012-.008-.02-.004-.079.037-1.147-1.009-2.158.196.33.241.743.352.957-.396-.515-.899-.763-2.014-1.175 0 0 1.9 1.023 2.65 2.35l.025.042v-.008h-.004z" fill="#fff"/><path d="M16.424 15.067s1.385 1.39 2.684 2.112c-.16-.656-1.218-1.836-1.218-1.836s.417.701.454.957c-.76-.285-1.924-1.233-1.924-1.233h.004z" fill="#fff"/><path fill-rule="evenodd" clip-rule="evenodd" d="M31.069 35.995c-.13-.219-.923-.342-2.222-1.027-.616-.314-1.151-.528.417-2.108-.02-.482.135-1.728.715-2.033.118-.198.163-.508.477-.635.4-.161.993-.009.866-.326.008-.05-.012-.264-.11-.297-.02-.008.106-.132-.017-.289-.212-.19.352-.008-.253-.726-.024-.247-.33-.585-.4-.73 0-.206-.36-.478-.625-.487l-.355.128c-.082-.012-.38-.095-.735-.095a.61.61 0 00-.4.046 4.68 4.68 0 00-.658.198c-.698.173-.612.181-2.246.157-.22.14-.596.226-1.936.086.45.879 1.27 1.704 1.85 2.075-1.445.082-2.964.185-6.019.025-.441.19-1.535-.108-2.144.11h-.004c-.004.013.008.022.008.03s0 .012.004.02c.012.033.037.062.086.087a1.393 1.393 0 00.09.045c.04.017.077.033.126.042.637.128.172.008 1.27.342.482.38-1.147.14-.996.396.012 0 .723.375 2.042-.066 1.192-.054 1.74.429 4.361.482.041.021.155.083.405.322-.188 2.12-1.801 1.63-3.451 4.706-.613.145-1.442 1.477-1.532 1.865-.812.008-1.837 1.043-2.674 1.831-.425.4-1.552.693-1.777 1.415-.016.132.02.276.127.433.363.474.396.635.572 1.204.187.392.465.858.726.932.237.004.605.009.793.004.032-.057.032-.074.024-.103.008-.024.004-.04-.008-.09-.086-.297-.56-.079-.596-1.502.073-.334-.02-1.584 1.56-1.757 1.204-.132 1.936-.371 2.352-.585 1.054-.091 1.462.185 1.989-.091.04-.091.07-.157.098-.231.122-.252.282-.43.457-.532.02 0 .029-.008.05-.008.069-.034.154-.054.228-.083.028 0 .057-.012.086-.012.249-.116.514-.202.784-.29 1.098-.3 2.41-.445 3.63-.44.694-.244 2.283-.425 3.23-1.522.062-.293.009 0-.257-.912l-.008-.004z" fill="#FCCD00"/><path d="M29.68 30.241c0 .05 0 .095-.008.14-.037.207-.339.462-.371.454 0 0 .187-.313.171-.433a.267.267 0 00-.012-.062c-.127.05-.253.095-.33.124a11.14 11.14 0 00-.491.338c-.053.09-.11.186-.147.297-.078.219-.082.487-.082.755.02.28.041.573.053.82a2.57 2.57 0 01-.306.508c.098.231-.204 1.332-.171 1.357 0 0 .18-.594.465-1.023.209-.313.519-.441.62-.672.083-.433-.032-1.213.16-1.667l.71-.453.058-.297s.04-.116.09-.235l-.404.045-.005.004z" fill="#936B2E"/><path fill-rule="evenodd" clip-rule="evenodd" d="M19.961 30.522c1.033-.07 1.924-.161 2.912-.198-.935-.132-3.953-.153-4.762-.087.102.09 1.18.24 1.287.276 0 .009.126.137.004.355 0 0 .408-.173.563-.342l-.004-.004zm10.553 6.512c.13-.338.016-.61-.017-.77.05-.063.22-.088.266-.145 0 0-1.434-.508-2.757-.619 0-.19.102-.38.151-.474-.188-.004-.371.14-.718.33-.441.033-1.352.045-2.728.37 1.437.08 5.517.459 5.652 1.568a.713.713 0 00.15-.26z" fill="#936B2E"/><path fill-rule="evenodd" clip-rule="evenodd" d="M21.779 39.707c.024-1.019.465-.907 1.09-1.633 0 0 .437-.809.539-1.09.294.063.376.38.49.459.94-.058 2.197-.532 2.458-1.085.67-.078 1.736-.025 2.132.16-.008.021-3.381 1.094-4.365 1.399-.14.033-.388.268-.605.45.008 0-.18-.103-.188-.103.058-.124.123-.244.156-.343-.335.289-.862.883-1.703 1.79l-.004-.004z" fill="#936B2E"/><path fill-rule="evenodd" clip-rule="evenodd" d="M26.642 28.752c.028.029.036.029.036.078-.016-.008-.093-.041-.036-.041v-.04.003z" fill="#F6D300"/><path fill-rule="evenodd" clip-rule="evenodd" d="M28.239 28.608c-.253-.008-2.307.528-2.307.528s.592-.38 1.31-.565c.72-.186.997.037.997.037zm-1.662 4.174l1.396.256.278-.483s.172-.99-.747-1.51l-.217-.552s-1.376-.264-2.61-.054l-1.159.483s1.188-.301 2.034-.301c.845 0 .935.165.935.165s.24.338-.098.998c.171.689.171.833.171.833l.017.165z" fill="#936B2E"/><path fill-rule="evenodd" clip-rule="evenodd" d="M27.422 31.227s.584-.417.666-1.225c.171.734-.515 1.761-.515 1.761l-.15-.536zm2.45-1.25c0-.074-.085-.074-.094-.111 0-.017.02-.12-.024-.132-.025-.004-.029-.013-.082 0-.04.016-.118.062-.15.066l.077-.095.081-.099.07-.025v-.016c0-.058-.078-.108-.094-.178v-.012l-.057.02c.024-.086.053-.09.102-.098h.053s.012-.017.02-.02c.02-.022.053-.083.041-.108-.073-.107-.184-.17-.27-.264l-.122-.173c-.082.02-.098.02-.106.07.029.103-.082.136-.208.206.008-.05.077-.09.07-.111a.114.114 0 00-.05-.05c.033-.02.09-.045.114-.066a.168.168 0 00.037-.041c-.016-.017-.24.004-.261.012.057-.111.33-.185.433-.206-.041-.16-.278-.59-.278-.59l-.367-.07-.095-.012.274.202h-.31l-.568.235.625.268.122.181s-.257.5-.281.631l.424.095.34.561s-.49.149-.903.252c.24.058 1.307-.124 1.446-.28v-.046l-.009.004zm-5.419-1.815s.695.062 1.168-.198c1.213 0 1.818-.045 1.818-.045l-1.654.28s-.658.384-1.332-.037zm2.977.005l-1.617.292 2.148-.123-.53-.17z" fill="#936B2E"/><path d="M31.032 29.63L31 29.607c-.025-.111.069-.087.09-.19a.188.188 0 00-.041-.02.45.45 0 01-.147.074c0-.004.008-.012.008-.017h-.004c.053-.136.085-.156.208-.198-.033-.045-.078-.078-.098-.136v-.008a.337.337 0 01-.118.025c0-.12.069-.103.159-.12.037-.029.04-.045.04-.099.005.004-.175-.165-.253-.268-.057 0-.081.037-.11.095 0 .14-.008.107-.098.16.037-.036.053-.07.057-.14-.04.013-.106.038-.155.046.05-.041.119-.09.119-.153-.066-.037-.058-.016-.135-.029.106-.12.126-.12.273-.165a.873.873 0 00-.339-.437c-.012.013-.028.02-.044.033-.005 0-.013.009-.017.013-.004 0-.008.004-.012.008-.008.008-.02.012-.033.02-.085.054-.155.236-.155.236s.07.227.057.33c-.02.103-.192.313-.192.313l-.192.05.062.057c.032.038.045.07.045.07l.461.149.237.52-.519.099.535.037s.498-.083.515-.074c0-.021-.135-.22-.176-.256h.004z" fill="#936B2E"/><path fill-rule="evenodd" clip-rule="evenodd" d="M20.402 38.115l2.111-.388.433-.775s-1.846.363-2.544 1.163z" fill="#936B2E"/><path d="M35.932 43.007c-.032-.36-.057-1.081-.918-1.106H35s-.645-.672-1.16-.71c.254.405.421.78.47.954.02.07.037.309.029.334-.139.346 0 .606.106.816.045.091.09.174.106.252-.204.124-.318.289-.339.487a.214.214 0 00.053.16c-.09.091-.416.442-.482.479a.477.477 0 00-.387-.198.949.949 0 00-.417.12l-.588.358a.198.198 0 00-.094.128.225.225 0 00.029.161c.27.425.927 1.106 1.547 1.106.25 0 .592-.108.817-.623.098-.174.13-.376.16-.57.032-.19.06-.367.138-.47.09-.115.2-.218.315-.326.322-.3.69-.647.628-1.352z" fill="#fff"/><path fill-rule="evenodd" clip-rule="evenodd" d="M35.728 43.023c-.045-.49-.155-.845-.755-.862h-.05c-.167-.293-.534-.627-.726-.664.122.161.314.561.42.817a.836.836 0 01.22-.017c-.134.046-.265.202-.305.256-.168.425.322.796.298 1.518a7.551 7.551 0 01-.155-.363c-.119.066-.237.169-.254.334l.34.42-.29-.152s-.282.235-.286.24c.073.25.294.54.294.54-.082-.033-.331-.174-.388-.454-.029.016-.258.28-.254.293.058.169.254.556.254.556-.47-.42-.331-1.047-1.009-.721l-.588.354c.363.578 1.515 1.646 2.01.5.175-.302.11-.8.322-1.073.363-.47.976-.697.898-1.534l.004.012z" fill="#FCCD00"/><path d="M34.826 43.625c-.033-.392-.062-1.18-1.005-1.204h-.012s-.707-.734-1.262-.771c.278.437.457.85.515 1.04.02.078.04.337.028.366-.15.376 0 .664.119.891.049.1.098.186.114.272-.225.136-.347.314-.368.528a.233.233 0 00.058.178c-.098.099-.458.482-.527.52a.527.527 0 00-.425-.215c-.127 0-.27.041-.437.12-.008 0-.012.004-.02.012l-.642.392a.21.21 0 00-.102.14.255.255 0 00.029.173c.294.466 1.009 1.205 1.69 1.205.27 0 .646-.12.89-.681.107-.19.14-.408.176-.619.033-.206.066-.4.152-.511.098-.128.216-.24.343-.355.35-.33.751-.705.686-1.477v-.004z" fill="#fff"/><path fill-rule="evenodd" clip-rule="evenodd" d="M34.601 43.642c-.049-.532-.167-.92-.825-.936-.02 0-.037 0-.053.004-.184-.322-.584-.685-.792-.722.135.177.343.614.457.89a.824.824 0 01.241-.016c-.147.05-.29.223-.335.28-.183.463.352.867.327 1.655a4.642 4.642 0 01-.167-.396c-.127.074-.258.185-.278.367l.371.458-.314-.17-.31.26c.081.277.322.59.322.59-.09-.037-.363-.19-.424-.495-.029.017-.282.306-.274.322.065.181.278.606.278.606-.515-.457-.36-1.142-1.099-.788l-.53.545c.395.631 1.543 1.642 2.078.392.192-.33.122-.87.351-1.172.396-.511 1.062-.759.98-1.67l-.004-.004z" fill="#FCCD00"/><path d="M33.347 44.339c-.032-.392-.06-1.18-1.004-1.204h-.012s-.707-.735-1.262-.772c.277.438.457.85.514 1.04.02.078.041.338.029.367-.151.375 0 .664.118.89.05.1.098.186.115.273-.225.136-.348.313-.368.528a.234.234 0 00.057.177c-.098.1-.457.483-.526.52a.527.527 0 00-.425-.215 1.057 1.057 0 00-.458.132l-.64.392a.21.21 0 00-.103.14.254.254 0 00.029.174c.294.466 1.008 1.204 1.69 1.204.27 0 .646-.12.89-.68.107-.19.14-.409.176-.62.033-.205.066-.4.151-.51a2.79 2.79 0 01.343-.355c.352-.33.752-.706.686-1.477v-.004z" fill="#fff"/><path fill-rule="evenodd" clip-rule="evenodd" d="M33.123 44.36c-.049-.532-.167-.92-.825-.937-.02 0-.037 0-.053.004-.184-.321-.584-.684-.792-.721.134.177.343.614.457.89a.826.826 0 01.241-.016c-.147.05-.29.223-.335.28-.183.462.351.867.327 1.654a4.609 4.609 0 01-.168-.396c-.126.075-.257.186-.277.367l.371.458-.314-.169-.31.26c.081.276.322.59.322.59-.09-.037-.363-.19-.424-.495-.03.017-.282.305-.274.322.065.181.278.606.278.606-.515-.458-.36-1.143-1.099-.788l-.641.388c.396.631 1.654 1.798 2.189.544.192-.33.122-.87.351-1.171.396-.511 1.062-.759.98-1.67h-.004z" fill="#FCCD00"/><path d="M12.292 43.007c.033-.36.057-1.081.919-1.106h.012s.645-.672 1.16-.71c-.253.405-.42.78-.47.954-.02.07-.037.309-.028.334.138.346 0 .606-.107.816-.045.091-.09.174-.106.252.204.124.319.289.34.487a.214.214 0 01-.054.16c.09.091.417.442.482.479a.477.477 0 01.388-.198.95.95 0 01.416.12l.588.358a.197.197 0 01.094.128.225.225 0 01-.028.161c-.27.425-.927 1.106-1.548 1.106-.249 0-.592-.108-.817-.623-.098-.174-.13-.376-.159-.57-.033-.19-.061-.367-.139-.47-.09-.115-.2-.218-.314-.326-.323-.3-.69-.647-.63-1.352z" fill="#fff"/><path fill-rule="evenodd" clip-rule="evenodd" d="M12.496 43.023c.045-.49.155-.845.755-.862h.05c.167-.293.534-.627.726-.664-.122.161-.314.561-.42.817a.836.836 0 00-.22-.017c.134.046.265.202.306.256.167.425-.323.796-.298 1.518.073-.161.122-.28.155-.363.118.066.236.169.253.334l-.34.42.29-.152s.283.235.287.24c-.074.25-.294.54-.294.54.081-.033.33-.174.388-.454.028.016.257.28.253.293a6.544 6.544 0 01-.253.556c.47-.42.33-1.047 1.008-.721l.588.354c-.363.578-1.515 1.646-2.009.5-.175-.302-.11-.8-.322-1.073-.364-.47-.976-.697-.899-1.534l-.004.012z" fill="#FCCD00"/><path d="M13.403 43.625c.032-.392.06-1.18 1.004-1.204h.012s.707-.734 1.262-.771c-.277.437-.457.85-.514 1.04a1.59 1.59 0 00-.029.366c.151.376 0 .664-.118.891-.05.1-.098.186-.115.272.225.136.348.314.368.528a.233.233 0 01-.057.178c.098.099.457.482.527.52a.527.527 0 01.424-.215c.127 0 .27.041.437.12.008 0 .012.004.02.012l.642.392a.21.21 0 01.102.14.255.255 0 01-.029.173c-.294.466-1.008 1.205-1.69 1.205-.27 0-.646-.12-.89-.681-.107-.19-.14-.408-.176-.619-.033-.206-.066-.4-.151-.511a2.787 2.787 0 00-.343-.355c-.352-.33-.752-.705-.686-1.477v-.004z" fill="#fff"/><path fill-rule="evenodd" clip-rule="evenodd" d="M13.627 43.642c.05-.532.168-.92.825-.936.02 0 .037 0 .053.004.184-.322.584-.685.793-.722-.135.177-.343.614-.458.89a.826.826 0 00-.24-.016c.146.05.29.223.334.28.184.463-.351.867-.326 1.655.081-.173.134-.305.167-.396.127.074.257.185.278.367l-.372.458.315-.17.31.26c-.082.277-.323.59-.323.59.09-.037.364-.19.425-.495.029.017.282.306.274.322a8.72 8.72 0 01-.278.606c.514-.457.36-1.142 1.098-.788l.531.545c-.396.631-1.543 1.642-2.078.392-.192-.33-.123-.87-.352-1.172-.396-.511-1.061-.759-.98-1.67l.004-.004z" fill="#FCCD00"/><path d="M14.877 44.339c.033-.392.061-1.18 1.005-1.204h.012s.706-.735 1.262-.772c-.278.438-.458.85-.515 1.04a1.59 1.59 0 00-.028.367c.15.375 0 .664-.119.89-.049.1-.098.186-.114.273.224.136.347.313.367.528a.234.234 0 01-.057.177c.098.1.457.483.527.52a.527.527 0 01.425-.215 1.057 1.057 0 01.457.132l.641.392a.21.21 0 01.102.14.254.254 0 01-.028.174c-.294.466-1.009 1.204-1.691 1.204-.27 0-.645-.12-.89-.68-.106-.19-.14-.409-.176-.62-.032-.205-.065-.4-.151-.51a2.787 2.787 0 00-.343-.355c-.351-.33-.751-.706-.686-1.477v-.004z" fill="#fff"/><path fill-rule="evenodd" clip-rule="evenodd" d="M15.101 44.36c.05-.532.168-.92.825-.937.02 0 .037 0 .053.004.184-.321.585-.684.793-.721-.135.177-.343.614-.458.89a.825.825 0 00-.24-.016c.146.05.29.223.334.28.184.462-.35.867-.326 1.654.081-.173.134-.305.167-.396.127.075.257.186.278.367l-.372.458.315-.169.31.26c-.082.276-.323.59-.323.59.09-.037.364-.19.425-.495.029.017.282.305.274.322a8.72 8.72 0 01-.278.606c.514-.458.36-1.143 1.099-.788l.64.388c-.396.631-1.653 1.798-2.188.544-.192-.33-.123-.87-.351-1.171-.397-.511-1.062-.759-.98-1.67h.003z" fill="#FCCD00"/><path fill-rule="evenodd" clip-rule="evenodd" d="M23.992 59.051l-.107-8.942c-.8 3.221-.992 5.284-.914 6.604-.466-.796-.98-1.951-.833-2.797-.38 2.248.771 3.848.914 4.067-1.825.371-2.613-.297-2.948-.858 1.34-.124 1.699.26 1.699.26s-.956-1.237-1.924-1.217c-.408.008-.8.013-1.139-.115l.539-1.724c.376.185 1.025.284 1.772-.54-2.086-.8-.539-3.272-.539-3.272-1.474 1.2-1.368 2.983-.36 3.345-.395.293-1.224.22-1.224.22l-.6 1.72c-.266-.252-.462-.665-.552-1.354 0 0-.506 2.677 1.058 2.821.384.52 1.887 2.215 4.386.858.306.883.78.94.78.94l-.008-.016zm1.356-11.677s-.282.94-1.307 1.923c0 0-.004 0-.009.004 0 0-.004 0-.008-.004-1.025-.978-1.306-1.922-1.306-1.922s-.241 1.464 1.298 2.487h.033c1.535-1.023 1.299-2.488 1.299-2.488zm1.976-31.384s-1.609.656-2.21 3.102c.989-2.037 1.793-2.157 1.793-2.157l.413-.944h.004z" fill="#fff"/><path fill-rule="evenodd" clip-rule="evenodd" d="M27.304 16.015s-.915 2.508-.915 3.944c-.38-1.11.188-3.255.188-3.255l.723-.689h.004zm-6.338-.025s1.609.656 2.21 3.102c-.99-2.037-1.794-2.157-1.794-2.157l-.412-.944h-.004z" fill="#fff"/><path fill-rule="evenodd" clip-rule="evenodd" d="M20.99 16.015s.915 2.508.915 3.944c.38-1.11-.188-3.255-.188-3.255l-.723-.689h-.004z" fill="#fff"/><path fill-rule="evenodd" clip-rule="evenodd" d="M25.11 9.008a.128.128 0 010 .256.128.128 0 010-.256zm.789.132c.06 0 .106.05.106.107a.109.109 0 01-.106.107.109.109 0 01-.106-.107c0-.058.049-.107.106-.107zm-3.463 0c.06 0 .106.05.106.107a.109.109 0 01-.106.107.109.109 0 01-.106-.107c0-.058.049-.107.106-.107zm.804-.132a.128.128 0 010 .256.128.128 0 010-.256zm1.086.087a.147.147 0 11-.294 0 .147.147 0 11.294 0z" fill="#1D1800"/><path d="M14.726 12.171l.04.07v.54h2.725v-.54l.049-.07c.208-.338.42-.808.624-1.398.155-.441.168-.792.033-1.043-.155-.297-.515-.504-1.107-.636l-.053-.012-.045-.033s-.016-.012-.028-.016l-.033.26-.674-.1-.204-.012-.727.111-.037-.26s-.016.013-.028.017l-.045.033-.053.012c-.588.132-.952.339-1.103.636-.13.251-.122.602.033 1.043.208.59.42 1.06.625 1.398h.008z" fill="#FCCD00"/><path fill-rule="evenodd" clip-rule="evenodd" d="M16.882 8.93c.073-.017.163.004.204.049l-.343 1.819s-.004-.041-.008-.062l-.037.02s-.024.013-.061.042l.25-1.869h-.005z" fill="#fff"/><path fill-rule="evenodd" clip-rule="evenodd" d="M16.326 12.34a.17.17 0 00-.04-.086h.085a.149.149 0 00-.045.087zm.045.157h-.09a.148.148 0 00.046-.09.16.16 0 00.044.09zm.262-.157a.128.128 0 00-.037-.074l.086.008a.198.198 0 00-.05.067zm.027.169h-.08a.184.184 0 00.044-.07.106.106 0 00.036.07zm.254-.165s-.016-.033-.028-.049l.06.008s-.024.025-.032.041zm.02.182h-.06l.032-.045a.17.17 0 00.028.045zm.246-.136s-.012-.033-.02-.05l.056.013s-.028.024-.036.036zm-.005.164l-.052-.008.036-.036c0 .016.008.032.02.044m.25-.103s-.008-.032-.016-.049l.052.017s-.028.02-.036.032zm-.021.145l-.032-.008.024-.025c0 .012.004.02.008.029" fill="#FCCD00"/><path fill-rule="evenodd" clip-rule="evenodd" d="M15.003 9.598c-.069.095-.081.206-.024.35l-.127-.177.155-.173m-.249.313l-.159.182.13.181c-.056-.148-.056-.264.025-.367m-.273.38l-.147.193.147.174c-.07-.145-.074-.277 0-.363m-.196.321l-.14.19.156.157c-.078-.136-.086-.252-.02-.347m.432-.016l-.138.19.159.156c-.078-.136-.086-.255-.02-.35m.51-.087l-.135.186.151.152c-.077-.132-.081-.247-.02-.338m-.241-.28l-.155.185.15.173c-.069-.148-.069-.268.005-.358zm.249-.314l-.155.186.15.173c-.069-.149-.069-.264.005-.359zm-.461-.668l-.168.17.135.185c-.057-.153-.05-.273.033-.355zm-.27.326l-.171.19.155.19c-.07-.162-.066-.29.016-.384m-.261.387l-.131.207.118.19c-.057-.15-.053-.29.013-.397zm.27.924l-.123.207.167.169c-.086-.145-.106-.24-.045-.376zm.077.565l-.123.215.184.144c-.098-.132-.118-.251-.061-.359zm.87-.676l-.123.169.139.144c-.07-.123-.078-.226-.016-.313zm-.69.375l-.119.198.163.165c-.081-.144-.102-.23-.045-.363zm2.523-1.542l.155.173-.126.177c.057-.144.045-.251-.025-.35m.25.313c.081.1.081.215.024.367l.13-.181-.159-.182m.274.38c.073.09.07.222 0 .363l.147-.174-.147-.194m.196.322c.065.095.061.21-.02.347l.155-.157-.139-.19m-.433-.016c.065.095.057.21-.02.35l.159-.156-.139-.19m-.51-.087c.065.091.057.207-.02.338l.15-.152-.134-.186m.24-.28c.074.095.078.21.005.359l.15-.174-.155-.185zm-.249-.314c.074.091.074.21.004.36l.152-.174-.156-.186zm.462-.668c.081.087.094.202.032.355l.135-.186-.167-.169zm.27.326c.081.095.085.223.016.384l.155-.19-.172-.19m.262.388c.065.103.07.247.012.396l.118-.19-.13-.206zm-.27.924c.061.136.041.227-.045.375l.168-.169-.123-.206zm-.077.565c.057.107.036.227-.062.359l.184-.145-.122-.214zm-.87-.677c.057.087.053.19-.017.314l.14-.145-.123-.169zm.69.376c.061.132.037.222-.045.363l.163-.165-.118-.198z" fill="#fff"/><path d="M17.07 11.47c-.045.074-.094.14-.155.202.077-.016.15-.024.224-.024h.041a1.07 1.07 0 00.343-.248.988.988 0 00-.453.066m-.698-.223v.062c0 .128-.017.252-.045.371.053-.07.118-.132.188-.19.102-.197.155-.408.15-.606a1.134 1.134 0 00-.293.363zm.155.706c.15.008.294.016.424.033a.992.992 0 00.356-.215c-.245-.05-.556.02-.784.182m.506-.611c-.29.054-.592.289-.74.582.303-.062.601-.301.74-.582z" fill="#fff"/><path fill-rule="evenodd" clip-rule="evenodd" d="M15.436 8.93l.25 1.868c-.037-.029-.062-.041-.062-.041l-.037-.021c0 .02-.008.041-.008.062l-.343-1.82c.037-.044.131-.06.204-.049" fill="#fff"/><path fill-rule="evenodd" clip-rule="evenodd" d="M15.996 12.34a.22.22 0 00-.045-.086h.085a.144.144 0 00-.04.087zm-.046.157a.148.148 0 00.046-.09.193.193 0 00.045.086h-.09v.004zm-.265-.157a.134.134 0 00-.049-.066l.086-.008s-.028.046-.037.075zm-.028.169s.028-.045.036-.07a.146.146 0 00.045.066h-.081v.004zm-.254-.165s-.02-.028-.032-.04l.06-.009-.028.049zm-.016.182s.02-.029.029-.045c.008.016.02.028.032.04h-.06v.005zm-.249-.136s-.024-.03-.036-.037l.056-.012s-.016.032-.02.048zm.004.164s.016-.028.02-.044a.08.08 0 00.036.036l-.056.008zm-.249-.103s-.025-.024-.037-.032l.053-.017s-.012.033-.016.05zm.017.145s.008-.02.008-.029l.024.025-.032.008v-.004z" fill="#FCCD00"/><path d="M15.183 11.652c.074 0 .151.008.225.024a1.022 1.022 0 01-.155-.202.98.98 0 00-.454-.066c.09.1.209.186.343.248h.041m.629-.173c.07.057.13.123.188.19a1.57 1.57 0 01-.045-.372v-.062a1.251 1.251 0 00-.294-.363c0 .194.049.409.151.607zm-.8.284c.098.09.216.165.355.215.13-.017.278-.025.425-.033a1.073 1.073 0 00-.784-.182m.282-.429c.134.28.436.516.739.582-.148-.289-.45-.528-.74-.582zm.87-.581c-.074.156-.115.35-.115.548 0 .198.04.396.114.557.074-.165.115-.359.115-.557 0-.198-.041-.392-.115-.548z" fill="#fff"/><path fill-rule="evenodd" clip-rule="evenodd" d="M16.24 6.896c-.024.05-.052.111-.044.17.032.218.355-.038.416-.087v.515c-.069-.058-.232-.19-.334-.169-.209.033.032.375.081.437h-.49c.057-.074.18-.243.163-.35-.032-.219-.355.037-.416.086v-.515c.07.057.233.19.335.169.208-.033-.033-.376-.082-.437h.49a1.51 1.51 0 00-.118.181zm-.126 1.002c.204 0 .372.178.372.392a.384.384 0 01-.372.392.384.384 0 01-.371-.392c0-.214.167-.392.371-.392z" fill="#FCCD00"/><path fill-rule="evenodd" clip-rule="evenodd" d="M16.776 12.336c.045 0 .085.042.085.091 0 .05-.036.087-.085.087a.087.087 0 01-.086-.087c0-.045.037-.09.086-.09zm.518.013c.041 0 .07.033.07.074 0 .041-.033.074-.07.074-.036 0-.069-.033-.069-.074 0-.041.033-.074.07-.074zm-2.278 0c.04 0 .069.033.069.074 0 .041-.033.074-.07.074-.036 0-.069-.033-.069-.074 0-.041.033-.074.07-.074zm.531-.013c.044 0 .085.042.085.091 0 .05-.037.087-.085.087a.087.087 0 01-.086-.087c0-.045.037-.09.086-.09zm.71.091a.1.1 0 01-.098.103.1.1 0 01-.098-.103.1.1 0 01.098-.103.1.1 0 01.098.103z" fill="#1D1800"/><path d="M30.64 12.155l.04.07v.54h2.724v-.54l.05-.07c.208-.338.42-.809.624-1.398.155-.442.168-.792.033-1.044-.155-.297-.514-.503-1.107-.635l-.053-.012-.045-.033s-.016-.013-.028-.017l-.033.26s-.702-.12-.772-.124l-.833.124-.037-.26s-.016.012-.028.017l-.045.033-.053.012c-.588.132-.952.338-1.103.635-.13.252-.122.602.033 1.044.208.59.42 1.06.625 1.398h.008z" fill="#FCCD00"/><path fill-rule="evenodd" clip-rule="evenodd" d="M32.829 8.93c.073-.017.163.004.204.049l-.343 1.819s-.004-.041-.008-.062l-.037.02s-.025.013-.061.042l.249-1.869h-.004z" fill="#fff"/><path fill-rule="evenodd" clip-rule="evenodd" d="M32.269 12.34a.17.17 0 00-.04-.086h.085a.149.149 0 00-.045.087zm.045.157h-.09a.148.148 0 00.045-.09.16.16 0 00.045.09zm.266-.157a.128.128 0 00-.037-.074l.085.008a.2.2 0 00-.049.067zm.023.169h-.08a.186.186 0 00.044-.07.106.106 0 00.036.07zm.257-.165s-.015-.033-.027-.049l.06.008s-.024.025-.032.041zm.017.182h-.06l.032-.045a.189.189 0 00.028.045zm.245-.136s-.012-.033-.02-.05l.056.013s-.028.024-.036.036zm0 .164l-.052-.008.036-.036c0 .016.008.032.02.044m.245-.103s-.008-.032-.016-.049l.053.017s-.028.02-.037.032zm-.021.145l-.031-.008.023-.025c0 .012.005.02.008.029" fill="#FCCD00"/><path fill-rule="evenodd" clip-rule="evenodd" d="M30.946 9.598c-.07.095-.081.206-.024.35l-.127-.177.155-.173m-.249.313l-.159.182.13.181c-.056-.148-.056-.264.025-.367m-.273.38l-.148.193.148.174c-.07-.145-.074-.277 0-.363m-.197.321l-.138.19.155.157c-.078-.136-.086-.252-.02-.347m.432-.016l-.139.19.16.156c-.078-.136-.086-.255-.02-.35m.51-.087l-.135.186.151.152c-.078-.132-.082-.247-.02-.338m-.241-.28l-.155.185.15.173c-.069-.148-.069-.268.005-.358zm.249-.314l-.155.186.15.173c-.069-.149-.069-.264.005-.359zm-.462-.668l-.167.17.135.185c-.057-.153-.05-.273.032-.355zm-.27.326l-.17.19.155.19c-.07-.162-.066-.29.016-.384m-.262.387l-.13.207.118.19c-.057-.15-.053-.29.012-.397zm.27.924l-.122.207.167.169c-.086-.145-.106-.24-.045-.376zm.078.565l-.123.215.184.144c-.098-.132-.119-.251-.061-.359zm.87-.676l-.123.169.139.144c-.07-.123-.078-.226-.017-.313zm-.69.375l-.12.198.164.165c-.081-.144-.102-.23-.045-.363zm2.523-1.542l.155.173-.127.177c.058-.144.046-.251-.024-.35m.25.313c.08.1.08.215.024.367l.13-.181-.159-.182m.274.38c.073.09.07.222 0 .363l.147-.174-.147-.194m.196.322c.065.095.06.21-.02.347l.154-.157-.138-.19m-.433-.016c.065.095.057.21-.02.35l.159-.156-.14-.19m-.51-.087c.066.091.057.207-.02.338l.15-.152-.134-.186m.241-.28c.074.095.078.21.004.359l.151-.174-.155-.185zm-.249-.314c.074.091.074.21.004.36l.151-.174-.155-.186zm.462-.668c.081.087.093.202.032.355l.135-.186-.167-.169zm.269.326c.082.095.086.223.016.384l.156-.19-.172-.19m.261.388c.066.103.07.247.013.396l.118-.19-.13-.206zm-.27.924c.062.136.042.227-.044.375l.167-.169-.122-.206zm-.077.565c.057.107.037.227-.061.359l.184-.145-.123-.214zm-.87-.677c.058.087.053.19-.016.314l.139-.145-.123-.169zm.69.376c.062.132.037.222-.044.363l.163-.165-.118-.198z" fill="#fff"/><path d="M33.012 11.47c-.045.074-.094.14-.155.202a1.07 1.07 0 01.225-.024h.04c.135-.062.254-.149.344-.248a.988.988 0 00-.454.066m-.694-.223v.062c0 .128-.016.252-.045.371.053-.07.119-.132.188-.19.102-.197.156-.408.151-.606a1.15 1.15 0 00-.294.363zm.152.706c.15.008.293.016.424.033a.993.993 0 00.355-.215c-.245-.05-.555.02-.784.182m.507-.611c-.29.054-.593.289-.74.582.303-.062.6-.301.74-.582z" fill="#fff"/><path fill-rule="evenodd" clip-rule="evenodd" d="M31.38 8.93l.248 1.868c-.037-.029-.061-.041-.061-.041l-.037-.021c0 .02-.008.041-.008.062l-.343-1.82c.037-.044.13-.06.204-.049" fill="#fff"/><path fill-rule="evenodd" clip-rule="evenodd" d="M31.938 12.34a.22.22 0 00-.044-.086h.085a.144.144 0 00-.04.087zm-.044.157a.148.148 0 00.044-.09.195.195 0 00.045.086h-.09v.004zm-.266-.157a.133.133 0 00-.049-.066l.086-.008s-.029.046-.037.075zm-.024.169s.028-.045.036-.07a.145.145 0 00.044.066h-.08v.004zm-.258-.165s-.02-.028-.032-.04l.06-.009-.028.049zm-.016.182s.02-.029.028-.045a.16.16 0 00.032.04h-.06v.005zm-.246-.136s-.024-.03-.036-.037l.056-.012s-.016.032-.02.048zm.001.164s.016-.028.02-.044a.08.08 0 00.036.036l-.056.008zm-.25-.103s-.024-.024-.036-.032l.052-.017s-.012.033-.016.05zm.021.145s.008-.02.008-.029l.024.025-.032.008v-.004z" fill="#FCCD00"/><path d="M31.126 11.652c.073 0 .15.008.224.024a1.03 1.03 0 01-.155-.202.98.98 0 00-.453-.066c.09.1.208.186.343.248h.04m.63-.173c.069.057.13.123.188.19a1.565 1.565 0 01-.046-.372v-.062a1.248 1.248 0 00-.293-.363c0 .194.049.409.15.607zm-.801.284c.098.09.217.165.356.215.13-.017.277-.025.424-.033a1.073 1.073 0 00-.784-.182m.286-.429c.135.28.437.516.74.582-.148-.289-.45-.528-.74-.582zm.866-.581c-.074.156-.115.35-.115.548 0 .198.041.396.115.557.073-.165.114-.359.114-.557 0-.198-.04-.392-.114-.548z" fill="#fff"/><path fill-rule="evenodd" clip-rule="evenodd" d="M32.183 6.896c-.024.05-.053.111-.044.17.032.218.355-.038.416-.087v.515c-.07-.058-.233-.19-.335-.169-.208.033.033.375.082.437h-.49c.057-.074.18-.243.163-.35-.033-.219-.355.037-.416.086v-.515c.069.057.232.19.334.169.209-.033-.032-.376-.081-.437h.49a1.51 1.51 0 00-.119.181zm-.126 1.002c.204 0 .371.178.371.392a.384.384 0 01-.371.392.384.384 0 01-.372-.392c0-.214.168-.392.372-.392z" fill="#FCCD00"/><path fill-rule="evenodd" clip-rule="evenodd" d="M32.718 12.336c.045 0 .086.042.086.091 0 .05-.037.087-.086.087a.087.087 0 01-.085-.087c0-.045.036-.09.085-.09zm.519.013c.04 0 .07.033.07.074 0 .041-.034.074-.07.074-.037 0-.07-.033-.07-.074 0-.041.033-.074.07-.074zm-2.279 0c.041 0 .07.033.07.074 0 .041-.033.074-.07.074-.036 0-.07-.033-.07-.074 0-.041.034-.074.07-.074zm.532-.013c.044 0 .085.042.085.091 0 .05-.037.087-.086.087a.087.087 0 01-.085-.087c0-.045.036-.09.085-.09zm.71.091a.1.1 0 01-.098.103.1.1 0 01-.098-.103.1.1 0 01.098-.103.1.1 0 01.098.103z" fill="#1D1800"/><path d="M30.31 12.534c-.887-.296-2.97-1.365-3.705-2.334-.18-.016-.412-.033-.674-.054.797.838 2.785 2.059 4.378 2.388zm-7.886-2.384c-.254.021-.486.038-.674.058-.744.97-2.818 2.034-3.7 2.33 1.592-.33 3.577-1.55 4.373-2.383v-.005z" fill="#008FD0"/><path d="M22.656 10.134c-.682.788-2.205 1.802-4.006 2.405 1.887-.335 3.872-1.428 4.692-2.442-.232.012-.465.025-.686.041v-.004zm3.039-.004c-.22-.013-.454-.029-.686-.037.82 1.018 2.805 2.107 4.692 2.441-1.801-.598-3.324-1.616-4.006-2.404z" fill="#008FD0"/><path fill-rule="evenodd" clip-rule="evenodd" d="M16.56 13.735c-.18.074-.49.21-.658.325.082-.144.09-.317-.037-.44.217.028.482.119.694.119m-1.388-.149c-.049.36.086.549.462.631-.074.046-.18.165-.237.227-.184-.152-.441-.59-.413-.841.041-.03.139-.017.188-.017zm4.713 8.043c-.013.805-.458 1.7-1.038 1.963.65-.177.94-.911.94-.911-.033.214-.147.713-.282.977-.678.574-1.683.784-2.026.57.931.033 2.144-1.696 2.406-2.603" fill="#fff"/><path fill-rule="evenodd" clip-rule="evenodd" d="M20.247 16.717c2.058 2.396 1.074 5.238.829 6.372.143-1.217.098-2.85-.58-3.551.09.425.119 2.602-.535 3.984.368-1.159.482-4.19-.527-6.397.535.268 1.034 1.44 1.32 2.058 0-1.163-.503-2.47-.503-2.47l-.004.004zm7.02-2.813c.776.223 1.703.041 1.703.041-.25.157-.572.219-.813.243.898.157 1.985.116 1.985.116-1.352.433-2.708-.083-2.838-.376.008.005.024.009.032.013l-.073-.037h.004zm4.414-.169c.18.074.49.21.658.325-.082-.144-.09-.317.037-.44-.217.028-.482.119-.695.119m1.389-.149c.049.36-.086.549-.462.631.074.046.18.165.237.227.184-.152.441-.59.413-.841-.041-.03-.14-.017-.188-.017zM16.306 25.296c1.078.433 1.715-.046 1.907-.235-.539.268-1.384.478-2.087-.157-.571 2.479 1.863 1.872 2.075 1.674-.012.005-2.099.508-1.895-1.282zm12.117-3.663c.012.805.457 1.7 1.037 1.963-.65-.177-.94-.911-.94-.911.033.214.148.713.282.977.678.574 1.683.784 2.026.57-.931.033-2.144-1.696-2.405-2.603M32 25.296c-1.078.433-1.715-.046-1.907-.235.539.268 1.384.478 2.087-.157.571 2.479-1.863 1.872-2.075 1.674.012.005 2.1.508 1.895-1.282zm-4.043-8.579c-2.058 2.396-1.074 5.238-.83 6.372-.142-1.217-.097-2.85.58-3.551-.089.425-.118 2.602.536 3.984-.368-1.159-.482-4.19.527-6.397-.535.268-1.034 1.44-1.32 2.058 0-1.163.503-2.47.503-2.47l.004.004zm.298-1.51c-.261.375-.56.854-.878 1.41.972-.59 1.356-1.195 1.821-1.653l-1.127.845.184-.598v-.004zm.306-.635c-.334.672-1.662 1.505-2.85 1.22 0 0 .543.021 1.58-.445 1.038-.466 1.27-.775 1.27-.775z" fill="#fff"/><path fill-rule="evenodd" clip-rule="evenodd" d="M28.28 17.01s-.009.008-.009.012c0-.008.005-.012.009-.02.004-.079-.037-1.147 1.008-2.158-.196.33-.24.743-.35.957.395-.515.898-.763 2.012-1.175 0 0-1.898 1.023-2.65 2.35l-.024.042v-.008h.004z" fill="#fff"/><path d="M31.767 15.067s-1.384 1.39-2.683 2.112c.16-.656 1.217-1.836 1.217-1.836s-.416.701-.453.957c.76-.285 1.923-1.233 1.923-1.233h-.004zm.327-5.297a.107.107 0 00.106-.106.107.107 0 00-.106-.108.107.107 0 00-.106.108c0 .059.047.107.106.107zm0 .529a.086.086 0 00.085-.087.086.086 0 00-.085-.086.086.086 0 00-.086.086c0 .048.038.087.086.087zm-15.939-.516a.107.107 0 00.106-.107.107.107 0 00-.106-.107.107.107 0 00-.106.107c0 .06.047.107.106.107zm0 .528a.086.086 0 00.086-.086.086.086 0 00-.086-.087.086.086 0 00-.086.087c0 .048.039.086.086.086zm7.972-4.978a.16.16 0 00.159-.161.16.16 0 00-.16-.16.16.16 0 00-.159.16c0 .089.072.16.16.16zm0 .787a.13.13 0 00.13-.131.131.131 0 00-.13-.132.131.131 0 00-.131.132.13.13 0 00.13.132zm49.082 15.109v8.084h-1.83v-4.702l-2.07 3.432h-.204l-2.07-3.432v4.702h-1.83V21.23h1.83l2.172 3.593 2.172-3.593h1.83zm6.06 8.084v-4.388l-3.087 4.388H74.81V21.23h1.83v4.389l3.086-4.389H81.1v8.084h-1.83zm7.775-8.084h1.83v8.084h-1.83v-3.209H84.53v3.21H82.7v-8.085h1.83v3.093h2.515V21.23zm7.89 8.084v-4.388l-3.087 4.388h-1.372V21.23h1.83v4.389l3.086-4.389h1.372v8.084h-1.829zm7.249.161c-1.197 0-2.19-.404-2.978-1.209-.788-.804-1.184-1.802-1.184-2.998 0-1.196.396-2.194 1.184-2.999.789-.804 1.781-1.208 2.978-1.208.714 0 1.38.169 1.988.503a3.789 3.789 0 011.442 1.37l-1.576.923a1.813 1.813 0 00-.756-.734 2.312 2.312 0 00-1.098-.26c-.711 0-1.275.219-1.699.66-.425.442-.633 1.019-.633 1.745 0 .726.212 1.303.633 1.745.424.437.988.66 1.699.66.404 0 .771-.087 1.102-.264.331-.178.58-.421.747-.726l1.577.924a3.7 3.7 0 01-1.43 1.369 4.096 4.096 0 01-2.001.503l.005-.004zm9.891-8.245v1.778h-2.059v6.306h-1.829v-6.306h-2.058v-1.778h5.946zm2.858 6.306h3.202v1.778h-5.031V21.23h4.974v1.778h-3.145v1.34h2.859v1.757h-2.859v1.431zm7.489-6.306c.785 0 1.45.268 1.989.808.543.54.813 1.192.813 1.964a2.66 2.66 0 01-.813 1.963c-.543.54-1.204.808-1.989.808h-1.2v2.541h-1.83V21.23h3.03zm0 3.811a.903.903 0 00.699-.301 1.05 1.05 0 00.273-.738c0-.293-.089-.54-.273-.739a.903.903 0 00-.699-.3h-1.2v2.078h1.2zm7.707 4.434c-1.197 0-2.189-.404-2.977-1.209-.789-.804-1.185-1.802-1.185-2.998 0-1.196.396-2.194 1.185-2.999.788-.804 1.78-1.208 2.977-1.208.714 0 1.38.169 1.988.503a3.789 3.789 0 011.442 1.37l-1.576.923a1.813 1.813 0 00-.756-.734 2.312 2.312 0 00-1.098-.26c-.711 0-1.275.219-1.699.66-.425.442-.633 1.019-.633 1.745 0 .726.212 1.303.633 1.745.424.437.988.66 1.699.66.404 0 .771-.087 1.102-.264.331-.178.58-.421.748-.726l1.576.924a3.703 3.703 0 01-1.429 1.369 4.102 4.102 0 01-2.001.503l.004-.004zm9.89-8.245v1.778h-2.058v6.306h-1.83v-6.306h-2.058v-1.778h5.946zm5.991 3.889c.658.425.984 1.032.984 1.824 0 .7-.249 1.27-.743 1.707-.494.437-1.111.66-1.842.66h-3.361v-8.084h3.133c.714 0 1.315.214 1.8.64.486.424.727.98.727 1.67 0 .647-.232 1.175-.698 1.583zm-1.829-2.16h-1.303v1.43h1.303a.658.658 0 00.502-.202.709.709 0 00.196-.515.71.71 0 00-.196-.516.664.664 0 00-.502-.202v.004zm.228 4.619c.229 0 .413-.07.547-.215a.788.788 0 00.205-.56.79.79 0 00-.205-.562c-.138-.144-.318-.214-.547-.214h-1.531v1.547h1.531v.004zm10.5.684c-.809.809-1.793 1.213-2.949 1.213s-2.144-.404-2.948-1.213c-.805-.808-1.213-1.806-1.213-2.99 0-1.184.404-2.182 1.213-2.99.808-.809 1.792-1.213 2.948-1.213s2.144.404 2.949 1.213c.808.808 1.212 1.806 1.212 2.99 0 1.184-.404 2.182-1.212 2.99zm-4.615-1.258c.445.446 1.001.669 1.662.669.662 0 1.217-.223 1.662-.669.445-.445.67-1.023.67-1.732 0-.71-.225-1.287-.67-1.732-.445-.446-1-.668-1.662-.668-.661 0-1.217.222-1.662.668-.445.445-.67 1.023-.67 1.732 0 .71.225 1.287.67 1.732zm13.991 2.471c-1.197 0-2.189-.404-2.977-1.209-.789-.804-1.185-1.802-1.185-2.998 0-1.196.396-2.194 1.185-2.999.788-.804 1.78-1.208 2.977-1.208.714 0 1.38.169 1.988.503a3.789 3.789 0 011.442 1.37l-1.576.923a1.813 1.813 0 00-.756-.734 2.312 2.312 0 00-1.098-.26c-.711 0-1.274.219-1.699.66-.425.442-.633 1.019-.633 1.745 0 .726.212 1.303.633 1.745.425.437.988.66 1.699.66.404 0 .771-.087 1.102-.264.331-.178.58-.421.748-.726l1.576.924a3.703 3.703 0 01-1.429 1.369 4.102 4.102 0 01-2.001.503l.004-.004zm10.577-8.245v8.084h-1.83v-6.306h-2.401v6.306h-1.83V21.23h6.061zm8.367 7.032c-.809.809-1.793 1.213-2.949 1.213-1.155 0-2.143-.404-2.948-1.213-.804-.808-1.213-1.806-1.213-2.99 0-1.184.404-2.182 1.213-2.99.809-.809 1.793-1.213 2.948-1.213 1.156 0 2.144.404 2.949 1.213.808.808 1.213 1.806 1.213 2.99 0 1.184-.405 2.182-1.213 2.99zm-4.615-1.258c.445.446 1.001.669 1.662.669.662 0 1.217-.223 1.662-.669.446-.445.67-1.023.67-1.732 0-.71-.224-1.287-.67-1.732-.445-.446-1-.668-1.662-.668-.661 0-1.217.222-1.662.668-.445.445-.669 1.023-.669 1.732 0 .71.224 1.287.669 1.732zm10.116-5.774c.784 0 1.45.268 1.989.808a2.66 2.66 0 01.812 1.964 2.66 2.66 0 01-.812 1.963c-.544.54-1.205.808-1.989.808h-1.201v2.541h-1.829V21.23h3.03zm0 3.811a.9.9 0 00.698-.301 1.05 1.05 0 00.274-.738c0-.293-.09-.54-.274-.739a.9.9 0 00-.698-.3h-1.201v2.078h1.201zm9.205-3.811v1.778h-2.059v6.306h-1.829v-6.306h-2.058v-1.778h5.946zm5.545 8.084l-.4-1.27h-2.973l-.4 1.27h-2.001l2.72-8.084h2.331l2.72 8.084h-2.001.004zm-2.826-3.003h1.875l-.94-2.97-.939 2.97h.004zM68.235 35.087c.784 0 1.45.269 1.989.809a2.66 2.66 0 01.812 1.963 2.66 2.66 0 01-.813 1.963c-.543.54-1.204.809-1.988.809h-1.2v2.54h-1.83v-8.084h3.03zm0 3.812a.9.9 0 00.698-.302c.184-.202.274-.445.274-.738s-.09-.54-.274-.738a.9.9 0 00-.698-.301h-1.2v2.079h1.2zm10.658 3.221c-.808.808-1.793 1.213-2.948 1.213-1.156 0-2.144-.405-2.949-1.213-.804-.808-1.213-1.807-1.213-2.99 0-1.184.405-2.182 1.213-2.99.809-.81 1.793-1.213 2.949-1.213 1.155 0 2.144.404 2.948 1.212.809.809 1.213 1.807 1.213 2.99 0 1.184-.404 2.183-1.213 2.99zm-4.614-1.258c.445.445 1 .668 1.662.668.661 0 1.217-.223 1.662-.668.445-.446.67-1.023.67-1.732 0-.71-.225-1.287-.67-1.733-.445-.445-1-.668-1.662-.668-.662 0-1.217.223-1.662.668-.445.446-.67 1.023-.67 1.733 0 .709.225 1.286.67 1.732zm10.903 2.471c-1.197 0-2.189-.4-2.977-1.209-.788-.804-1.184-1.802-1.184-2.998 0-1.197.396-2.195 1.184-3 .788-.803 1.78-1.208 2.977-1.208.715 0 1.38.17 1.989.504.608.334 1.09.792 1.441 1.369l-1.576.924a1.81 1.81 0 00-.755-.734 2.313 2.313 0 00-1.099-.26c-.71 0-1.274.218-1.699.66-.425.437-.633 1.019-.633 1.745 0 .725.213 1.303.633 1.744.425.437.989.66 1.7.66.403 0 .77-.087 1.102-.264.33-.177.58-.42.747-.726l1.576.924a3.701 3.701 0 01-1.429 1.37 4.098 4.098 0 01-2.001.503l.004-.005zm8.221 0c-1.197 0-2.19-.4-2.977-1.209-.788-.804-1.184-1.802-1.184-2.998 0-1.197.396-2.195 1.184-3 .788-.803 1.78-1.208 2.977-1.208.714 0 1.38.17 1.988.504.609.334 1.09.792 1.442 1.369l-1.576.924a1.81 1.81 0 00-.756-.734 2.312 2.312 0 00-1.098-.26c-.71 0-1.274.218-1.7.66-.424.437-.632 1.019-.632 1.745 0 .725.212 1.303.633 1.744.425.437.988.66 1.699.66.404 0 .772-.087 1.102-.264.331-.177.58-.42.748-.726l1.576.924a3.701 3.701 0 01-1.43 1.37 4.098 4.098 0 01-2 .503l.004-.005zm8.976-.161v-4.389l-3.088 4.389H97.92v-8.084h1.83v4.388l3.087-4.389h1.372v8.085h-1.829zm7.889 0v-4.389l-3.087 4.389h-1.372v-8.084h1.83v4.388l3.087-4.389h1.372v8.085h-1.83zm-3.03-8.765v-1.501h3.431v1.5h-3.431zm10.279 8.926c-1.197 0-2.189-.4-2.977-1.209-.788-.804-1.184-1.802-1.184-2.998 0-1.197.396-2.195 1.184-3 .788-.803 1.78-1.208 2.977-1.208.715 0 1.38.17 1.989.504.608.334 1.09.792 1.441 1.369l-1.576.924a1.816 1.816 0 00-.755-.734 2.316 2.316 0 00-1.099-.26c-.711 0-1.274.218-1.699.66-.425.437-.633 1.019-.633 1.745 0 .725.213 1.303.633 1.744.425.437.988.66 1.699.66.404 0 .772-.087 1.103-.264a1.8 1.8 0 00.747-.726l1.576.924a3.704 3.704 0 01-1.429 1.37 4.1 4.1 0 01-2.001.503l.004-.005zm10.989-.161h-2.082l-2.561-3.741v3.74h-1.829v-8.084h1.829v3.51l2.446-3.51h2.083l-2.699 3.94 2.813 4.145z" fill="#fff"/><path d="M135.502 42.12c-.809.808-1.793 1.213-2.949 1.213s-2.144-.405-2.948-1.213c-.805-.808-1.213-1.807-1.213-2.99 0-1.184.404-2.182 1.213-2.99.808-.81 1.792-1.213 2.948-1.213s2.144.404 2.949 1.212c.808.809 1.212 1.807 1.212 2.99 0 1.184-.404 2.183-1.212 2.99zm-4.615-1.258c.445.445 1.001.668 1.662.668.662 0 1.217-.223 1.662-.668.445-.446.67-1.023.67-1.732 0-.71-.225-1.287-.67-1.733-.445-.445-1-.668-1.662-.668-.661 0-1.217.223-1.662.668-.445.446-.67 1.023-.67 1.733 0 .709.225 1.286.67 1.732zm11.545 2.31v-4.389l-3.087 4.389h-1.373v-8.084h1.83v4.388l3.087-4.389h1.372v8.085h-1.829zm-3.03-8.765v-1.501h3.43v1.5h-3.43zm17.082 2.475c.649.59.972 1.336.972 2.248 0 .911-.323 1.658-.972 2.247-.649.59-1.519.95-2.618 1.081v.949h-1.784v-.949c-1.099-.132-1.973-.49-2.618-1.08-.649-.59-.972-1.337-.972-2.248 0-.912.323-1.659.972-2.248.649-.59 1.519-.949 2.618-1.08v-.95h1.784v.95c1.099.131 1.973.49 2.618 1.08zm-6.162 2.248c0 .923.588 1.468 1.76 1.629V37.5c-1.172.161-1.76.706-1.76 1.63zm3.544 1.629c1.176-.161 1.76-.706 1.76-1.63 0-.923-.588-1.468-1.76-1.629v3.259zm6.563.635h3.201v1.778h-5.031v-8.084h4.974v1.777h-3.144v1.34h2.858v1.758h-2.858v1.431zm10.748 0h.858v3.324h-1.83v-1.546h-4.002v1.546h-1.829v-3.324h.812c.421-.606.629-1.501.629-2.681v-3.626h5.362v6.307zm-4.047 0h2.217V36.82h-1.702v1.918c0 1.146-.172 2.033-.515 2.656zm7.935 0h3.201v1.778h-5.031v-8.084h4.974v1.777h-3.144v1.34h2.858v1.758h-2.858v1.431zm7.489-6.307c.784 0 1.45.269 1.989.809a2.66 2.66 0 01.813 1.963 2.66 2.66 0 01-.813 1.963c-.543.54-1.205.809-1.989.809h-1.2v2.54h-1.83v-8.084h3.03zm0 3.812a.903.903 0 00.699-.302c.183-.202.273-.445.273-.738s-.09-.54-.273-.738a.903.903 0 00-.699-.301h-1.2v2.079h1.2zm8.233 4.273l-.4-1.27h-2.973l-.4 1.27h-2.001l2.719-8.084h2.332l2.72 8.084h-2.001.004zm-2.826-3.003h1.875l-.94-2.97-.939 2.97h.004zm11.802 1.225h.858v3.324h-1.83v-1.546h-5.088v-8.084h1.829v6.306h2.402v-6.306h1.829v6.306zm6.518 1.778v-4.389l-3.088 4.389h-1.372v-8.084h1.83v4.388l3.087-4.389h1.372v8.085h-1.829zm7.889 0v-4.389l-3.087 4.389h-1.372v-8.084h1.829v4.388l3.088-4.389H216v8.085h-1.83z" fill="#fff"/></g><defs><clipPath id="clip0_69_1610"><path fill="#fff" transform="translate(0 .63)" d="M0 0h216v60H0z"/></clipPath></defs></svg>