<?xml version="1.0" encoding="utf-8"?><svg viewBox="0 0 280 205" xmlns="http://www.w3.org/2000/svg" xmlns:xlink="http://www.w3.org/1999/xlink"><style>:root>svg{display:none}:root>svg:target{display:block}</style><svg fill="none" viewBox="0 0 60 61" id="icon-arrow-next" xmlns="http://www.w3.org/2000/svg"><path d="M60 30.244c0 16.56-13.47 30-30 30l-.84-.012C12.989 59.787 0 46.523 0 30.244c0-16.53 13.44-30 30-30 16.53 0 30 13.47 30 30zm-21.63 0c0-.6-.24-1.17-.66-1.59l-10.47-10.41a2.11 2.11 0 00-1.56-.66c-.6 0-1.17.21-1.62.66-.87.9-.87 2.31.03 3.18l8.85 8.82-8.85 8.82c-.9.87-.9 2.31-.03 3.18.9.9 2.31.9 3.18 0l10.47-10.41c.42-.42.66-.99.66-1.59z" fill="currentColor"/></svg><svg fill="none" viewBox="0 0 60 61" id="icon-arrow-prev" xmlns="http://www.w3.org/2000/svg"><path d="M0 30.244c0-16.56 13.47-30 30-30l.84.011C47.011.7 60 13.965 60 30.244c0 16.53-13.44 30-30 30-16.53 0-30-13.47-30-30zm21.63 0c0 .6.24 1.17.66 1.59l10.47 10.41c.42.45.99.66 1.56.66.6 0 1.17-.21 1.62-.66.87-.9.87-2.31-.03-3.18l-8.85-8.82 8.85-8.82c.9-.87.9-2.31.03-3.18-.9-.9-2.31-.9-3.18 0l-10.47 10.41c-.42.42-.66.99-.66 1.59z" fill="currentColor"/></svg><svg fill="none" viewBox="0 0 24 24" id="icon-broadcasts" xmlns="http://www.w3.org/2000/svg"><path fill-rule="evenodd" clip-rule="evenodd" d="M6.06 4.363a1.2 1.2 0 010 1.697 8.4 8.4 0 000 11.88 1.2 1.2 0 11-1.697 1.697 10.8 10.8 0 010-15.274 1.2 1.2 0 011.696 0zm11.88 0a1.2 1.2 0 011.696 0 10.8 10.8 0 010 15.274 1.2 1.2 0 11-1.697-1.697 8.401 8.401 0 000-11.88 1.2 1.2 0 010-1.697zM9.453 7.757a1.2 1.2 0 010 1.696 3.6 3.6 0 000 5.092 1.2 1.2 0 11-1.698 1.697 6 6 0 010-8.484 1.2 1.2 0 011.698-.001zm5.09 0a1.2 1.2 0 011.698 0 6.002 6.002 0 010 8.487 1.201 1.201 0 01-1.698-1.698 3.6 3.6 0 000-5.09 1.2 1.2 0 010-1.698zM12 10.8a1.2 1.2 0 011.2 1.2v.012a1.2 1.2 0 01-2.4 0V12a1.2 1.2 0 011.2-1.2z" fill="currentColor"/></svg><svg fill="none" viewBox="0 0 40 40" id="icon-calendar" xmlns="http://www.w3.org/2000/svg"><path d="M3.333 20c0-6.285 0-9.428 1.954-11.38 1.953-1.952 5.095-1.953 11.38-1.953h6.666c6.285 0 9.429 0 11.38 1.953 1.952 1.953 1.954 5.095 1.954 11.38v3.333c0 6.285 0 9.429-1.954 11.38-1.953 1.952-5.095 1.954-11.38 1.954h-6.666c-6.285 0-9.429 0-11.38-1.954-1.952-1.953-1.954-5.095-1.954-11.38V20z" stroke="currentColor" stroke-width="3"/><path d="M11.666 6.667v-2.5m16.667 2.5v-2.5M4.167 15h31.666" stroke="currentColor" stroke-width="3" stroke-linecap="round"/><path d="M30 28.333a1.666 1.666 0 11-3.333 0 1.666 1.666 0 013.333 0zm0-6.666a1.667 1.667 0 11-3.333 0 1.667 1.667 0 013.333 0zm-8.333 6.666a1.666 1.666 0 11-3.333 0 1.666 1.666 0 013.333 0zm0-6.666a1.667 1.667 0 11-3.334 0 1.667 1.667 0 013.334 0zm-8.334 6.666a1.667 1.667 0 11-3.333 0 1.667 1.667 0 013.333 0zm0-6.666a1.667 1.667 0 11-3.334 0 1.667 1.667 0 013.334 0z" fill="currentColor"/></svg><svg fill="none" viewBox="0 0 24 13" id="icon-caret" xmlns="http://www.w3.org/2000/svg"><path fill-rule="evenodd" clip-rule="evenodd" d="M11.29 10.657L5.631 5l1.414-1.414 4.95 4.95 4.95-4.95L18.36 5l-5.657 5.657a1 1 0 01-1.414 0z" fill="currentColor"/></svg><svg fill="none" viewBox="0 0 14 8" id="icon-caret-bold" xmlns="http://www.w3.org/2000/svg"><path fill-rule="evenodd" clip-rule="evenodd" d="M6.297 7.121L.64 1.464 2.054.05 7.004 5l4.95-4.95 1.414 1.414-5.657 5.657a1 1 0 01-1.414 0z" fill="currentColor"/></svg><svg fill="none" viewBox="0 0 14 10" id="icon-check" xmlns="http://www.w3.org/2000/svg"><path d="M4.896 10L0 5.26l1.224-1.185L4.896 7.63 12.776 0 14 1.185 4.896 10z" fill="#2198D5"/></svg><svg fill="none" viewBox="0 0 24 30" id="icon-close" xmlns="http://www.w3.org/2000/svg"><path d="M5.5 21.563L18.625 8.438m0 13.124L5.5 8.438" stroke="currentColor" stroke-width="2" stroke-linecap="round" stroke-linejoin="round"/></svg><svg fill="none" viewBox="0 0 60 61" id="icon-close-thin" xmlns="http://www.w3.org/2000/svg"><path d="M16.875 43.625l26.25-26.25m0 26.25l-26.25-26.25" stroke="currentColor" stroke-width="3" stroke-linecap="round" stroke-linejoin="round"/></svg><svg fill="none" viewBox="0 0 24 24" id="icon-filter" xmlns="http://www.w3.org/2000/svg"><path d="M9 5a1 1 0 100 2 1 1 0 000-2zM6.17 5a3.001 3.001 0 015.66 0H19a1 1 0 110 2h-7.17a3 3 0 01-5.66 0H5a1 1 0 110-2h1.17zM15 11a1 1 0 100 2 1 1 0 000-2zm-2.83 0a3.001 3.001 0 015.66 0H19a1 1 0 010 2h-1.17a3 3 0 01-5.66 0H5a1 1 0 010-2h7.17zM9 17a1 1 0 100 2 1 1 0 000-2zm-2.83 0a3 3 0 015.66 0H19a1 1 0 010 2h-7.17a3 3 0 01-5.66 0H5a1 1 0 010-2h1.17z" fill="currentColor"/></svg><svg fill="none" viewBox="0 0 24 24" id="icon-image-plug" xmlns="http://www.w3.org/2000/svg"><path d="M3 11c0-3.771 0-5.657 1.172-6.828C5.344 3.001 7.229 3 11 3h2c3.771 0 5.657 0 6.828 1.172C20.999 5.344 21 7.229 21 11v2c0 3.771 0 5.657-1.172 6.828C18.656 20.999 16.771 21 13 21h-2c-3.771 0-5.657 0-6.828-1.172C3.001 18.656 3 16.771 3 13v-2z" stroke="#fff" stroke-width="2"/><path fill-rule="evenodd" clip-rule="evenodd" d="M19 13.585l-.02-.02c-.39-.39-.726-.726-1.026-.98-.317-.266-.662-.501-1.088-.63a3 3 0 00-1.732 0c-.426.13-.77.364-1.088.63-.3.254-.636.59-1.025.98l-.029.029c-.307.306-.487.486-.628.6l-.02.018-.012-.023c-.087-.16-.189-.393-.36-.792l-.053-.124-.022-.052c-.356-.83-.655-1.528-.95-2.054-.305-.541-.685-1.05-1.277-1.346a3 3 0 00-1.597-.307c-.66.055-1.201.386-1.685.775-.406.327-.86.77-1.388 1.297V13c0 .516.001.986.003 1.41l1.114-1.113c.69-.69 1.15-1.147 1.525-1.45.37-.298.53-.335.6-.34a1 1 0 01.532.102c.061.03.196.124.43.54.236.42.493 1.016.877 1.912l.053.124.017.038c.149.348.287.67.425.924.145.265.355.583.709.802a2 2 0 001.398.27c.41-.073.723-.29.956-.482.222-.184.47-.432.738-.7l.03-.03c.425-.425.701-.7.928-.891.218-.184.32-.228.376-.245a1 1 0 01.578 0c.056.017.158.06.376.245.227.19.503.466.929.892l1.35 1.35c.046-.718.054-1.61.056-2.773z" fill="#fff"/><path d="M16.5 9a1.5 1.5 0 100-3 1.5 1.5 0 000 3z" fill="#fff"/></svg><svg fill="none" viewBox="0 0 24 24" id="icon-location" xmlns="http://www.w3.org/2000/svg"><path d="M12 14c2.206 0 4-1.794 4-4s-1.794-4-4-4-4 1.794-4 4 1.794 4 4 4zm0-6c1.103 0 2 .897 2 2s-.897 2-2 2-2-.897-2-2 .897-2 2-2z" fill="currentColor"/><path d="M11.42 21.814a1 1 0 001.16 0C12.884 21.599 20.03 16.44 20 10c0-4.411-3.589-8-8-8-4.41 0-8 3.589-8 7.995-.029 6.445 7.116 11.604 7.42 11.819zM12 4c3.31 0 6 2.691 6 6.005.021 4.438-4.388 8.423-6 9.73-1.61-1.308-6.02-5.294-6-9.735 0-3.309 2.691-6 6-6z" fill="currentColor"/></svg><svg fill="none" viewBox="0 0 41 41" id="icon-museum" xmlns="http://www.w3.org/2000/svg"><path d="M34.25 31.114H6.75c-.92 0-1.667.746-1.667 1.666v1.667c0 .92.747 1.667 1.667 1.667h27.5c.92 0 1.667-.746 1.667-1.667V32.78c0-.92-.746-1.666-1.667-1.666zM9.25 16.944v14.183m22.5-14.183v14.183m-7.083-14.183v14.183m-8.334-14.183v14.183M18.9 5.737L5.95 12.821a1.667 1.667 0 00-.867 1.461v1.662a1 1 0 001 1h28.834a1 1 0 001-1v-1.662a1.666 1.666 0 00-.867-1.461L22.1 5.737a3.334 3.334 0 00-3.2 0z" stroke="currentColor" stroke-width="3" stroke-linecap="round" stroke-linejoin="round"/></svg><svg fill="none" viewBox="0 0 40 40" id="icon-news" xmlns="http://www.w3.org/2000/svg"><path d="M3.333 10v21.667A3.333 3.333 0 006.668 35m0 0A3.333 3.333 0 0010 31.667V8.333A3.333 3.333 0 0113.334 5h20a3.333 3.333 0 013.333 3.333V30a5 5 0 01-5 5h-25zm11.666-21.667h10m-10 6.667h10m-10 6.667h10" stroke="currentColor" stroke-width="3" stroke-linecap="round" stroke-linejoin="round"/></svg><svg fill="none" viewBox="0 0 40 40" id="icon-play" xmlns="http://www.w3.org/2000/svg"><path fill-rule="evenodd" clip-rule="evenodd" d="M20 0c11.028 0 20 8.972 20 20s-8.972 20-20 20S0 31.028 0 20 8.972 0 20 0zm0 2.927C10.585 2.927 2.927 10.585 2.927 20S10.585 37.073 20 37.073 37.073 29.415 37.073 20 29.415 2.927 20 2.927zm-.818 10.266c1.015.423 8.135 4.07 8.135 6.798 0 2.556-6.408 6.13-8.045 6.814-.638.265-1.366.515-2.047.515-.527 0-1.026-.15-1.434-.556-.314-.31-1.153-1.14-1.157-6.601-.002-5.8.87-6.662 1.157-6.949 1.02-1.01 2.683-.318 3.391-.021zm-1.36 2.585c-.345 1.954-.351 6.619-.006 8.472 1.713-.604 5.425-3.043 6.424-4.251-.995-1.173-4.66-3.561-6.418-4.22z" fill="currentColor"/></svg><svg fill="none" viewBox="0 0 100 100" id="icon-play-filled" xmlns="http://www.w3.org/2000/svg"><g clip-path="url(#pclip0_69_555)"><rect width="100" height="100" rx="50" fill="currentColor"/><path d="M71.311 53.612L39.498 72.753c-2.7 1.623-6.165-.342-6.165-3.613V30.858c0-3.267 3.46-5.237 6.165-3.609L71.31 46.39c.614.364 1.125.89 1.48 1.523.355.635.542 1.355.542 2.088 0 .733-.187 1.454-.542 2.088a4.086 4.086 0 01-1.48 1.523z" fill="#fff"/></g><defs><clipPath id="pclip0_69_555"><rect width="100" height="100" rx="50" fill="#fff"/></clipPath></defs></svg><svg fill="none" viewBox="0 0 280 205" id="icon-quote" xmlns="http://www.w3.org/2000/svg"><path d="M112.262 0v205H0v-71.587L63.452 0h48.81zm167.579 0v205H167.579v-71.587L231.032 0h48.809z" fill="#F2FAFF"/></svg><svg fill="none" viewBox="0 0 20 22" id="icon-share" xmlns="http://www.w3.org/2000/svg"><path d="M20 3.5a3.5 3.5 0 01-5.909 2.54l-7.186 4.148a3.5 3.5 0 010 1.624l7.186 4.149a3.5 3.5 0 11-.998 1.733l-7.189-4.15a3.5 3.5 0 110-5.087l7.19-4.151A3.5 3.5 0 1120 3.5z" fill="currentColor"/></svg><svg fill="none" viewBox="0 0 60 60" id="icon-square-tg" xmlns="http://www.w3.org/2000/svg"><rect width="60" height="60" rx="12" fill="currentColor"/><path d="M42 18.903l-4.508 23.535s-.63 1.632-2.364.85l-10.401-8.26-.048-.023c1.405-1.307 12.3-11.451 12.776-11.91.737-.713.28-1.137-.577-.599L20.785 33.08l-6.209-2.164s-.977-.36-1.07-1.142c-.096-.784 1.103-1.208 1.103-1.208l25.31-10.283s2.081-.946 2.081.62z" fill="#fff"/></svg><svg fill="none" viewBox="0 0 60 60" id="icon-square-vk" xmlns="http://www.w3.org/2000/svg"><rect width="60" height="60" rx="12" fill="currentColor"/><path d="M31.474 40.5c-11.275 0-17.706-7.883-17.974-21h5.648c.185 9.628 4.349 13.706 7.647 14.547V19.5h5.318v8.303c3.257-.357 6.678-4.14 7.832-8.303h5.318a16.183 16.183 0 01-2.547 6.004 15.835 15.835 0 01-4.688 4.464 16.342 16.342 0 015.344 4.34A16.729 16.729 0 0146.5 40.5h-5.854a10.411 10.411 0 00-3.156-5.066 10.09 10.09 0 00-5.377-2.438V40.5h-.64z" fill="#fff"/></svg><svg fill="none" viewBox="0 0 22 18" id="icon-tg" xmlns="http://www.w3.org/2000/svg"><path d="M19 1.104l-3.005 15.69s-.42 1.088-1.576.566l-6.934-5.506-.033-.016c.937-.871 8.2-7.634 8.518-7.94.491-.475.186-.758-.384-.4l-10.73 7.056L.719 9.112s-.652-.24-.714-.761c-.064-.523.735-.806.735-.806L17.613.69S19 .06 19 1.104z" fill="currentColor"/></svg><svg fill="none" viewBox="0 0 24 24" id="icon-time" xmlns="http://www.w3.org/2000/svg"><path d="M3 12a9 9 0 1018.001 0A9 9 0 003 12z" stroke="currentColor" stroke-width="2" stroke-linecap="round" stroke-linejoin="round"/><path d="M12 7v5l3 3" stroke="currentColor" stroke-width="2" stroke-linecap="round" stroke-linejoin="round"/></svg><svg fill="none" viewBox="0 0 22 19" id="icon-triangle" xmlns="http://www.w3.org/2000/svg"><path d="M9.268 1c.77-1.333 2.694-1.333 3.464 0l8.66 15c.77 1.333-.192 3-1.732 3H2.34C.8 19-.162 17.333.608 16l8.66-15z" fill="#fff"/></svg><svg fill="none" viewBox="0 0 22 18" id="icon-vk" xmlns="http://www.w3.org/2000/svg"><path d="M11.982 16.001C4.466 16.001.18 10.746 0 2.001h3.765c.124 6.418 2.9 9.137 5.098 9.698V2h3.546v5.536C14.579 7.298 16.86 4.776 17.63 2h3.546a10.79 10.79 0 01-1.698 4.002 10.556 10.556 0 01-3.126 2.977 10.895 10.895 0 013.563 2.893A11.153 11.153 0 0122 16h-3.903a6.94 6.94 0 00-2.104-3.377 6.726 6.726 0 00-3.585-1.626v5.003h-.425z" fill="currentColor"/></svg></svg>